<svg width="24" height="25" viewBox="0 0 24 25" fill="none" xmlns="http://www.w3.org/2000/svg">
<g id="basil:whatsapp-outline">
<path id="Vector" d="M8.88573 7.66906C9.06873 7.67406 9.27173 7.68406 9.46473 8.11206C9.59273 8.39706 9.80773 8.92206 9.98373 9.35006C10.1207 9.68306 10.2327 9.95706 10.2607 10.0131C10.3247 10.1411 10.3647 10.2881 10.2807 10.4611L10.2527 10.5191C10.1954 10.6534 10.1178 10.7782 10.0227 10.8891C9.9744 10.9452 9.92673 11.0018 9.87973 11.0591C9.79473 11.1631 9.70973 11.2651 9.63773 11.3371C9.50873 11.4651 9.37573 11.6031 9.52373 11.8591C9.67273 12.1151 10.1917 12.9571 10.9587 13.6361C11.5201 14.1415 12.1637 14.5473 12.8617 14.8361C12.9317 14.8661 12.9887 14.8911 13.0317 14.9121C13.2887 15.0401 13.4417 15.0201 13.5897 14.8481C13.7387 14.6751 14.2327 14.0991 14.4067 13.8431C14.5747 13.5871 14.7467 13.6271 14.9847 13.7151C15.2227 13.8041 16.4887 14.4251 16.7457 14.5521L16.8887 14.6221C17.0677 14.7071 17.1887 14.7661 17.2407 14.8521C17.3047 14.9611 17.3047 15.4721 17.0927 16.0741C16.8747 16.6741 15.8257 17.2501 15.3507 17.2941L15.2157 17.3101C14.7797 17.3621 14.2277 17.4301 12.2597 16.6551C9.83373 15.7011 8.23273 13.3351 7.90973 12.8561C7.89249 12.8304 7.87482 12.8051 7.85673 12.7801L7.85073 12.7721C7.70373 12.5751 6.80273 11.3701 6.80273 10.1261C6.80273 8.93606 7.38973 8.31606 7.65673 8.03406L7.70373 7.98406C7.79016 7.88643 7.89575 7.80764 8.01394 7.75259C8.13213 7.69754 8.26039 7.6674 8.39073 7.66406C8.56373 7.66406 8.73773 7.66406 8.88573 7.66906Z" fill="#A67C36"/>
<path id="Vector_2" fill-rule="evenodd" clip-rule="evenodd" d="M2.18398 21.831C2.16514 21.8988 2.16451 21.9704 2.18217 22.0385C2.19982 22.1066 2.23512 22.1689 2.28452 22.219C2.33392 22.2691 2.39566 22.3053 2.46351 22.3239C2.53137 22.3425 2.60293 22.3429 2.67098 22.3251L7.27798 21.121C8.73967 21.9128 10.3757 22.3276 12.038 22.328H12.042C17.528 22.328 22 17.882 22 12.416C22.0035 11.1126 21.7476 9.82144 21.2473 8.61779C20.7471 7.41414 20.0124 6.32204 19.086 5.40505C18.1614 4.48033 17.063 3.7476 15.8541 3.24904C14.6452 2.75048 13.3496 2.49594 12.042 2.50005C6.55598 2.50005 2.08398 6.94605 2.08398 12.411C2.08398 14.15 2.54198 15.858 3.41398 17.365L2.18398 21.831ZM4.86098 17.763C4.91386 17.5711 4.928 17.3706 4.90259 17.1732C4.87718 16.9757 4.81273 16.7853 4.71298 16.613C3.97312 15.3363 3.58365 13.8867 3.58398 12.411C3.58398 7.78105 7.37698 4.00005 12.042 4.00005C14.312 4.00005 16.43 4.87705 18.028 6.46805C18.8143 7.24569 19.4379 8.17215 19.8623 9.19338C20.2867 10.2146 20.5035 11.3101 20.5 12.416C20.5 17.046 16.707 20.828 12.042 20.828H12.037C10.6247 20.8273 9.23481 20.4747 7.99298 19.802C7.65827 19.6208 7.26719 19.5737 6.89898 19.67L4.13698 20.3911L4.86098 17.763Z" fill="#A67C36"/>
</g>
</svg>
