<svg width="24" height="25" viewBox="0 0 24 25" fill="none" xmlns="http://www.w3.org/2000/svg">
<g id="streamline:tiktok">
<path id="Vector" d="M14.4384 17.1585V2.45679M14.4384 17.1654C14.4384 18.1462 14.1475 19.1051 13.6026 19.9207C13.0576 20.7362 12.2831 21.3719 11.3769 21.7473C10.4706 22.1226 9.47346 22.2209 8.51143 22.0295C7.54939 21.8381 6.66571 21.3658 5.97212 20.6722C5.27853 19.9786 4.80619 19.0949 4.61483 18.1329C4.42347 17.1709 4.52168 16.1737 4.89705 15.2675C5.27241 14.3613 5.90808 13.5867 6.72365 13.0418C7.53923 12.4968 8.49808 12.2059 9.47896 12.2059M14.4384 2.45508C14.4379 3.42069 14.6277 4.37694 14.997 5.26918C15.3662 6.16143 15.9076 6.97218 16.5902 7.65514C17.2728 8.33809 18.0833 8.87986 18.9754 9.24949C19.8675 9.61911 20.8236 9.80936 21.7892 9.80936" stroke="#A67C36" stroke-width="1.5" stroke-linecap="round" stroke-linejoin="round"/>
</g>
</svg>
