<svg width="120" height="86" viewBox="0 0 120 86" fill="none" xmlns="http://www.w3.org/2000/svg">
<g id="Xan Saray Logo">
<path id="Vector" fill-rule="evenodd" clip-rule="evenodd" d="M103.208 56.7001C102.944 57.1043 102.873 57.6208 102.995 58.2472C103.108 58.7435 103.287 59.1367 103.534 59.4318C103.782 59.7268 104.058 59.9274 104.36 60.0365C104.662 60.1431 104.952 60.1672 105.23 60.1033C105.565 60.0266 105.838 59.829 106.053 59.5131C106.268 59.1999 106.347 58.7776 106.293 58.2483C106.282 58.1629 106.269 58.0836 106.251 58.0078C106.198 57.7727 106.108 57.5514 105.983 57.3438C105.857 57.1363 105.697 56.9585 105.501 56.8112C105.688 56.6444 105.875 56.5384 106.06 56.4958C106.318 56.4366 106.564 56.4764 106.802 56.6169C107.039 56.7547 107.247 56.9626 107.423 57.2384C107.601 57.5137 107.728 57.8226 107.806 58.1648C107.884 58.507 107.9 58.8607 107.853 59.2261C107.805 59.5919 107.672 59.9329 107.454 60.2524C107.236 60.5692 106.919 60.8371 106.502 61.0511C106.364 61.1131 106.223 61.1619 106.077 61.1955C105.823 61.2538 105.571 61.275 105.321 61.2482C104.519 61.1622 103.697 61.0958 103.121 60.4124C100.774 57.6283 103.304 56.5526 103.208 56.7001ZM38.4223 27.5798C40.8806 40.3696 49.3191 50.6717 60.0368 53.9409C70.7541 50.6717 79.1929 40.3696 81.6512 27.5798C78.6258 25.4471 79.2578 23.0079 79.8697 20.6459C80.5016 18.2056 81.1548 15.6844 78.8497 12.429C68.9082 15.0824 61.5821 11.4552 60.0368 10.5906C59.741 10.7561 59.2327 11.023 58.5355 11.3275L58.0473 10.622L58.0414 10.6145C58.0401 10.6128 58.0388 10.611 58.0375 10.6093L58.0372 10.3639C58.0371 10.3014 58.0359 10.2418 58.033 10.1844C59.1192 9.72243 59.7242 9.35622 59.7456 9.34289L60.0361 9.16259L60.3283 9.34325C60.4063 9.39157 68.2284 14.1285 78.9255 11.1231L79.2884 11.0213L79.5245 11.3338C82.4763 15.2399 81.6516 18.4219 80.9893 20.9788C80.3847 23.313 79.9756 24.8917 82.2435 26.5073C82.9546 25.9178 83.6176 25.3961 84.0844 25.0465C84.342 24.8536 84.5849 24.3934 84.5034 23.7268C84.4049 23.0936 85.4253 22.6045 85.5731 23.5299C85.5969 23.6456 86.0215 22.7446 85.2324 22.4392C84.6754 22.2074 84.317 23.1074 84.2704 23.146C83.721 23.6257 83.0887 21.7586 84.5831 21.3664C85.3718 21.1627 86.1371 21.7663 86.3558 22.5265C86.3955 21.8447 85.922 21.4963 86.4773 21.0441C86.8559 20.7352 87.5001 21.1135 87.2466 22.3216C90.0779 18.9642 86.5006 15.7761 84.8751 17.854C84.0548 18.903 85.9235 20.825 86.2839 18.3846C86.3289 18.0788 86.9105 18.2287 87.109 18.7167C87.6751 20.0001 85.4173 21.6364 84.1719 19.7651C83.1383 18.2749 84.4795 16.5783 85.8466 16.4544C87.5432 16.3002 89.0496 17.5812 89.0489 19.8775C89.0478 21.763 87.6392 23.243 85.9655 24.593C88.4977 23.3517 90.2049 24.0564 90.8755 24.8223C91.6773 25.7381 91.2692 26.7902 90.5815 26.2455C90.0242 25.8043 89.7479 25.2713 88.861 25.0205C88.8209 25.009 88.7939 25.0006 88.7681 24.9925C89.0898 25.1231 90.3398 25.7645 90.1242 27.3195C89.8737 29.4733 87.5925 29.9142 87.0765 28.3542C86.7896 27.471 87.3977 25.9435 87.794 27.4417C88.1567 28.6928 89.0334 28.0339 89.2221 27.1535C89.5835 25.4284 86.7715 24.8411 85.1138 25.5072C84.7372 25.6525 84.3246 25.8891 83.9344 26.146C83.5816 26.4126 83.2375 26.6785 82.911 26.9459L82.9481 26.9696L82.87 27.3991C81.7311 33.6814 79.1649 39.559 75.4481 44.3972C71.3792 49.6943 66.104 53.425 60.1923 55.1876L60.0368 55.2343L59.8812 55.1876C53.9698 53.425 48.6942 49.6943 44.6254 44.3972C40.9085 39.559 38.3423 33.6814 37.2038 27.3991L37.1272 26.9775C36.7893 26.6994 36.4319 26.4231 36.0656 26.146C35.6751 25.8891 35.2628 25.6525 34.8857 25.5072C33.2281 24.8411 30.4165 25.4284 30.7775 27.1535C30.9662 28.0339 31.8425 28.6928 32.2055 27.4417C32.6018 25.9435 33.21 27.471 32.9227 28.3542C32.4072 29.9142 30.1259 29.4733 29.8754 27.3195C29.6598 25.7645 30.9098 25.1231 31.2311 24.9925C31.2061 25.0006 31.1788 25.009 31.1387 25.0205C30.2516 25.2713 29.9758 25.8043 29.4181 26.2455C28.7301 26.7902 28.3224 25.7381 29.1241 24.8223C29.7948 24.0564 31.502 23.3517 34.034 24.593C32.3605 23.243 30.9522 21.763 30.9511 19.8775C30.9499 17.5812 32.4563 16.3002 34.153 16.4544C35.5196 16.5783 36.8612 18.2749 35.8277 19.7651C34.5826 21.6364 32.3249 20.0001 32.8906 18.7167C33.0887 18.2287 33.6707 18.0788 33.7161 18.3846C34.0762 20.825 35.9444 18.903 35.1241 17.854C33.4991 15.7761 29.9217 18.9642 32.7534 22.3216C32.4996 21.1135 33.1437 20.7352 33.5222 21.0441C34.078 21.4963 33.6045 21.8447 33.6437 22.5265C33.8619 21.7663 34.6278 21.1627 35.4166 21.3664C36.9109 21.7586 36.2781 23.6257 35.7288 23.146C35.6826 23.1074 35.3246 22.2074 34.7671 22.4392C33.978 22.7446 34.4028 23.6456 34.4269 23.5299C34.5744 22.6045 35.595 23.0936 35.4962 23.7268C35.4147 24.3934 35.6579 24.8536 35.9151 25.0465C36.3894 25.4017 37.066 25.9343 37.7899 26.5353C40.102 24.9099 39.6919 23.3265 39.0843 20.9788C38.4216 18.4219 37.5971 15.2399 40.549 11.3338L40.785 11.0213L41.148 11.1231C45.7092 12.404 49.7472 12.2773 52.8856 11.7072C52.9926 12.1185 53.0949 12.531 53.1963 12.9437C50.0056 13.5352 45.905 13.6784 41.2238 12.429C38.9191 15.6844 39.5718 18.2056 40.2042 20.6463C40.8157 23.0079 41.4477 25.4471 38.4223 27.5798ZM63.8537 45.3982C63.7134 45.2434 63.687 45.1398 63.9229 44.881C63.968 44.8316 63.9425 44.8507 63.9965 44.8056C64.0524 44.7591 63.9884 44.7876 64.0713 44.7625C64.0774 44.9119 64.0077 45.1047 63.9445 45.2396L63.8537 45.3982ZM50.4418 20.4854C50.2949 21.0857 50.3309 20.9378 50.2391 21.5563C50.1667 22.0446 50.1028 22.0972 49.9115 22.4614C49.9323 22.4958 49.9173 22.513 50.0274 22.5711C50.2249 22.3614 50.5409 21.5568 50.6579 21.2317C50.6531 21.2262 50.6453 21.2106 50.6431 21.2158C50.6409 21.2209 50.444 21.0211 50.4574 20.9162C50.4757 20.7734 50.5213 20.5682 50.6032 20.4937C50.6379 20.3774 50.6544 20.3975 50.6682 20.3451C50.7205 20.1462 50.688 20.295 50.6587 20.2333C50.4857 20.2781 50.549 20.3912 50.4418 20.4854ZM50.1996 23.9634C50.0678 23.9952 49.5069 24.5885 49.9048 24.8397C50.2639 25.0664 50.062 24.5146 50.062 24.5143C50.0388 24.2431 50.3277 24.2695 50.1996 23.9634ZM52.5439 8.57037C52.4823 8.55427 52.5095 8.56082 52.4688 8.53177C52.4469 8.51616 52.4135 8.48213 52.3905 8.46301C52.1568 8.26868 52.1755 8.35248 52.1407 7.79796C52.1215 7.49004 52.017 6.98649 52.043 6.69751C52.189 7.03259 52.5705 7.9623 52.5843 8.30296L52.5439 8.57037ZM53.0236 8.35413C53.0773 8.16882 53.1289 8.23663 53.0387 8.0496L52.1525 6.13528C52.1031 6.02982 52.0591 5.91814 52.0074 5.81567C51.9072 5.81435 51.833 5.85234 51.7335 5.90074C51.819 6.56123 51.9795 7.41531 52.0539 8.04325C52.1193 8.59579 52.1985 8.34375 52.4216 8.67696C52.5242 8.83013 52.3361 8.85872 52.4379 9.07843C52.652 8.98339 52.3987 8.83141 52.7225 8.7572C52.7975 8.76124 52.826 8.77501 52.8792 8.80429L52.8769 8.93275C52.8105 9.10872 52.7456 8.97576 52.6093 9.1495C52.5338 9.24574 52.5764 9.16499 52.5385 9.2726C52.7355 9.43994 52.7359 9.57697 52.8276 9.98994C52.8898 10.2699 52.9664 10.5605 53.0372 10.8125C53.3851 12.0524 53.7289 13.5892 54.0835 14.9089L54.2588 15.6189C54.2682 15.6386 54.2682 15.6397 54.2817 15.6599C54.3266 15.7267 54.255 15.6634 54.3318 15.7152C54.3981 15.6806 54.3628 15.7133 54.4074 15.6528C54.5059 15.5189 54.3661 15.2639 54.2995 14.9665C54.1517 14.3054 53.8546 13.2593 53.6719 12.5607C53.6201 12.3627 52.8439 9.46557 52.8405 9.33411L52.9808 9.26852C53.0683 9.43537 53.1467 9.87742 53.2043 10.0807C53.2777 10.3402 53.359 10.6393 53.4237 10.9201C53.5508 11.4724 53.724 12.0264 53.8506 12.5791C53.916 12.8644 53.9823 13.1251 54.0597 13.4078L54.489 15.0704C54.5672 15.3517 54.6085 15.6784 54.7728 15.8385C54.7564 15.8758 54.6889 15.8775 54.7553 16.1054L55.9101 20.6342C55.7128 20.5424 55.5628 19.7914 55.4911 19.4993L54.8273 16.9827C54.7835 16.8215 54.6417 16.154 54.5634 16.0624C54.5277 16.0205 54.5082 16.0065 54.469 15.9554C54.4564 15.939 54.4427 15.9175 54.4283 15.9029C54.3551 15.8286 54.4361 15.8891 54.3427 15.8356C54.3555 16.1663 54.7707 17.5282 54.8755 18.0278C55.007 18.6559 55.3348 19.7014 55.4267 20.2356C55.1259 20.1314 54.9926 19.6386 54.8514 19.353C54.7668 19.1825 54.6683 19.0439 54.5475 18.9385C54.3628 18.7773 54.2317 18.7277 54.1364 18.6492C54.1419 18.4707 54.2597 18.1298 54.2994 17.9361C54.3697 17.593 54.3902 17.5596 54.1596 17.3381C53.6759 17.5377 52.9585 18.3721 52.8373 18.4321C52.8989 18.1302 53.2138 18.0865 53.2885 17.8212C53.1219 17.8418 53.0053 17.8654 52.8694 17.9404C52.6838 18.0431 52.668 18.1154 52.5813 18.1493C52.4098 17.8245 52.9765 17.8341 52.9582 17.3884C52.8526 17.4144 52.7792 17.4829 52.6623 17.5415C52.2116 17.7673 52.1767 17.746 51.9009 18.1965C51.8951 18.1876 51.8285 18.1964 51.8968 18.0097C51.9223 17.9397 51.9452 17.9015 51.939 17.7977C51.4768 17.7441 51.4658 18.2232 51.2657 18.4194C51.1622 17.8132 51.1882 17.9339 50.8042 17.4792C50.6909 17.345 50.6967 17.2612 50.5439 17.3273C50.5045 17.3652 50.2981 18.308 50.4263 18.8057C50.4484 18.8915 50.4623 18.9232 50.4957 19.0094C50.5227 19.079 50.5539 19.1497 50.5305 19.2101C50.4244 19.3868 50.3804 19.3245 50.3937 19.6023C50.1962 19.7284 50.3227 19.6327 50.1279 20.0523C50.0771 20.1619 49.9178 20.4072 49.8409 20.4715C49.7141 21.457 49.7942 21.0051 49.4634 22.0441L49.2382 22.7846C49.1514 22.881 49.1716 22.7722 49.0255 23.0536C48.903 23.2899 49.0711 23.1928 48.9537 23.4323C48.6254 24.1017 48.361 23.8945 48.5946 24.8202C48.6587 25.0739 48.7089 25.3456 48.8226 25.5633C48.9834 25.8714 49.1779 25.8174 49.5396 25.8164C49.6049 25.8442 49.5735 26.0186 50.0848 26.0649C50.7449 26.1246 51.2766 25.7956 51.4589 25.0738L51.4909 24.9767C51.5081 25.0009 51.7176 25.4179 51.7215 25.4465C51.7367 25.5589 51.6707 25.9995 51.6525 26.1083C51.5868 26.5001 51.5748 27.0303 51.5402 27.442L51.576 27.5401L51.6618 27.4588C51.6657 27.4553 51.6729 27.4479 51.6795 27.444C51.759 27.1606 51.886 25.9879 51.8632 25.6233C52.1125 25.7736 52.1775 26.1842 52.8908 26.0768C52.8744 26.3845 52.8255 26.4612 52.7527 26.704L52.8077 26.7386C52.9014 26.8088 52.8999 26.8363 52.9352 26.9724C52.9633 27.0813 52.9725 27.2618 52.975 27.4111C52.9804 27.7503 52.9251 28.0047 52.9199 28.2931C53.015 28.2589 52.9382 28.3116 53.0534 28.1613C53.0798 28.1268 53.074 28.1324 53.1006 28.1063L52.9791 29.4886C53.1232 29.49 53.1642 29.3527 53.2322 29.2445C53.2882 29.1556 53.3543 29.0273 53.4112 28.9156C54.0916 27.5799 53.9626 26.9114 54.1082 26.4975C54.3505 26.5864 54.5121 26.4607 54.6974 26.4687C54.9901 27.1237 54.9062 28.3659 54.905 29.0782C55.4477 28.9155 55.6281 27.3551 55.4441 26.7129C55.4206 26.6313 55.3568 26.4374 55.3529 26.3842C55.6626 26.4714 55.8786 26.5726 56.2393 26.3811C56.3741 26.3096 56.3873 26.2647 56.484 26.2431C56.6089 26.4348 56.7134 26.6895 56.7832 26.9343C56.8431 27.144 56.9559 27.5934 56.9435 27.8107C56.5232 28.1164 55.6826 28.7792 55.2924 29.1764C55.0709 29.4019 54.7613 29.7266 54.5782 29.9816C54.5225 30.0593 54.5027 30.109 54.4179 30.1626C54.2911 29.9682 54.2339 29.7218 54.2027 29.4785C54.1663 29.1947 54.1534 28.9824 54.1476 28.6672C54.06 28.6786 54.0405 28.6224 53.9573 28.8548C53.862 29.1213 53.7428 29.3999 53.7075 29.7167C53.6776 29.9854 53.6858 30.189 53.7515 30.4249C53.7844 30.543 53.7949 30.5805 53.8546 30.6872C53.9187 30.8017 53.971 30.8133 53.9612 30.979C53.187 30.9425 52.2982 30.1644 51.9491 29.3487C51.8508 29.1191 51.6868 28.6271 51.7067 28.3183C51.663 28.2566 51.6787 28.2189 51.6744 28.1182L51.6145 28.0757C51.4671 27.9665 51.5484 27.9789 51.4233 27.9234C51.4289 28.1504 51.4775 28.0061 51.5122 28.1711C51.351 28.1736 51.3658 27.9657 51.2597 28.1987C51.3679 28.2245 51.402 28.2375 51.4647 28.2957C51.478 28.4534 51.4824 28.4629 51.371 28.5299C51.432 29.2396 51.5779 29.7675 51.9102 30.282C52.042 30.486 52.2285 30.7486 52.349 30.9777C52.4024 31.0792 52.5073 31.2703 52.4804 31.3921C52.4553 31.5064 52.3474 31.6761 52.237 31.7229C52.0707 31.7099 51.8027 31.4293 51.7102 31.3264C51.3997 30.9813 51.1623 30.568 51.0239 30.0936L50.8415 29.3332C50.8393 29.3272 50.8356 29.3168 50.8309 29.3096C50.6122 29.5093 50.9545 30.6534 51.0368 30.8805C51.1327 31.1449 51.3419 31.5507 51.5025 31.795C51.5455 31.8605 51.6535 32.0007 51.6931 32.0852C51.2262 32.1005 51.0602 31.2383 50.9237 30.8927C50.9105 31.0853 50.9516 31.2536 51.0089 31.4272C51.0899 31.6724 51.1736 31.7692 51.214 31.8931C50.9863 31.791 50.7044 31.4368 50.6095 31.1846L50.5094 30.8887C50.5056 30.8809 50.499 30.8709 50.4957 30.8644C50.4922 30.858 50.4867 30.8476 50.4811 30.84C50.3661 31.1214 50.4247 31.2861 50.4203 31.5883C50.0714 31.1524 50.0198 30.4319 50.2396 29.8539C50.4601 29.274 50.815 28.9312 51.1622 28.5507C51.131 28.4359 51.1691 28.4406 51.0951 28.4106C50.9959 28.5423 51.1652 28.4866 50.9607 28.6561C50.8858 28.7182 50.8884 28.6855 50.8175 28.7522C50.7583 28.8078 50.7725 28.8274 50.7202 28.889L50.5011 29.1488C50.4229 29.242 50.3441 29.3777 50.2757 29.4229C50.2572 29.5501 49.6 30.3236 50.1601 31.4469C50.304 31.7352 50.4246 31.7239 50.3073 32.1137C50.1764 32.5485 49.9954 32.8667 49.685 33.1625C49.4979 33.3409 49.1719 33.5337 48.9201 33.6315C48.7604 33.6937 48.7673 33.6991 48.6999 33.8594C48.4147 34.537 48.4029 34.8218 48.6464 35.534C48.6797 35.6317 48.7651 35.7633 48.784 35.8171C48.8804 36.0904 48.5076 37.3276 48.7403 38.2652C48.7759 38.4085 48.7699 38.5017 48.7732 38.6631C48.7845 39.237 48.5569 39.1283 48.9812 39.6162C48.9401 39.7525 48.8796 39.7178 48.9975 39.889C49.1839 40.1595 49.4181 40.3061 49.554 40.523C49.6893 40.7388 49.6758 40.896 49.7217 41.1382C49.8522 41.8267 49.9799 41.7921 50.4083 42.0373C50.5713 42.1306 50.6926 42.2979 50.8499 42.3902C51.5242 42.7855 52.4084 41.9351 51.8393 40.7485C51.6527 40.3595 51.416 40.1051 51.1123 39.9001C51.0325 39.8461 50.9335 39.7811 50.8325 39.7893C50.6737 39.8024 50.4765 40.0982 50.3429 39.8299C50.295 39.7336 50.3582 39.6134 50.3879 39.5035C50.4471 39.2843 50.4655 38.9842 50.4222 38.731C50.4035 38.6212 50.3681 38.5354 50.3236 38.4374C50.2737 38.3276 50.2092 38.2581 50.1749 38.1782C50.4706 37.9082 49.8373 35.9945 50.3717 35.0454C50.6345 35.0323 50.4655 35.1917 50.7397 35.0299C51.0076 34.8717 51.3873 34.8957 51.6656 34.7941C51.8087 34.7418 51.9461 34.599 52.0197 34.5893C52.0362 34.8813 52.0258 35.3208 51.864 35.4828C51.6237 35.42 51.5872 35.3298 51.4048 35.2088C51.3219 35.2333 51.2338 35.2995 51.1719 35.3704C50.9823 35.5871 51.2178 36.0033 51.3571 36.1914L51.5532 36.384C51.6166 36.4549 51.569 36.4144 51.6361 36.4753C51.7829 36.6087 51.7635 36.6942 51.9193 37.0093C51.9395 37.0501 51.9667 37.0942 51.9987 37.1344C52.4294 37.6734 52.3001 37.6301 52.417 38.2885C52.4994 38.7521 52.6502 39.1305 53.0119 39.2803C53.2975 39.3985 53.2628 39.3156 53.5082 39.5471C53.6293 39.6615 53.7741 39.8158 53.9059 39.9216C54.2891 40.229 54.661 40.089 54.8887 39.6591C55.1066 39.2475 55.0732 38.8073 54.9038 38.3586C54.7466 37.9425 54.5214 37.6737 53.9874 37.7095C53.881 37.5957 53.7443 37.4118 53.6298 37.316C54.195 37.1218 53.9172 36.739 54.3318 36.2548C54.5346 36.5022 54.9034 36.8279 55.1456 37.0239C55.4091 37.2372 55.7511 37.5187 56.0652 37.6793C56.0533 37.7595 55.9944 37.951 55.9684 38.0539C55.6191 39.4373 56.5975 41.0939 57.3159 42.1377L58.009 43.0553C58.068 43.1251 58.1274 43.1778 58.166 43.27C57.9471 43.47 57.8271 43.5647 57.6611 43.8909C57.2744 44.6506 57.0091 45.4712 56.4967 46.1487L55.9843 46.7684C55.8526 46.9528 55.9462 47.3336 55.6467 47.5733C55.2796 47.8672 55.4878 47.7983 55.2456 48.312L54.9245 48.8279C54.894 48.8689 54.8864 48.8743 54.8604 48.9148C54.8039 49.0027 54.8487 48.8908 54.8034 49.0236C54.9311 49.4051 55.2797 49.4393 55.6794 49.4539C56.0711 49.4683 56.4587 49.4021 56.7673 49.2697C57.3793 49.0071 57.472 48.753 57.5536 48.0769C57.5836 47.8286 57.4916 47.7789 57.281 47.7439L57.33 47.4039C57.8433 47.2664 57.7617 47.0083 57.8021 46.4334C57.9267 46.3527 58.0191 46.2523 58.12 46.163C58.1909 46.1004 58.2065 46.0787 58.2679 46.0156C58.3272 45.9546 58.3763 45.9096 58.4339 45.8543L58.8934 45.3944C59.33 44.932 59.8277 44.4103 60.1662 43.8679C60.3078 43.641 60.5776 43.3106 60.3898 43.0271C60.304 42.8975 60.164 42.8004 60.0747 42.7149C59.414 42.0822 59.4442 41.1976 59.5771 40.251C60.0196 40.1835 60.1815 40.3095 60.5484 39.852C60.7949 39.5446 60.8518 39.2417 61.018 38.9037C61.1896 38.9511 61.3701 39.4248 61.8502 39.7689C62.8514 40.4866 62.2689 40.8876 62.5335 41.9538C62.6066 42.2482 62.7422 42.4953 62.8899 42.7452C63.2167 43.2987 63.0781 43.0887 62.9236 43.5631C62.7741 44.0224 62.8166 44.7783 62.7048 45.0837C62.6556 45.2177 62.5763 45.3806 62.5208 45.5006C62.2078 46.178 61.8014 46.5633 61.6388 46.9221C61.5125 47.2008 61.5108 47.5217 61.3997 47.8353C61.2966 48.1264 61.1743 48.4084 61.0105 48.6155C60.9202 48.7296 60.78 48.8139 60.7584 48.9325C60.7425 49.02 60.729 49.3868 60.7532 49.4657C60.9854 50.2255 63.1373 49.3955 63.2424 49.1961C63.2777 48.9872 63.3175 48.7489 63.3023 48.5345C63.2791 48.2078 63.2698 48.1711 63.012 48.0908C62.9775 47.7273 63.157 47.6141 63.418 47.4749C63.4269 46.081 63.3594 47.0094 64.2817 45.3547C64.5017 44.96 64.9602 44.1744 64.8555 43.6784C64.8416 43.613 64.7982 43.489 64.7617 43.4127C64.7351 43.357 64.6361 43.2192 64.6151 43.1683C64.4669 42.81 64.8389 41.6381 64.8015 41.0957C64.7611 40.5102 64.6115 40.7599 64.8193 40.2113C65.0364 39.6379 65.1615 39.0142 65.2809 38.4065C65.3168 38.2235 65.2948 38.1737 65.3511 38.0682C65.4542 38.2749 65.4703 38.5568 65.4903 38.7856C65.5579 39.5543 65.5576 39.4573 65.881 40.0916C66.0245 40.3729 65.9748 40.4972 65.9856 40.8482C66.3891 40.8396 66.2142 40.481 66.2981 40.3161C66.6045 40.8269 66.468 42.5099 67.3598 42.7774C67.5036 42.6432 67.3763 42.621 67.3005 42.4787C67.2102 42.3093 67.1993 42.1848 67.2864 42.0211C67.3928 42.2151 67.565 42.821 67.7702 43.2353C67.9007 43.4984 68.2585 44.1112 68.5085 44.2058C68.4191 43.6278 68.2458 43.332 68.27 42.8389C68.7218 43.133 68.6661 44.3261 69.0222 44.6874C69.0678 44.2526 68.7779 43.2528 68.7926 42.9016C68.8719 43.0762 68.8706 43.3694 69.0845 43.4235L68.7102 41.3907C68.6959 41.3423 68.6734 41.2947 68.6656 41.2559C68.6452 41.1533 68.6542 41.1665 68.6798 41.1267C68.8267 41.1762 68.7701 41.2771 68.8334 41.3835C68.8991 41.4941 68.8011 41.4195 68.8657 41.4131C68.9242 41.3625 68.8768 41.4457 68.917 41.3123C69.1233 40.6268 68.6751 39.9026 68.3985 39.4311C68.319 39.3042 67.8286 38.6959 68.0297 38.6199C68.0363 38.6174 68.0461 38.6114 68.0545 38.6088C68.156 38.5766 67.9966 38.6091 68.1052 38.5947C68.1907 38.5833 68.2433 38.6231 68.3566 38.6559C68.3346 38.5386 68.2996 38.4585 68.2557 38.3568C68.2125 38.2566 68.1619 38.2104 68.0822 38.1504C67.8126 37.9043 67.5271 37.0348 67.1837 36.5162L67.1602 36.481C67.1535 36.4707 67.1361 36.4443 67.1249 36.4272C66.5695 35.5799 65.7517 35.2435 65.7393 35.0606C65.7372 35.0295 65.7381 35.0197 65.7411 34.9887L65.9561 32.9216C65.9969 32.5003 66.0082 32.5447 65.824 32.2775L65.8068 32.7897C65.7705 33.5742 65.6036 35.7705 65.3511 36.3996C65.2796 36.3784 65.1362 35.9758 65.071 35.8299C63.3922 31.8874 65.0476 35.9103 63.082 31.0422C62.5089 29.5637 61.4155 26.6963 61.171 25.0389C61.0858 24.4614 60.9823 23.8048 61.1893 23.2591C61.2704 23.0455 61.432 22.8022 61.5724 22.6561C61.7408 22.4807 61.921 22.3444 62.1902 22.3178C62.2232 22.4847 62.2821 22.607 62.4108 22.6905C62.435 22.7062 62.4423 22.708 62.4669 22.7223L62.5434 22.7689C62.4187 22.869 62.2869 22.8142 62.0184 23.1047C61.9113 23.2204 61.738 23.4521 61.6931 23.6465C61.5826 24.1252 61.6029 24.7576 61.7242 25.2401C61.9652 26.1982 62.1722 27.1219 62.4888 28.0175C62.7959 28.8861 63.0878 29.7369 63.4252 30.58C63.5878 30.9864 63.7646 31.4108 63.926 31.8265C64.5174 33.3496 64.8095 33.5865 65.3412 35.35C65.3908 35.306 65.3679 35.3399 65.3989 35.2676L65.4731 34.8891C65.6168 33.8246 65.6149 32.9627 65.7034 31.9295C65.7165 31.7764 65.7173 31.6307 65.7181 31.4692L65.7347 30.7293C65.735 30.6045 65.7104 30.5705 65.7816 30.5073C65.8674 30.5641 65.834 30.5497 65.8321 30.8233C65.8293 31.2094 65.8101 31.6131 65.8334 31.9964L65.9767 31.9606L65.9674 30.5323C66.1575 30.7069 66.2183 31.5422 66.682 31.7253C66.6661 31.6177 66.6542 31.6244 66.6348 31.5354C66.604 31.3944 66.596 31.4401 66.6711 31.3929L66.773 31.7235C66.7998 31.9491 66.6494 31.8224 66.5355 31.7508C66.6155 32.1753 66.6272 32.2103 66.9875 32.4182C67.0918 32.4784 67.244 32.5553 67.3579 32.6051C67.4796 32.6583 67.6946 32.7105 67.7858 32.7604C67.8307 33.1702 67.7042 33.366 67.5824 33.675C67.464 33.9757 67.5508 34.3524 67.7361 34.5396C67.8953 34.7004 68.1451 34.8469 68.331 35.0399C68.4114 35.1234 68.504 35.2784 68.5872 35.322C68.7007 35.3814 68.9025 35.313 69.0687 35.3299C69.1893 35.6456 69.1069 36.6995 69.0766 37.0832C69.5951 36.9495 70.1039 36.1839 70.4581 35.7713L70.7584 35.4181C70.9189 35.2608 71.0898 35.2093 71.2399 35.0718C71.4262 34.9013 71.5392 33.0524 71.5241 32.7903C71.4712 31.8712 71.211 32.8222 71.4585 31.3656C71.6426 30.2814 71.4262 28.8303 70.5974 28.0614L70.1198 27.6878C70.0284 27.4913 70.1717 26.1044 69.1582 25.2702C69.0524 25.1832 68.9937 25.138 68.8676 25.0564C68.6708 24.929 68.4185 24.8848 68.2975 24.6849C68.1681 24.471 68.0502 24.3397 67.8258 24.1752C67.4276 23.8833 66.9597 23.725 66.4858 23.6186C65.655 23.4321 65.8157 23.705 65.197 23.0254C64.807 22.597 64.615 22.4775 64.037 22.2663C63.8715 22.2058 63.449 22.1115 63.3336 22.0411C63.2408 21.9846 63.1636 21.906 63.0578 21.8429C62.8442 21.7153 62.5759 21.6489 62.3353 21.6086C62.0787 21.5654 62.1944 21.5798 62.0238 21.442C61.8258 21.282 61.5738 21.2433 61.2867 21.2212C61.2238 21.1893 61.0486 20.8354 61.0109 20.7788C60.8037 20.4677 60.9966 20.5992 61.0107 20.2482C61.038 19.5634 61.023 18.7796 60.5644 18.3055L60.285 18.0224C59.7817 17.5493 59.8599 17.3576 59.7654 17.0622C59.7633 17.0554 59.7597 17.0444 59.7554 17.0363L59.5619 17.0832C59.5534 17.1077 59.5442 17.1357 59.5389 17.1578C59.5264 17.2094 59.5222 17.2598 59.5087 17.3135C59.4944 17.3702 59.4497 17.5065 59.4241 17.5577C59.2135 17.9782 58.768 18.2469 58.5347 18.6641C58.1038 19.4344 58.5122 19.8808 58.4538 20.2933C58.4224 20.5155 58.5193 20.669 58.5182 20.8935C58.2692 21.1371 58.2471 21.0622 58.1258 21.455C57.6587 21.573 57.8755 21.662 57.6644 21.8525C57.462 22.0353 57.3593 21.9338 57.2457 22.2909C57.0991 22.7517 57.0678 23.3291 57.0044 23.8199C56.8966 23.8071 56.9754 23.8583 56.8836 23.7556C56.786 23.6465 56.7428 23.4924 56.6874 23.3529C56.6928 23.3476 56.7042 23.3365 56.7076 23.343C56.7109 23.3495 56.7234 23.3353 56.728 23.3333L56.7922 23.3072C56.7988 23.3042 56.8074 23.3003 56.8134 23.2975L56.8547 23.2755C56.6595 22.9421 56.6591 22.3177 56.5387 21.9424C56.4901 21.7912 56.4202 21.6851 56.3686 21.5391C56.4399 21.4144 56.5152 21.3627 56.4051 21.1942C56.2768 20.9978 56.3173 21.1542 56.2344 20.8534C56.1582 20.5773 56.0973 20.3147 56.0329 20.0578C55.8985 19.5222 55.7838 18.9738 55.6293 18.4265C55.4998 17.9681 55.0394 15.8574 54.9118 15.6309C54.853 15.5266 54.7535 15.4538 54.7144 15.3385C54.8437 15.3434 54.7485 15.3674 54.875 15.4297C54.8598 15.2646 54.8584 15.3482 54.8125 15.2147C54.7696 15.0901 54.7963 15.0968 54.772 14.9764C54.6494 14.3671 54.0026 12.2172 54.0281 11.9311C54.4499 11.7191 56.2672 11.0332 56.7021 10.8948C56.9521 10.8152 57.0756 10.8297 57.2192 11.0365C57.3976 11.2934 57.3992 11.5563 57.6392 11.754C57.7107 11.8128 57.7878 11.8671 57.897 11.8902L57.5114 10.9703C57.3822 10.7537 57.1291 10.5848 56.9856 10.364C56.9386 10.2917 56.9482 10.3362 56.9476 10.2427C57.2294 10.3971 57.2327 10.3781 57.4374 10.6495C57.4928 10.723 57.5784 10.8281 57.6371 10.8958C57.7209 10.9925 57.7838 11.0827 57.9234 11.1101L57.7412 10.8467C57.5396 10.5847 57.4759 10.2327 57.2932 9.97375C57.2129 9.86004 57.0937 9.76932 57.0123 9.6321C57.3948 9.81785 57.4264 10.1424 57.6579 10.3643C57.6575 10.0156 57.6226 9.828 57.4418 9.59917C57.4029 9.54995 57.3778 9.52794 57.321 9.48225C56.7677 9.0374 56.8305 9.27025 56.5687 8.53812C56.465 8.24804 56.3833 8.07547 56.0436 8.12375C54.9243 8.28289 53.4435 9.04156 53.1987 9.05325C53.3014 8.82243 53.1984 8.63918 52.9988 8.55645C52.9632 8.42391 52.9722 8.47559 53.0236 8.35413ZM49.7536 38.5552C49.7792 38.6689 49.8581 38.6738 49.9088 38.8002C50.0317 38.9061 50.1187 39.5325 49.7107 39.6798L49.5604 39.7392C49.5914 39.8851 49.6651 40.009 49.7616 40.087C50.0353 40.308 49.8369 40.1422 50.0051 40.4085C50.1955 40.7102 50.524 40.3964 50.8835 40.4838C51.0575 40.526 51.4997 41.1412 51.022 41.5751C50.9214 41.6665 50.7298 41.7037 50.7607 41.8297C50.7683 41.8344 50.7802 41.8301 50.785 41.8409C50.796 41.8653 50.917 41.8745 51.0091 41.8379C51.058 41.8185 51.1493 41.7587 51.207 41.7122C51.2683 41.6628 51.4025 41.5239 51.4752 41.504C51.828 41.4076 51.613 42.0633 51.1465 42.2289C50.8598 42.0324 51.0202 42.0836 50.5861 41.8777C50.3722 41.7763 50.1041 41.6519 49.9923 41.467L49.9032 41.1892C49.8124 40.7345 49.782 40.5634 49.505 40.1756C49.3409 39.9457 48.7926 39.3434 48.8921 38.9597C49.0653 38.2922 48.816 37.9809 48.8941 37.1955C49.1119 35.0058 48.7061 35.4104 48.6704 34.7263C48.6579 34.4846 48.81 34.158 48.9102 33.9892C49.1056 33.6599 49.4709 33.6189 49.9189 33.169C50.321 32.765 50.3839 32.5085 50.5742 31.9309C50.6855 32.0187 50.8144 32.0715 50.9392 32.1455C50.932 32.3051 50.6136 33.2898 50.2832 33.5571C49.838 33.9171 49.259 33.6378 49.023 34.3591C49.0073 34.407 49.3879 38.4793 49.7536 38.5552ZM53.5342 39.3394C53.5163 39.1483 53.5284 39.3055 53.7501 39.0231C53.8024 38.9566 53.9279 38.7779 54.0296 38.7419C54.3054 38.644 54.5593 38.9974 54.5956 39.2347C54.6327 39.4771 54.2961 39.8603 54.1541 39.8012C54.0736 39.7677 53.9373 39.5144 53.7407 39.4161C53.6496 39.3706 53.6028 39.3911 53.5342 39.3394ZM56.3118 38.0595C56.3831 38.3261 56.4156 38.6437 56.4848 38.9086C56.5581 39.19 56.6017 39.4764 56.729 39.7215C57.0225 40.2867 57.3077 40.2419 57.3221 40.6606C57.329 40.8608 57.3516 40.9478 57.3931 41.1334C57.5117 41.6638 57.8379 42.139 58.1235 42.4733C58.5339 42.9536 58.6711 42.6854 59.0412 43.0567C59.1755 43.1915 59.2078 43.182 59.3592 43.2746C59.2852 43.6615 58.6629 44.3907 58.2593 44.6547C57.9658 44.8466 58.1972 44.9148 57.9646 45.6002C57.7097 46.3519 57.4513 46.1447 57.3778 46.2567C57.29 46.6673 57.526 46.7713 57.2424 47.0704C57.0478 47.2755 56.8944 47.3399 56.5279 47.3511C56.5244 47.3815 56.5472 47.718 56.5523 47.7938C56.7201 47.9987 56.8783 47.9325 56.9738 48.0398C56.9368 48.1653 56.777 48.2086 56.6281 48.2081C56.4685 48.2076 56.3124 48.1421 56.1489 48.1073C56.1971 48.333 56.3505 48.4123 56.2686 48.7073C56.1017 48.8593 55.5996 48.9302 55.3167 48.8943C55.2478 48.5105 55.604 48.0576 55.7705 47.828C55.9538 47.5751 55.9956 47.6492 56.0339 47.3026C56.0653 47.018 56.4047 46.6195 56.6102 46.3625L57.2404 45.4364C57.3027 45.331 57.4636 45.0675 57.5042 44.9139C57.5954 44.9462 57.5251 44.9426 57.6262 44.9699C57.6456 44.3767 57.8006 43.8565 58.2124 43.4994C58.352 43.3784 58.4565 43.4605 58.4339 43.2455C58.4227 43.1382 58.2323 42.9741 58.1629 42.8901L57.7827 42.3458C57.5612 41.9898 57.4235 41.6645 57.261 41.2748C57.1295 40.9596 57.2195 41.0194 56.9789 40.7464L56.5338 40.1171C56.3835 39.8435 56.2314 39.5564 56.1752 39.2077C56.1368 38.9699 56.1234 38.1351 56.3118 38.0595ZM61.3704 38.8089C61.5825 39.2456 62.1074 39.2656 62.397 39.7298C62.5201 39.7002 62.8778 39.6632 62.9528 39.7592C63.1641 40.0299 62.679 39.9157 62.5794 39.9355C62.5946 40.1006 62.8358 40.2729 62.9146 40.477C63.0953 40.9452 62.7919 41.4601 63.326 41.9417C63.6366 42.2218 63.477 42.2303 63.6473 42.5514C63.6697 42.5388 63.7832 42.496 63.7645 42.3572C63.7528 42.2708 63.6971 42.2567 63.6492 42.1678C63.6485 41.9027 63.6998 41.7245 63.6403 41.4476C63.6079 41.2972 63.5212 40.9379 63.6584 40.8532C63.7168 40.816 63.6714 40.8234 63.7562 40.9847C63.8586 41.1797 64.0273 41.3662 64.0935 41.5468C64.2165 41.8824 64.1368 42.2355 64.0522 42.5948C64.016 42.7483 64.109 42.873 64.0805 43.1215C64.0657 43.252 64.0065 43.4883 63.9689 43.6081C63.8721 43.9168 63.7647 44.2604 63.6998 44.5766C63.6628 44.7567 63.6655 44.9433 63.6266 45.1116C63.5618 45.3925 63.2094 45.5336 62.8824 46.1948C62.5643 46.8379 62.8374 47.0024 62.8373 47.2092C62.8373 47.4828 62.4106 47.7141 62.1958 47.7995C62.1807 47.9971 62.2879 48.0984 62.2054 48.36C62.1514 48.5315 61.9842 48.6193 61.9848 48.7256L62.2351 48.7679C62.2224 48.9409 62.1698 48.9291 62.0305 48.9732C61.9162 49.0095 61.8592 49.035 61.7354 49.0523C61.4771 49.0885 61.2915 49.0889 61.0322 49.0467C61.2465 48.808 61.289 48.8133 61.4495 48.5033C61.5818 48.2476 61.5998 47.9301 61.7019 47.7268C61.9693 47.1944 61.8454 47.3079 61.9726 46.9718C61.9908 46.924 62.2546 46.5868 62.3758 46.3582C62.619 45.8992 62.7584 45.4005 62.9787 44.9119C63.1757 44.475 63.0671 43.5195 63.3852 43.2649C63.2585 43.148 62.6819 41.9864 62.6494 41.4928C62.6139 40.9531 62.7481 40.9222 62.7337 40.7295C62.7206 40.5552 62.5616 40.2714 62.4723 40.1498C61.948 39.4363 62.5022 39.8884 61.9043 39.4668C61.7895 39.3859 61.3526 39.0631 61.3465 38.902C61.3412 38.7582 61.3385 38.86 61.3704 38.8089ZM63.3249 37.3104C63.3098 37.3255 63.3062 37.3325 63.2737 37.359L62.8358 37.5922C62.115 37.8389 62.2637 37.1236 62.8023 37.0837C62.9783 37.0706 63.2496 37.1922 63.3249 37.3104ZM62.9702 35.5888C63.0265 35.5064 63.0574 35.4891 63.1554 35.456C63.2795 35.6487 63.6489 35.9819 63.8098 36.1325C64.1307 36.4329 63.7451 36.8284 63.6078 37.0147L62.8389 36.828C63.0656 36.6462 63.3821 36.7538 63.3147 36.2652C63.2712 35.9503 63.0768 35.8248 62.9702 35.5888ZM49.8304 35.9198C49.9064 35.8825 49.8826 35.8536 49.973 35.8305C49.9584 36.0263 49.9406 36.0397 49.8701 36.1873C49.7486 36.061 49.8233 36.0205 49.6322 35.8272C49.562 35.7563 49.5668 35.7814 49.5295 35.6644C49.5061 35.591 49.4928 35.4974 49.4845 35.4059C49.468 35.2254 49.4719 35.0027 49.4953 34.8231C49.5219 34.6197 49.5945 34.5465 49.8069 34.5765C50.0818 35.1552 49.7255 35.4738 49.8304 35.9198ZM53.7071 34.3919C53.7763 34.4289 54.0839 34.9216 54.1694 35.0543C54.1827 35.075 54.1926 35.0894 54.206 35.1083C54.2096 35.1133 54.2149 35.1204 54.2186 35.1253C54.5882 35.6339 55.111 36.3112 55.5902 36.6702C55.6741 36.733 55.7274 36.7725 55.8096 36.8347C55.9538 36.9438 56.0853 37.0266 56.2571 37.1246C56.3974 37.2045 56.6413 37.2924 56.763 37.372C56.2453 37.5966 55.2181 36.6156 54.8903 36.3143L53.7341 35.1521C53.6593 35.0502 53.6847 35.059 53.6917 34.7895C53.6951 34.656 53.7026 34.5251 53.7071 34.3919ZM56.5331 35.0335C57.412 35.145 57.2071 34.9867 57.6149 34.9831C57.6082 35.0616 57.5739 35.1024 57.5324 35.1456C57.4414 35.2404 57.4316 35.1963 57.4153 35.2813C57.6135 35.4169 57.8037 35.3444 58.0082 35.2742C57.9242 35.4602 57.6554 35.5991 57.427 35.625C57.2703 35.6426 57.1887 35.6022 57.0386 35.5754C56.8148 35.5356 56.5091 35.657 56.3179 35.4907C56.1164 35.3156 55.7773 35.3938 55.5118 34.9993C56.0446 34.9875 56.2193 35.0101 56.6295 34.7665C56.6405 34.9353 56.5878 34.9175 56.5331 35.0335ZM52.1796 33.9206C51.9045 33.9447 51.6721 33.8722 51.4143 33.975C51.2047 34.0586 51.2037 34.1914 50.8297 33.9901C50.8429 33.9538 51.5344 33.0588 51.8932 33.0909C52.0295 33.1031 52.0457 33.1793 52.1248 33.2793C52.2086 33.385 52.233 33.3842 52.2417 33.5579C52.2481 33.6861 52.2368 33.8274 52.1796 33.9206ZM53.8344 33.5905L53.8351 33.3635C53.9612 33.4315 53.9335 33.4439 54.0308 33.5443L54.0602 33.5728C54.0664 33.5787 54.0845 33.5948 54.0907 33.6006L54.6174 34.0237C54.6726 34.0627 54.7035 34.084 54.7591 34.1157C54.8424 34.1632 54.8602 34.1633 54.9159 34.2512C54.6704 34.188 54.0772 33.861 53.8907 33.6627L53.8344 33.5905ZM59.8901 32.8263C59.9184 33.1859 59.976 33.6301 60.3079 33.7732C60.4091 33.8169 60.4875 33.8592 60.6012 33.9116C60.9172 34.057 61.1672 34.2147 61.4166 34.4226C61.4994 34.4916 61.5931 34.5544 61.6315 34.6781C61.5324 34.6346 61.4421 34.5599 61.3422 34.5007C60.9869 34.29 60.46 34.0603 60.0651 33.9359C59.8648 33.8727 59.9113 33.8885 59.8527 33.667C59.7899 33.4295 59.7688 33.0288 59.8901 32.8263ZM60.0016 32.4106C60.2912 32.5326 61.8772 34.1934 62.1376 34.4813C62.9427 35.3598 62.9733 35.0173 62.7397 35.4285C62.4403 35.3816 60.5973 33.2101 60.3214 32.8928C60.3051 32.874 60.2976 32.8643 60.2809 32.8434C60.1916 32.7317 59.9811 32.5135 60.0016 32.4106ZM52.9482 35.2815L52.9406 35.6192L53.4747 35.7807C53.4511 35.8046 53.4086 35.8582 53.366 35.8805L53.2102 35.9182C53.2066 35.9189 53.1979 35.9195 53.1923 35.9222C53.536 36.6311 52.9065 36.8965 52.7063 37.326C52.5825 37.5918 52.7245 37.9496 52.9256 38.0488C53.2321 38.2002 53.4355 37.9185 53.6012 37.8149C53.648 38.2981 53.5396 38.7023 53.1215 38.7743C52.3057 38.9149 52.8596 38.1564 52.3695 37.3512L52.0438 36.8383C51.7293 36.3319 52.4481 34.1406 52.4112 32.943C52.4029 32.6762 52.3426 32.5346 52.4114 32.2693C52.4584 32.0884 52.5229 31.8586 52.5679 31.6732C52.6286 31.4237 52.7315 31.4379 52.948 31.3135C53.0776 31.2391 53.306 31.074 53.4136 31.0274C53.8515 31.2526 53.8101 31.0333 54.0627 31.2639C54.0628 31.2641 54.1098 31.3047 54.1099 31.3048C54.314 31.4763 54.6389 31.7067 54.9639 31.7583C55.6316 31.8645 56.5233 31.2414 56.8477 31.6536C56.1422 31.9164 55.3776 32.3116 54.5499 31.9693C54.2691 31.8531 54.2283 31.6704 53.8782 31.7483C53.8484 31.8948 53.9426 32.5731 53.3742 32.2493C53.2002 32.1502 53.1975 31.992 53.1253 31.9014C53.0871 31.8534 53.0987 31.8595 53.0405 31.8376C52.8197 32.1427 52.4401 33.0827 52.897 33.1727C52.9653 33.0818 52.966 32.9385 53.0708 32.8238C53.2679 32.608 53.7249 32.7712 53.5295 33.1628C53.3293 33.5642 52.9817 33.1366 52.9773 33.712C52.9715 34.4661 53.1477 34.4614 52.9482 35.2815ZM60.8221 31.6229C60.8889 31.859 61.2019 32.2945 61.332 32.5158C61.4594 32.7324 61.7341 33.2202 61.7651 33.4969C61.617 33.4496 61.2078 33.1743 61.0695 33.0721C60.8789 32.9312 60.4041 32.4242 60.2324 32.1884C59.5347 31.2307 60.7768 30.9056 61.489 31.3349C61.8934 31.5786 61.8915 31.9843 62.2119 32.3426C62.4798 32.6423 62.7406 33.0794 62.7771 33.529C62.7006 33.5809 62.7242 33.5712 62.6546 33.5908C62.4603 33.2055 62.2676 32.7409 61.9825 32.4368C61.6305 32.0612 61.5525 32.2162 61.0467 31.5295C60.9411 31.5435 60.8821 31.5606 60.8221 31.6229ZM55.7501 31.4874C55.7592 30.9846 56.1323 31.0148 56.2147 30.8236C56.2067 30.8185 56.1945 30.8031 56.1893 30.8115L56.082 30.7885C55.9909 30.7901 55.8004 30.894 55.7107 30.9443C55.4858 31.0704 55.3625 31.206 55.2788 31.117C55.0914 30.9178 55.577 30.4436 55.7054 30.3295C55.9409 30.1198 56.1791 29.9596 56.48 29.8083C57.1541 29.4694 57.9297 29.5059 58.2524 30.1397C57.9971 30.1173 57.8889 30.0438 57.6386 30.1864C57.2779 30.3919 57.7354 30.4701 57.9064 30.495C58.4002 30.5668 58.5467 31.0127 58.1938 31.3318C57.8748 31.6203 57.3518 31.4109 57.0106 31.2978C56.3658 31.084 56.1879 31.4167 55.7501 31.4874ZM60.1316 31.1124C60.1744 30.7706 60.1399 30.5395 60.3241 30.265L60.7707 29.6783C60.7311 30.0599 60.608 30.1639 60.6461 30.61C60.6644 30.8238 60.6086 30.877 60.4805 30.9552C60.4029 31.0026 60.2428 31.103 60.1316 31.1124ZM54.5327 31.4011C54.3665 31.4074 54.2673 31.3035 54.1851 31.1618C54.0979 31.0117 54.1947 30.8623 54.2648 30.7185C55.5261 28.1277 59.4099 28.1874 59.626 29.6705C58.7372 28.882 57.6358 29.0418 56.6196 29.4888C55.6288 29.9247 55.0084 30.4295 54.5327 31.4011ZM59.7375 28.9264L59.6045 28.9301C59.5695 28.6618 59.6154 28.4595 59.9071 28.5661C59.9287 28.8318 59.7321 28.5597 59.9543 28.9539C60.002 29.0387 59.9819 28.9952 60.0136 29.0921C60.0138 29.0919 60.0937 28.7331 60.1728 28.981C60.2312 29.1643 60.1138 29.2337 60.0701 29.3172C60.0739 29.5266 60.0935 29.9519 59.978 30.0776C59.9568 30.0147 59.8549 28.934 59.8001 28.7797C59.7684 28.6906 59.7844 28.7354 59.7554 28.7047C59.7004 28.8027 59.7402 28.806 59.7375 28.9264ZM70.0786 27.9879C70.3701 28.094 70.6878 28.5995 70.8302 28.9538C71.3405 30.2229 71.1346 32.3745 70.7928 33.582C70.5606 33.4431 70.1429 33.0052 70.0035 32.7289C69.8089 32.3434 69.8997 31.6757 69.9632 31.2058C70.034 30.6823 70.0975 30.2206 70.1321 29.6645C70.1558 29.2823 70.1623 28.3186 70.0786 27.9879ZM64.4294 27.1449C64.5271 27.1301 64.5674 27.0927 64.6767 27.1164C64.5135 27.4956 64.5477 27.3888 64.8055 27.5003C64.7975 27.5867 64.8018 27.5333 64.7783 27.5971C64.7556 27.6589 64.755 27.6397 64.7382 27.7009C64.7197 27.7676 64.7004 27.8713 64.6892 27.9361C64.8468 28.0153 64.995 28.0515 65.0765 28.2603C64.9755 28.2112 64.8408 28.1981 64.6919 28.202C64.734 28.6286 65.1945 28.8763 65.0929 29.1203C64.9747 28.9797 64.8375 28.8976 64.6624 28.8125C64.6056 29.0034 64.8397 29.1561 64.7485 29.3895C64.6585 29.2947 64.7161 29.28 64.5556 29.1541C64.4595 29.0788 64.3893 28.9698 64.2737 28.9351C64.2902 29.3187 64.5385 29.7533 64.3181 30.0526C64.2432 29.8286 64.376 29.8555 64.0883 29.4106C63.8237 29.0016 64.022 28.9002 63.9737 28.7702C63.8287 28.8954 63.8594 29.1097 63.7696 29.4054C63.7596 29.4384 63.7433 29.4911 63.7292 29.5169C63.7236 29.5271 63.711 29.547 63.704 29.5568C63.659 29.6194 63.6963 29.5689 63.6535 29.6136C63.663 29.3996 63.6729 29.2265 63.6714 29.009C63.6707 28.8941 63.7339 28.5646 63.7155 28.5335C63.5822 28.6659 63.5615 28.869 63.3945 28.9673C63.4141 28.8409 63.4456 28.7181 63.4795 28.6036C63.5318 28.4276 63.5838 28.4226 63.6132 28.3039C63.4405 28.3248 63.2867 28.4643 63.146 28.3641C63.2004 28.2469 63.1711 28.4199 63.3937 28.1729C63.5628 27.9853 63.5346 28.0625 63.643 27.9952C63.5556 27.7332 63.0468 27.9485 62.9653 27.4516C63.0873 27.5171 63.1099 27.5827 63.2784 27.5559C63.3362 27.5467 63.5507 27.4692 63.5906 27.4418C63.5493 27.3358 63.586 27.4113 63.5237 27.3413C63.3889 27.1903 63.2801 27.1828 63.1264 26.9973C63.0328 26.8842 62.9819 26.7478 62.9835 26.5901C63.0876 26.8357 63.3364 26.8998 63.5142 26.9833C63.5998 27.0235 63.6439 27.0661 63.7155 27.0968C63.7879 26.9322 63.5438 26.6304 63.5726 26.1181C63.5742 26.0883 63.5765 26.0605 63.5825 26.0313C63.5971 25.9606 63.5872 25.9953 63.6073 25.9572C63.6625 26.0584 63.6733 26.2898 63.7439 26.4562L63.9057 26.745C64.0062 26.8746 63.8939 26.7877 64.0202 26.8387C64.0274 26.6388 63.9813 26.4668 64.0598 26.3228C64.1108 26.4457 64.1739 26.7968 64.232 26.9124C64.3844 26.7164 64.2958 26.2239 64.5143 26.0999C64.4692 26.3275 64.4582 26.2965 64.4715 26.581C64.4836 26.8365 64.438 26.9448 64.4294 27.1449ZM58.4044 26.0863C59.1843 26.0925 60.0306 26.4679 60.2362 27.1357C60.1219 27.1102 60.1247 27.0896 60.0645 27.1344C60.1775 27.2581 60.233 27.3686 60.2432 27.5692C60.0639 27.4175 60.0849 27.2586 59.4014 26.8042C58.9156 26.4813 58.5711 26.5132 58.247 26.3882C58.3771 26.3106 58.375 26.3923 58.5332 26.2854L58.5652 26.261C58.6041 26.2392 58.652 26.2332 58.7016 26.224C58.5965 26.1323 58.501 26.1606 58.4044 26.0863ZM60.4936 25.804C60.6255 25.8401 60.6042 25.8847 60.8032 25.9782C60.9269 26.0364 61.06 26.0579 61.1672 26.1199C61.1984 26.2184 61.2436 26.3459 61.2188 26.4515C61.0013 26.4181 60.5438 26.0033 60.4936 25.804ZM49.6726 25.7702C49.9186 25.7449 50.2852 25.8106 50.4826 25.7575C50.7709 25.68 50.7359 25.4509 50.8871 25.2925C50.9149 25.5506 50.6492 25.8009 50.4597 25.9068C50.2632 26.0167 49.7065 25.9861 49.6726 25.7702ZM69.758 28.2721C69.7548 28.4605 69.7204 28.7062 69.7378 28.8817C69.7838 29.3465 69.7231 29.1055 69.6941 29.3818C69.6684 29.6265 69.6727 30.316 69.4834 30.4216C69.3754 30.1859 69.5446 29.017 69.3398 28.7048L69.3121 28.7973C69.3102 28.8053 69.3095 28.8144 69.3075 28.8228L69.2825 28.9189C69.1604 28.9061 69.1559 28.856 69.1819 28.7134C69.2055 28.5838 69.2511 28.6082 69.3179 28.5178L69.2584 28.2721C69.0937 27.9662 68.8012 27.131 68.7463 26.7895C68.6988 26.4941 68.6673 26.1966 68.6025 25.9045C68.541 25.6272 68.4225 25.3005 68.3868 25.0626C68.8664 25.1504 69.351 25.7111 69.5688 26.1528C69.8253 26.6728 69.7889 27.6191 69.758 28.2721ZM51.5655 24.7364L51.8065 24.5997C52.207 24.9187 52.3019 25.1722 53.0998 25.3858C53.6886 25.5435 54.4165 25.5235 55.0499 25.4752C56.1216 25.3936 56.7445 25.3138 57.7687 25.0628C57.8821 25.0351 58.057 24.9797 58.1664 24.9388C58.2929 24.8916 58.4563 24.8146 58.5837 24.7888C58.4654 25.2947 57.8726 26.3219 57.1245 25.5862C57.0455 25.5086 56.9823 25.4331 56.8572 25.4294C56.4685 25.4178 56.5202 26.1172 55.9949 26.1719C55.2072 26.254 55.3636 25.5341 54.9986 25.596C54.6288 25.6586 54.8014 26.3736 54.0726 26.2725C53.494 26.1922 53.5527 25.5114 53.1688 25.608C52.9353 25.6668 52.6312 26.3769 52.0424 25.5913C52.0326 25.5783 52.0095 25.5421 51.9952 25.5186L51.5655 24.7364ZM57.8306 24.2138C57.9884 24.1075 58.3007 24.0676 58.5266 24.0526C58.5252 24.3366 58.5808 24.3528 58.6075 24.5827C58.5369 24.6203 58.1623 24.7258 58.0335 24.7643C57.852 24.8186 57.7905 24.4244 57.8306 24.2138ZM59.7094 24.5974L59.6881 24.4609L60.3188 24.2478C60.5213 24.7399 60.369 24.6519 60.4328 24.9372C60.4851 25.1718 60.4378 25.0716 60.4263 25.2341C60.4144 25.4025 60.5218 25.3301 60.461 25.5916C60.3416 25.6276 59.7981 25.6283 59.7297 25.5274C59.5593 25.2759 60.1705 25.4905 60.3182 25.2835C60.0702 25.1094 59.6593 25.4825 59.6045 25.0633C59.7899 25.0741 60.0394 25.0741 60.2102 25.0138C60.3238 24.9735 60.3065 25.0009 60.3342 24.8902C60.2696 24.8468 60.34 24.8748 60.2418 24.8523C60.0529 24.8091 59.596 24.9356 59.3848 24.9707C59.4013 24.7912 59.5543 24.8096 59.673 24.7651C59.8744 24.6897 59.899 24.7191 60.1284 24.7028C60.1576 24.6358 60.0288 24.7467 60.132 24.6106C60.2017 24.5188 60.1644 24.6359 60.2515 24.5212C60.2225 24.4907 60.306 24.4072 59.9596 24.5258C59.8728 24.5555 59.8041 24.5923 59.7094 24.5974ZM52.5038 24.0448C52.5025 24.2557 52.6446 24.7202 52.7077 24.9352C52.347 24.9482 51.727 24.4722 52.1305 24.2252C52.2095 24.1769 52.4082 24.0786 52.5038 24.0448ZM58.7677 24.0196L59.5188 23.9821L59.5572 24.3301L58.8654 24.5091C58.7592 24.3842 58.7057 24.2211 58.7677 24.0196ZM57.1245 23.6985C57.296 24.0095 57.5471 24.669 57.7002 24.7837C57.4207 24.8015 57.3688 24.5962 57.2822 24.4034C57.2279 24.2824 57.1565 24.2339 57.131 24.1388C57.1024 24.0322 57.1214 23.8179 57.1245 23.6985ZM67.0482 24.0908C67.1421 24.0224 68.0075 24.3609 68.1839 25.2042C68.2179 25.3669 68.2055 25.7157 68.0772 25.8132C68.057 25.7797 67.769 24.476 67.0482 24.0908ZM59.7615 23.9456L60.3867 23.7901C60.4603 23.8876 60.4881 24.0146 60.4893 24.1759C60.3471 24.1493 60.445 24.0897 60.2605 24.133C59.885 24.2214 59.888 24.3346 59.7937 24.2057C59.7388 24.1307 59.7329 24.0301 59.7615 23.9456ZM60.8745 24.5058C60.7416 24.4044 60.613 23.9732 60.6392 23.7526L60.9033 23.6453C60.8977 23.8078 60.87 23.9567 60.8601 24.0899C60.8511 24.2117 60.8904 24.4498 60.8745 24.5058ZM51.6021 23.6861C51.6315 23.8374 51.718 23.838 51.6631 23.9695C51.5739 24.0133 51.5619 23.9839 51.4977 23.8994C51.4245 23.803 51.3789 23.6545 51.5101 23.6639C51.5877 23.6695 51.4685 23.6674 51.6021 23.6861ZM50.4894 23.7219C50.5113 23.8916 50.5658 23.8679 50.5602 24.1216C50.4086 24.2547 50.4291 24.1878 50.3436 24.3999C50.317 24.466 50.2757 24.5211 50.2626 24.5886C50.2575 24.6152 50.2892 25.0866 49.9487 25.0516C49.7715 25.0334 49.7391 24.8494 49.5929 24.9449C49.5799 25.0783 49.9818 25.2699 49.4248 25.2531L49.3984 25.0867C49.3283 25.1313 49.3619 25.1455 49.2886 25.0986C49.2662 25.0844 49.213 25.0197 49.1977 24.9743C49.1592 24.8607 49.1861 24.6932 49.1771 24.5671C48.9827 24.5553 49.0878 24.6352 48.989 24.7937C48.9223 24.9007 48.8926 24.8644 48.8599 24.9579L48.8532 24.9943C48.8425 25.0601 48.8852 24.9661 48.8508 25.0508C48.64 25.0339 48.6981 24.8152 48.689 24.6138C48.6734 24.2718 48.6035 24.3439 48.7806 24.0764C48.8511 23.97 48.9706 23.8184 49.0311 23.7006C49.1317 23.5045 49.0644 23.3519 49.2377 23.2446C49.6967 22.9605 50.3369 23.0305 50.6338 23.321C50.7764 23.4606 50.5581 23.6343 50.4894 23.7219ZM58.6715 22.9704C58.7821 23.0556 58.9552 23.09 59.0733 23.253C59.168 23.3837 59.2128 23.6318 59.1967 23.8308C58.8933 23.8505 58.6361 23.9646 58.6169 23.2923C58.6114 23.1003 58.6084 23.1178 58.6715 22.9704ZM59.5832 23.8104C59.4447 23.7503 59.4343 23.5882 59.4049 23.4606C59.3743 23.3271 59.3169 23.1258 59.4861 23.0635C59.7719 22.9581 59.7112 23.6132 59.5832 23.8104ZM60.2795 23.5682C60.1526 23.6406 60.0336 23.667 59.8867 23.6474C59.8226 23.2426 59.9401 23.0667 60.2515 22.9945C60.1634 23.346 60.2648 23.3297 60.2795 23.5682ZM54.4883 22.696C54.8954 22.9318 55.2526 23.265 55.5063 23.6933C55.6636 23.9587 56.0412 24.8196 56.073 25.1945C55.6761 25.3336 55.3808 25.3373 54.9148 25.3334C54.6442 24.6042 54.7929 24.8207 54.3162 24.1068C54.2234 23.968 54.1024 23.8227 54.1114 23.7077C54.2715 23.6554 54.329 23.6766 54.3729 23.8056C54.4621 23.7621 54.4071 23.7117 54.504 23.7046C54.6507 23.8602 54.7123 23.8631 54.8841 24.1457C54.9452 24.2462 54.9234 24.2573 55.069 24.2332C55.0614 23.9901 54.9499 23.5668 54.856 23.3781C54.7652 23.1956 54.7418 23.1758 54.6188 23.0771C54.4939 22.9768 54.4807 22.8959 54.4883 22.696ZM49.2017 23.1261C49.3107 22.9381 49.3375 22.8357 49.5747 22.7846C49.7283 22.7515 50.0966 22.7698 50.2158 22.8303C50.1077 22.9471 49.8736 22.9294 49.6899 22.9664C49.5362 22.9973 49.3172 23.1069 49.2017 23.1261ZM65.6955 29.3729C65.6732 29.3291 65.5718 28.4589 65.557 28.3327C65.4075 27.0538 64.9988 25.7704 64.5452 24.5868C64.4812 24.4197 64.4332 24.3215 64.3696 24.1617C64.0945 23.4699 63.5723 22.7464 62.781 22.8136C62.8004 22.5728 62.9599 22.5527 63.1503 22.6124C63.5647 22.742 63.837 22.6977 64.2474 23.3366C64.9334 24.4046 65.5089 26.8543 65.6441 28.2079C65.6594 28.361 65.783 29.2634 65.6955 29.3729ZM57.5732 24.0692C57.5689 24.063 57.5624 24.0455 57.5605 24.0503C57.5586 24.0551 57.5505 24.0357 57.5479 24.0317C57.2998 23.6445 57.2156 23.604 57.2879 23.233L57.4263 22.4551C57.4631 22.3548 57.5088 22.3236 57.5448 22.2343L57.6328 22.3343C57.6547 22.3588 57.6495 22.3542 57.6778 22.3825L57.7301 22.4307C57.5756 23.0544 57.542 23.3511 57.5732 24.0692ZM60.9875 23.2915C60.881 23.3697 60.8445 23.4104 60.6736 23.4276L60.5964 23.3127C60.5478 23.19 60.5587 22.8894 60.611 22.7908C60.6283 22.7582 60.8837 22.5794 61.0156 22.427C61.0115 22.6444 60.8956 22.5945 60.9349 22.8229C60.9672 23.0104 61.0287 23.0061 60.9875 23.2915ZM63.3207 22.2843C63.7373 22.3473 64.1632 22.5089 64.4916 22.7058C64.7143 22.8394 65.2665 23.2728 65.3361 23.5046C64.4837 23.465 64.4168 23.2002 63.7726 22.6474C63.6554 22.5469 63.3657 22.3491 63.3207 22.2843ZM53.2127 23.2131C53.075 23.1027 52.9823 23.048 53.0425 22.8008C53.0616 22.7221 53.089 22.6307 53.1177 22.5403C53.1486 22.4426 53.1557 22.3655 53.1798 22.2756C53.2113 22.1584 53.2584 22.1671 53.3154 22.0807C53.4233 21.9174 53.5063 21.6113 53.7005 21.435C53.9468 21.5159 54.1267 22.0665 53.9116 22.4749C53.7811 22.7227 53.4523 23.116 53.2127 23.2131ZM57.7753 22.079C57.9879 22.2088 57.7455 22.3272 58.4865 22.8611C58.4735 22.9767 58.4143 23.0841 58.3999 23.26C58.3607 23.7389 58.5733 23.729 58.1725 23.8088C58.088 23.8256 57.9644 23.8522 57.8713 23.829C57.6308 23.769 57.7154 22.8815 57.7836 22.6548C57.9298 22.1694 57.6718 22.2485 57.7753 22.079ZM56.0922 22.1627C56.4264 22.205 56.5813 22.3486 56.5751 22.7066C56.4921 22.6438 56.4395 22.5385 56.3565 22.4455C56.3226 22.4075 56.2813 22.3642 56.241 22.3228L56.0922 22.1627ZM61.1993 22.7974C61.0952 22.0255 61.9504 21.6072 62.6938 21.9004C62.9601 22.0055 63.014 22.0835 63.2157 22.2019C63.1312 22.1953 63.0512 22.1633 62.9562 22.1385C62.8458 22.1096 62.7398 22.1031 62.625 22.1012C61.6854 22.0851 61.4073 22.7111 61.1993 22.7974ZM51.6021 23.6861C51.6962 23.5604 51.8848 23.3936 51.986 23.269L52.7011 22.3439C52.819 22.198 52.979 21.9749 53.099 21.8986C53.1214 22.0638 53.0728 22.0937 53.0572 22.2772C53.0327 22.5644 52.8558 22.585 52.6757 22.6856C52.5619 22.749 52.5621 22.8068 52.4985 22.9274C52.0463 23.7857 52.1705 23.2382 51.9318 23.5163L51.7274 23.7374C51.6871 23.718 51.6549 23.7042 51.6021 23.6861ZM58.6075 21.1188C58.6648 21.5748 58.4759 21.6417 58.7254 21.9347C58.9196 22.1627 59.0109 22.1925 59.1282 22.5337C58.7025 22.3909 58.6719 22.1692 58.3895 21.7408C58.34 21.6657 58.3108 21.5846 58.3471 21.4745C58.3763 21.3861 58.547 21.1876 58.6075 21.1188ZM55.9347 21.1846C56.2293 21.2685 56.2854 21.6941 56.3957 21.9884L56.4187 22.0477C56.1677 21.9238 55.9832 21.4596 55.9347 21.1846ZM59.8878 22.3532C60.2768 22.4196 60.7057 21.4958 61.219 21.4273C61.4584 21.3954 61.689 21.46 61.7571 21.6668C61.2387 21.71 61.1178 21.8289 60.7838 22.2422C60.5539 22.5265 60.562 22.4991 60.2422 22.6456C59.9693 22.7707 59.9924 22.8534 59.8415 23.1046C59.7417 23.0487 59.7218 22.9183 59.5777 22.8885C59.3977 22.8513 59.3478 22.9604 59.2675 23.0483C58.5211 22.992 57.4563 21.7913 58.1197 21.6582C58.2253 21.9831 58.3154 21.9699 58.6362 22.3088C58.8173 22.5001 58.9274 22.6222 59.1541 22.6673C59.375 22.7113 59.187 22.698 59.3536 22.7706C59.4294 22.6854 59.3508 22.7664 59.3981 22.6292C59.4255 22.5499 59.5099 22.4699 59.5622 22.4074C59.5991 22.3633 59.6302 22.3271 59.6565 22.293C60.0421 21.7902 60.0329 22.0185 60.4953 21.4401C60.4978 21.4368 60.5323 21.3909 60.5338 21.3888C60.536 21.3859 60.618 21.2685 60.619 21.266C60.6687 21.1485 60.6099 21.0673 60.6681 20.8869C60.8037 20.8404 61.0529 20.9642 60.7454 21.3088C60.4701 21.6174 60.518 21.7751 60.0472 22.1889C60.0071 22.2241 59.9026 22.2806 59.8878 22.3532ZM59.453 20.8935C59.4829 20.5907 59.7278 20.9191 59.7337 20.9233C59.8661 21.0168 59.976 20.9345 60.1256 21.1088C60.1148 21.225 60.0291 21.2847 59.9777 21.4082C59.9058 21.5807 59.9606 21.4674 59.7841 21.6661L59.497 21.6589C59.4458 21.7625 59.5622 21.684 59.4888 21.7775C59.4518 21.8246 59.3788 21.8276 59.3095 21.8594C59.1782 21.9197 59.0375 22.0427 59.0524 21.758C58.8899 21.7399 58.7575 21.7333 58.8095 21.545C58.812 21.536 58.8361 21.4694 58.8402 21.4534C58.8855 21.2786 58.7789 21.2332 58.9126 21.189L58.9542 21.2054C59.0834 21.2895 59.0024 21.2782 59.2553 21.3114C59.2678 21.4482 59.2187 21.4253 59.1828 21.5599C59.2512 21.4804 59.2828 21.4589 59.3137 21.3111C59.5961 21.2259 59.6357 21.2738 59.6164 20.955L59.5283 20.9175C59.4919 20.9044 59.5087 20.9222 59.453 20.8935ZM53.844 21.0099C53.9585 20.8864 53.8683 20.6963 53.9588 20.5854C54.086 20.6545 54.11 20.8698 54.1074 21.0477C54.0981 21.6754 53.6195 21.4979 53.6617 20.8923C53.6746 20.7069 53.7206 20.7095 53.7172 20.5248C53.7128 20.2856 53.6835 20.3093 53.8153 20.2388C53.8597 20.3439 53.8887 20.5353 53.8789 20.6797C53.8576 20.9911 53.7453 20.7038 53.844 21.0099ZM59.5466 20.5232C59.5598 20.4192 59.5586 20.4552 59.546 20.3529L59.5071 20.2048C59.5051 20.1992 59.5016 20.1888 59.4971 20.1818C59.3292 20.2173 59.4698 20.1752 59.3816 20.2756C59.3222 20.3431 59.4372 20.2852 59.3249 20.3314C59.3199 20.3223 59.3145 20.2982 59.313 20.3025L59.291 20.1855C59.3021 19.9802 59.4971 20.0602 59.6693 20.0396C59.723 20.1359 59.7048 20.1141 59.7898 20.1704L59.8376 20.0222C60.0264 19.9674 59.8866 20.0447 60.071 20.0344C60.119 19.9524 60.0787 20.0229 60.0984 19.9378L60.1284 19.8174L60.2146 19.8207C60.3489 20.2164 60.0197 20.1187 59.929 20.278C59.8779 20.3677 59.886 20.4783 59.8901 20.5859L59.9215 20.7231C60.0489 20.7219 59.9926 20.6812 60.1453 20.7183C60.092 21.1492 59.6698 20.679 59.5497 20.663C59.2623 20.6249 58.9252 20.7235 58.7914 21.0013C58.7847 20.9954 58.7745 20.978 58.7715 20.9838L58.7097 20.9084C58.6901 20.8694 58.6875 20.827 58.6814 20.7895C58.6565 20.6372 58.6342 20.63 58.6129 20.5211C58.5869 20.3882 58.6474 20.046 58.6936 19.9536C58.8372 19.9777 58.7455 20.0047 58.7535 20.1797C58.9479 20.2911 58.8947 20.3016 58.9806 20.1535C59.065 20.2664 59.0988 20.2844 59.1229 20.3709C59.0607 20.4544 59.0756 20.407 58.9974 20.479C58.9794 20.4956 58.9704 20.5074 58.9607 20.5196C59.0489 20.6828 59.0362 20.6097 59.1873 20.5779C59.3305 20.5479 59.477 20.5944 59.5466 20.5232ZM54.2119 20.2146C54.0493 19.9671 54.1235 20.0904 54.2888 19.4652L54.3318 19.3392C54.4576 19.5379 54.3518 20.0287 54.2119 20.2146ZM60.2653 19.4729C60.4456 19.4626 60.7445 19.4931 60.845 19.6025C60.9082 19.6712 60.8928 19.8331 60.894 19.9415C60.8957 20.1181 60.9096 20.1386 60.8171 20.2449C60.69 20.2127 60.5945 20 60.4936 19.8869C60.3776 19.7565 60.2222 19.7237 60.2653 19.4729ZM58.7386 19.5715L58.9645 19.5195L58.9534 19.7129C58.9181 19.6969 58.8822 19.6855 58.8432 19.6672C58.6472 19.5751 58.7916 19.6312 58.7386 19.5715ZM59.214 19.6776C59.1134 19.3586 59.4236 19.408 59.7335 19.4457C59.8099 19.4551 59.8866 19.4445 59.9747 19.4523L59.9841 19.5714L59.8125 19.602L59.7996 19.829C59.6913 19.8371 59.6746 19.8597 59.6566 19.7521C59.6393 19.6495 59.6698 19.5747 59.6946 19.4847C59.5729 19.5159 59.5607 19.5301 59.4601 19.5935C59.2908 19.7003 59.3403 19.6888 59.214 19.6776ZM50.0125 20.8626C50.0148 20.2826 50.0315 20.6851 50.3447 19.9727C50.4783 19.6688 50.3931 19.5473 50.9742 19.3666C51.4834 19.1337 52.1287 19.1183 52.6268 19.3871C52.6453 19.6239 52.3764 20.0329 52.2207 20.199C52.0096 20.424 51.683 20.294 51.4643 20.6812L51.1693 21.2354C51.2658 21.1811 51.3467 21.0891 51.4593 21.0279C51.4593 21.0281 51.2612 21.4427 51.4048 21.5769C51.4296 21.6 51.9378 21.6768 52.1094 21.465C52.2705 21.2661 52.0656 21.1641 52.1695 20.976C52.1791 20.9585 52.1985 20.9285 52.2139 20.9015C52.266 20.8096 52.2524 20.8169 52.3304 20.7537C52.3202 21.2346 52.3672 21.5356 52.0582 21.869C51.7475 22.2043 51.6424 22.0511 51.4903 22.1853C51.3718 22.2899 51.166 22.5683 51.1021 22.6922C51.0062 22.8782 51.147 22.8795 51.0604 23.049C50.9219 23.0294 51.0177 22.9793 50.7393 22.8679C50.5985 22.8116 50.5164 22.7833 50.359 22.7448C50.0599 22.6714 49.7807 22.6589 49.4397 22.6901C49.4644 22.5262 49.5163 22.3627 49.5618 22.2071C49.6054 22.058 49.638 21.8973 49.6946 21.7379C49.8345 21.3444 49.9973 21.3125 50.0125 20.8626ZM53.1097 19.4172C53.1777 19.3793 53.1691 19.3588 53.2414 19.3135C53.3721 19.4137 53.6053 19.6049 53.4709 19.7755C53.4006 19.7475 53.2084 19.5152 53.1097 19.4172ZM50.9228 19.1411C51.6657 18.9067 51.8661 19.0328 52.3204 18.9702C52.5032 18.945 52.3209 18.9036 52.592 18.9392C52.7058 18.9542 52.8212 18.9428 52.9274 18.9766C52.9317 18.978 53.2566 19.1304 53.139 19.2724C53.107 19.3109 53.0714 19.3258 53.0405 19.3439C52.938 19.3059 52.8135 19.1227 52.5239 19.0774L52.5186 19.1076C52.5183 19.112 52.5179 19.1277 52.518 19.1314C52.5184 19.1493 52.5267 19.1393 52.5239 19.153C52.1768 19.176 51.9802 18.9828 51.2703 19.1319C51.1786 19.1512 51.001 19.2087 50.9228 19.1411ZM59.1528 20.2899C58.9743 20.0709 58.9655 18.9634 59.1528 18.7763C59.4251 18.8548 59.0846 19.0924 59.1982 19.8946C59.2204 20.0517 59.2434 20.1813 59.1528 20.2899ZM52.1315 18.8282C52.4006 18.5085 52.49 18.5279 52.6423 18.6456C52.711 18.6988 52.7437 18.7344 52.7722 18.853L52.1315 18.8282ZM59.2227 18.6185C59.2339 18.5382 59.2735 18.4482 59.3074 18.3842C59.3986 18.2123 59.5508 18.0897 59.625 17.8327C59.6974 18.1324 59.7439 18.4308 59.7428 18.7723C59.7411 19.2702 59.7273 19.3112 59.2849 19.3638C59.3174 19.161 59.438 18.883 59.377 18.6744L59.2227 18.6185ZM50.9393 18.988C50.9729 18.8706 51.1205 18.7211 51.2279 18.681C51.3336 18.6416 51.3848 18.6885 51.4685 18.629C51.5348 18.5819 51.522 18.5101 51.5772 18.4231L52.0278 18.4474L51.901 18.7486C51.8641 18.8369 51.911 18.8058 51.8352 18.8433C51.4364 18.8428 51.2695 18.9318 50.9393 18.988ZM50.5993 18.4956C50.5981 17.9711 50.6193 17.4095 50.9816 17.9961C51.1216 18.2229 51.1273 18.5031 50.9475 18.7149L50.6823 18.9413C50.6308 18.7871 50.5997 18.7081 50.5993 18.4956ZM59.1374 18.5704C59.0461 18.797 59.0233 18.5792 59.0134 18.9241C59.0091 19.0737 59.0368 19.3008 58.9561 19.3886C58.9021 19.4472 58.6563 19.5028 58.6104 19.4478C58.4793 19.2913 58.7424 18.2891 59.2892 18.2215L59.1374 18.5704ZM59.7754 18.0179C59.7816 18.024 59.7898 18.0318 59.7942 18.0364C60.1008 18.3609 60.288 18.7606 60.2364 19.2451L59.8206 19.2525C59.8238 18.773 59.8149 18.4903 59.7754 18.0179ZM52.9458 18.8717C52.9237 18.5512 53.186 18.3956 53.4435 18.2228C53.5631 18.1426 53.5888 18.0996 53.673 18.0715C53.6261 18.2946 53.4939 18.445 53.4226 18.6641C53.3452 18.9023 53.2734 18.9573 53.0883 18.9134C53.0481 18.904 53.0008 18.8959 52.9458 18.8717ZM53.1124 9.33411C53.2707 9.23824 53.6044 9.12457 53.7975 9.04239C54.4142 8.77999 55.3528 8.40056 55.9962 8.33749C56.0789 8.49149 56.1104 8.74766 56.1745 8.92588C56.2416 9.11225 56.3166 9.29118 56.3925 9.46145C56.5108 9.72717 56.7753 10.2969 56.7097 10.649C56.471 10.729 56.1923 10.7966 55.9433 10.8763C55.6988 10.9545 55.4803 11.0359 55.2096 11.1305L53.7866 11.6853C53.6911 11.5144 53.5342 10.7418 53.4606 10.4848L53.1124 9.33411ZM57.2157 11.8541C56.4533 12.1313 55.5626 12.4104 54.5585 12.653C54.5386 12.5744 54.5192 12.4958 54.5003 12.417C54.4845 12.3514 54.4593 12.2548 54.439 12.1609C54.5282 12.123 54.6184 12.0869 54.7053 12.0515C54.9675 11.9448 55.2314 11.8419 55.4956 11.7406C55.9269 11.5752 56.3773 11.3972 56.8169 11.2572C56.835 11.2515 56.8671 11.2412 56.8946 11.2351C56.8997 11.2419 56.9044 11.2486 56.908 11.2538C56.9731 11.3476 57.0129 11.4635 57.0579 11.568C57.1031 11.6732 57.1529 11.7679 57.2157 11.8541ZM40.0996 28.2475C41.2587 33.4768 43.5914 38.5597 46.6824 42.5836C50.2674 47.2504 54.8836 50.5959 60.0368 52.2637C65.1905 50.5959 69.8061 47.2499 73.3907 42.5836C76.4825 38.5592 78.8152 33.4765 79.9743 28.2475C77.0288 25.5944 77.8321 22.4925 78.4219 20.2157C78.9664 18.1142 79.4002 16.4406 78.185 14.2451C76.0467 14.735 73.8776 14.9835 71.7327 14.9835C66.0157 14.9835 61.745 13.218 60.0368 12.3779C59.0822 12.8474 57.327 13.6059 54.9664 14.1838C54.903 13.9451 54.8382 13.7068 54.7738 13.4683C56.168 13.1293 57.346 12.7254 58.2668 12.3573L58.5272 12.4124L58.4696 12.2751C59.0663 12.0301 59.5439 11.8049 59.8892 11.631L60.0368 11.5564L60.1847 11.631C61.7411 12.4152 65.9828 14.2394 71.7327 14.2394C73.9079 14.2394 76.1096 13.9779 78.2768 13.462L78.5144 13.4061L78.6451 13.6257C80.1804 16.2101 79.6514 18.2523 79.091 20.4145C78.5113 22.6519 77.7904 25.4368 80.5778 27.8155L80.7491 27.9613L80.6998 28.1899C79.5347 33.6075 77.13 38.8876 73.9272 43.0564C70.2316 47.8677 65.4626 51.309 60.1358 53.0086L60.0368 53.0402L59.9381 53.0086C54.6117 51.3094 49.8426 47.8677 46.1459 43.0564C42.9439 38.8876 40.5388 33.608 39.3737 28.1899L39.3244 27.9613L39.4956 27.8155C42.2831 25.4368 41.562 22.6519 40.982 20.415C40.422 18.2523 39.8927 16.2101 41.4284 13.6257L41.559 13.4061L41.7966 13.462C43.9635 13.9779 46.1656 14.2394 48.3408 14.2394C50.1973 14.2394 51.8962 14.0491 53.3985 13.7652C53.4582 14.0058 53.5184 14.246 53.5801 14.4857C52.0259 14.7832 50.2655 14.9835 48.3408 14.9835C46.1963 14.9835 44.0264 14.735 41.8884 14.2451C40.6736 16.4406 41.1066 18.1142 41.6515 20.2157C42.2415 22.4925 43.045 25.5944 40.0996 28.2475ZM22.5191 62.8082C21.6696 62.4526 21.0157 62.2695 20.0199 62.4626C18.9377 62.6657 18.07 63.3175 17.4064 64.4239C17.2145 64.7503 17.033 65.0776 16.8619 65.4058L16.286 66.5104L16.8195 68.1129C16.9651 68.5502 17.1209 68.9886 17.2868 69.428C17.8619 70.9202 18.6643 71.8983 19.7036 72.3719C20.0357 72.5259 20.3432 72.6257 20.6248 72.6675C21.037 72.7188 21.5476 72.6537 22.1553 72.4684C22.1671 72.5431 22.1648 72.6343 22.143 72.7357C22.1255 72.8399 22.0558 72.964 21.9454 73.113C21.8308 73.2591 21.6692 73.4113 21.4649 73.5724C21.2593 73.7298 20.9956 73.8596 20.6725 73.9581C20.1152 74.1281 19.4794 74.1408 18.7622 73.9971C17.4574 73.7362 16.394 72.994 15.5733 71.7744C15.1734 71.18 14.8274 70.5428 14.5337 69.8571C14.3131 70.2558 14.0688 70.6662 13.8015 71.0873C13.4409 71.661 13.0178 72.1742 12.5293 72.6327C11.6302 73.4765 10.5094 73.8924 9.16825 73.8778C8.56835 73.8714 6.67684 73.4866 5.79688 72.0563C6.64649 72.4119 7.30025 72.595 8.29603 72.4019C9.37831 72.1988 10.246 71.547 10.9096 70.4406C11.1015 70.1142 11.283 69.7869 11.4541 69.4587L12.7997 66.8777C12.8055 66.8667 12.8114 66.8559 12.8172 66.845L12.8174 66.8451L13.1869 66.1365L12.9784 65.5103L12.9782 65.5105C12.9733 65.4958 12.9681 65.4815 12.9632 65.4668L11.8183 62.0279C11.6728 61.5905 11.517 61.1522 11.3512 60.7127C10.776 59.2206 9.9736 58.2424 8.93425 57.7688C8.60216 57.6147 8.29467 57.515 8.01304 57.4732C7.60087 57.4219 7.09026 57.487 6.48255 57.6723C6.47081 57.5976 6.47302 57.5064 6.49484 57.405C6.51238 57.3008 6.58202 57.1767 6.69249 57.0277C6.80704 56.8817 6.96864 56.7294 7.173 56.5683C7.37854 56.4108 7.64223 56.2811 7.96538 56.1826C8.52266 56.0126 9.15846 55.9999 9.87564 56.1435C11.1805 56.4045 12.2439 57.1467 13.0646 58.3663C13.5106 59.0291 13.8895 59.7453 14.2037 60.5224C14.5208 61.2985 14.7977 62.0417 15.0329 62.7482L15.1035 62.9603C15.3152 62.7033 15.5428 62.4607 15.7867 62.2317C16.6858 61.388 17.8067 60.972 19.1477 60.9867C20.0163 60.9959 21.8756 61.5675 22.5191 62.8082ZM34.1179 59.1428C34.6501 59.1428 35.2255 59.2379 35.8353 59.4323C36.2985 59.577 36.7098 59.7736 37.0752 60.0221C37.429 60.2792 37.7109 60.6119 37.9238 61.018C38.1338 61.4263 38.2776 61.8562 38.3553 62.312C38.4473 62.932 38.4905 63.511 38.4905 64.0468V64.1419L38.4992 64.7057V67.053C38.8262 67.1635 39.1426 67.2175 39.4481 67.2175C39.7809 67.2175 40.1223 67.1534 40.4764 67.0221C41.0482 66.801 41.4663 66.4709 41.7223 66.032C41.9213 65.6939 42.043 65.3445 42.0892 64.9839V63.9517C42.0892 63.6989 42.1496 63.4938 42.2676 63.3382C42.3856 63.1826 42.538 63.053 42.7221 62.9493C42.9062 62.8456 43.1134 62.7463 43.3377 62.6534C43.5909 62.554 43.8354 62.433 44.0741 62.2969C44.3129 62.1586 44.5229 61.9772 44.7042 61.7504C44.7042 66.771 44.7099 69.5082 44.7272 69.964C44.7387 70.3744 44.8135 70.8216 44.9458 71.3056C45.081 71.7916 45.3284 72.2107 45.6879 72.565C46.0475 72.9193 46.5711 73.1072 47.2558 73.1288C47.8023 73.1288 48.2569 73.0403 48.6251 72.861C48.9933 72.6817 49.2695 72.4527 49.4564 72.1762C49.6406 71.8997 49.7355 71.6166 49.7355 71.3249C49.7355 70.975 49.5945 70.6574 49.3154 70.3723C49.0393 70.0871 48.6164 69.9121 48.0497 69.8451C47.9577 69.8365 47.8714 69.8322 47.788 69.8322C47.5291 69.8322 47.2759 69.8711 47.0285 69.9488C46.7812 70.0266 46.5567 70.1454 46.3553 70.3075C46.2259 70.0828 46.1597 69.8732 46.1597 69.6788C46.1597 69.4088 46.2604 69.1733 46.4647 68.968C46.666 68.7628 46.9335 68.6029 47.2644 68.4906C47.5952 68.3761 47.949 68.32 48.3259 68.32C48.7027 68.32 49.0767 68.3848 49.4478 68.5144C49.8189 68.6462 50.144 68.8557 50.4259 69.1452C50.7049 69.4347 50.9092 69.8105 51.0329 70.2751C51.0645 70.4263 51.0817 70.5775 51.0817 70.7309C51.0817 70.9966 51.0415 71.2515 50.9552 71.4957C50.6704 72.2734 50.1065 72.8847 49.2695 73.3319C48.4323 73.7791 47.5204 74.0016 46.5309 74.0016C45.7052 74.0016 44.9458 73.8439 44.2554 73.5285C43.7572 73.2835 43.3452 72.9909 43.0197 72.6502C42.3321 71.9306 42.0892 70.578 42.0892 69.6237V67.8486C40.7447 68.4851 39.8699 68.8224 38.4992 69.2642V70.2945C38.4992 70.6185 38.5858 70.9295 38.7581 71.2278C38.8077 71.3137 38.866 71.3937 38.9338 71.4672L39.7076 72.4132C39.5496 72.744 38.9674 73.7072 38.8616 73.9714C38.0187 73.5329 37.3859 73.1094 36.963 72.7011C36.5372 72.2949 36.2525 71.8522 36.1115 71.3768C35.9677 70.8994 35.8929 70.3334 35.8871 69.6788C35.8871 69.4347 35.8986 69.1884 35.9216 68.94V64.7057L35.9044 63.8955C35.9044 63.3425 35.8842 62.8154 35.844 62.312C35.7778 61.5711 35.5592 61.005 35.1881 60.6162C34.9953 60.4217 34.7767 60.2597 34.5293 60.1258C34.2819 59.994 34.0403 59.8946 33.8044 59.8276C33.5685 59.7628 33.3183 59.7239 33.0564 59.7088C32.7918 59.6937 32.5732 59.6851 32.3977 59.6851C32.4092 59.644 32.438 59.5965 32.4869 59.5468C32.5358 59.4971 32.6307 59.4409 32.7745 59.3826C32.9155 59.3243 33.0996 59.2681 33.324 59.2184C33.5512 59.1666 33.813 59.1428 34.1179 59.1428ZM31.1314 74.0016C30.4874 74.0016 29.9816 73.8467 29.6171 73.5397C29.2527 73.2297 28.995 72.8095 28.8474 72.273C28.6023 72.7916 28.2756 73.2089 27.8671 73.5248C27.4587 73.8437 26.934 74.0016 26.2899 74.0016C25.8407 74.0016 25.4166 73.9212 25.0144 73.7602C24.6123 73.6023 24.2479 73.3609 23.9242 73.0419C23.5629 72.6753 23.2896 72.2432 23.1105 71.7485C22.9283 71.2537 22.8372 70.7501 22.8372 70.2374C22.8372 69.9304 22.8717 69.6235 22.9377 69.3225C23.1608 68.4373 23.5661 67.719 24.1536 67.1646C24.7443 66.6103 25.4386 66.1275 26.2429 65.7162C26.6544 65.4986 27.0911 65.2841 27.5498 65.0695C28.3415 64.7148 29.0893 64.3154 29.793 63.8773C30.4937 63.4392 30.9995 62.9027 31.3074 62.2739V70.8752C31.3074 71.1733 31.3293 71.4177 31.3796 71.6084C31.4299 71.8021 31.5273 71.9422 31.6781 72.0375C31.8289 72.13 32.0488 72.1777 32.3379 72.1777C32.63 72.1777 32.8814 72.0942 33.0825 71.9273C33.2835 71.7604 33.4406 71.5547 33.5506 71.3044C33.6605 71.054 33.7265 70.7918 33.7453 70.5176H34.5748C34.4742 71.2865 34.292 71.8975 34.0218 72.3505C33.7988 72.7409 33.5286 73.0688 33.2113 73.337C32.696 73.7811 32.0017 74.0016 31.1314 74.0016ZM27.0723 72.2015C27.2388 72.2015 27.4179 72.1598 27.6158 72.0703C27.9205 71.9214 28.1373 71.6948 28.263 71.3997C28.3887 71.1017 28.4515 70.7948 28.4515 70.4728V65.8473L27.9551 66.1156C27.2074 66.5239 26.6701 66.959 26.3434 67.418C25.9224 68.017 25.7087 68.8396 25.7087 69.8887C25.7087 70.7501 25.9067 71.4058 26.2994 71.8528C26.5005 72.0852 26.7581 72.2015 27.0723 72.2015ZM59.5181 74.0016C57.8607 74.0016 56.5687 73.4089 55.645 72.2266C54.7243 71.0412 54.2639 69.287 54.2639 66.961V65.5374C54.2639 64.7809 54.3827 64.1316 54.6203 63.5896C54.8579 63.0445 55.1698 62.577 55.5559 62.1868C55.942 61.7996 56.3608 61.4601 56.8123 61.1772C57.2637 60.8913 57.7122 60.6321 58.1518 60.3998C58.6865 60.1258 59.1468 59.8489 59.5359 59.5689C59.925 59.2919 60.1745 58.9673 60.2844 58.601C62.0487 59.822 62.9308 60.9627 62.9308 62.023C62.9308 62.4012 62.8269 62.7735 62.6219 63.1398C62.414 63.5062 62.1437 63.7862 61.8021 63.9797C61.4636 64.1763 61.0834 64.2746 60.6586 64.2746V63.67C60.6586 63.2232 60.5695 62.7943 60.3943 62.3834C60.2161 61.9753 59.928 61.6686 59.527 61.463C59.2835 61.3409 59.0459 61.2814 58.8141 61.2814C58.5766 61.2814 58.336 61.3409 58.0924 61.463C57.6974 61.6686 57.4093 61.9753 57.2311 62.3834C57.0499 62.7943 56.9608 63.2232 56.9608 63.67V66.8299C56.9608 67.4345 57.0143 68.0838 57.1212 68.7807C57.2281 69.4747 57.4301 70.112 57.7211 70.6957C58.0152 71.2765 58.434 71.6994 58.9805 71.9615C59.426 72.1462 59.925 72.2385 60.4745 72.2385C60.8814 72.2385 61.2853 72.1908 61.6863 72.0956C62.0843 72.0002 62.4319 71.8603 62.7199 71.6815C63.308 71.3152 63.7595 70.8208 64.0773 70.1984L64.5644 70.3979C64.3624 71.1961 64.012 71.8603 63.5129 72.3963C63.014 72.9324 62.417 73.3345 61.7249 73.5996C61.0299 73.8676 60.2963 74.0016 59.5181 74.0016ZM72.4056 74.0016C71.7967 74.0016 71.3185 73.8468 70.974 73.54C70.6295 73.2303 70.3859 72.8103 70.2463 72.2742C70.0146 72.7925 69.7057 73.2094 69.3196 73.5251C68.9335 73.8438 68.4375 74.0016 67.8286 74.0016C67.4038 74.0016 67.0029 73.9212 66.6227 73.7604C66.2425 73.6025 65.898 73.3613 65.592 73.0426C65.2505 72.6763 64.9921 72.2444 64.8228 71.7501C64.6505 71.2556 64.5644 70.7523 64.5644 70.2401C64.5644 69.9333 64.5971 69.6265 64.6594 69.3257C64.8703 68.4412 65.2534 67.7234 65.8088 67.1695C66.3673 66.6155 67.0237 66.133 67.784 65.722C68.1731 65.5046 68.586 65.2902 69.0196 65.0757C69.7681 64.7213 70.475 64.3222 71.1403 63.8844C71.8026 63.4466 72.2809 62.9105 72.572 62.2821V70.8774C72.572 71.1753 72.5928 71.4195 72.6402 71.6101C72.6878 71.8037 72.7799 71.9436 72.9224 72.039C73.065 72.1313 73.2729 72.1789 73.5462 72.1789C73.8224 72.1789 74.06 72.0956 74.2501 71.9288C74.4402 71.762 74.5887 71.5565 74.6926 71.3063C74.7966 71.0561 74.859 70.794 74.8768 70.52H75.6609C75.5658 71.2884 75.3936 71.899 75.1381 72.3517C74.9273 72.7418 74.6718 73.0694 74.3719 73.3375C73.8847 73.7812 73.2283 74.0016 72.4056 74.0016ZM68.5682 72.2028C68.7256 72.2028 68.8949 72.1611 69.082 72.0717C69.3701 71.9228 69.5751 71.6965 69.6939 71.4016C69.8126 71.1038 69.8721 70.797 69.8721 70.4753V65.8531L69.4028 66.1211C68.6959 66.5292 68.188 66.964 67.8791 67.4226C67.4811 68.0213 67.2791 68.8432 67.2791 69.8916C67.2791 70.7523 67.4662 71.4075 67.8375 71.8543C68.0276 72.0866 68.2711 72.2028 68.5682 72.2028ZM75.381 79.8047C75.0394 79.8047 74.7447 79.7761 74.496 79.7174C74.2478 79.6589 74.0459 79.5947 73.8935 79.5279C73.7385 79.46 73.6336 79.395 73.583 79.3384C73.5311 79.2803 73.4991 79.2262 73.4867 79.1788C73.6824 79.1788 73.9184 79.1689 74.201 79.1514C74.4835 79.134 74.7509 79.0902 75.0053 79.0143C75.2602 78.9381 75.5212 78.8232 75.7878 78.6702C76.0554 78.5165 76.2928 78.3304 76.4989 78.1042C76.9015 77.6621 77.1408 77.0075 77.207 76.1468C77.3961 73.6883 77.2908 72.6631 77.2908 70.1941C77.2908 69.9023 77.3529 69.6655 77.4802 69.4859C77.6075 69.3064 77.7721 69.1568 77.9739 69.0371C78.1727 68.9175 78.3932 68.8052 78.6354 68.698C78.9087 68.5808 79.1757 68.4437 79.4335 68.2841C79.6912 68.127 79.9179 67.9151 80.1104 67.6533V73.3059C80.6259 73.3009 81.1104 73.266 81.5668 73.2011C82.0202 73.1338 82.4301 72.9892 82.7935 72.7648C83.3648 72.4008 83.6505 71.9295 83.6505 71.356C83.6505 70.4658 83.0388 69.5059 81.8215 68.4786C80.924 67.7181 79.8651 67.0075 78.6447 66.3442C78.1292 66.0724 77.6541 65.7732 77.2162 65.4466C76.592 64.9828 76.2815 64.4941 76.2815 63.978C76.2815 63.6413 76.3933 63.3346 76.6169 63.0529C76.8405 62.7736 77.12 62.5143 77.4492 62.2725C77.7783 62.0306 78.1106 61.8062 78.446 61.5967L78.9459 61.275C78.7565 61.4546 78.5795 61.6516 78.4087 61.8635C78.2379 62.0754 78.1541 62.3024 78.1541 62.5467C78.1541 62.9108 78.4398 63.2923 79.0081 63.6863C79.4459 63.9929 79.98 64.3246 80.6104 64.6786C81.1383 64.9753 81.6911 65.307 82.2655 65.6685C82.8432 66.0325 83.4114 66.439 83.9673 66.8928C84.3927 67.2394 84.784 67.6059 85.1411 67.9949C85.9236 68.8626 86.3149 69.7103 86.3149 70.5382C86.3149 70.7476 86.2901 70.957 86.2435 71.1665C86.0914 71.7849 85.6566 72.3285 84.9424 72.7947C84.0977 73.3458 83.0295 73.7298 81.7377 73.9492C81.1756 74.0215 80.6321 74.0589 80.1104 74.0589C80.1104 75.6649 79.6022 77.8637 78.536 78.7899C78.1678 79.1097 77.6983 79.3081 77.2007 79.4781C76.5524 79.6995 75.943 79.8047 75.381 79.8047ZM95.1979 74.0016C94.589 74.0016 94.1108 73.8468 93.7663 73.54C93.4217 73.2303 93.1782 72.8103 93.0386 72.2742C92.8069 72.7925 92.498 73.2094 92.1119 73.5251C91.7257 73.8438 91.2297 74.0016 90.6209 74.0016C90.1961 74.0016 89.7951 73.9212 89.415 73.7604C89.0348 73.6025 88.6903 73.3613 88.3843 73.0426C88.0428 72.6763 87.7844 72.2444 87.615 71.7501C87.4428 71.2556 87.3567 70.7523 87.3567 70.2401C87.3567 69.9333 87.3893 69.6265 87.4517 69.3257C87.6626 68.4412 88.0458 67.7234 88.6012 67.1695C89.1595 66.6155 89.8159 66.133 90.5763 65.722C90.9654 65.5046 91.3783 65.2902 91.8119 65.0757C92.5604 64.7213 93.2672 64.3222 93.9326 63.8844C94.5949 63.4466 95.0731 62.9105 95.3642 62.2821V70.8774C95.3642 71.1753 95.385 71.4195 95.4325 71.6101C95.48 71.8037 95.5721 71.9436 95.7147 72.039C95.8572 72.1313 96.0651 72.1789 96.3384 72.1789C96.6147 72.1789 96.8522 72.0956 97.0423 71.9288C97.2324 71.762 97.3809 71.5565 97.4849 71.3063C97.5888 71.0561 97.6512 70.794 97.669 70.52H98.4532C98.3581 71.2884 98.1859 71.899 97.9304 72.3517C97.7195 72.7418 97.4641 73.0694 97.1641 73.3375C96.677 73.7812 96.0206 74.0016 95.1979 74.0016ZM91.3604 72.2028C91.5179 72.2028 91.6871 72.1611 91.8743 72.0717C92.1624 71.9228 92.3673 71.6965 92.4861 71.4016C92.6049 71.1038 92.6643 70.797 92.6643 70.4753V65.8531L92.195 66.1211C91.4882 66.5292 90.9802 66.964 90.6714 67.4226C90.2733 68.0213 90.0714 68.8432 90.0714 69.8916C90.0714 70.7523 90.2585 71.4075 90.6298 71.8543C90.8198 72.0866 91.0634 72.2028 91.3604 72.2028ZM98.4442 59.4881C98.9386 59.4881 99.473 59.5814 100.04 59.7723C100.47 59.9144 100.852 60.1075 101.191 60.3514C101.52 60.6038 101.782 60.9304 101.98 61.3292C102.175 61.7301 102.308 62.1522 102.38 62.5997C102.466 63.2085 102.506 63.7769 102.506 64.303V64.3963L102.514 64.9499V70.4372C102.514 70.7553 102.594 71.0607 102.755 71.3534C102.912 71.644 103.171 71.8625 103.532 72.0089C103.757 72.0958 103.973 72.1383 104.182 72.1383C104.39 72.1383 104.604 72.0958 104.826 72.0089C105.184 71.8625 105.446 71.644 105.606 71.3534C105.769 71.0607 105.849 70.7553 105.849 70.4372V64.2096C105.849 63.9614 105.905 63.76 106.015 63.6072C106.124 63.4545 106.266 63.3273 106.437 63.2254C106.608 63.1237 106.8 63.0261 107.009 62.9348C107.244 62.8373 107.471 62.7185 107.693 62.5849C107.915 62.4491 108.11 62.271 108.278 62.0482C108.278 66.9776 108.284 69.6651 108.3 70.1126C108.31 70.5156 108.38 70.9547 108.503 71.4298C108.628 71.907 108.858 72.3186 109.192 72.6664C109.526 73.0143 110.013 73.1988 110.649 73.22C111.156 73.22 111.578 73.133 111.921 72.957C112.263 72.7809 112.519 72.5561 112.693 72.2846C112.864 72.0131 112.952 71.7352 112.952 71.4489C112.952 71.1053 112.821 70.7935 112.562 70.5135C112.305 70.2335 111.913 70.0617 111.386 69.996C111.301 69.9874 111.22 69.9832 111.143 69.9832C110.902 69.9832 110.667 70.0214 110.437 70.0978C110.208 70.1741 109.999 70.2908 109.812 70.4499C109.692 70.2293 109.63 70.0235 109.63 69.8326C109.63 69.5675 109.724 69.3363 109.914 69.1348C110.101 68.9333 110.349 68.7763 110.657 68.666C110.964 68.5536 111.293 68.4985 111.643 68.4985C111.993 68.4985 112.34 68.5621 112.685 68.6894C113.03 68.8187 113.331 69.0245 113.593 69.3087C113.853 69.5929 114.042 69.962 114.157 70.4181C114.187 70.5665 114.203 70.715 114.203 70.8656C114.203 71.1265 114.165 71.3768 114.085 71.6165C113.821 72.3801 113.297 72.9803 112.519 73.4194C111.741 73.8585 110.894 74.0769 109.975 74.0769C109.208 74.0769 108.503 73.9221 107.861 73.6124C107.11 73.2221 106.571 72.7088 106.242 72.0704C105.745 72.3355 105.256 72.5667 104.772 72.7639C104.291 72.9612 103.874 73.1585 103.524 73.3579C103.174 73.5551 102.95 73.7863 102.851 74.0472C102.068 73.6166 101.48 73.2009 101.087 72.8C100.692 72.4013 100.427 71.9664 100.296 71.4998C100.162 71.031 100.093 70.4753 100.088 69.8326C100.088 69.5929 100.098 69.3511 100.12 69.1072V64.9499L100.104 64.1545C100.104 63.6115 100.085 63.0939 100.048 62.5997C99.9861 61.8722 99.783 61.3165 99.4383 60.9347C99.2592 60.7438 99.0561 60.5847 98.8263 60.4532C98.5965 60.3238 98.372 60.2263 98.1529 60.1605C97.9338 60.0968 97.7013 60.0586 97.4581 60.0438C97.2122 60.029 97.0092 60.0205 96.8461 60.0205C96.8569 59.9802 96.8836 59.9335 96.929 59.8847C96.9744 59.836 97.0626 59.7808 97.1962 59.7235C97.3272 59.6663 97.4982 59.6111 97.7066 59.5623C97.9177 59.5114 98.1609 59.4881 98.4442 59.4881Z" fill="#A67C36"/>
</g>
</svg>
