<svg width="21" height="20" viewBox="0 0 21 20" fill="none" xmlns="http://www.w3.org/2000/svg">
<g id="phone">
<path id="Vector" d="M18.8332 14.1014V16.6014C18.8341 16.8335 18.7866 17.0632 18.6936 17.2758C18.6006 17.4885 18.4643 17.6794 18.2933 17.8363C18.1222 17.9932 17.9203 18.1126 17.7005 18.187C17.4806 18.2613 17.2477 18.2889 17.0165 18.268C14.4522 17.9894 11.989 17.1132 9.82486 15.7097C7.81139 14.4303 6.10431 12.7232 4.82486 10.7097C3.41651 8.53572 2.54007 6.06054 2.26653 3.48472C2.2457 3.25427 2.27309 3.02202 2.34695 2.80274C2.4208 2.58346 2.53951 2.38196 2.6955 2.21107C2.8515 2.04018 3.04137 1.90364 3.25302 1.81015C3.46468 1.71666 3.69348 1.66827 3.92486 1.66805H6.42486C6.82928 1.66407 7.22136 1.80728 7.528 2.07099C7.83464 2.33471 8.03493 2.70092 8.09153 3.10138C8.19705 3.90144 8.39274 4.68699 8.67486 5.44305C8.78698 5.74132 8.81125 6.06548 8.74478 6.37712C8.67832 6.68875 8.52392 6.97481 8.29986 7.20138L7.24153 8.25972C8.42783 10.346 10.1552 12.0734 12.2415 13.2597L13.2999 12.2014C13.5264 11.9773 13.8125 11.8229 14.1241 11.7565C14.4358 11.69 14.7599 11.7143 15.0582 11.8264C15.8143 12.1085 16.5998 12.3042 17.3999 12.4097C17.8047 12.4668 18.1744 12.6707 18.4386 12.9826C18.7029 13.2945 18.8433 13.6927 18.8332 14.1014Z" stroke="#0C0904" stroke-linecap="round" stroke-linejoin="round"/>
</g>
</svg>
