<svg width="99" height="70" viewBox="0 0 99 70" fill="none" xmlns="http://www.w3.org/2000/svg">
<g id="Xan Saray Logo">
<path id="Vector" fill-rule="evenodd" clip-rule="evenodd" d="M84.3818 46.3561C84.1663 46.6866 84.1084 47.1089 84.2076 47.621C84.3003 48.0268 84.4465 48.3483 84.6488 48.5895C84.8512 48.8307 85.0767 48.9947 85.3242 49.0839C85.5712 49.1711 85.8081 49.1908 86.0357 49.1385C86.3088 49.0758 86.5327 48.9143 86.7079 48.656C86.8836 48.3999 86.9485 48.0546 86.9046 47.6219C86.8958 47.5521 86.8845 47.4872 86.8704 47.4253C86.8265 47.2331 86.7532 47.0521 86.6505 46.8824C86.5479 46.7127 86.4171 46.5674 86.2566 46.447C86.41 46.3106 86.5623 46.2239 86.7139 46.1891C86.9247 46.1407 87.1255 46.1732 87.3203 46.2881C87.5146 46.4008 87.6847 46.5707 87.8285 46.7962C87.9739 47.0213 88.0777 47.2738 88.1416 47.5536C88.2055 47.8334 88.2184 48.1226 88.1801 48.4213C88.1402 48.7204 88.0318 48.9992 87.8537 49.2604C87.6751 49.5194 87.4164 49.7384 87.075 49.9135C86.9623 49.9641 86.8472 50.004 86.7276 50.0315C86.5202 50.0791 86.3143 50.0965 86.1093 50.0746C85.454 50.0042 84.7822 49.9499 84.3112 49.3912C82.3924 47.115 84.4604 46.2356 84.3818 46.3561ZM31.4143 22.5478C33.4241 33.0045 40.3234 41.4274 49.086 44.1003C57.8483 41.4274 64.7478 33.0045 66.7576 22.5478C64.2841 20.8041 64.8008 18.8099 65.3011 16.8788C65.8177 14.8836 66.3518 12.8223 64.4671 10.1607C56.3391 12.3301 50.3494 9.36458 49.086 8.65767C48.8441 8.79298 48.4286 9.01118 47.8585 9.26012L47.4594 8.68338L47.4546 8.67717C47.4535 8.67579 47.4524 8.67438 47.4514 8.67297L47.4511 8.47232C47.4511 8.42126 47.4501 8.37248 47.4477 8.32559C48.3358 7.94787 48.8304 7.64846 48.8479 7.63756L49.0854 7.49015L49.3243 7.63785C49.3881 7.67736 55.7833 11.5502 64.5291 9.09306L64.8258 9.00979L65.0189 9.26531C67.4322 12.4589 66.7579 15.0604 66.2165 17.1509C65.7221 19.0593 65.3877 20.35 67.2419 21.6709C67.8233 21.189 68.3653 20.7625 68.747 20.4766C68.9576 20.3189 69.1561 19.9426 69.0896 19.3976C69.009 18.88 69.8433 18.48 69.9641 19.2367C69.9835 19.3312 70.3307 18.5946 69.6855 18.3449C69.2302 18.1554 68.9372 18.8913 68.8991 18.9228C68.4499 19.315 67.9329 17.7884 69.1547 17.4678C69.7995 17.3012 70.4252 17.7947 70.604 18.4163C70.6365 17.8588 70.2493 17.574 70.7034 17.2043C71.0129 16.9517 71.5396 17.2611 71.3323 18.2487C73.6472 15.5038 70.7224 12.8973 69.3934 14.5961C68.7228 15.4537 70.2506 17.0252 70.5452 15.0299C70.5821 14.7799 71.0576 14.9024 71.2198 15.3014C71.6827 16.3507 69.8367 17.6885 68.8185 16.1586C67.9735 14.9403 69.07 13.5531 70.1877 13.4518C71.5748 13.3258 72.8064 14.3731 72.8059 16.2505C72.805 17.7921 71.6533 19.0021 70.2849 20.1058C72.3552 19.0909 73.751 19.6671 74.2993 20.2933C74.9548 21.042 74.6211 21.9022 74.0589 21.4569C73.6032 21.0961 73.3774 20.6604 72.6523 20.4553C72.6194 20.446 72.5974 20.439 72.5763 20.4324C72.8393 20.5392 73.8613 21.0636 73.685 22.335C73.4802 24.0959 71.6151 24.4563 71.1932 23.181C70.9587 22.4588 71.4559 21.21 71.7799 22.4349C72.0764 23.4577 72.7932 22.9191 72.9475 22.1992C73.2429 20.7888 70.9439 20.3087 69.5886 20.8532C69.2807 20.9721 68.9434 21.1655 68.6243 21.3755C68.3359 21.5935 68.0545 21.8109 67.7876 22.0295L67.8179 22.0489L67.7541 22.4001C66.823 27.5364 64.7248 32.3418 61.686 36.2974C58.3594 40.6282 54.0465 43.6785 49.2131 45.1195L49.086 45.1577L48.9588 45.1195C44.1257 43.6785 39.8124 40.6282 36.4859 36.2974C33.447 32.3418 31.3489 27.5364 30.418 22.4001L30.3554 22.0553C30.0792 21.828 29.787 21.6021 29.4875 21.3755C29.1682 21.1655 28.8311 20.9721 28.5229 20.8532C27.1676 20.3087 24.8688 20.7888 25.164 22.1992C25.3183 22.9191 26.0347 23.4577 26.3316 22.4349C26.6556 21.21 27.1528 22.4588 26.9179 23.181C26.4964 24.4563 24.6313 24.0959 24.4265 22.335C24.2502 21.0636 25.2722 20.5392 25.5349 20.4324C25.5144 20.439 25.4921 20.446 25.4593 20.4553C24.7341 20.6604 24.5085 21.0961 24.0526 21.4569C23.4901 21.9022 23.1567 21.042 23.8122 20.2933C24.3605 19.6671 25.7564 19.0909 27.8265 20.1058C26.4583 19.0021 25.3068 17.7921 25.306 16.2505C25.305 14.3731 26.5366 13.3258 27.9238 13.4518C29.0411 13.5531 30.138 14.9403 29.293 16.1586C28.275 17.6885 26.4291 16.3507 26.8917 15.3014C27.0536 14.9024 27.5294 14.7799 27.5666 15.0299C27.861 17.0252 29.3884 15.4537 28.7177 14.5961C27.3891 12.8973 24.4643 15.5038 26.7795 18.2487C26.572 17.2611 27.0986 16.9517 27.408 17.2043C27.8625 17.574 27.4753 17.8588 27.5074 18.4163C27.6858 17.7947 28.3119 17.3012 28.9569 17.4678C30.1786 17.7884 29.6613 19.315 29.2121 18.9228C29.1743 18.8913 28.8817 18.1554 28.4259 18.3449C27.7807 18.5946 28.128 19.3312 28.1477 19.2367C28.2683 18.48 29.1027 18.88 29.0219 19.3976C28.9553 19.9426 29.1542 20.3189 29.3645 20.4766C29.7523 20.767 30.3054 21.2025 30.8972 21.6938C32.7876 20.3649 32.4523 19.0704 31.9555 17.1509C31.4137 15.0604 30.7396 12.4589 33.153 9.26531L33.346 9.00979L33.6428 9.09306C37.372 10.1403 40.6733 10.0367 43.2393 9.57058C43.3268 9.90684 43.4104 10.2441 43.4933 10.5816C40.8847 11.0651 37.532 11.1822 33.7048 10.1607C31.8204 12.8223 32.3541 14.8836 32.8711 16.8791C33.3711 18.8099 33.8878 20.8041 31.4143 22.5478ZM52.2066 37.1159C52.092 36.9893 52.0704 36.9046 52.2632 36.693C52.3001 36.6526 52.2792 36.6682 52.3234 36.6314C52.3691 36.5933 52.3168 36.6166 52.3846 36.5961C52.3895 36.7183 52.3326 36.8759 52.2809 36.9862L52.2066 37.1159ZM41.2413 16.7475C41.1212 17.2383 41.1506 17.1174 41.0756 17.6231C41.0163 18.0223 40.9641 18.0653 40.8077 18.3631C40.8247 18.3912 40.8124 18.4052 40.9024 18.4527C41.0639 18.2813 41.3222 17.6235 41.4179 17.3577C41.414 17.3532 41.4076 17.3404 41.4058 17.3447C41.4041 17.3488 41.243 17.1855 41.254 17.0997C41.269 16.983 41.3063 16.8152 41.3732 16.7543C41.4016 16.6592 41.4151 16.6756 41.4264 16.6328C41.4691 16.4702 41.4426 16.5919 41.4186 16.5414C41.2771 16.578 41.3289 16.6705 41.2413 16.7475ZM41.0432 19.591C40.9355 19.617 40.4769 20.1022 40.8022 20.3075C41.0958 20.4929 40.9308 20.0418 40.9308 20.0414C40.9118 19.8197 41.148 19.8413 41.0432 19.591ZM42.9599 7.00596C42.9095 6.99279 42.9318 6.99815 42.8985 6.9744C42.8806 6.96164 42.8533 6.93382 42.8345 6.91818C42.6434 6.7593 42.6587 6.82782 42.6303 6.37445C42.6145 6.12269 42.5291 5.711 42.5504 5.47474C42.6697 5.74869 42.9817 6.5088 42.9929 6.78733L42.9599 7.00596ZM43.3521 6.82916C43.396 6.67766 43.4382 6.7331 43.3644 6.58018L42.6399 5.01507C42.5995 4.92884 42.5635 4.83753 42.5213 4.75376C42.4393 4.75268 42.3787 4.78374 42.2973 4.82331C42.3672 5.36331 42.4984 6.06159 42.5593 6.57499C42.6128 7.02674 42.6775 6.82067 42.86 7.09311C42.9438 7.21834 42.79 7.24171 42.8732 7.42134C43.0483 7.34364 42.8412 7.21938 43.1059 7.15871C43.1673 7.16201 43.1906 7.17327 43.234 7.19721L43.2322 7.30224C43.1779 7.4461 43.1248 7.3374 43.0134 7.47945C42.9517 7.55813 42.9865 7.49211 42.9555 7.58009C43.1166 7.71691 43.1169 7.82893 43.1919 8.16658C43.2427 8.39548 43.3054 8.63309 43.3632 8.83909C43.6477 9.85278 43.9288 11.1093 44.2186 12.1882L44.362 12.7688C44.3697 12.7849 44.3697 12.7858 44.3808 12.8023C44.4174 12.8569 44.3589 12.8051 44.4217 12.8475C44.4758 12.8192 44.447 12.8459 44.4835 12.7965C44.564 12.687 44.4497 12.4785 44.3953 12.2354C44.2744 11.6949 44.0315 10.8396 43.8822 10.2684C43.8398 10.1065 43.2052 7.73786 43.2024 7.63038L43.3171 7.57675C43.3886 7.71317 43.4528 8.07458 43.4998 8.24081C43.5599 8.45291 43.6264 8.69752 43.6792 8.92704C43.7832 9.37859 43.9247 9.83152 44.0283 10.2834C44.0817 10.5167 44.136 10.7299 44.1992 10.961L44.5502 12.3203C44.6141 12.5503 44.6479 12.8174 44.7822 12.9482C44.7688 12.9788 44.7136 12.9802 44.7679 13.1665L45.7121 16.8692C45.5508 16.7941 45.4281 16.1801 45.3695 15.9413L44.8268 13.8838C44.791 13.7519 44.675 13.2062 44.611 13.1313C44.5819 13.0971 44.5659 13.0856 44.5338 13.0439C44.5235 13.0305 44.5123 13.0129 44.5005 13.0009C44.4407 12.9402 44.5069 12.9896 44.4306 12.9459C44.441 13.2162 44.7805 14.3297 44.8662 14.7382C44.9737 15.2517 45.2417 16.1065 45.3169 16.5433C45.0709 16.4581 44.9619 16.0552 44.8465 15.8217C44.7774 15.6823 44.6968 15.569 44.598 15.4828C44.4471 15.351 44.3399 15.3104 44.2619 15.2463C44.2664 15.1003 44.3627 14.8216 44.3952 14.6633C44.4526 14.3828 44.4694 14.3554 44.2809 14.1743C43.8854 14.3375 43.2989 15.0197 43.1998 15.0687C43.2502 14.8219 43.5076 14.7862 43.5687 14.5693C43.4325 14.5862 43.3372 14.6054 43.2261 14.6668C43.0743 14.7507 43.0614 14.8098 42.9905 14.8376C42.8502 14.572 43.3136 14.5799 43.2986 14.2155C43.2123 14.2367 43.1523 14.2927 43.0567 14.3406C42.6883 14.5252 42.6597 14.5078 42.4342 14.8761C42.4294 14.8688 42.375 14.8761 42.4309 14.7234C42.4517 14.6662 42.4704 14.6349 42.4654 14.5501C42.0875 14.5063 42.0785 14.8979 41.9149 15.0584C41.8302 14.5628 41.8515 14.6615 41.5376 14.2897C41.4449 14.18 41.4496 14.1115 41.3248 14.1655C41.2925 14.1965 41.1238 14.9673 41.2286 15.3742C41.2466 15.4444 41.2581 15.4703 41.2854 15.5408C41.3074 15.5977 41.3329 15.6555 41.3138 15.7048C41.227 15.8493 41.191 15.7983 41.2019 16.0255C41.0405 16.1286 41.1439 16.0504 40.9847 16.3934C40.9431 16.483 40.8128 16.6836 40.75 16.7361C40.6463 17.5419 40.7118 17.1724 40.4413 18.0219L40.2572 18.6273C40.1862 18.7062 40.2027 18.6171 40.0834 18.8472C39.9832 19.0405 40.1206 18.961 40.0246 19.1569C39.7562 19.7041 39.54 19.5348 39.731 20.2916C39.7834 20.499 39.8245 20.7212 39.9174 20.8992C40.0489 21.1511 40.2079 21.1068 40.5036 21.1061C40.557 21.1288 40.5313 21.2714 40.9494 21.3092C41.4891 21.358 41.9238 21.089 42.0728 20.4989L42.099 20.4195C42.1131 20.4393 42.2843 20.7802 42.2875 20.8036C42.2999 20.8955 42.246 21.2558 42.2311 21.3447C42.1774 21.665 42.1676 22.0985 42.1393 22.4351L42.1686 22.5153L42.2387 22.4488C42.2419 22.446 42.2478 22.44 42.2532 22.4368C42.3182 22.2051 42.422 21.2463 42.4034 20.9482C42.6072 21.0711 42.6604 21.4068 43.2435 21.3189C43.2301 21.5705 43.1901 21.6333 43.1306 21.8317L43.1756 21.86C43.2522 21.9174 43.251 21.9399 43.2798 22.0512C43.3028 22.1402 43.3103 22.2878 43.3124 22.4098C43.3168 22.6872 43.2716 22.8952 43.2673 23.131C43.3451 23.103 43.2823 23.1461 43.3765 23.0232C43.3981 22.995 43.3933 22.9996 43.4151 22.9782L43.3157 24.1084C43.4335 24.1096 43.467 23.9973 43.5227 23.9089C43.5684 23.8362 43.6225 23.7312 43.669 23.6399C44.2253 22.5479 44.1198 22.0013 44.2389 21.6629C44.4369 21.7356 44.5691 21.6329 44.7206 21.6393C44.9599 22.1749 44.8913 23.1905 44.8903 23.7728C45.334 23.6398 45.4815 22.3641 45.331 21.8391C45.3119 21.7723 45.2597 21.6138 45.2565 21.5703C45.5097 21.6416 45.6863 21.7244 45.9812 21.5678C46.0914 21.5093 46.1022 21.4726 46.1813 21.455C46.2834 21.6117 46.3688 21.8199 46.4259 22.02C46.4748 22.1915 46.5671 22.5589 46.557 22.7366C46.2134 22.9865 45.526 23.5284 45.207 23.8532C45.0259 24.0375 44.7729 24.303 44.6231 24.5115C44.5776 24.575 44.5614 24.6156 44.4921 24.6594C44.3884 24.5005 44.3416 24.299 44.3161 24.1001C44.2864 23.8681 44.2758 23.6946 44.2711 23.4368C44.1994 23.4462 44.1835 23.4002 44.1155 23.5902C44.0376 23.8081 43.9401 24.0359 43.9113 24.2949C43.8868 24.5146 43.8935 24.681 43.9472 24.8739C43.9741 24.9705 43.9827 25.0012 44.0315 25.0884C44.084 25.182 44.1267 25.1915 44.1187 25.3269C43.4857 25.2971 42.759 24.661 42.4736 23.994C42.3933 23.8063 42.2592 23.404 42.2754 23.1516C42.2397 23.1011 42.2525 23.0703 42.249 22.988L42.2001 22.9532C42.0795 22.8639 42.146 22.8741 42.0437 22.8287C42.0483 23.0143 42.0881 22.8963 42.1164 23.0312C41.9846 23.0333 41.9967 22.8633 41.91 23.0538C41.9985 23.0749 42.0264 23.0855 42.0775 23.1331C42.0884 23.262 42.0921 23.2698 42.001 23.3246C42.0508 23.9048 42.1701 24.3364 42.4418 24.7571C42.5495 24.9238 42.702 25.1385 42.8006 25.3259C42.8442 25.4088 42.93 25.5651 42.908 25.6647C42.8875 25.7581 42.7992 25.8969 42.709 25.9351C42.573 25.9245 42.3539 25.6951 42.2783 25.611C42.0244 25.3288 41.8303 24.9909 41.7171 24.603L41.568 23.9813C41.5662 23.9765 41.5632 23.9679 41.5594 23.9621C41.3806 24.1253 41.6604 25.0607 41.7277 25.2464C41.8062 25.4626 41.9772 25.7943 42.1084 25.9941C42.1437 26.0476 42.232 26.1622 42.2643 26.2313C41.8826 26.2439 41.7468 25.5389 41.6353 25.2564C41.6244 25.4138 41.6581 25.5514 41.705 25.6934C41.7712 25.8938 41.8396 25.973 41.8726 26.0743C41.6864 25.9908 41.4559 25.7012 41.3784 25.495L41.2966 25.2531C41.2934 25.2467 41.2881 25.2385 41.2853 25.2333C41.2825 25.228 41.278 25.2195 41.2734 25.2133C41.1794 25.4434 41.2273 25.578 41.2237 25.8251C40.9385 25.4687 40.8962 24.8797 41.076 24.407C41.2562 23.933 41.5464 23.6527 41.8303 23.3416C41.8047 23.2477 41.8359 23.2516 41.7754 23.227C41.6943 23.3347 41.8327 23.2892 41.6655 23.4278C41.6043 23.4786 41.6064 23.4518 41.5485 23.5063C41.5001 23.5517 41.5117 23.5678 41.4688 23.6181L41.2897 23.8306C41.2258 23.9068 41.1614 24.0178 41.1055 24.0547C41.0903 24.1587 40.553 24.7911 41.011 25.7095C41.1286 25.9452 41.2272 25.936 41.1313 26.2547C41.0243 26.6102 40.8763 26.8703 40.6226 27.1121C40.4695 27.258 40.203 27.4156 39.9971 27.4956C39.8666 27.5464 39.8722 27.5509 39.8171 27.6819C39.584 28.2359 39.5743 28.4687 39.7733 29.0511C39.8006 29.1309 39.8704 29.2385 39.8859 29.2825C39.9647 29.5059 39.6599 30.5174 39.8502 31.284C39.8792 31.4012 39.8744 31.4773 39.877 31.6093C39.8863 32.0785 39.7002 31.9897 40.0471 32.3886C40.0135 32.5 39.9641 32.4717 40.0604 32.6116C40.2128 32.8328 40.4043 32.9526 40.5154 33.13C40.626 33.3064 40.615 33.4349 40.6526 33.6329C40.7592 34.1958 40.8636 34.1676 41.2139 34.368C41.3471 34.4443 41.4463 34.5811 41.5749 34.6565C42.1262 34.9797 42.8491 34.2845 42.3838 33.3143C42.2313 32.9963 42.0377 32.7883 41.7894 32.6207C41.7242 32.5766 41.6432 32.5234 41.5607 32.5301C41.4309 32.5408 41.2696 32.7827 41.1604 32.5633C41.1212 32.4846 41.1729 32.3863 41.1972 32.2964C41.2456 32.1172 41.2606 31.8719 41.2253 31.6648C41.21 31.5751 41.181 31.5049 41.1446 31.4248C41.1038 31.335 41.0511 31.2782 41.023 31.2129C41.2648 30.9921 40.747 29.4275 41.184 28.6516C41.3988 28.6409 41.2607 28.7712 41.4848 28.6389C41.7039 28.5095 42.0143 28.5291 42.2418 28.4461C42.3588 28.4034 42.4712 28.2866 42.5313 28.2786C42.5448 28.5174 42.5363 28.8767 42.404 29.0091C42.2076 28.9579 42.1777 28.8841 42.0286 28.7851C41.9608 28.8052 41.8888 28.8593 41.8382 28.9172C41.6832 29.0944 41.8757 29.4347 41.9896 29.5885L42.1499 29.7459C42.2017 29.804 42.1629 29.7708 42.2177 29.8206C42.3377 29.9297 42.3219 29.9996 42.4493 30.2572C42.4658 30.2906 42.488 30.3267 42.5142 30.3595C42.8663 30.8002 42.7606 30.7648 42.8562 31.3031C42.9235 31.6821 43.0468 31.9914 43.3426 32.1139C43.576 32.2106 43.5477 32.1428 43.7483 32.3321C43.8474 32.4256 43.9657 32.5517 44.0735 32.6383C44.3867 32.8896 44.6908 32.7751 44.877 32.4236C45.0551 32.0872 45.0278 31.7272 44.8893 31.3604C44.7608 31.0202 44.5767 30.8004 44.1401 30.8297C44.0531 30.7366 43.9413 30.5863 43.8478 30.508C44.3099 30.3492 44.0827 30.0362 44.4217 29.6403C44.5875 29.8426 44.889 30.1089 45.087 30.2691C45.3024 30.4435 45.5821 30.6737 45.8388 30.805C45.8291 30.8705 45.781 31.0271 45.7597 31.1113C45.4742 32.2423 46.2741 33.5968 46.8614 34.4501L47.4281 35.2003C47.4763 35.2574 47.5249 35.3005 47.5564 35.3759C47.3775 35.5394 47.2794 35.6168 47.1437 35.8835C46.8275 36.5046 46.6106 37.1756 46.1916 37.7294L45.7727 38.2361C45.6651 38.3869 45.7416 38.6982 45.4967 38.8942C45.1966 39.1344 45.3668 39.0781 45.1688 39.4981L44.9062 39.9199C44.8814 39.9535 44.8751 39.9578 44.8538 39.991C44.8076 40.0629 44.8443 39.9713 44.8072 40.0799C44.9117 40.3918 45.1967 40.4198 45.5235 40.4317C45.8437 40.4435 46.1606 40.3894 46.4129 40.2811C46.9132 40.0665 46.9891 39.8587 47.0558 39.3059C47.0803 39.1029 47.0051 39.0622 46.8329 39.0336L46.873 38.7557C47.2926 38.6433 47.2259 38.4322 47.259 37.9622C47.3608 37.8962 47.4364 37.8142 47.5188 37.7412C47.5768 37.6899 47.5896 37.6723 47.6398 37.6206C47.6883 37.5708 47.7284 37.534 47.7755 37.4887L48.1512 37.1127C48.5081 36.7347 48.9151 36.3082 49.1918 35.8647C49.3075 35.6792 49.5282 35.4091 49.3746 35.1773C49.3045 35.0713 49.19 34.9919 49.117 34.922C48.5768 34.4048 48.6015 33.6815 48.7102 32.9076C49.072 32.8524 49.2043 32.9554 49.5043 32.5814C49.7058 32.33 49.7523 32.0824 49.8882 31.8061C50.0285 31.8448 50.1761 32.2321 50.5686 32.5134C51.3872 33.1002 50.9109 33.428 51.1273 34.2998C51.187 34.5405 51.2979 34.7425 51.4186 34.9468C51.6859 35.3994 51.5725 35.2276 51.4462 35.6155C51.324 35.991 51.3587 36.6091 51.2673 36.8587C51.2271 36.9683 51.1622 37.1015 51.1169 37.1996C50.861 37.7534 50.5287 38.0684 50.3958 38.3617C50.2925 38.5896 50.2911 38.852 50.2003 39.1084C50.116 39.3464 50.016 39.577 49.8821 39.7462C49.8083 39.8395 49.6937 39.9085 49.676 40.0055C49.663 40.0769 49.652 40.3769 49.6717 40.4414C49.8615 41.0626 51.621 40.384 51.7069 40.2209C51.7357 40.0501 51.7682 39.8553 51.7558 39.68C51.7369 39.4129 51.7293 39.3829 51.5185 39.3173C51.4902 39.0201 51.637 38.9275 51.8504 38.8137C51.8577 37.6741 51.8025 38.4332 52.5565 37.0803C52.7364 36.7576 53.1113 36.1153 53.0257 35.7098C53.0143 35.6563 52.9788 35.5549 52.949 35.4925C52.9273 35.447 52.8464 35.3344 52.8291 35.2927C52.708 34.9998 53.0122 34.0416 52.9815 33.5982C52.9485 33.1195 52.8262 33.3236 52.9961 32.8751C53.1736 32.4063 53.2759 31.8964 53.3735 31.3995C53.4028 31.2499 53.3849 31.2092 53.4309 31.1229C53.5152 31.2919 53.5283 31.5224 53.5447 31.7095C53.5999 32.338 53.5997 32.2586 53.8642 32.7773C53.9815 33.0072 53.9408 33.1089 53.9497 33.3958C54.2795 33.3888 54.1365 33.0957 54.2051 32.9608C54.4556 33.3784 54.344 34.7544 55.0732 34.9731C55.1907 34.8634 55.0867 34.8453 55.0247 34.7289C54.9509 34.5904 54.942 34.4886 55.0131 34.3548C55.1001 34.5134 55.2409 35.0088 55.4087 35.3475C55.5154 35.5626 55.808 36.0636 56.0123 36.141C55.9392 35.6684 55.7975 35.4265 55.8173 35.0234C56.1867 35.2639 56.1412 36.2394 56.4323 36.5347C56.4696 36.1792 56.2326 35.3618 56.2446 35.0746C56.3095 35.2174 56.3083 35.4572 56.4833 35.5014L56.1772 33.8394C56.1656 33.7998 56.1471 33.7609 56.1408 33.7292C56.1241 33.6453 56.1315 33.6561 56.1524 33.6235C56.2725 33.664 56.2262 33.7465 56.2779 33.8335C56.3317 33.9239 56.2516 33.8629 56.3044 33.8577C56.3522 33.8163 56.3135 33.8843 56.3463 33.7752C56.515 33.2148 56.1486 32.6227 55.9224 32.2372C55.8574 32.1335 55.4564 31.6362 55.6209 31.574C55.6263 31.572 55.6343 31.5671 55.6411 31.5649C55.7242 31.5386 55.5938 31.5652 55.6826 31.5534C55.7525 31.5441 55.7955 31.5766 55.8881 31.6034C55.8701 31.5075 55.8416 31.442 55.8057 31.3589C55.7703 31.277 55.7289 31.2392 55.6638 31.1901C55.4433 30.989 55.21 30.2781 54.9292 29.854L54.91 29.8253C54.9045 29.8169 54.8903 29.7953 54.8812 29.7813C54.427 29.0885 53.7584 28.8135 53.7483 28.664C53.7466 28.6386 53.7473 28.6305 53.7498 28.6052L53.9256 26.9152C53.9589 26.5707 53.9682 26.607 53.8175 26.3886L53.8035 26.8073C53.7738 27.4487 53.6374 29.2444 53.4309 29.7587C53.3725 29.7414 53.2552 29.4123 53.2019 29.293C51.8293 26.0696 53.1828 29.3587 51.5757 25.3786C51.1071 24.1698 50.2132 21.8255 50.0133 20.4704C49.9436 19.9982 49.859 19.4614 50.0282 19.0153C50.0945 18.8406 50.2267 18.6417 50.3414 18.5222C50.4792 18.3789 50.6265 18.2674 50.8466 18.2456C50.8736 18.3821 50.9217 18.4821 51.027 18.5503C51.0467 18.5632 51.0527 18.5647 51.0728 18.5764L51.1354 18.6144C51.0334 18.6963 50.9256 18.6515 50.7061 18.889C50.6186 18.9836 50.4768 19.173 50.4401 19.332C50.3498 19.7234 50.3664 20.2404 50.4656 20.6349C50.6626 21.4182 50.8319 22.1734 51.0907 22.9056C51.3418 23.6158 51.5805 24.3114 51.8563 25.0007C51.9892 25.333 52.1338 25.6799 52.2657 26.0198C52.7492 27.2651 52.9881 27.4588 53.4228 28.9006C53.4633 28.8646 53.4446 28.8923 53.4699 28.8333L53.5307 28.5238C53.6481 27.6535 53.6466 26.9488 53.7189 26.104C53.7296 25.9789 53.7303 25.8598 53.7309 25.7277L53.7445 25.1227C53.7448 25.0208 53.7247 24.9929 53.7828 24.9413C53.853 24.9877 53.8257 24.976 53.8242 25.1996C53.8219 25.5153 53.8061 25.8453 53.8252 26.1588L53.9424 26.1294L53.9348 24.9617C54.0902 25.1044 54.1399 25.7874 54.519 25.9371C54.506 25.8491 54.4963 25.8546 54.4804 25.7818C54.4553 25.6665 54.4487 25.7039 54.5101 25.6654L54.5934 25.9357C54.6153 26.12 54.4924 26.0165 54.3992 25.9579C54.4647 26.305 54.4742 26.3337 54.7688 26.5036C54.854 26.5528 54.9785 26.6157 55.0716 26.6564C55.1712 26.6999 55.3469 26.7426 55.4214 26.7834C55.4582 27.1184 55.3547 27.2785 55.2552 27.5311C55.1584 27.777 55.2293 28.085 55.3808 28.238C55.511 28.3695 55.7152 28.4892 55.8672 28.6471C55.9329 28.7153 56.0086 28.8421 56.0767 28.8777C56.1695 28.9263 56.3344 28.8704 56.4703 28.8842C56.569 29.1423 56.5016 30.0039 56.4768 30.3176C56.9007 30.2083 57.3167 29.5824 57.6063 29.2451L57.8518 28.9563C57.9831 28.8276 58.1228 28.7855 58.2455 28.6731C58.3978 28.5337 58.4902 27.0221 58.4779 26.8078C58.4346 26.0563 58.2218 26.8339 58.4242 25.643C58.5747 24.7566 58.3978 23.5702 57.7202 22.9415L57.3297 22.6361C57.255 22.4754 57.3721 21.3415 56.5435 20.6595C56.4571 20.5883 56.409 20.5514 56.3059 20.4847C56.145 20.3806 55.9388 20.3444 55.8398 20.1809C55.734 20.006 55.6376 19.8988 55.4542 19.7643C55.1286 19.5256 54.7461 19.3962 54.3586 19.3092C53.6794 19.1567 53.8107 19.3798 53.3049 18.8241C52.9861 18.4739 52.8291 18.3762 52.3565 18.2035C52.2212 18.1541 51.8758 18.077 51.7814 18.0194C51.7056 17.9732 51.6424 17.909 51.556 17.8573C51.3813 17.7531 51.1619 17.6988 50.9652 17.6658C50.7554 17.6305 50.85 17.6423 50.7105 17.5296C50.5487 17.3988 50.3427 17.3671 50.1079 17.3491C50.0564 17.323 49.9132 17.0337 49.8824 16.9874C49.713 16.7331 49.8708 16.8405 49.8822 16.5536C49.9046 15.9937 49.8923 15.3529 49.5173 14.9653L49.2889 14.7338C48.8774 14.347 48.9413 14.1903 48.8641 13.9488C48.8624 13.9432 48.8595 13.9342 48.8559 13.9276L48.6977 13.9659C48.6908 13.9859 48.6832 14.0089 48.6789 14.0269C48.6687 14.0691 48.6653 14.1103 48.6542 14.1542C48.6425 14.2006 48.606 14.312 48.5851 14.3538C48.4128 14.6976 48.0486 14.9173 47.8579 15.2584C47.5056 15.8882 47.8395 16.2532 47.7918 16.5904C47.7661 16.7722 47.8453 16.8977 47.8445 17.0812C47.6409 17.2804 47.6228 17.2191 47.5236 17.5402C47.1417 17.6367 47.3189 17.7094 47.1464 17.8652C46.9809 18.0146 46.8969 17.9317 46.804 18.2237C46.6842 18.6004 46.6586 19.0725 46.6068 19.4737C46.5187 19.4633 46.583 19.5052 46.508 19.4212C46.4282 19.332 46.3929 19.206 46.3476 19.092C46.352 19.0876 46.3613 19.0786 46.3641 19.0839C46.3668 19.0892 46.377 19.0776 46.3808 19.0759L46.4333 19.0546C46.4386 19.0522 46.4457 19.049 46.4506 19.0466L46.4843 19.0287C46.3247 18.7561 46.3244 18.2455 46.226 17.9388C46.1862 17.8151 46.1291 17.7284 46.0869 17.609C46.1453 17.507 46.2068 17.4647 46.1168 17.327C46.0119 17.1665 46.045 17.2943 45.9772 17.0484C45.9149 16.8226 45.8651 16.6079 45.8125 16.3979C45.7026 15.96 45.6088 15.5116 45.4825 15.0642C45.3767 14.6894 45.0002 12.9637 44.8958 12.7785C44.8478 12.6933 44.7664 12.6338 44.7345 12.5395C44.8402 12.5435 44.7624 12.5631 44.8658 12.6141C44.8534 12.4791 44.8522 12.5474 44.8146 12.4383C44.7796 12.3364 44.8014 12.3419 44.7816 12.2434C44.6813 11.7453 44.1525 9.98754 44.1734 9.75362C44.5182 9.58032 46.004 9.01956 46.3596 8.90639C46.564 8.84131 46.665 8.85313 46.7824 9.02222C46.9283 9.23227 46.9296 9.4472 47.1258 9.60882C47.1842 9.65694 47.2473 9.70133 47.3365 9.72024L47.0212 8.96813C46.9156 8.79106 46.7087 8.65296 46.5913 8.47241C46.5529 8.41333 46.5608 8.44968 46.5603 8.37325C46.7907 8.49949 46.7934 8.48394 46.9607 8.70581C47.006 8.7659 47.076 8.85182 47.124 8.90723C47.1926 8.98629 47.244 9.06002 47.3581 9.08238L47.2091 8.86708C47.0443 8.65286 46.9923 8.36503 46.8428 8.15334C46.7772 8.06037 46.6797 7.9862 46.6132 7.87401C46.9259 8.02588 46.9518 8.29124 47.1411 8.47269C47.1407 8.18756 47.1122 8.03417 46.9644 7.84709C46.9326 7.80685 46.912 7.78886 46.8656 7.7515C46.4133 7.38779 46.4645 7.57817 46.2506 6.97959C46.1657 6.74243 46.099 6.60133 45.8212 6.64081C44.9061 6.77092 43.6954 7.39119 43.4953 7.40076C43.5793 7.21204 43.495 7.06221 43.3319 6.99458C43.3027 6.88622 43.3101 6.92846 43.3521 6.82916ZM40.6786 31.5211C40.6995 31.6141 40.764 31.6181 40.8055 31.7214C40.906 31.808 40.9771 32.3201 40.6435 32.4406L40.5206 32.4891C40.546 32.6084 40.6062 32.7098 40.6851 32.7735C40.9089 32.9542 40.7467 32.8186 40.8842 33.0363C41.0399 33.283 41.3085 33.0265 41.6024 33.0979C41.7446 33.1324 42.1062 33.6354 41.7156 33.9901C41.6333 34.0649 41.4767 34.0953 41.502 34.1983C41.5082 34.2022 41.518 34.1986 41.5219 34.2075C41.5308 34.2274 41.6298 34.2349 41.7051 34.205C41.7451 34.1891 41.8197 34.1402 41.8669 34.1022C41.917 34.0618 42.0267 33.9482 42.0861 33.932C42.3746 33.8532 42.1988 34.3893 41.8175 34.5247C41.583 34.3641 41.7142 34.4059 41.3593 34.2376C41.1843 34.1546 40.9651 34.0529 40.8738 33.9017L40.8009 33.6747C40.7267 33.3029 40.7019 33.163 40.4754 32.8459C40.3412 32.658 39.8929 32.1655 39.9743 31.8519C40.1159 31.3061 39.912 31.0516 39.9759 30.4095C40.1539 28.6192 39.8222 28.95 39.793 28.3907C39.7827 28.193 39.9072 27.926 39.989 27.788C40.1488 27.5188 40.4474 27.4853 40.8137 27.1175C41.1425 26.7872 41.1939 26.5774 41.3495 26.1052C41.4405 26.177 41.5459 26.2201 41.6479 26.2807C41.6421 26.4112 41.3817 27.2162 41.1116 27.4347C40.7476 27.7291 40.2742 27.5008 40.0813 28.0905C40.0685 28.1296 40.3796 31.4591 40.6786 31.5211ZM43.7696 32.1623C43.7549 32.0061 43.7649 32.1345 43.9461 31.9037C43.9888 31.8493 44.0914 31.7032 44.1746 31.6737C44.4001 31.5937 44.6077 31.8827 44.6373 32.0767C44.6676 32.2748 44.3925 32.5881 44.2764 32.5398C44.2106 32.5124 44.0992 32.3053 43.9384 32.225C43.8639 32.1878 43.8257 32.2045 43.7696 32.1623ZM46.0405 31.1158C46.0988 31.3338 46.1254 31.5935 46.1819 31.81C46.2419 32.0401 46.2775 32.2742 46.3816 32.4747C46.6216 32.9367 46.8548 32.9001 46.8665 33.2424C46.8722 33.4061 46.8906 33.4773 46.9245 33.629C47.0215 34.0626 47.2882 34.4512 47.5217 34.7245C47.8573 35.1172 47.9694 34.8979 48.272 35.2015C48.3818 35.3117 48.4082 35.3039 48.532 35.3796C48.4715 35.6959 47.9627 36.2921 47.6327 36.508C47.3928 36.6648 47.582 36.7207 47.3918 37.281C47.1834 37.8956 46.9722 37.7262 46.912 37.8177C46.8402 38.1535 47.0332 38.2385 46.8014 38.483C46.6423 38.6507 46.5168 38.7034 46.2171 38.7126C46.2143 38.7373 46.2329 39.0125 46.2371 39.0745C46.3743 39.242 46.5036 39.1879 46.5817 39.2756C46.5515 39.3782 46.4208 39.4136 46.2991 39.4132C46.1686 39.4128 46.0409 39.3593 45.9073 39.3307C45.9467 39.5153 46.0721 39.5802 46.0051 39.8213C45.8687 39.9456 45.4582 40.0036 45.2269 39.9742C45.1706 39.6604 45.4618 39.2902 45.5979 39.1024C45.7478 38.8956 45.782 38.9562 45.8133 38.6728C45.839 38.4402 46.1165 38.1144 46.2844 37.9042L46.7997 37.1471C46.8507 37.0609 46.9822 36.8454 47.0154 36.7199C47.0899 36.7463 47.0325 36.7434 47.1152 36.7657C47.131 36.2807 47.2577 35.8553 47.5944 35.5634C47.7085 35.4645 47.7939 35.5316 47.7755 35.3559C47.7663 35.2681 47.6107 35.1339 47.5539 35.0652L47.2431 34.6203C47.062 34.3292 46.9494 34.0632 46.8165 33.7446C46.709 33.4869 46.7826 33.5358 46.5859 33.3126L46.222 32.7981C46.0991 32.5744 45.9748 32.3397 45.9288 32.0546C45.8974 31.8601 45.8865 31.1777 46.0405 31.1158ZM50.1763 31.7285C50.3497 32.0855 50.7789 32.1019 51.0156 32.4815C51.1163 32.4573 51.4088 32.427 51.4701 32.5055C51.6429 32.7268 51.2463 32.6335 51.1648 32.6496C51.1772 32.7846 51.3745 32.9255 51.4388 33.0924C51.5866 33.4751 51.3386 33.8961 51.7752 34.2899C52.0292 34.5189 51.8987 34.5258 52.0379 34.7883C52.0562 34.7781 52.149 34.7431 52.1337 34.6296C52.1242 34.559 52.0786 34.5474 52.0395 34.4747C52.0389 34.258 52.0808 34.1123 52.0321 33.8859C52.0057 33.763 51.9348 33.4692 52.047 33.3999C52.0947 33.3695 52.0576 33.3755 52.1269 33.5074C52.2107 33.6669 52.3486 33.8193 52.4027 33.967C52.5032 34.2414 52.4381 34.5301 52.3689 34.8239C52.3393 34.9493 52.4154 35.0513 52.3921 35.2545C52.3799 35.3611 52.3316 35.5544 52.3008 35.6523C52.2217 35.9046 52.1339 36.1856 52.0808 36.4441C52.0506 36.5913 52.0528 36.7439 52.021 36.8815C51.968 37.1112 51.6798 37.2266 51.4125 37.7671C51.1525 38.2929 51.3757 38.4274 51.3757 38.5965C51.3756 38.8202 51.0268 39.0093 50.8511 39.0791C50.8388 39.2407 50.9265 39.3235 50.859 39.5374C50.8148 39.6776 50.6782 39.7494 50.6787 39.8363L50.8833 39.8708C50.8729 40.0123 50.8299 40.0026 50.716 40.0388C50.6225 40.0684 50.576 40.0892 50.4747 40.1034C50.2635 40.133 50.1118 40.1333 49.8998 40.0988C50.075 39.9036 50.1098 39.908 50.241 39.6545C50.3492 39.4455 50.3638 39.1859 50.4473 39.0196C50.666 38.5844 50.5647 38.6772 50.6687 38.4024C50.6835 38.3634 50.8993 38.0877 50.9983 37.9008C51.1972 37.5255 51.3111 37.1177 51.4913 36.7182C51.6523 36.3611 51.5635 35.5798 51.8236 35.3717C51.72 35.2761 51.2486 34.3264 51.222 33.9229C51.193 33.4816 51.3027 33.4564 51.2909 33.2988C51.2803 33.1563 51.1502 32.9242 51.0772 32.8248C50.6486 32.2415 51.1016 32.6111 50.6128 32.2664C50.519 32.2003 50.1618 31.9363 50.1568 31.8046C50.1524 31.6871 50.1502 31.7703 50.1763 31.7285ZM51.7743 30.5034C51.762 30.5157 51.759 30.5214 51.7325 30.5431L51.3745 30.7338C50.7851 30.9355 50.9067 30.3506 51.347 30.318C51.4909 30.3074 51.7127 30.4067 51.7743 30.5034ZM51.4843 29.0959C51.5303 29.0285 51.5556 29.0143 51.6357 28.9873C51.7372 29.1448 52.0392 29.4173 52.1707 29.5404C52.4331 29.786 52.1178 30.1093 52.0056 30.2616L51.377 30.109C51.5623 29.9603 51.8211 30.0483 51.766 29.6489C51.7304 29.3914 51.5714 29.2888 51.4843 29.0959ZM40.7414 29.3665C40.8035 29.336 40.7841 29.3124 40.858 29.2935C40.8461 29.4535 40.8315 29.4645 40.7738 29.5851C40.6745 29.4819 40.7356 29.4488 40.5793 29.2907C40.5219 29.2327 40.5259 29.2533 40.4954 29.1577C40.4763 29.0976 40.4654 29.0211 40.4586 28.9463C40.4451 28.7987 40.4483 28.6167 40.4675 28.4698C40.4892 28.3035 40.5485 28.2436 40.7222 28.2682C40.9469 28.7413 40.6556 29.0018 40.7414 29.3665ZM43.9109 28.1173C43.9675 28.1475 44.219 28.5503 44.2889 28.6588C44.2998 28.6757 44.3079 28.6875 44.3188 28.703C44.3218 28.7071 44.3261 28.7128 44.3291 28.7169C44.6313 29.1327 45.0587 29.6865 45.4506 29.98C45.5191 30.0313 45.5627 30.0636 45.6299 30.1145C45.7478 30.2037 45.8553 30.2713 45.9957 30.3514C46.1105 30.4168 46.3099 30.4887 46.4094 30.5538C45.9861 30.7374 45.1463 29.9353 44.8783 29.689L43.933 28.7388C43.8718 28.6554 43.8926 28.6627 43.8983 28.4423C43.9011 28.3332 43.9072 28.2262 43.9109 28.1173ZM46.2214 28.6418C46.94 28.733 46.7725 28.6035 47.1059 28.6006C47.1004 28.6648 47.0724 28.6982 47.0385 28.7335C46.964 28.811 46.956 28.7749 46.9427 28.8444C47.1047 28.9553 47.2603 28.896 47.4275 28.8387C47.3588 28.9907 47.139 29.1043 46.9523 29.1254C46.8241 29.1398 46.7574 29.1068 46.6347 29.0849C46.4517 29.0524 46.2018 29.1516 46.0455 29.0157C45.8807 28.8725 45.6035 28.9364 45.3864 28.6138C45.8221 28.6042 45.9648 28.6227 46.3002 28.4235C46.3092 28.5616 46.2661 28.547 46.2214 28.6418ZM42.6621 27.732C42.4372 27.7517 42.2471 27.6924 42.0364 27.7764C41.865 27.8448 41.8642 27.9534 41.5584 27.7888C41.5692 27.7591 42.1345 27.0274 42.4279 27.0536C42.5394 27.0635 42.5526 27.1259 42.6173 27.2076C42.6858 27.294 42.7057 27.2933 42.7129 27.4354C42.7181 27.5402 42.7088 27.6557 42.6621 27.732ZM44.015 27.462L44.0156 27.2765C44.1187 27.332 44.0961 27.3422 44.1755 27.4242L44.1996 27.4476C44.2047 27.4524 44.2194 27.4655 44.2246 27.4703L44.6552 27.8162C44.7003 27.8481 44.7256 27.8656 44.771 27.8915C44.8391 27.9303 44.8537 27.9304 44.8992 28.0022C44.6985 27.9506 44.2135 27.6832 44.061 27.521L44.015 27.462ZM48.966 26.8373C48.9892 27.1313 49.0363 27.4944 49.3076 27.6114C49.3904 27.6472 49.4545 27.6817 49.5474 27.7246C49.8058 27.8435 50.0102 27.9724 50.2141 28.1424C50.2818 28.1987 50.3584 28.2501 50.3898 28.3513C50.3088 28.3157 50.2349 28.2546 50.1533 28.2062C49.8628 28.0339 49.432 27.8461 49.1092 27.7444C48.9454 27.6928 48.9834 27.7057 48.9355 27.5246C48.8842 27.3304 48.8669 27.0028 48.966 26.8373ZM49.0573 26.4974C49.294 26.5971 50.5907 27.955 50.8036 28.1904C51.4618 28.9086 51.4868 28.6286 51.2959 28.9648C51.0511 28.9264 49.5442 27.1511 49.3187 26.8916C49.3053 26.8762 49.2992 26.8683 49.2855 26.8513C49.2126 26.7599 49.0405 26.5815 49.0573 26.4974ZM43.2904 28.8446L43.2843 29.1207L43.7209 29.2527C43.7016 29.2723 43.6668 29.3161 43.6321 29.3343L43.5047 29.3651C43.5017 29.3657 43.4946 29.3662 43.49 29.3684C43.7711 29.948 43.2563 30.165 43.0927 30.5161C42.9914 30.7335 43.1076 31.026 43.2719 31.1071C43.5226 31.2308 43.6888 31.0005 43.8244 30.9158C43.8626 31.3109 43.774 31.6414 43.4321 31.7003C42.7651 31.8152 43.2181 31.1951 42.8174 30.5367L42.5511 30.1174C42.2939 29.7034 42.8816 27.9118 42.8514 26.9327C42.8446 26.7145 42.7954 26.5988 42.8516 26.3819C42.89 26.2339 42.9427 26.0461 42.9795 25.8945C43.0291 25.6905 43.1133 25.7021 43.2903 25.6004C43.3962 25.5396 43.583 25.4046 43.6709 25.3665C44.029 25.5506 43.9951 25.3713 44.2017 25.5598C44.2018 25.56 44.2402 25.5932 44.2403 25.5933C44.4072 25.7335 44.6728 25.9219 44.9385 25.9641C45.4844 26.0509 46.2134 25.5414 46.4786 25.8785C45.9019 26.0933 45.2767 26.4164 44.6 26.1366C44.3704 26.0416 44.337 25.8922 44.0508 25.9559C44.0265 26.0757 44.1035 26.6303 43.6388 26.3655C43.4965 26.2845 43.4943 26.1551 43.4352 26.081C43.404 26.0418 43.4135 26.0468 43.3659 26.0289C43.1854 26.2783 42.875 27.0469 43.2486 27.1204C43.3044 27.0462 43.305 26.929 43.3907 26.8352C43.5518 26.6588 43.9255 26.7922 43.7658 27.1124C43.6021 27.4405 43.3179 27.091 43.3143 27.5614C43.3095 28.1779 43.4535 28.1741 43.2904 28.8446ZM49.728 25.8534C49.7826 26.0464 50.0386 26.4025 50.1449 26.5834C50.2491 26.7605 50.4737 27.1593 50.4991 27.3855C50.378 27.3469 50.0434 27.1218 49.9303 27.0382C49.7745 26.923 49.3863 26.5085 49.2459 26.3157C48.6755 25.5327 49.691 25.2669 50.2733 25.6179C50.6039 25.8172 50.6024 26.1489 50.8643 26.4418C51.0834 26.6868 51.2966 27.0442 51.3264 27.4118C51.2639 27.4542 51.2832 27.4463 51.2263 27.4623C51.0674 27.1473 50.9099 26.7674 50.6768 26.5188C50.389 26.2117 50.3252 26.3384 49.9117 25.777C49.8253 25.7885 49.7771 25.8024 49.728 25.8534ZM45.5813 25.7426C45.5887 25.3315 45.8938 25.3562 45.9611 25.1999C45.9546 25.1957 45.9446 25.1831 45.9403 25.19L45.8526 25.1712C45.7781 25.1725 45.6223 25.2574 45.549 25.2986C45.3652 25.4016 45.2644 25.5125 45.1959 25.4397C45.0427 25.2769 45.4398 24.8892 45.5447 24.7959C45.7373 24.6245 45.932 24.4935 46.178 24.3698C46.7292 24.0927 47.3633 24.1225 47.6271 24.6408C47.4184 24.6224 47.3299 24.5623 47.1252 24.6789C46.8304 24.8469 47.2044 24.9109 47.3442 24.9312C47.7479 24.9899 47.8677 25.3545 47.5792 25.6154C47.3184 25.8512 46.8908 25.6801 46.6118 25.5876C46.0846 25.4128 45.9392 25.6847 45.5813 25.7426ZM49.1635 25.436C49.1985 25.1565 49.1703 24.9676 49.3208 24.7431L49.686 24.2635C49.6536 24.5755 49.553 24.6605 49.5842 25.0252C49.5991 25.2001 49.5535 25.2436 49.4488 25.3074C49.3853 25.3462 49.2544 25.4283 49.1635 25.436ZM44.5859 25.672C44.4501 25.6771 44.369 25.5922 44.3017 25.4764C44.2304 25.3537 44.3096 25.2315 44.3669 25.1139C45.3981 22.9958 48.5734 23.0445 48.7501 24.2571C48.0235 23.6124 47.123 23.7431 46.2921 24.1086C45.4821 24.4649 44.9749 24.8776 44.5859 25.672ZM48.8413 23.6487L48.7325 23.6518C48.7039 23.4324 48.7415 23.2671 48.98 23.3542C48.9976 23.5714 48.8369 23.3489 49.0185 23.6713C49.0576 23.7405 49.0411 23.705 49.0671 23.7842C49.0672 23.7841 49.1325 23.4907 49.1972 23.6934C49.2449 23.8433 49.1489 23.9 49.1132 23.9682C49.1163 24.1395 49.1323 24.4872 49.0379 24.59C49.0206 24.5385 48.9373 23.655 48.8925 23.5288C48.8666 23.456 48.8796 23.4926 48.8559 23.4675C48.811 23.5476 48.8435 23.5503 48.8413 23.6487ZM57.296 22.8815C57.5344 22.9682 57.7941 23.3815 57.9105 23.6712C58.3277 24.7087 58.1594 26.4678 57.8799 27.4551C57.6901 27.3415 57.3486 26.9836 57.2346 26.7576C57.0755 26.4424 57.1498 25.8965 57.2017 25.5123C57.2596 25.0844 57.3115 24.7069 57.3398 24.2522C57.3592 23.9397 57.3644 23.1518 57.296 22.8815ZM52.6773 22.1922C52.7572 22.1801 52.7901 22.1495 52.8795 22.1689C52.7461 22.479 52.774 22.3916 52.9848 22.4828C52.9783 22.5534 52.9818 22.5097 52.9626 22.5619C52.944 22.6125 52.9436 22.5968 52.9298 22.6468C52.9147 22.7013 52.8989 22.7861 52.8897 22.8391C53.0186 22.9039 53.1398 22.9335 53.2064 23.1041C53.1238 23.064 53.0137 23.0533 52.8919 23.0565C52.9263 23.4053 53.3029 23.6078 53.2198 23.8073C53.1231 23.6923 53.011 23.6252 52.8678 23.5557C52.8214 23.7117 53.0128 23.8365 52.9382 24.0274C52.8647 23.9498 52.9118 23.9378 52.7805 23.8349C52.7019 23.7733 52.6445 23.6842 52.55 23.6559C52.5635 23.9695 52.7665 24.3248 52.5863 24.5695C52.5251 24.3864 52.6337 24.4084 52.3985 24.0447C52.1821 23.7102 52.3442 23.6273 52.3047 23.5211C52.1862 23.6234 52.2113 23.7986 52.1379 24.0403C52.1297 24.0673 52.1164 24.1104 52.1048 24.1316C52.1003 24.1399 52.0899 24.1562 52.0842 24.1642C52.0475 24.2153 52.078 24.174 52.0429 24.2106C52.0507 24.0356 52.0588 23.8941 52.0576 23.7163C52.057 23.6223 52.1087 23.3529 52.0936 23.3275C51.9846 23.4358 51.9677 23.6018 51.8312 23.6822C51.8473 23.5788 51.873 23.4785 51.9007 23.3848C51.9434 23.2409 51.986 23.2368 52.01 23.1398C51.8688 23.1569 51.7431 23.271 51.628 23.189C51.6725 23.0932 51.6486 23.2346 51.8306 23.0327C51.9688 22.8793 51.9458 22.9425 52.0344 22.8874C51.9629 22.6732 51.5469 22.8492 51.4803 22.443C51.58 22.4965 51.5985 22.5502 51.7362 22.5283C51.7836 22.5207 51.9589 22.4574 51.9915 22.435C51.9578 22.3483 51.9878 22.41 51.9368 22.3528C51.8267 22.2294 51.7377 22.2232 51.612 22.0715C51.5355 21.9791 51.4939 21.8676 51.4952 21.7386C51.5803 21.9395 51.7837 21.9919 51.9291 22.0601C51.9991 22.0929 52.0351 22.1278 52.0936 22.1529C52.1528 22.0183 51.9532 21.7715 51.9768 21.3527C51.9781 21.3283 51.98 21.3056 51.9849 21.2818C51.9969 21.224 51.9888 21.2523 52.0052 21.2212C52.0503 21.3039 52.0591 21.4931 52.1169 21.6292L52.2491 21.8652C52.3313 21.9712 52.2395 21.9002 52.3428 21.9419C52.3487 21.7784 52.3109 21.6378 52.3751 21.5201C52.4168 21.6205 52.4684 21.9076 52.5159 22.0021C52.6405 21.8419 52.5681 21.4392 52.7468 21.3378C52.7098 21.5239 52.7008 21.4986 52.7118 21.7312C52.7216 21.9401 52.6844 22.0286 52.6773 22.1922ZM47.7514 21.3267C48.389 21.3318 49.0809 21.6387 49.2491 22.1847C49.1556 22.1639 49.1578 22.147 49.1086 22.1836C49.201 22.2848 49.2464 22.3751 49.2547 22.5391C49.1082 22.4151 49.1253 22.2852 48.5665 21.9137C48.1693 21.6496 47.8877 21.6757 47.6227 21.5735C47.729 21.5101 47.7274 21.5769 47.8566 21.4895L47.8828 21.4696C47.9146 21.4518 47.9538 21.4468 47.9944 21.4393C47.9084 21.3643 47.8304 21.3875 47.7514 21.3267ZM49.4594 21.0959C49.5673 21.1255 49.5499 21.1619 49.7126 21.2384C49.8137 21.2859 49.9226 21.3035 50.0102 21.3542C50.0357 21.4347 50.0727 21.539 50.0524 21.6253C49.8746 21.598 49.5005 21.2589 49.4594 21.0959ZM40.6124 21.0683C40.8135 21.0476 41.1132 21.1013 41.2746 21.0579C41.5103 20.9946 41.4817 20.8073 41.6053 20.6777C41.6281 20.8887 41.4108 21.0934 41.2559 21.18C41.0952 21.2698 40.6401 21.2448 40.6124 21.0683ZM57.0339 23.1138C57.0313 23.2678 57.0032 23.4688 57.0174 23.6122C57.055 23.9922 57.0054 23.7952 56.9816 24.0211C56.9606 24.2212 56.9642 24.7848 56.8094 24.8712C56.7211 24.6785 56.8595 23.7228 56.692 23.4675L56.6693 23.5432C56.6678 23.5498 56.6672 23.5572 56.6656 23.564L56.6451 23.6426C56.5453 23.6322 56.5416 23.5912 56.5629 23.4746C56.5822 23.3686 56.6195 23.3886 56.6741 23.3147L56.6255 23.1138C56.4908 22.8637 56.2516 22.1809 56.2068 21.9017C56.1679 21.6601 56.1422 21.4169 56.0892 21.1781C56.0389 20.9514 55.942 20.6843 55.9128 20.4897C56.305 20.5615 56.7012 21.0199 56.8792 21.3811C57.0889 21.8063 57.0592 22.5799 57.0339 23.1138ZM42.16 20.2231L42.357 20.1113C42.6845 20.3722 42.7621 20.5793 43.4144 20.754C43.8958 20.8829 44.4909 20.8665 45.0088 20.8271C45.885 20.7604 46.3943 20.6952 47.2316 20.49C47.3243 20.4673 47.4673 20.422 47.5568 20.3885C47.6602 20.35 47.7938 20.287 47.8979 20.2659C47.8012 20.6795 47.3166 21.5193 46.7049 20.9179C46.6404 20.8544 46.5887 20.7927 46.4864 20.7896C46.1686 20.7802 46.2109 21.352 45.7814 21.3968C45.1374 21.4639 45.2653 20.8753 44.9668 20.9258C44.6645 20.9771 44.8056 21.5616 44.2097 21.4789C43.7367 21.4133 43.7847 20.8567 43.4709 20.9357C43.2799 20.9838 43.0313 21.5643 42.5499 20.9221C42.5419 20.9114 42.523 20.8818 42.5113 20.8626L42.16 20.2231ZM47.2823 19.7958C47.4113 19.7089 47.6666 19.6763 47.8513 19.664C47.8501 19.8962 47.8956 19.9095 47.9174 20.0974C47.8597 20.1281 47.5535 20.2144 47.4481 20.2459C47.2997 20.2903 47.2494 19.968 47.2823 19.7958ZM48.8184 20.1094L48.8009 19.9978L49.3166 19.8236C49.4821 20.2259 49.3576 20.154 49.4097 20.3872C49.4525 20.5791 49.4139 20.4971 49.4045 20.63C49.3947 20.7677 49.4825 20.7084 49.4328 20.9223C49.3352 20.9517 48.8908 20.9523 48.8349 20.8698C48.6956 20.6641 49.1953 20.8396 49.3161 20.6704C49.1133 20.5281 48.7774 20.8331 48.7326 20.4904C48.8842 20.4991 49.0881 20.4992 49.2278 20.4498C49.3206 20.4169 49.3065 20.4393 49.3291 20.3488C49.2763 20.3133 49.3339 20.3362 49.2536 20.3178C49.0991 20.2825 48.7256 20.3859 48.5529 20.4147C48.5665 20.2678 48.6915 20.2829 48.7885 20.2465C48.9533 20.1849 48.9733 20.2089 49.1609 20.1956C49.1848 20.1408 49.0794 20.2315 49.1638 20.1202C49.2208 20.0452 49.1903 20.1409 49.2615 20.0471C49.2378 20.0221 49.3061 19.9539 49.0229 20.0509C48.9519 20.0752 48.8957 20.1053 48.8184 20.1094ZM42.9271 19.6577C42.9261 19.83 43.0423 20.2098 43.0939 20.3856C42.7989 20.3963 42.292 20.007 42.622 19.8051C42.6865 19.7656 42.849 19.6853 42.9271 19.6577ZM48.0484 19.6371L48.6625 19.6063L48.6939 19.8909L48.1283 20.0372C48.0414 19.9351 47.9977 19.8018 48.0484 19.6371ZM46.7049 19.3745C46.8452 19.6288 47.0505 20.168 47.1757 20.2617C46.9471 20.2763 46.9047 20.1084 46.8339 19.9508C46.7895 19.8519 46.7311 19.8123 46.7102 19.7345C46.6869 19.6474 46.7024 19.4721 46.7049 19.3745ZM54.8184 19.6953C54.8952 19.6393 55.6027 19.9161 55.7469 20.6055C55.7748 20.7385 55.7646 21.0237 55.6597 21.1035C55.6432 21.076 55.4078 20.0102 54.8184 19.6953ZM48.8609 19.5765L49.3721 19.4494C49.4322 19.5291 49.455 19.6329 49.4559 19.7648C49.3397 19.7431 49.4197 19.6943 49.2689 19.7298C48.9619 19.802 48.9643 19.8945 48.8873 19.7892C48.8423 19.7278 48.8375 19.6456 48.8609 19.5765ZM49.7709 20.0345C49.6622 19.9516 49.5571 19.5991 49.5785 19.4188L49.7944 19.331C49.7898 19.4639 49.7672 19.5856 49.7591 19.6945C49.7517 19.7941 49.7839 19.9888 49.7709 20.0345ZM42.1899 19.3644C42.214 19.488 42.2846 19.4885 42.2398 19.596C42.1668 19.6319 42.1571 19.6078 42.1046 19.5388C42.0447 19.4599 42.0074 19.3386 42.1147 19.3462C42.1782 19.3507 42.0807 19.3491 42.1899 19.3644ZM41.2802 19.3936C41.2981 19.5323 41.3426 19.513 41.3381 19.7204C41.2141 19.8292 41.2309 19.7746 41.161 19.9479C41.1392 20.002 41.1055 20.047 41.0948 20.1022C41.0906 20.124 41.1165 20.5094 40.8381 20.4808C40.6933 20.4659 40.6668 20.3154 40.5472 20.3936C40.5366 20.5026 40.8651 20.6592 40.4098 20.6455L40.3882 20.5095C40.3308 20.546 40.3584 20.5575 40.2984 20.5192C40.2801 20.5076 40.2366 20.4547 40.2241 20.4176C40.1927 20.3247 40.2147 20.1878 40.2072 20.0847C40.0483 20.075 40.1343 20.1403 40.0535 20.2699C39.9989 20.3574 39.9747 20.3277 39.9479 20.4042L39.9424 20.4339C39.9337 20.4877 39.9686 20.4109 39.9405 20.4801C39.7681 20.4663 39.8156 20.2875 39.8082 20.1229C39.7954 19.8433 39.7383 19.9022 39.8831 19.6835C39.9408 19.5965 40.0385 19.4725 40.0879 19.3762C40.1701 19.2159 40.1151 19.0911 40.2569 19.0034C40.6321 18.7711 41.1555 18.8284 41.3982 19.0659C41.5148 19.18 41.3363 19.322 41.2802 19.3936ZM47.9698 18.7792C48.0602 18.8489 48.2017 18.877 48.2982 19.0103C48.3757 19.1171 48.4123 19.32 48.3992 19.4827C48.1511 19.4987 47.9408 19.5921 47.9251 19.0424C47.9206 18.8854 47.9181 18.8997 47.9698 18.7792ZM48.7151 19.466C48.6019 19.4169 48.5934 19.2843 48.5694 19.18C48.5443 19.0708 48.4974 18.9063 48.6358 18.8553C48.8694 18.7692 48.8198 19.3047 48.7151 19.466ZM49.2844 19.2679C49.1807 19.3271 49.0834 19.3487 48.9633 19.3327C48.9109 19.0017 49.0069 18.8579 49.2615 18.7989C49.1895 19.0863 49.2724 19.073 49.2844 19.2679ZM44.5496 18.5549C44.8825 18.7477 45.1745 19.0201 45.382 19.3702C45.5105 19.5872 45.8192 20.2911 45.8452 20.5976C45.5208 20.7113 45.2793 20.7144 44.8983 20.7112C44.6771 20.115 44.7986 20.292 44.4089 19.7083C44.333 19.5948 44.2341 19.476 44.2415 19.382C44.3724 19.3393 44.4194 19.3566 44.4553 19.4621C44.5282 19.4265 44.4833 19.3853 44.5624 19.3795C44.6824 19.5067 44.7327 19.5091 44.8733 19.7402C44.9232 19.8223 44.9053 19.8313 45.0244 19.8117C45.0182 19.6129 44.927 19.2668 44.8503 19.1126C44.776 18.9633 44.7569 18.9472 44.6563 18.8664C44.5542 18.7845 44.5434 18.7183 44.5496 18.5549ZM40.2274 18.9065C40.3165 18.7528 40.3384 18.6691 40.5324 18.6273C40.6579 18.6003 40.959 18.6152 41.0565 18.6647C40.9681 18.7601 40.7767 18.7457 40.6266 18.7759C40.5009 18.8012 40.3218 18.8908 40.2274 18.9065ZM53.7124 24.0138C53.6942 23.978 53.6113 23.2665 53.5993 23.1633C53.477 22.1177 53.1428 21.0685 52.772 20.1007C52.7197 19.9641 52.6805 19.8839 52.6285 19.7532C52.4035 19.1876 51.9766 18.5961 51.3296 18.651C51.3454 18.4541 51.4759 18.4377 51.6316 18.4865C51.9703 18.5925 52.193 18.5562 52.5285 19.0786C53.0894 19.9518 53.5599 21.9546 53.6704 23.0613C53.6829 23.1865 53.784 23.9242 53.7124 24.0138ZM47.0718 19.6776C47.0683 19.6725 47.063 19.6582 47.0614 19.6621C47.0599 19.6661 47.0532 19.6502 47.0511 19.6469C46.8483 19.3303 46.7794 19.2972 46.8385 18.9939L46.9517 18.3579C46.9818 18.2759 47.0192 18.2504 47.0486 18.1774L47.1205 18.2591C47.1384 18.2792 47.1342 18.2754 47.1573 18.2985L47.2001 18.3379C47.0738 18.8479 47.0463 19.0905 47.0718 19.6776ZM49.8632 19.0417C49.7762 19.1057 49.7464 19.139 49.6067 19.153L49.5435 19.0591C49.5038 18.9587 49.5127 18.713 49.5554 18.6324C49.5696 18.6057 49.7784 18.4596 49.8863 18.3349C49.8829 18.5127 49.7881 18.4719 49.8203 18.6586C49.8467 18.8119 49.8969 18.8084 49.8632 19.0417ZM51.7709 18.2183C52.1115 18.2698 52.4597 18.4019 52.7282 18.5629C52.9102 18.6721 53.3617 19.0265 53.4186 19.216C52.7217 19.1835 52.667 18.9671 52.1403 18.5151C52.0445 18.433 51.8077 18.2712 51.7709 18.2183ZM43.5067 18.9776C43.3941 18.8874 43.3184 18.8427 43.3675 18.6406C43.3832 18.5762 43.4056 18.5015 43.429 18.4275C43.4543 18.3477 43.4601 18.2847 43.4798 18.2112C43.5056 18.1153 43.5441 18.1224 43.5907 18.0518C43.6789 17.9183 43.7467 17.668 43.9055 17.5239C44.1069 17.5901 44.254 18.0402 44.0782 18.3741C43.9714 18.5767 43.7026 18.8982 43.5067 18.9776ZM47.2371 18.0504C47.4108 18.1565 47.2126 18.2533 47.8185 18.6899C47.8079 18.7843 47.7595 18.8722 47.7477 19.016C47.7156 19.4075 47.8895 19.3995 47.5618 19.4647C47.4927 19.4784 47.3916 19.5001 47.3155 19.4812C47.1189 19.4322 47.188 18.7065 47.2438 18.5211C47.3633 18.1244 47.1524 18.189 47.2371 18.0504ZM45.8609 18.1189C46.1342 18.1534 46.2609 18.2708 46.2557 18.5636C46.1879 18.5122 46.1449 18.4261 46.077 18.3501C46.0493 18.319 46.0156 18.2836 45.9826 18.2497L45.8609 18.1189ZM50.0365 18.6377C49.9513 18.0067 50.6505 17.6647 51.2583 17.9044C51.476 17.9903 51.5201 18.0541 51.685 18.1509C51.6159 18.1455 51.5505 18.1194 51.4729 18.0991C51.3826 18.0754 51.2959 18.0701 51.2021 18.0686C50.4339 18.0554 50.2065 18.5672 50.0365 18.6377ZM42.1899 19.3644C42.2669 19.2616 42.421 19.1252 42.5038 19.0233L43.0885 18.267C43.1848 18.1477 43.3156 17.9653 43.4137 17.9029C43.432 18.038 43.3923 18.0624 43.3796 18.2125C43.3596 18.4472 43.2149 18.4641 43.0677 18.5463C42.9747 18.5982 42.9748 18.6454 42.9228 18.744C42.5531 19.4458 42.6546 18.9982 42.4595 19.2256L42.2924 19.4063C42.2594 19.3905 42.2331 19.3791 42.1899 19.3644ZM47.9174 17.2654C47.9643 17.6382 47.8098 17.6929 48.0138 17.9325C48.1726 18.1188 48.2472 18.1433 48.3432 18.4222C47.9951 18.3054 47.9701 18.1242 47.7392 17.7739C47.6987 17.7125 47.6748 17.6462 47.7045 17.5562C47.7284 17.4839 47.8679 17.3216 47.9174 17.2654ZM45.7322 17.3191C45.9731 17.3878 46.0189 17.7357 46.1091 17.9763L46.1279 18.0248C45.9227 17.9235 45.7718 17.544 45.7322 17.3191ZM48.9642 18.2746C49.2822 18.3288 49.6329 17.5736 50.0525 17.5176C50.2483 17.4915 50.4368 17.5443 50.4925 17.7134C50.0686 17.7487 49.9698 17.8459 49.6967 18.1838C49.5088 18.4163 49.5154 18.3939 49.2539 18.5137C49.0308 18.616 49.0497 18.6836 48.9263 18.8889C48.8447 18.8432 48.8284 18.7366 48.7107 18.7122C48.5635 18.6818 48.5227 18.7711 48.4571 18.8429C47.8468 18.7969 46.9762 17.8152 47.5186 17.7064C47.6049 17.972 47.6786 17.9612 47.9409 18.2383C48.0889 18.3947 48.179 18.4945 48.3643 18.5314C48.5449 18.5674 48.3913 18.5565 48.5274 18.6159C48.5894 18.5462 48.5251 18.6124 48.5638 18.5003C48.5862 18.4354 48.6552 18.37 48.698 18.3189C48.7282 18.2828 48.7536 18.2533 48.7751 18.2254C49.0903 17.8143 49.0828 18.001 49.4608 17.528C49.4629 17.5254 49.4911 17.4878 49.4924 17.4861C49.4941 17.4837 49.5612 17.3878 49.562 17.3857C49.6026 17.2897 49.5546 17.2233 49.6021 17.0758C49.713 17.0378 49.9168 17.139 49.6654 17.4207C49.4403 17.673 49.4794 17.8019 49.0945 18.1403C49.0617 18.169 48.9763 18.2152 48.9642 18.2746ZM48.6087 17.0812C48.6331 16.8336 48.8333 17.1021 48.8382 17.1055C48.9464 17.1819 49.0363 17.1147 49.1586 17.2572C49.1498 17.3522 49.0797 17.401 49.0376 17.502C48.9789 17.6431 49.0237 17.5504 48.8794 17.7129L48.6447 17.707C48.6028 17.7917 48.698 17.7275 48.6379 17.8039C48.6077 17.8424 48.5481 17.8449 48.4914 17.8709C48.384 17.9202 48.269 18.0207 48.2811 17.788C48.1483 17.7731 48.0401 17.7678 48.0826 17.6139C48.0846 17.6064 48.1043 17.552 48.1077 17.5389C48.1447 17.396 48.0575 17.3589 48.1669 17.3227L48.2009 17.3362C48.3065 17.405 48.2403 17.3957 48.4471 17.4229C48.4573 17.5347 48.4171 17.5159 48.3878 17.626C48.4437 17.561 48.4695 17.5435 48.4948 17.4226C48.7257 17.3529 48.7581 17.3921 48.7423 17.1314L48.6703 17.1008C48.6405 17.0901 48.6543 17.1047 48.6087 17.0812ZM44.0228 17.1763C44.1165 17.0753 44.0427 16.92 44.1167 16.8293C44.2207 16.8857 44.2403 17.0618 44.2382 17.2072C44.2306 17.7204 43.8393 17.5753 43.8738 17.0802C43.8844 16.9286 43.9219 16.9308 43.9192 16.7797C43.9156 16.5842 43.8916 16.6035 43.9994 16.5459C44.0357 16.6318 44.0594 16.7883 44.0514 16.9064C44.034 17.161 43.9421 16.9261 44.0228 17.1763ZM48.6852 16.7784C48.696 16.6934 48.695 16.7228 48.6847 16.6391L48.653 16.5181C48.6513 16.5135 48.6484 16.505 48.6447 16.4993C48.5074 16.5283 48.6224 16.4939 48.5503 16.576C48.5018 16.6312 48.5957 16.5838 48.504 16.6216C48.4999 16.6141 48.4954 16.5944 48.4942 16.598L48.4763 16.5023C48.4853 16.3344 48.6447 16.3999 48.7855 16.383C48.8294 16.4618 48.8145 16.4439 48.8841 16.49L48.9232 16.3688C49.0775 16.324 48.9632 16.3872 49.114 16.3788C49.1532 16.3117 49.1203 16.3693 49.1364 16.2998L49.1609 16.2013L49.2314 16.204C49.3412 16.5276 49.072 16.4477 48.9979 16.5779C48.9561 16.6513 48.9627 16.7417 48.966 16.8297L48.9917 16.9418C49.0959 16.9409 49.0498 16.9076 49.1747 16.9379C49.1311 17.2902 48.786 16.9058 48.6877 16.8927C48.4528 16.8616 48.1772 16.9422 48.0678 17.1693C48.0623 17.1645 48.054 17.1503 48.0515 17.155L48.001 17.0933C47.985 17.0614 47.9828 17.0268 47.9778 16.9961C47.9575 16.8716 47.9392 16.8657 47.9218 16.7767C47.9006 16.668 47.95 16.3882 47.9878 16.3128C48.1052 16.3324 48.0302 16.3545 48.0368 16.4976C48.1957 16.5887 48.1522 16.5972 48.2224 16.4761C48.2915 16.5685 48.3191 16.5832 48.3388 16.6539C48.288 16.7221 48.3001 16.6834 48.2362 16.7423C48.2215 16.7559 48.2141 16.7655 48.2062 16.7755C48.2783 16.9089 48.2679 16.8492 48.3915 16.8232C48.5085 16.7986 48.6283 16.8367 48.6852 16.7784ZM44.3236 16.5261C44.1907 16.3238 44.2513 16.4245 44.3865 15.9134L44.4217 15.8104C44.5245 15.9728 44.4381 16.3741 44.3236 16.5261ZM49.2728 15.9197C49.4202 15.9113 49.6646 15.9362 49.7468 16.0257C49.7984 16.0818 49.7859 16.2142 49.7868 16.3029C49.7882 16.4472 49.7996 16.464 49.724 16.5509C49.6201 16.5246 49.5419 16.3507 49.4595 16.2582C49.3646 16.1516 49.2376 16.1247 49.2728 15.9197ZM48.0246 16.0003L48.2093 15.9578L48.2002 16.1159C48.1714 16.1029 48.142 16.0935 48.1101 16.0786C47.9499 16.0033 48.068 16.0491 48.0246 16.0003ZM48.4132 16.0871C48.3311 15.8262 48.5847 15.8667 48.838 15.8974C48.9005 15.9051 48.9632 15.8965 49.0352 15.9028L49.0429 16.0002L48.9026 16.0253L48.8921 16.2109C48.8035 16.2174 48.7899 16.2359 48.7752 16.148C48.761 16.0641 48.7859 16.0029 48.8062 15.9294C48.7067 15.9548 48.6968 15.9665 48.6145 16.0183C48.4761 16.1056 48.5165 16.0962 48.4132 16.0871ZM40.8903 17.0559C40.8921 16.5817 40.9058 16.9108 41.1619 16.3283C41.2711 16.0799 41.2014 15.9805 41.6766 15.8328C42.0929 15.6424 42.6204 15.6298 43.0277 15.8495C43.0428 16.0431 42.823 16.3776 42.6957 16.5134C42.5231 16.6973 42.2561 16.591 42.0773 16.9076L41.8361 17.3607C41.915 17.3163 41.9811 17.2411 42.0732 17.191C42.0731 17.1912 41.9112 17.5302 42.0286 17.6399C42.0489 17.6588 42.4644 17.7216 42.6047 17.5484C42.7364 17.3858 42.5689 17.3024 42.6538 17.1486C42.6617 17.1343 42.6775 17.1098 42.6901 17.0877C42.7327 17.0126 42.7216 17.0186 42.7854 16.9668C42.777 17.3601 42.8154 17.6061 42.5628 17.8787C42.3088 18.1529 42.2229 18.0276 42.0985 18.1373C42.0016 18.2228 41.8334 18.4505 41.7811 18.5517C41.7027 18.7038 41.8178 18.7049 41.747 18.8434C41.6338 18.8274 41.7121 18.7865 41.4845 18.6954C41.3694 18.6494 41.3023 18.6263 41.1736 18.5947C40.929 18.5348 40.7008 18.5245 40.4219 18.5501C40.4421 18.4161 40.4846 18.2823 40.5218 18.1551C40.5575 18.0332 40.5841 17.9019 40.6304 17.7715C40.7447 17.4499 40.8779 17.4237 40.8903 17.0559ZM43.4225 15.8742C43.4781 15.8432 43.4711 15.8264 43.5302 15.7894C43.637 15.8713 43.8277 16.0276 43.7178 16.1671C43.6603 16.1442 43.5032 15.9543 43.4225 15.8742ZM41.6345 15.6485C42.2419 15.4568 42.4058 15.5599 42.7772 15.5087C42.9266 15.4881 42.7776 15.4542 42.9992 15.4834C43.0923 15.4956 43.1866 15.4863 43.2735 15.514C43.277 15.5151 43.5426 15.6397 43.4464 15.7558C43.4203 15.7873 43.3912 15.7995 43.3659 15.8142C43.2821 15.7832 43.1803 15.6334 42.9436 15.5964L42.9393 15.621C42.939 15.6246 42.9386 15.6374 42.9387 15.6405C42.939 15.6551 42.9458 15.6469 42.9436 15.6582C42.6598 15.677 42.499 15.519 41.9186 15.6409C41.8437 15.6567 41.6985 15.7037 41.6345 15.6485ZM48.3632 16.5876C48.2173 16.4086 48.2102 15.5032 48.3632 15.3502C48.5859 15.4144 48.3075 15.6086 48.4004 16.2645C48.4185 16.3929 48.4373 16.4989 48.3632 16.5876ZM42.6228 15.3926C42.8427 15.1313 42.9159 15.1471 43.0403 15.2433C43.0965 15.2868 43.1233 15.3159 43.1466 15.4129L42.6228 15.3926ZM48.4204 15.2212C48.4296 15.1555 48.4619 15.0819 48.4896 15.0296C48.5642 14.889 48.6887 14.7888 48.7493 14.5787C48.8085 14.8237 48.8465 15.0677 48.8456 15.3469C48.8443 15.754 48.8329 15.7875 48.4713 15.8305C48.4978 15.6647 48.5964 15.4374 48.5466 15.2669L48.4204 15.2212ZM41.648 15.5233C41.6755 15.4273 41.7962 15.3051 41.884 15.2723C41.9704 15.2401 42.0123 15.2784 42.0807 15.2298C42.1349 15.1912 42.1244 15.1325 42.1695 15.0614L42.5379 15.0813L42.4343 15.3275C42.4041 15.3997 42.4425 15.3743 42.3805 15.405C42.0545 15.4045 41.918 15.4773 41.648 15.5233ZM41.37 15.1206C41.3691 14.6919 41.3864 14.2327 41.6826 14.7123C41.7971 14.8978 41.8017 15.1268 41.6547 15.2999L41.4379 15.4851C41.3958 15.359 41.3704 15.2944 41.37 15.1206ZM48.3507 15.1818C48.276 15.3671 48.2574 15.189 48.2493 15.4711C48.2457 15.5933 48.2684 15.779 48.2024 15.8508C48.1583 15.8987 47.9573 15.9442 47.9198 15.8992C47.8126 15.7712 48.0277 14.9519 48.4747 14.8966L48.3507 15.1818ZM48.8723 14.7301C48.8774 14.7351 48.8841 14.7414 48.8877 14.7452C49.1383 15.0105 49.2914 15.3374 49.2492 15.7334L48.9093 15.7395C48.9118 15.3475 48.9046 15.1164 48.8723 14.7301ZM43.2885 15.4282C43.2704 15.1661 43.4849 15.0389 43.6954 14.8977C43.7932 14.8321 43.8142 14.7969 43.8831 14.7739C43.8447 14.9563 43.7366 15.0793 43.6784 15.2584C43.6151 15.4532 43.5563 15.4981 43.405 15.4623C43.3722 15.4545 43.3334 15.4479 43.2885 15.4282ZM43.4247 7.63038C43.5542 7.552 43.8269 7.45907 43.9849 7.39187C44.489 7.17734 45.2564 6.86713 45.7825 6.81556C45.8501 6.94146 45.8758 7.1509 45.9282 7.29662C45.9831 7.44899 46.0444 7.59528 46.1065 7.73449C46.2032 7.95174 46.4195 8.41752 46.3658 8.70543C46.1707 8.77079 45.9428 8.82612 45.7392 8.89123C45.5393 8.95516 45.3606 9.02172 45.1394 9.09905L43.9759 9.55266C43.8978 9.41298 43.7696 8.78133 43.7094 8.57121L43.4247 7.63038ZM46.7795 9.69072C46.1562 9.91731 45.428 10.1456 44.607 10.3439C44.5908 10.2796 44.5749 10.2153 44.5594 10.1509C44.5465 10.0972 44.5259 10.0183 44.5093 9.94149C44.5822 9.91051 44.656 9.88103 44.7271 9.8521C44.9414 9.76487 45.1572 9.68073 45.3732 9.59786C45.7258 9.46269 46.094 9.31712 46.4534 9.20269C46.4682 9.19801 46.4945 9.18956 46.517 9.18461C46.5211 9.19017 46.525 9.19566 46.5279 9.19986C46.5812 9.27657 46.6137 9.37134 46.6505 9.4568C46.6875 9.54279 46.7282 9.6202 46.7795 9.69072ZM32.7856 23.0937C33.7333 27.3691 35.6405 31.5248 38.1677 34.8146C41.0987 38.6302 44.8729 41.3654 49.086 42.729C53.2996 41.3654 57.0732 38.6298 60.004 34.8146C62.5318 31.5244 64.4389 27.3688 65.3866 23.0937C62.9784 20.9245 63.6352 18.3885 64.1174 16.527C64.5626 14.8088 64.9172 13.4406 63.9237 11.6455C62.1755 12.0461 60.402 12.2492 58.6484 12.2492C53.9743 12.2492 50.4826 10.8058 49.086 10.1189C48.3055 10.5028 46.8705 11.123 44.9405 11.5954C44.8886 11.4003 44.8357 11.2054 44.7831 11.0105C45.9229 10.7333 46.8861 10.403 47.6389 10.1021L47.8518 10.1471L47.8047 10.0349C48.2925 9.83458 48.683 9.65048 48.9653 9.5083L49.086 9.44727L49.2069 9.5083C50.4794 10.1494 53.9473 11.6409 58.6484 11.6409C60.4268 11.6409 62.2268 11.4271 63.9988 11.0053L64.193 10.9596L64.2998 11.1391C65.5551 13.2521 65.1226 14.9218 64.6645 16.6896C64.1905 18.5188 63.6011 20.7957 65.88 22.7405L66.02 22.8597L65.9798 23.0466C65.0272 27.4759 63.0611 31.7929 60.4426 35.2013C57.4211 39.1348 53.522 41.9485 49.1669 43.338L49.086 43.3639L49.0053 43.338C44.6505 41.9487 40.7514 39.1348 37.729 35.2013C35.1111 31.7929 33.1447 27.4764 32.1921 23.0466L32.1518 22.8597L32.2918 22.7405C34.5708 20.7957 33.9813 18.5188 33.507 16.6899C33.0493 14.9218 32.6165 13.2521 33.872 11.1391L33.9789 10.9596L34.1731 11.0053C35.9447 11.4271 37.7451 11.6409 39.5235 11.6409C41.0413 11.6409 42.4303 11.4853 43.6586 11.2532C43.7074 11.4499 43.7567 11.6463 43.8071 11.8423C42.5364 12.0855 41.0971 12.2492 39.5235 12.2492C37.7702 12.2492 35.9961 12.0461 34.2481 11.6455C33.255 13.4406 33.609 14.8088 34.0545 16.527C34.5368 18.3885 35.1938 20.9245 32.7856 23.0937ZM18.4121 51.35C17.7175 51.0593 17.1829 50.9096 16.3688 51.0674C15.484 51.2335 14.7745 51.7664 14.232 52.671C14.0751 52.9379 13.9267 53.2054 13.7868 53.4738L13.316 54.3769L13.7522 55.687C13.8712 56.0446 13.9986 56.403 14.1342 56.7622C14.6044 57.9822 15.2604 58.782 16.1102 59.1692C16.3817 59.2951 16.6331 59.3767 16.8633 59.4108C17.2003 59.4528 17.6178 59.3996 18.1147 59.2481C18.1243 59.3091 18.1224 59.3837 18.1046 59.4666C18.0903 59.5518 18.0333 59.6533 17.943 59.7751C17.8493 59.8945 17.7172 60.019 17.5502 60.1507C17.3821 60.2793 17.1665 60.3855 16.9023 60.466C16.4467 60.605 15.9268 60.6154 15.3405 60.4979C14.2737 60.2846 13.4043 59.6778 12.7333 58.6807C12.4063 58.1947 12.1234 57.6737 11.8833 57.1131C11.703 57.439 11.5033 57.7746 11.2847 58.1189C10.9899 58.5879 10.644 59.0075 10.2446 59.3824C9.50945 60.0722 8.59309 60.4123 7.49662 60.4004C7.00615 60.3951 5.45968 60.0805 4.74023 58.9111C5.43487 59.2019 5.96937 59.3516 6.78351 59.1937C7.66836 59.0276 8.37777 58.4947 8.92033 57.5902C9.0772 57.3233 9.2256 57.0557 9.36552 56.7873L10.4657 54.6771C10.4704 54.6682 10.4752 54.6594 10.48 54.6504L10.4801 54.6505L10.7822 54.0711L10.6117 53.5592L10.6116 53.5593C10.6075 53.5474 10.6033 53.5357 10.5993 53.5236L9.6633 50.7121C9.54433 50.3545 9.41695 49.9961 9.28133 49.6368C8.8111 48.4168 8.15506 47.6171 7.30531 47.2298C7.0338 47.1039 6.7824 47.0224 6.55214 46.9882C6.21515 46.9462 5.79768 46.9995 5.30083 47.151C5.29123 47.0899 5.29304 47.0153 5.31088 46.9324C5.32522 46.8473 5.38216 46.7458 5.47248 46.624C5.56613 46.5046 5.69825 46.3801 5.86534 46.2483C6.03338 46.1196 6.24897 46.0135 6.51317 45.933C6.9688 45.7941 7.48862 45.7837 8.07498 45.9011C9.1418 46.1144 10.0112 46.7212 10.6822 47.7184C11.0468 48.2603 11.3566 48.8458 11.6135 49.4811C11.8728 50.1157 12.0991 50.7234 12.2915 51.3009L12.3492 51.4744C12.5222 51.2643 12.7083 51.0659 12.9078 50.8787C13.6429 50.1889 14.5593 49.8488 15.6557 49.8608C16.3658 49.8683 17.886 50.3357 18.4121 51.35ZM27.8951 48.3532C28.3302 48.3532 28.8006 48.4309 29.2992 48.5899C29.6779 48.7083 30.0142 48.869 30.3129 49.0721C30.6022 49.2823 30.8327 49.5543 31.0068 49.8864C31.1784 50.2202 31.296 50.5717 31.3595 50.9443C31.4348 51.4513 31.47 51.9246 31.47 52.3627V52.4404L31.4771 52.9014V54.8205C31.7445 54.9109 32.0032 54.955 32.253 54.955C32.5251 54.955 32.8042 54.9026 33.0937 54.7952C33.5612 54.6145 33.903 54.3446 34.1124 53.9857C34.275 53.7093 34.3745 53.4236 34.4123 53.1288V52.2849C34.4123 52.0783 34.4617 51.9105 34.5582 51.7833C34.6546 51.6562 34.7792 51.5502 34.9298 51.4654C35.0803 51.3806 35.2496 51.2994 35.4331 51.2234C35.6401 51.1422 35.84 51.0433 36.0352 50.932C36.2304 50.8189 36.4021 50.6706 36.5503 50.4851C36.5503 54.5899 36.555 56.8278 36.5691 57.2005C36.5785 57.536 36.6396 57.9017 36.7478 58.2973C36.8583 58.6947 37.0606 59.0374 37.3546 59.3271C37.6486 59.6167 38.0767 59.7704 38.6364 59.788C39.0832 59.788 39.4549 59.7156 39.7559 59.569C40.057 59.4224 40.2828 59.2352 40.4356 59.0091C40.5862 58.7831 40.6638 58.5517 40.6638 58.3132C40.6638 58.0271 40.5485 57.7674 40.3204 57.5343C40.0946 57.3011 39.7489 57.158 39.2855 57.1033C39.2103 57.0962 39.1397 57.0927 39.0715 57.0927C38.8599 57.0927 38.6529 57.1245 38.4506 57.1881C38.2484 57.2517 38.0649 57.3488 37.9002 57.4813C37.7944 57.2976 37.7403 57.1263 37.7403 56.9673C37.7403 56.7466 37.8226 56.554 37.9896 56.3862C38.1543 56.2184 38.373 56.0877 38.6435 55.9959C38.9139 55.9023 39.2032 55.8563 39.5113 55.8563C39.8194 55.8563 40.1252 55.9093 40.4286 56.0153C40.732 56.123 40.9978 56.2944 41.2282 56.531C41.4564 56.7677 41.6234 57.075 41.7245 57.4548C41.7503 57.5785 41.7645 57.7021 41.7645 57.8275C41.7645 58.0448 41.7316 58.2531 41.661 58.4528C41.4282 59.0886 40.9672 59.5884 40.2828 59.954C39.5984 60.3197 38.8528 60.5016 38.0437 60.5016C37.3687 60.5016 36.7478 60.3727 36.1834 60.1148C35.776 59.9145 35.4392 59.6753 35.173 59.3967C34.6109 58.8083 34.4123 57.7025 34.4123 56.9223V55.471C33.3131 55.9914 32.5979 56.2671 31.4771 56.6284V57.4707C31.4771 57.7356 31.5479 57.9899 31.6888 58.2338C31.7294 58.3039 31.777 58.3694 31.8325 58.4295L32.4651 59.2029C32.336 59.4734 31.86 60.2609 31.7735 60.4769C31.0844 60.1183 30.5669 59.7721 30.2212 59.4383C29.8731 59.1062 29.6403 58.7442 29.525 58.3556C29.4074 57.9652 29.3463 57.5025 29.3416 56.9673C29.3416 56.7677 29.351 56.5664 29.3698 56.3633V52.9014L29.3557 52.239C29.3557 51.7868 29.3392 51.3559 29.3063 50.9443C29.2522 50.3385 29.0735 49.8758 28.7701 49.5578C28.6125 49.3989 28.4337 49.2664 28.2314 49.1569C28.0292 49.0492 27.8316 48.9679 27.6388 48.9132C27.4459 48.8602 27.2413 48.8284 27.0273 48.816C26.8109 48.8036 26.6321 48.7966 26.4887 48.7966C26.4981 48.763 26.5216 48.7242 26.5616 48.6835C26.6016 48.6429 26.6792 48.597 26.7968 48.5493C26.912 48.5016 27.0625 48.4557 27.246 48.4151C27.4318 48.3727 27.6458 48.3532 27.8951 48.3532ZM25.4534 60.5016C24.9268 60.5016 24.5133 60.3749 24.2153 60.1239C23.9173 59.8705 23.7067 59.5269 23.586 59.0883C23.3856 59.5123 23.1185 59.8535 22.7845 60.1117C22.4506 60.3724 22.0217 60.5016 21.4951 60.5016C21.1278 60.5016 20.781 60.4358 20.4522 60.3042C20.1234 60.1751 19.8255 59.9777 19.5609 59.717C19.2655 59.4172 19.042 59.064 18.8956 58.6595C18.7466 58.2549 18.6722 57.8432 18.6722 57.4241C18.6722 57.173 18.7004 56.9221 18.7543 56.676C18.9367 55.9523 19.2681 55.365 19.7484 54.9118C20.2313 54.4585 20.799 54.0638 21.4566 53.7275C21.793 53.5497 22.1501 53.3743 22.5251 53.1988C23.1724 52.9088 23.7838 52.5823 24.3591 52.2241C24.932 51.8659 25.3455 51.4273 25.5972 50.9132V57.9455C25.5972 58.1892 25.6152 58.389 25.6563 58.5449C25.6974 58.7033 25.777 58.8178 25.9003 58.8958C26.0236 58.9714 26.2034 59.0103 26.4398 59.0103C26.6786 59.0103 26.8841 58.9421 27.0485 58.8057C27.2129 58.6692 27.3413 58.5011 27.4312 58.2964C27.5212 58.0917 27.5751 57.8773 27.5905 57.6531H28.2686C28.1864 58.2817 28.0375 58.7813 27.8166 59.1517C27.6342 59.4709 27.4133 59.7389 27.1538 59.9582C26.7325 60.3213 26.1649 60.5016 25.4534 60.5016ZM22.1347 59.0298C22.2708 59.0298 22.4172 58.9957 22.579 58.9226C22.8282 58.8008 23.0054 58.6156 23.1082 58.3743C23.211 58.1307 23.2623 57.8797 23.2623 57.6165V53.8348L22.8565 54.0541C22.2452 54.3879 21.8059 54.7437 21.5388 55.1189C21.1946 55.6087 21.0199 56.2812 21.0199 57.139C21.0199 57.8432 21.1817 58.3793 21.5028 58.7447C21.6672 58.9348 21.8778 59.0298 22.1347 59.0298ZM48.6619 60.5016C47.3069 60.5016 46.2506 60.017 45.4953 59.0503C44.7426 58.0812 44.3661 56.647 44.3661 54.7453V53.5814C44.3661 52.9628 44.4633 52.432 44.6576 51.9888C44.8518 51.5432 45.1068 51.1609 45.4225 50.842C45.7382 50.5254 46.0806 50.2478 46.4497 50.0165C46.8188 49.7827 47.1855 49.5709 47.5449 49.3809C47.982 49.157 48.3584 48.9305 48.6765 48.7016C48.9946 48.4751 49.1986 48.2097 49.2884 47.9102C50.7309 48.9086 51.4521 49.8412 51.4521 50.708C51.4521 51.0173 51.3671 51.3216 51.1995 51.6212C51.0295 51.9207 50.8086 52.1496 50.5293 52.3078C50.2525 52.4685 49.9417 52.5489 49.5944 52.5489V52.0546C49.5944 51.6893 49.5216 51.3387 49.3783 51.0027C49.2326 50.6691 48.997 50.4183 48.6692 50.2502C48.4701 50.1504 48.2758 50.1017 48.0864 50.1017C47.8921 50.1017 47.6954 50.1504 47.4963 50.2502C47.1733 50.4183 46.9378 50.6691 46.7921 51.0027C46.6439 51.3387 46.5711 51.6893 46.5711 52.0546V54.6381C46.5711 55.1324 46.6148 55.6632 46.7022 56.2331C46.7897 56.8004 46.9548 57.3215 47.1927 57.7987C47.4332 58.2736 47.7756 58.6194 48.2224 58.8336C48.5866 58.9846 48.9946 59.0601 49.4438 59.0601C49.7765 59.0601 50.1068 59.0211 50.4346 58.9432C50.76 58.8653 51.0442 58.7509 51.2797 58.6047C51.7605 58.3052 52.1296 57.901 52.3894 57.3921L52.7877 57.5552C52.6226 58.2079 52.336 58.7509 51.928 59.1891C51.5201 59.6275 51.032 59.9562 50.4662 60.1729C49.898 60.392 49.2982 60.5016 48.6619 60.5016ZM59.1985 60.5016C58.7007 60.5016 58.3098 60.375 58.0281 60.1242C57.7464 59.8709 57.5473 59.5276 57.4331 59.0893C57.2437 59.513 56.9912 59.8539 56.6755 60.112C56.3598 60.3725 55.9543 60.5016 55.4564 60.5016C55.1092 60.5016 54.7814 60.4359 54.4705 60.3044C54.1597 60.1753 53.878 59.9781 53.6279 59.7175C53.3486 59.418 53.1373 59.0649 52.999 58.6607C52.8581 58.2565 52.7877 57.845 52.7877 57.4262C52.7877 57.1754 52.8144 56.9246 52.8654 56.6786C53.0378 55.9555 53.3511 55.3686 53.8051 54.9157C54.2617 54.4628 54.7984 54.0684 55.42 53.7323C55.7381 53.5546 56.0757 53.3792 56.4302 53.2039C57.0422 52.9141 57.6201 52.5879 58.164 52.2299C58.7056 51.872 59.0966 51.4336 59.3346 50.9199V57.9473C59.3346 58.1908 59.3516 58.3905 59.3904 58.5463C59.4292 58.7046 59.5045 58.819 59.6211 58.897C59.7376 58.9724 59.9076 59.0114 60.131 59.0114C60.3569 59.0114 60.5511 58.9432 60.7065 58.8069C60.862 58.6705 60.9834 58.5025 61.0684 58.2979C61.1534 58.0934 61.2044 57.8791 61.2189 57.6551H61.86C61.7823 58.2833 61.6415 58.7825 61.4326 59.1526C61.2602 59.4716 61.0514 59.7394 60.8061 59.9586C60.4079 60.3214 59.8712 60.5016 59.1985 60.5016ZM56.0611 59.0309C56.1898 59.0309 56.3282 58.9968 56.4812 58.9237C56.7167 58.802 56.8843 58.6169 56.9815 58.3759C57.0786 58.1324 57.1272 57.8816 57.1272 57.6185V53.8394L56.7435 54.0586C56.1655 54.3922 55.7503 54.7477 55.4977 55.1227C55.1723 55.6121 55.0072 56.2842 55.0072 57.1413C55.0072 57.845 55.1602 58.3807 55.4637 58.746C55.6192 58.9359 55.8183 59.0309 56.0611 59.0309ZM61.6312 65.2461C61.3519 65.2461 61.1109 65.2227 60.9076 65.1748C60.7047 65.1269 60.5396 65.0744 60.415 65.0198C60.2883 64.9643 60.2025 64.9111 60.1612 64.8649C60.1187 64.8174 60.0926 64.7732 60.0825 64.7344C60.2424 64.7344 60.4354 64.7263 60.6664 64.712C60.8974 64.6977 61.1161 64.6619 61.324 64.5998C61.5325 64.5376 61.7458 64.4436 61.9638 64.3185C62.1825 64.1929 62.3767 64.0407 62.5452 63.8558C62.8743 63.4944 63.0699 62.9591 63.1241 62.2555C63.2787 60.2454 63.1926 59.4072 63.1926 57.3886C63.1926 57.1501 63.2434 56.9564 63.3474 56.8096C63.4515 56.6628 63.5861 56.5405 63.7511 56.4427C63.9136 56.3449 64.0939 56.2531 64.2919 56.1654C64.5154 56.0696 64.7337 55.9575 64.9444 55.827C65.1551 55.6986 65.3405 55.5253 65.4979 55.3113V59.9328C65.9194 59.9287 66.3154 59.9001 66.6886 59.8471C67.0593 59.7921 67.3945 59.6739 67.6915 59.4904C68.1586 59.1928 68.3922 58.8074 68.3922 58.3386C68.3922 57.6108 67.8921 56.8259 66.8968 55.9861C66.1631 55.3643 65.2973 54.7833 64.2995 54.241C63.8781 54.0188 63.4896 53.7742 63.1317 53.5071C62.6213 53.128 62.3675 52.7283 62.3675 52.3064C62.3675 52.0312 62.4589 51.7804 62.6417 51.5501C62.8244 51.3218 63.053 51.1097 63.3221 50.912C63.5912 50.7143 63.8629 50.5308 64.1371 50.3595L64.5458 50.0965C64.391 50.2434 64.2462 50.4044 64.1066 50.5777C63.9669 50.7509 63.8984 50.9365 63.8984 51.1363C63.8984 51.4339 64.132 51.7458 64.5966 52.0679C64.9546 52.3186 65.3913 52.5898 65.9067 52.8792C66.3383 53.1218 66.7902 53.393 67.2599 53.6886C67.7321 53.9862 68.1967 54.3185 68.6512 54.6895C68.999 54.9729 69.3189 55.2726 69.6109 55.5905C70.2507 56.3 70.5706 56.9931 70.5706 57.6699C70.5706 57.8411 70.5503 58.0124 70.5122 58.1837C70.3878 58.6892 70.0324 59.1337 69.4484 59.5149C68.7578 59.9654 67.8845 60.2793 66.8283 60.4587C66.3687 60.5178 65.9244 60.5484 65.4979 60.5484C65.4979 61.8615 65.0824 63.6592 64.2107 64.4164C63.9097 64.6779 63.5258 64.8401 63.1189 64.9791C62.5889 65.1601 62.0907 65.2461 61.6312 65.2461ZM77.8332 60.5016C77.3353 60.5016 76.9444 60.375 76.6627 60.1242C76.381 59.8709 76.1819 59.5276 76.0678 59.0893C75.8784 59.513 75.6258 59.8539 75.3101 60.112C74.9944 60.3725 74.5889 60.5016 74.0911 60.5016C73.7438 60.5016 73.416 60.4359 73.1052 60.3044C72.7943 60.1753 72.5126 59.9781 72.2625 59.7175C71.9833 59.418 71.772 59.0649 71.6336 58.6607C71.4927 58.2565 71.4223 57.845 71.4223 57.4262C71.4223 57.1754 71.449 56.9246 71.5 56.6786C71.6724 55.9555 71.9857 55.3686 72.4398 54.9157C72.8963 54.4628 73.433 54.0684 74.0546 53.7323C74.3728 53.5546 74.7103 53.3792 75.0648 53.2039C75.6768 52.9141 76.2547 52.5879 76.7987 52.2299C77.3402 51.872 77.7312 51.4336 77.9692 50.9199V57.9473C77.9692 58.1908 77.9862 58.3905 78.025 58.5463C78.0639 58.7046 78.1391 58.819 78.2557 58.897C78.3723 58.9724 78.5422 59.0114 78.7656 59.0114C78.9915 59.0114 79.1858 58.9432 79.3412 58.8069C79.4966 58.6705 79.618 58.5025 79.703 58.2979C79.788 58.0934 79.839 57.8791 79.8536 57.6551H80.4946C80.4169 58.2833 80.2761 58.7825 80.0672 59.1526C79.8948 59.4716 79.686 59.7394 79.4408 59.9586C79.0425 60.3214 78.5058 60.5016 77.8332 60.5016ZM74.6957 59.0309C74.8244 59.0309 74.9628 58.9968 75.1159 58.9237C75.3514 58.802 75.5189 58.6169 75.6161 58.3759C75.7132 58.1324 75.7618 57.8816 75.7618 57.6185V53.8394L75.3781 54.0586C74.8002 54.3922 74.3849 54.7477 74.1324 55.1227C73.8069 55.6121 73.6418 56.2842 73.6418 57.1413C73.6418 57.845 73.7948 58.3807 74.0984 58.746C74.2538 58.9359 74.4529 59.0309 74.6957 59.0309ZM80.4873 48.6355C80.8915 48.6355 81.3285 48.7119 81.7917 48.8679C82.1434 48.9841 82.4558 49.1419 82.7333 49.3413C83.002 49.5477 83.2161 49.8148 83.3778 50.1408C83.5373 50.4686 83.6466 50.8136 83.7055 51.1796C83.7755 51.6773 83.8082 52.142 83.8082 52.5721V52.6484L83.8148 53.101V57.5873C83.8148 57.8474 83.8803 58.0972 84.0114 58.3365C84.1403 58.574 84.3523 58.7527 84.6472 58.8723C84.8307 58.9435 85.0077 58.9781 85.1781 58.9781C85.3485 58.9781 85.5233 58.9435 85.7046 58.8723C85.9974 58.7527 86.2116 58.574 86.3427 58.3365C86.4759 58.0972 86.5415 57.8474 86.5415 57.5873V52.4958C86.5415 52.2929 86.5873 52.1282 86.6769 52.0033C86.7665 51.8784 86.8823 51.7744 87.0221 51.6911C87.162 51.6079 87.3193 51.5281 87.4897 51.4536C87.6819 51.3738 87.8677 51.2767 88.049 51.1674C88.2303 51.0564 88.3898 50.9108 88.5275 50.7287C88.5275 54.7589 88.5318 56.9561 88.5449 57.322C88.5537 57.6515 88.6105 58.0104 88.711 58.3989C88.8137 58.7891 89.0016 59.1255 89.2747 59.4099C89.5478 59.6943 89.9454 59.8452 90.4654 59.8626C90.8805 59.8626 91.2257 59.7915 91.5054 59.6475C91.785 59.5036 91.9948 59.3198 92.1368 59.0978C92.2766 58.8758 92.3487 58.6486 92.3487 58.4145C92.3487 58.1336 92.2417 57.8787 92.0297 57.6498C91.82 57.4208 91.4988 57.2804 91.0684 57.2266C90.9985 57.2197 90.9329 57.2162 90.8696 57.2162C90.673 57.2162 90.4807 57.2474 90.2928 57.3099C90.1049 57.3723 89.9345 57.4677 89.7816 57.5978C89.6832 57.4174 89.633 57.2492 89.633 57.0931C89.633 56.8763 89.7095 56.6873 89.8646 56.5225C90.0175 56.3578 90.2207 56.2295 90.472 56.1393C90.7232 56.0474 90.9919 56.0023 91.2782 56.0023C91.5644 56.0023 91.8484 56.0543 92.1302 56.1584C92.4121 56.2641 92.659 56.4324 92.8731 56.6647C93.085 56.8971 93.2401 57.1989 93.3341 57.5717C93.3581 57.6931 93.3712 57.8145 93.3712 57.9376C93.3712 58.1509 93.3407 58.3556 93.2751 58.5515C93.0588 59.1758 92.6306 59.6666 91.9948 60.0255C91.359 60.3845 90.6664 60.5632 89.9148 60.5632C89.2878 60.5632 88.711 60.4365 88.1867 60.1834C87.5727 59.8643 87.1313 59.4446 86.8626 58.9226C86.4562 59.1394 86.0564 59.3284 85.661 59.4897C85.2677 59.651 84.9269 59.8123 84.6407 59.9753C84.3545 60.1365 84.1709 60.3256 84.0901 60.5389C83.4499 60.1868 82.9693 59.8469 82.6481 59.5192C82.3247 59.1932 82.1085 58.8377 82.0014 58.4561C81.8921 58.0729 81.8353 57.6185 81.831 57.0931C81.831 56.8971 81.8397 56.6994 81.8572 56.5V53.101L81.8441 52.4507C81.8441 52.0068 81.8288 51.5836 81.7982 51.1796C81.7479 50.5848 81.5819 50.1304 81.3001 49.8183C81.1537 49.6622 80.9876 49.5321 80.7997 49.4246C80.6118 49.3188 80.4283 49.2391 80.2492 49.1853C80.07 49.1332 79.8799 49.102 79.6811 49.0899C79.4801 49.0778 79.3141 49.0708 79.1808 49.0708C79.1895 49.0379 79.2114 48.9997 79.2485 48.9598C79.2857 48.92 79.3577 48.8749 79.467 48.828C79.574 48.7812 79.7139 48.7362 79.8843 48.6962C80.0569 48.6546 80.2557 48.6355 80.4873 48.6355Z" fill="#A67C36"/>
</g>
</svg>
