<svg width="121" height="86" viewBox="0 0 121 86" fill="none" xmlns="http://www.w3.org/2000/svg">
<g id="Xan Saray Logo">
<path id="Vector" fill-rule="evenodd" clip-rule="evenodd" d="M103.708 56.8915C103.444 57.2957 103.373 57.8122 103.495 58.4386C103.608 58.9349 103.787 59.3281 104.034 59.6232C104.282 59.9182 104.558 60.1188 104.86 60.2279C105.162 60.3345 105.452 60.3586 105.73 60.2947C106.065 60.218 106.338 60.0204 106.553 59.7045C106.768 59.3913 106.847 58.969 106.793 58.4397C106.782 58.3543 106.769 58.275 106.751 58.1992C106.698 57.9641 106.608 57.7428 106.483 57.5352C106.357 57.3277 106.197 57.1499 106.001 57.0026C106.188 56.8358 106.375 56.7298 106.56 56.6872C106.818 56.628 107.064 56.6678 107.302 56.8083C107.539 56.9461 107.747 57.154 107.923 57.4298C108.101 57.7051 108.228 58.014 108.306 58.3562C108.384 58.6984 108.4 59.0521 108.353 59.4175C108.305 59.7833 108.172 60.1243 107.954 60.4438C107.736 60.7606 107.419 61.0285 107.002 61.2425C106.864 61.3045 106.723 61.3533 106.577 61.3869C106.323 61.4452 106.071 61.4665 105.821 61.4396C105.019 61.3536 104.197 61.2872 103.621 60.6038C101.274 57.8197 103.804 56.744 103.708 56.8915ZM38.9223 27.7712C41.3806 40.561 49.8191 50.8631 60.5369 54.1323C71.2541 50.8631 79.6929 40.561 82.1512 27.7712C79.1258 25.6385 79.7578 23.1993 80.3697 20.8373C81.0016 18.397 81.6548 15.8759 79.3497 12.6204C69.4082 15.2738 62.0821 11.6466 60.5369 10.782C60.241 10.9475 59.7327 11.2144 59.0355 11.5189L58.5473 10.8134L58.5414 10.8059C58.5401 10.8042 58.5388 10.8024 58.5375 10.8007L58.5372 10.5553C58.5371 10.4928 58.5359 10.4332 58.533 10.3758C59.6192 9.91384 60.2242 9.54763 60.2456 9.53429L60.5361 9.354L60.8283 9.53465C60.9063 9.58298 68.7284 14.3199 79.4255 11.3145L79.7884 11.2127L80.0245 11.5252C82.9764 15.4313 82.1516 18.6133 81.4893 21.1702C80.8847 23.5044 80.4756 25.0831 82.7435 26.6987C83.4546 26.1092 84.1176 25.5876 84.5844 25.2379C84.842 25.045 85.0849 24.5848 85.0034 23.9182C84.9049 23.285 85.9253 22.7959 86.0731 23.7213C86.0969 23.837 86.5215 22.936 85.7324 22.6306C85.1754 22.3988 84.817 23.2988 84.7704 23.3374C84.221 23.8171 83.5887 21.95 85.0831 21.5578C85.8718 21.3541 86.6371 21.9577 86.8558 22.7179C86.8955 22.0361 86.422 21.6877 86.9774 21.2356C87.356 20.9266 88.0001 21.3049 87.7466 22.513C90.5779 19.1556 87.0006 15.9675 85.3751 18.0454C84.5548 19.0944 86.4235 21.0164 86.7839 18.576C86.8289 18.2703 87.4105 18.4201 87.609 18.9081C88.1751 20.1915 85.9173 21.8278 84.6719 19.9565C83.6383 18.4664 84.9795 16.7697 86.3466 16.6458C88.0432 16.4916 89.5496 17.7726 89.5489 20.0689C89.5478 21.9544 88.1392 23.4344 86.4655 24.7844C88.9977 23.5431 90.7049 24.2478 91.3755 25.0137C92.1773 25.9295 91.7692 26.9816 91.0815 26.4369C90.5242 25.9957 90.2479 25.4627 89.361 25.2119C89.3209 25.2004 89.2939 25.192 89.2681 25.1839C89.5898 25.3145 90.8398 25.9559 90.6242 27.5109C90.3737 29.6648 88.0925 30.1056 87.5765 28.5457C87.2896 27.6624 87.8977 26.1349 88.294 27.6331C88.6567 28.8842 89.5334 28.2253 89.7221 27.3449C90.0835 25.6198 87.2715 25.0325 85.6138 25.6986C85.2372 25.8439 84.8246 26.0805 84.4344 26.3374C84.0816 26.604 83.7375 26.8699 83.411 27.1373L83.4481 27.161L83.37 27.5905C82.2311 33.8728 79.6649 39.7504 75.9481 44.5886C71.8792 49.8857 66.604 53.6164 60.6923 55.379L60.5369 55.4257L60.3812 55.379C54.4698 53.6164 49.1942 49.8857 45.1254 44.5886C41.4085 39.7504 38.8423 33.8728 37.7038 27.5905L37.6272 27.1689C37.2893 26.8908 36.9319 26.6145 36.5656 26.3374C36.1751 26.0805 35.7628 25.8439 35.3857 25.6986C33.7281 25.0325 30.9165 25.6198 31.2775 27.3449C31.4662 28.2253 32.3425 28.8842 32.7055 27.6331C33.1018 26.1349 33.71 27.6624 33.4227 28.5457C32.9072 30.1056 30.6259 29.6648 30.3754 27.5109C30.1598 25.9559 31.4098 25.3145 31.7311 25.1839C31.7061 25.192 31.6788 25.2004 31.6387 25.2119C30.7516 25.4627 30.4758 25.9957 29.9181 26.4369C29.2301 26.9816 28.8224 25.9295 29.6241 25.0137C30.2948 24.2478 32.002 23.5431 34.534 24.7844C32.8605 23.4344 31.4522 21.9544 31.4511 20.0689C31.4499 17.7726 32.9563 16.4916 34.653 16.6458C36.0196 16.7697 37.3612 18.4664 36.3277 19.9565C35.0826 21.8278 32.8249 20.1915 33.3906 18.9081C33.5887 18.4201 34.1707 18.2703 34.2161 18.576C34.5762 21.0164 36.4444 19.0944 35.6241 18.0454C33.9991 15.9675 30.4217 19.1556 33.2534 22.513C32.9996 21.3049 33.6437 20.9266 34.0222 21.2356C34.578 21.6877 34.1045 22.0361 34.1437 22.7179C34.3619 21.9577 35.1278 21.3541 35.9166 21.5578C37.4109 21.95 36.7781 23.8171 36.2288 23.3374C36.1826 23.2988 35.8246 22.3988 35.2671 22.6306C34.478 22.936 34.9028 23.837 34.9269 23.7213C35.0744 22.7959 36.095 23.285 35.9962 23.9182C35.9147 24.5848 36.1579 25.045 36.4151 25.2379C36.8894 25.5931 37.566 26.1257 38.2899 26.7267C40.602 25.1013 40.1919 23.5179 39.5843 21.1702C38.9216 18.6133 38.0971 15.4313 41.049 11.5252L41.285 11.2127L41.648 11.3145C46.2092 12.5954 50.2472 12.4687 53.3856 11.8986C53.4926 12.3099 53.5949 12.7224 53.6963 13.1352C50.5056 13.7266 46.405 13.8698 41.7238 12.6204C39.4191 15.8759 40.0718 18.397 40.7042 20.8378C41.3157 23.1993 41.9477 25.6385 38.9223 27.7712ZM64.3537 45.5896C64.2134 45.4348 64.187 45.3312 64.4229 45.0724C64.468 45.023 64.4425 45.0421 64.4965 44.997C64.5524 44.9505 64.4884 44.979 64.5713 44.9539C64.5774 45.1033 64.5077 45.2961 64.4445 45.431L64.3537 45.5896ZM50.9418 20.6768C50.7949 21.2771 50.8309 21.1292 50.7391 21.7477C50.6667 22.236 50.6028 22.2886 50.4115 22.6528C50.4323 22.6872 50.4173 22.7044 50.5274 22.7625C50.7249 22.5528 51.0409 21.7482 51.1579 21.4231C51.1531 21.4176 51.1453 21.402 51.1431 21.4072C51.1409 21.4123 50.944 21.2125 50.9574 21.1076C50.9757 20.9649 51.0213 20.7596 51.1032 20.6851C51.1379 20.5689 51.1544 20.5889 51.1682 20.5365C51.2205 20.3376 51.188 20.4864 51.1587 20.4247C50.9857 20.4695 51.049 20.5826 50.9418 20.6768ZM50.6996 24.1548C50.5678 24.1866 50.0069 24.7799 50.4048 25.0311C50.7639 25.2578 50.562 24.706 50.562 24.7057C50.5388 24.4345 50.8277 24.4609 50.6996 24.1548ZM53.0439 8.76178C52.9823 8.74567 53.0095 8.75223 52.9688 8.72318C52.9469 8.70757 52.9135 8.67354 52.8905 8.65442C52.6568 8.46008 52.6755 8.54389 52.6407 7.98937C52.6215 7.68144 52.517 7.17789 52.543 6.88892C52.689 7.22399 53.0705 8.1537 53.0843 8.49437L53.0439 8.76178ZM53.5236 8.54553C53.5773 8.36023 53.6289 8.42804 53.5386 8.24101L52.6525 6.32669C52.6031 6.22122 52.5591 6.10954 52.5074 6.00708C52.4072 6.00576 52.333 6.04375 52.2335 6.09215C52.319 6.75263 52.4795 7.60671 52.5539 8.23465C52.6193 8.7872 52.6985 8.53515 52.9216 8.86837C53.0242 9.02154 52.8361 9.05013 52.9379 9.26983C53.152 9.1748 52.8987 9.02282 53.2225 8.94861C53.2975 8.95265 53.326 8.96641 53.3792 8.9957L53.3769 9.12416C53.3105 9.30012 53.2456 9.16717 53.1093 9.34091C53.0338 9.43715 53.0764 9.3564 53.0385 9.464C53.2355 9.63135 53.2359 9.76837 53.3276 10.1813C53.3898 10.4613 53.4664 10.7519 53.5372 11.0039C53.8851 12.2438 54.2289 13.7806 54.5835 15.1003L54.7588 15.8104C54.7682 15.8301 54.7682 15.8312 54.7817 15.8513C54.8266 15.9181 54.755 15.8548 54.8318 15.9066C54.8981 15.872 54.8628 15.9047 54.9074 15.8442C55.0059 15.7103 54.866 15.4553 54.7995 15.1579C54.6517 14.4968 54.3546 13.4507 54.1719 12.7521C54.1201 12.5541 53.3439 9.65697 53.3405 9.52551L53.4808 9.45992C53.5683 9.62678 53.6467 10.0688 53.7043 10.2721C53.7777 10.5316 53.859 10.8307 53.9237 11.1115C54.0508 11.6638 54.224 12.2178 54.3506 12.7705C54.416 13.0558 54.4823 13.3166 54.5597 13.5992L54.989 15.2618C55.0672 15.5431 55.1085 15.8698 55.2728 16.0299C55.2564 16.0672 55.1889 16.0689 55.2553 16.2968L56.4101 20.8256C56.2128 20.7338 56.0628 19.9828 55.9911 19.6907L55.3273 17.1741C55.2835 17.0129 55.1417 16.3454 55.0634 16.2538C55.0277 16.2119 55.0082 16.1979 54.969 16.1468C54.9564 16.1304 54.9427 16.109 54.9283 16.0943C54.8551 16.02 54.9361 16.0805 54.8427 16.027C54.8555 16.3577 55.2707 17.7196 55.3755 18.2192C55.507 18.8473 55.8348 19.8928 55.9267 20.427C55.6259 20.3229 55.4926 19.83 55.3514 19.5444C55.2668 19.3739 55.1683 19.2353 55.0475 19.1299C54.8628 18.9687 54.7317 18.9191 54.6364 18.8406C54.6419 18.6621 54.7597 18.3212 54.7994 18.1275C54.8697 17.7844 54.8902 17.751 54.6596 17.5295C54.1759 17.7291 53.4585 18.5635 53.3373 18.6235C53.3989 18.3216 53.7138 18.2779 53.7885 18.0126C53.6219 18.0332 53.5053 18.0568 53.3694 18.1318C53.1838 18.2345 53.168 18.3068 53.0813 18.3407C52.9098 18.0159 53.4765 18.0255 53.4582 17.5798C53.3526 17.6058 53.2792 17.6743 53.1623 17.7329C52.7116 17.9587 52.6767 17.9374 52.4009 18.3879C52.3951 18.379 52.3285 18.3878 52.3968 18.2011C52.4223 18.1311 52.4452 18.0929 52.439 17.9891C51.9768 17.9356 51.9658 18.4146 51.7657 18.6108C51.6622 18.0046 51.6882 18.1253 51.3042 17.6706C51.1909 17.5364 51.1967 17.4526 51.0439 17.5187C51.0045 17.5566 50.7981 18.4994 50.9263 18.9971C50.9484 19.0829 50.9623 19.1146 50.9957 19.2008C51.0227 19.2704 51.0539 19.3411 51.0305 19.4015C50.9244 19.5782 50.8804 19.5159 50.8937 19.7937C50.6962 19.9198 50.8227 19.8241 50.6279 20.2437C50.5771 20.3533 50.4178 20.5986 50.3409 20.6629C50.2141 21.6484 50.2942 21.1965 49.9634 22.2355L49.7382 22.976C49.6514 23.0724 49.6716 22.9636 49.5255 23.245C49.403 23.4813 49.5711 23.3842 49.4537 23.6237C49.1254 24.2931 48.861 24.0859 49.0946 25.0116C49.1587 25.2653 49.2089 25.537 49.3226 25.7547C49.4834 26.0629 49.6779 26.0088 50.0396 26.0079C50.1049 26.0356 50.0735 26.21 50.5848 26.2563C51.2449 26.316 51.7766 25.987 51.9589 25.2652L51.9909 25.1681C52.0081 25.1923 52.2176 25.6093 52.2215 25.6379C52.2367 25.7503 52.1707 26.1909 52.1525 26.2997C52.0868 26.6915 52.0748 27.2217 52.0402 27.6334L52.076 27.7315L52.1618 27.6502C52.1657 27.6467 52.1729 27.6393 52.1795 27.6354C52.259 27.352 52.386 26.1793 52.3632 25.8147C52.6125 25.965 52.6775 26.3756 53.3908 26.2682C53.3744 26.5759 53.3255 26.6526 53.2527 26.8954L53.3077 26.93C53.4014 27.0002 53.3999 27.0277 53.4352 27.1638C53.4633 27.2727 53.4725 27.4532 53.475 27.6025C53.4804 27.9417 53.4251 28.1961 53.4199 28.4846C53.515 28.4503 53.4382 28.5031 53.5534 28.3527C53.5798 28.3182 53.574 28.3238 53.6006 28.2977L53.4791 29.68C53.6232 29.6814 53.6642 29.5441 53.7322 29.4359C53.7882 29.347 53.8543 29.2187 53.9112 29.107C54.5916 27.7713 54.4626 27.1028 54.6082 26.6889C54.8505 26.7778 55.0121 26.6522 55.1974 26.6601C55.4901 27.3151 55.4062 28.5573 55.405 29.2696C55.9477 29.1069 56.1281 27.5465 55.9441 26.9044C55.9206 26.8227 55.8568 26.6288 55.8529 26.5756C56.1626 26.6628 56.3786 26.764 56.7393 26.5726C56.8741 26.501 56.8873 26.4561 56.984 26.4345C57.1089 26.6262 57.2134 26.8809 57.2832 27.1257C57.3431 27.3354 57.4559 27.7848 57.4435 28.0021C57.0232 28.3078 56.1826 28.9706 55.7924 29.3678C55.5709 29.5933 55.2613 29.918 55.0782 30.1731C55.0225 30.2507 55.0027 30.3004 54.9179 30.354C54.7911 30.1596 54.7339 29.9132 54.7027 29.6699C54.6663 29.3861 54.6534 29.1738 54.6476 28.8586C54.56 28.87 54.5405 28.8138 54.4573 29.0462C54.362 29.3127 54.2428 29.5913 54.2075 29.9081C54.1776 30.1768 54.1858 30.3804 54.2515 30.6163C54.2844 30.7344 54.2949 30.7719 54.3546 30.8786C54.4187 30.9931 54.471 31.0047 54.4612 31.1704C53.687 31.1339 52.7982 30.3558 52.4491 29.5401C52.3508 29.3105 52.1868 28.8185 52.2067 28.5097C52.163 28.448 52.1787 28.4103 52.1744 28.3096L52.1145 28.2671C51.9671 28.1579 52.0484 28.1703 51.9233 28.1148C51.9289 28.3418 51.9775 28.1975 52.0122 28.3625C51.851 28.365 51.8658 28.1571 51.7597 28.3901C51.8679 28.4159 51.902 28.4289 51.9647 28.4871C51.978 28.6448 51.9824 28.6543 51.871 28.7213C51.932 29.431 52.0779 29.9589 52.4102 30.4734C52.542 30.6774 52.7285 30.94 52.849 31.1691C52.9024 31.2706 53.0073 31.4617 52.9804 31.5836C52.9553 31.6978 52.8474 31.8675 52.737 31.9143C52.5707 31.9013 52.3027 31.6207 52.2102 31.5178C51.8997 31.1727 51.6623 30.7594 51.5239 30.285L51.3415 29.5246C51.3393 29.5186 51.3356 29.5082 51.3309 29.501C51.1122 29.7007 51.4545 30.8448 51.5368 31.0719C51.6327 31.3363 51.8419 31.7421 52.0025 31.9864C52.0455 32.0519 52.1535 32.1921 52.1931 32.2766C51.7262 32.2919 51.5602 31.4297 51.4237 31.0841C51.4105 31.2767 51.4516 31.445 51.5089 31.6187C51.5899 31.8638 51.6736 31.9606 51.714 32.0845C51.4863 31.9824 51.2044 31.6282 51.1095 31.376L51.0094 31.0802C51.0056 31.0723 50.999 31.0623 50.9957 31.0558C50.9922 31.0494 50.9867 31.039 50.9811 31.0314C50.8661 31.3128 50.9247 31.4775 50.9203 31.7797C50.5714 31.3438 50.5198 30.6234 50.7396 30.0453C50.9601 29.4654 51.315 29.1226 51.6622 28.7421C51.631 28.6273 51.6691 28.632 51.5951 28.602C51.4959 28.7337 51.6652 28.678 51.4607 28.8475C51.3858 28.9096 51.3884 28.8769 51.3175 28.9436C51.2583 28.9992 51.2725 29.0188 51.2202 29.0804L51.0011 29.3402C50.9229 29.4334 50.8441 29.5691 50.7757 29.6143C50.7572 29.7415 50.1 30.515 50.6601 31.6383C50.804 31.9267 50.9246 31.9153 50.8073 32.3051C50.6764 32.7399 50.4954 33.0581 50.185 33.3539C49.9979 33.5323 49.6719 33.7251 49.4201 33.823C49.2604 33.8851 49.2673 33.8906 49.1999 34.0508C48.9147 34.7284 48.9029 35.0132 49.1464 35.7254C49.1797 35.8231 49.2651 35.9547 49.284 36.0085C49.3804 36.2818 49.0076 37.519 49.2403 38.4566C49.2759 38.6 49.2699 38.6931 49.2732 38.8545C49.2845 39.4284 49.0569 39.3198 49.4812 39.8076C49.4401 39.9439 49.3796 39.9092 49.4975 40.0804C49.6839 40.3509 49.9181 40.4975 50.054 40.7144C50.1893 40.9302 50.1758 41.0874 50.2217 41.3296C50.3522 42.0181 50.4799 41.9835 50.9083 42.2287C51.0713 42.322 51.1925 42.4893 51.3499 42.5816C52.0242 42.9769 52.9084 42.1265 52.3393 40.9399C52.1527 40.5509 51.916 40.2965 51.6123 40.0915C51.5325 40.0375 51.4335 39.9725 51.3325 39.9807C51.1737 39.9938 50.9765 40.2896 50.8429 40.0214C50.795 39.925 50.8582 39.8048 50.8879 39.6949C50.9471 39.4757 50.9655 39.1756 50.9222 38.9224C50.9035 38.8126 50.8681 38.7268 50.8236 38.6288C50.7737 38.519 50.7092 38.4495 50.6749 38.3696C50.9706 38.0996 50.3373 36.1859 50.8717 35.2368C51.1345 35.2237 50.9655 35.3831 51.2397 35.2213C51.5076 35.0631 51.8873 35.0871 52.1656 34.9855C52.3087 34.9332 52.4461 34.7904 52.5197 34.7807C52.5362 35.0727 52.5258 35.5122 52.364 35.6742C52.1237 35.6114 52.0872 35.5212 51.9048 35.4002C51.8219 35.4247 51.7338 35.4909 51.6719 35.5618C51.4823 35.7785 51.7178 36.1947 51.8571 36.3828L52.0532 36.5754C52.1166 36.6463 52.069 36.6058 52.1361 36.6667C52.2829 36.8001 52.2635 36.8856 52.4193 37.2007C52.4395 37.2415 52.4667 37.2857 52.4987 37.3259C52.9294 37.8648 52.8001 37.8215 52.917 38.4799C52.9994 38.9435 53.1502 39.3219 53.5119 39.4717C53.7975 39.5899 53.7628 39.507 54.0082 39.7385C54.1293 39.8529 54.2741 40.0072 54.4059 40.113C54.7891 40.4204 55.161 40.2804 55.3887 39.8505C55.6066 39.4389 55.5732 38.9987 55.4038 38.55C55.2466 38.1339 55.0214 37.8651 54.4874 37.9009C54.381 37.7871 54.2443 37.6032 54.1298 37.5074C54.695 37.3132 54.4172 36.9304 54.8318 36.4462C55.0346 36.6936 55.4034 37.0193 55.6456 37.2153C55.9091 37.4286 56.2511 37.7102 56.5652 37.8707C56.5533 37.9509 56.4944 38.1424 56.4684 38.2453C56.1191 39.6287 57.0975 41.2854 57.8159 42.3291L58.509 43.2467C58.568 43.3165 58.6274 43.3692 58.666 43.4614C58.4471 43.6614 58.3271 43.7561 58.1611 44.0823C57.7744 44.842 57.5091 45.6626 56.9967 46.3401L56.4843 46.9598C56.3526 47.1442 56.4462 47.525 56.1467 47.7647C55.7796 48.0586 55.9878 47.9897 55.7456 48.5034L55.4245 49.0193C55.394 49.0603 55.3864 49.0657 55.3604 49.1062C55.3039 49.1941 55.3487 49.0822 55.3034 49.215C55.4311 49.5965 55.7797 49.6307 56.1794 49.6453C56.5711 49.6597 56.9587 49.5935 57.2673 49.4611C57.8793 49.1985 57.972 48.9444 58.0536 48.2683C58.0836 48.02 57.9916 47.9703 57.781 47.9353L57.83 47.5953C58.3433 47.4579 58.2617 47.1997 58.3021 46.6248C58.4267 46.5441 58.5191 46.4437 58.62 46.3545C58.6909 46.2918 58.7065 46.2702 58.7679 46.207C58.8272 46.146 58.8763 46.101 58.9339 46.0457L59.3934 45.5858C59.83 45.1234 60.3277 44.6017 60.6662 44.0593C60.8078 43.8324 61.0776 43.502 60.8898 43.2185C60.804 43.0889 60.664 42.9918 60.5747 42.9063C59.914 42.2736 59.9442 41.389 60.0771 40.4424C60.5196 40.3749 60.6815 40.5009 61.0484 40.0434C61.2949 39.736 61.3518 39.4331 61.518 39.0951C61.6896 39.1425 61.8701 39.6162 62.3502 39.9603C63.3514 40.678 62.7689 41.079 63.0335 42.1452C63.1066 42.4396 63.2422 42.6867 63.3899 42.9366C63.7167 43.4902 63.5781 43.2801 63.4236 43.7545C63.2741 44.2138 63.3166 44.9697 63.2048 45.2751C63.1556 45.4091 63.0763 45.572 63.0208 45.692C62.7078 46.3694 62.3015 46.7547 62.1388 47.1135C62.0125 47.3922 62.0108 47.7132 61.8997 48.0267C61.7966 48.3178 61.6743 48.5999 61.5105 48.8069C61.4202 48.921 61.28 49.0053 61.2584 49.1239C61.2425 49.2114 61.229 49.5782 61.2532 49.6571C61.4854 50.4169 63.6373 49.5869 63.7424 49.3875C63.7777 49.1786 63.8175 48.9403 63.8023 48.7259C63.7791 48.3992 63.7698 48.3625 63.512 48.2822C63.4775 47.9187 63.657 47.8055 63.918 47.6663C63.9269 46.2724 63.8594 47.2008 64.7817 45.5461C65.0017 45.1514 65.4602 44.3659 65.3555 43.8698C65.3416 43.8044 65.2982 43.6804 65.2617 43.6041C65.2351 43.5484 65.1361 43.4106 65.1151 43.3597C64.9669 43.0014 65.3389 41.8295 65.3015 41.2871C65.2611 40.7016 65.1115 40.9513 65.3193 40.4027C65.5364 39.8293 65.6615 39.2056 65.7809 38.5979C65.8168 38.4149 65.7948 38.3651 65.8511 38.2596C65.9542 38.4663 65.9703 38.7482 65.9903 38.977C66.0579 39.7457 66.0576 39.6487 66.381 40.283C66.5245 40.5643 66.4748 40.6886 66.4856 41.0396C66.8891 41.031 66.7142 40.6725 66.7981 40.5075C67.1045 41.0183 66.968 42.7013 67.8598 42.9688C68.0036 42.8347 67.8763 42.8124 67.8005 42.6701C67.7102 42.5007 67.6993 42.3762 67.7864 42.2125C67.8928 42.4065 68.065 43.0124 68.2702 43.4267C68.4007 43.6898 68.7585 44.3026 69.0085 44.3972C68.9191 43.8192 68.7458 43.5234 68.77 43.0303C69.2218 43.3244 69.1661 44.5175 69.5222 44.8788C69.5678 44.444 69.2779 43.4442 69.2926 43.093C69.3719 43.2676 69.3706 43.5608 69.5845 43.6149L69.2102 41.5821C69.1959 41.5337 69.1733 41.4861 69.1656 41.4473C69.1452 41.3447 69.1542 41.3579 69.1798 41.3181C69.3267 41.3676 69.2701 41.4685 69.3334 41.5749C69.3991 41.6855 69.3011 41.6109 69.3657 41.6045C69.4242 41.5539 69.3768 41.6371 69.417 41.5037C69.6233 40.8182 69.1751 40.094 68.8985 39.6225C68.819 39.4956 68.3286 38.8873 68.5297 38.8113C68.5363 38.8088 68.5461 38.8028 68.5545 38.8002C68.656 38.768 68.4966 38.8005 68.6052 38.7861C68.6907 38.7748 68.7433 38.8145 68.8566 38.8473C68.8346 38.73 68.7996 38.6499 68.7557 38.5482C68.7125 38.448 68.6619 38.4018 68.5822 38.3418C68.3126 38.0957 68.0271 37.2262 67.6837 36.7076L67.6602 36.6724C67.6535 36.6622 67.6361 36.6357 67.6249 36.6187C67.0695 35.7713 66.2517 35.4349 66.2393 35.252C66.2372 35.2209 66.2381 35.2111 66.2411 35.1801L66.4561 33.113C66.4969 32.6917 66.5082 32.7361 66.324 32.4689L66.3068 32.9811C66.2705 33.7656 66.1036 35.9619 65.8511 36.591C65.7796 36.5698 65.6362 36.1673 65.571 36.0213C63.8922 32.0788 65.5476 36.1017 63.582 31.2336C63.0089 29.7551 61.9155 26.8877 61.671 25.2303C61.5858 24.6528 61.4823 23.9962 61.6893 23.4505C61.7704 23.2369 61.932 22.9936 62.0724 22.8475C62.2408 22.6721 62.421 22.5358 62.6902 22.5092C62.7232 22.6761 62.7821 22.7984 62.9108 22.8819C62.935 22.8976 62.9423 22.8994 62.9669 22.9138L63.0434 22.9603C62.9187 23.0604 62.7869 23.0056 62.5184 23.2961C62.4113 23.4118 62.238 23.6435 62.1931 23.8379C62.0826 24.3166 62.1029 24.949 62.2242 25.4315C62.4652 26.3896 62.6722 27.3133 62.9888 28.2089C63.2959 29.0775 63.5878 29.9283 63.9252 30.7715C64.0878 31.1778 64.2646 31.6022 64.426 32.0179C65.0174 33.541 65.3095 33.7779 65.8412 35.5414C65.8908 35.4974 65.8679 35.5313 65.8989 35.459L65.9731 35.0805C66.1168 34.016 66.1149 33.1541 66.2033 32.1209C66.2165 31.9678 66.2173 31.8221 66.2181 31.6606L66.2347 30.9207C66.235 30.7959 66.2104 30.7619 66.2816 30.6987C66.3674 30.7555 66.334 30.7411 66.3321 31.0147C66.3293 31.4008 66.3101 31.8045 66.3334 32.1878L66.4767 32.152L66.4674 30.7237C66.6575 30.8983 66.7183 31.7336 67.182 31.9168C67.1661 31.8091 67.1542 31.8158 67.1348 31.7268C67.104 31.5858 67.096 31.6315 67.1711 31.5843L67.273 31.915C67.2998 32.1405 67.1494 32.0138 67.0355 31.9422C67.1155 32.3667 67.1272 32.4017 67.4875 32.6096C67.5918 32.6698 67.744 32.7467 67.8579 32.7965C67.9796 32.8497 68.1946 32.9019 68.2858 32.9518C68.3307 33.3616 68.2042 33.5574 68.0824 33.8664C67.964 34.1671 68.0508 34.5438 68.2361 34.731C68.3953 34.8918 68.6451 35.0383 68.831 35.2314C68.9114 35.3148 69.004 35.4698 69.0872 35.5134C69.2007 35.5728 69.4025 35.5045 69.5687 35.5213C69.6893 35.837 69.6069 36.8909 69.5766 37.2746C70.0951 37.1409 70.6039 36.3753 70.9581 35.9627L71.2584 35.6095C71.4189 35.4522 71.5898 35.4007 71.7399 35.2632C71.9262 35.0927 72.0392 33.2438 72.0241 32.9817C71.9712 32.0626 71.711 33.0136 71.9585 31.557C72.1426 30.4728 71.9262 29.0217 71.0974 28.2528L70.6198 27.8792C70.5284 27.6827 70.6717 26.2958 69.6582 25.4616C69.5524 25.3746 69.4937 25.3294 69.3676 25.2478C69.1708 25.1204 68.9185 25.0762 68.7975 24.8763C68.6681 24.6624 68.5502 24.5312 68.3258 24.3666C67.9276 24.0747 67.4597 23.9164 66.9858 23.81C66.155 23.6235 66.3157 23.8964 65.697 23.2168C65.307 22.7884 65.115 22.6689 64.537 22.4577C64.3715 22.3973 63.949 22.3029 63.8336 22.2325C63.7408 22.176 63.6636 22.0974 63.5578 22.0343C63.3442 21.9068 63.0759 21.8403 62.8353 21.8C62.5787 21.7568 62.6944 21.7712 62.5238 21.6334C62.3258 21.4734 62.0738 21.4347 61.7867 21.4126C61.7238 21.3807 61.5486 21.0268 61.5109 20.9702C61.3037 20.6591 61.4966 20.7906 61.5107 20.4396C61.538 19.7548 61.523 18.971 61.0643 18.4969L60.785 18.2138C60.2817 17.7407 60.3599 17.549 60.2654 17.2536C60.2633 17.2468 60.2597 17.2358 60.2554 17.2277L60.0619 17.2746C60.0534 17.2991 60.0442 17.3271 60.0389 17.3492C60.0264 17.4008 60.0222 17.4512 60.0087 17.5049C59.9944 17.5616 59.9497 17.6979 59.9241 17.7491C59.7135 18.1696 59.268 18.4383 59.0347 18.8555C58.6038 19.6258 59.0122 20.0722 58.9538 20.4847C58.9224 20.707 59.0193 20.8605 59.0182 21.0849C58.7692 21.3285 58.7471 21.2536 58.6258 21.6464C58.1587 21.7644 58.3755 21.8534 58.1644 22.0439C57.962 22.2267 57.8593 22.1252 57.7457 22.4823C57.5991 22.9431 57.5678 23.5205 57.5044 24.0113C57.3966 23.9985 57.4754 24.0498 57.3836 23.947C57.286 23.8379 57.2428 23.6838 57.1874 23.5443C57.1928 23.539 57.2042 23.5279 57.2076 23.5344C57.2109 23.541 57.2234 23.5267 57.228 23.5247L57.2922 23.4986C57.2988 23.4956 57.3075 23.4917 57.3134 23.4889L57.3547 23.4669C57.1594 23.1335 57.1591 22.5091 57.0387 22.1338C56.9901 21.9826 56.9202 21.8766 56.8686 21.7305C56.9399 21.6058 57.0152 21.5541 56.9051 21.3856C56.7768 21.1893 56.8173 21.3456 56.7344 21.0448C56.6582 20.7687 56.5973 20.5061 56.5329 20.2492C56.3985 19.7136 56.2838 19.1652 56.1293 18.618C55.9998 18.1595 55.5394 16.0488 55.4118 15.8223C55.353 15.718 55.2535 15.6452 55.2144 15.5299C55.3437 15.5348 55.2485 15.5588 55.375 15.6211C55.3598 15.456 55.3584 15.5396 55.3125 15.4061C55.2696 15.2815 55.2963 15.2882 55.272 15.1678C55.1494 14.5585 54.5026 12.4086 54.5281 12.1225C54.9499 11.9105 56.7672 11.2246 57.2021 11.0862C57.4521 11.0066 57.5756 11.0211 57.7192 11.2279C57.8976 11.4848 57.8992 11.7477 58.1392 11.9454C58.2107 12.0042 58.2878 12.0585 58.397 12.0816L58.0114 11.1617C57.8822 10.9452 57.6291 10.7762 57.4856 10.5554C57.4386 10.4832 57.4482 10.5276 57.4476 10.4341C57.7294 10.5885 57.7327 10.5695 57.9374 10.8409C57.9928 10.9144 58.0784 11.0195 58.1371 11.0872C58.2209 11.1839 58.2838 11.2741 58.4234 11.3015L58.2412 11.0381C58.0396 10.7761 57.9759 10.4241 57.7932 10.1652C57.7129 10.0514 57.5937 9.96073 57.5123 9.8235C57.8948 10.0093 57.9264 10.3338 58.1579 10.5558C58.1575 10.207 58.1226 10.0194 57.9418 9.79058C57.9029 9.74135 57.8778 9.71935 57.821 9.67365C57.2678 9.22881 57.3305 9.46165 57.0687 8.72953C56.965 8.43945 56.8833 8.26687 56.5436 8.31516C55.4243 8.4743 53.9435 9.23296 53.6987 9.24466C53.8014 9.01384 53.6984 8.83058 53.4988 8.74786C53.4632 8.61532 53.4722 8.66699 53.5236 8.54553ZM50.2536 38.7466C50.2792 38.8603 50.3581 38.8652 50.4088 38.9916C50.5317 39.0975 50.6187 39.7239 50.2107 39.8712L50.0604 39.9306C50.0914 40.0765 50.1651 40.2005 50.2616 40.2784C50.5353 40.4994 50.3369 40.3336 50.5051 40.5999C50.6955 40.9016 51.024 40.5878 51.3835 40.6752C51.5575 40.7174 51.9997 41.3326 51.522 41.7665C51.4214 41.8579 51.2298 41.8951 51.2607 42.0211C51.2683 42.0258 51.2802 42.0215 51.285 42.0323C51.296 42.0567 51.417 42.0659 51.5091 42.0293C51.558 42.0099 51.6493 41.9501 51.707 41.9036C51.7683 41.8542 51.9025 41.7153 51.9752 41.6954C52.328 41.599 52.113 42.2547 51.6465 42.4203C51.3598 42.2238 51.5202 42.275 51.0861 42.0691C50.8722 41.9677 50.6041 41.8433 50.4923 41.6584L50.4032 41.3807C50.3124 40.9259 50.282 40.7548 50.005 40.367C49.8409 40.1371 49.2926 39.5348 49.3921 39.1511C49.5653 38.4836 49.316 38.1723 49.3941 37.387C49.6119 35.1972 49.2061 35.6018 49.1704 34.9177C49.1579 34.676 49.31 34.3494 49.4102 34.1806C49.6056 33.8513 49.9709 33.8103 50.4189 33.3604C50.821 32.9564 50.8839 32.6999 51.0742 32.1223C51.1855 32.2101 51.3144 32.2629 51.4392 32.3369C51.432 32.4965 51.1136 33.4813 50.7832 33.7485C50.338 34.1085 49.759 33.8293 49.523 34.5505C49.5073 34.5984 49.8879 38.6707 50.2536 38.7466ZM54.0342 39.5309C54.0163 39.3397 54.0284 39.4969 54.2501 39.2145C54.3024 39.1481 54.4279 38.9693 54.5296 38.9333C54.8054 38.8354 55.0593 39.1888 55.0956 39.4261C55.1327 39.6685 54.7961 40.0517 54.6541 39.9926C54.5736 39.9591 54.4373 39.7058 54.2407 39.6075C54.1496 39.562 54.1028 39.5825 54.0342 39.5309ZM56.8118 38.2509C56.8831 38.5175 56.9156 38.8351 56.9848 39.1C57.0581 39.3814 57.1016 39.6678 57.229 39.9129C57.5225 40.4781 57.8077 40.4333 57.8221 40.852C57.829 41.0522 57.8516 41.1392 57.8931 41.3248C58.0117 41.8552 58.3379 42.3304 58.6235 42.6647C59.0339 43.145 59.1711 42.8768 59.5412 43.2482C59.6755 43.383 59.7078 43.3734 59.8592 43.466C59.7852 43.8529 59.1629 44.5821 58.7593 44.8461C58.4658 45.038 58.6972 45.1062 58.4646 45.7916C58.2097 46.5433 57.9513 46.3361 57.8778 46.4481C57.79 46.8587 58.026 46.9627 57.7424 47.2618C57.5478 47.467 57.3944 47.5313 57.0279 47.5426C57.0244 47.5729 57.0472 47.9094 57.0523 47.9852C57.2201 48.1901 57.3783 48.1239 57.4738 48.2312C57.4368 48.3568 57.277 48.4 57.1281 48.3996C56.9685 48.399 56.8124 48.3336 56.6489 48.2987C56.6971 48.5244 56.8505 48.6037 56.7686 48.8987C56.6017 49.0507 56.0996 49.1216 55.8167 49.0857C55.7478 48.7019 56.104 48.2491 56.2705 48.0194C56.4538 47.7665 56.4956 47.8406 56.5339 47.494C56.5653 47.2094 56.9047 46.8109 57.1102 46.5539L57.7404 45.6278C57.8027 45.5224 57.9636 45.2589 58.0042 45.1053C58.0954 45.1376 58.0251 45.134 58.1262 45.1613C58.1456 44.5681 58.3006 44.0479 58.7124 43.6908C58.852 43.5698 58.9565 43.6519 58.9339 43.4369C58.9227 43.3296 58.7323 43.1655 58.6629 43.0815L58.2827 42.5372C58.0612 42.1812 57.9235 41.8559 57.761 41.4662C57.6295 41.151 57.7195 41.2108 57.4789 40.9378L57.0338 40.3086C56.8835 40.0349 56.7314 39.7478 56.6752 39.3991C56.6368 39.1613 56.6234 38.3265 56.8118 38.2509ZM61.8704 39.0003C62.0825 39.437 62.6074 39.457 62.897 39.9212C63.0201 39.8916 63.3778 39.8546 63.4528 39.9506C63.6641 40.2213 63.179 40.1071 63.0794 40.1269C63.0946 40.292 63.3358 40.4644 63.4146 40.6684C63.5953 41.1366 63.2919 41.6515 63.826 42.1331C64.1366 42.4132 63.977 42.4217 64.1473 42.7428C64.1697 42.7302 64.2832 42.6875 64.2645 42.5486C64.2528 42.4622 64.1971 42.4481 64.1492 42.3592C64.1485 42.0941 64.1998 41.9159 64.1403 41.639C64.1079 41.4886 64.0212 41.1293 64.1584 41.0446C64.2168 41.0074 64.1714 41.0148 64.2562 41.1761C64.3586 41.3711 64.5273 41.5576 64.5935 41.7382C64.7165 42.0738 64.6368 42.4269 64.5522 42.7862C64.516 42.9397 64.609 43.0644 64.5805 43.3129C64.5657 43.4434 64.5065 43.6797 64.4689 43.7995C64.3721 44.1082 64.2647 44.4518 64.1998 44.768C64.1628 44.9481 64.1655 45.1347 64.1266 45.303C64.0618 45.5839 63.7094 45.725 63.3824 46.3862C63.0643 47.0293 63.3374 47.1938 63.3373 47.4006C63.3373 47.6742 62.9106 47.9055 62.6958 47.9909C62.6807 48.1885 62.7879 48.2898 62.7054 48.5514C62.6514 48.7229 62.4842 48.8108 62.4848 48.917L62.7351 48.9593C62.7224 49.1323 62.6698 49.1205 62.5305 49.1647C62.4162 49.2009 62.3592 49.2264 62.2354 49.2437C61.9771 49.2799 61.7915 49.2803 61.5322 49.2381C61.7465 48.9994 61.789 49.0047 61.9495 48.6947C62.0818 48.439 62.0997 48.1215 62.2019 47.9182C62.4693 47.3858 62.3454 47.4993 62.4726 47.1632C62.4908 47.1155 62.7546 46.7783 62.8758 46.5496C63.119 46.0906 63.2584 45.5919 63.4787 45.1033C63.6757 44.6664 63.5671 43.7109 63.8852 43.4563C63.7585 43.3394 63.182 42.1778 63.1494 41.6842C63.1139 41.1445 63.2481 41.1136 63.2337 40.9209C63.2207 40.7466 63.0616 40.4628 62.9723 40.3412C62.448 39.6277 63.0022 40.0798 62.4043 39.6582C62.2895 39.5773 61.8526 39.2545 61.8465 39.0934C61.8412 38.9496 61.8385 39.0514 61.8704 39.0003ZM63.8249 37.5018C63.8098 37.5169 63.8062 37.5239 63.7737 37.5504L63.3359 37.7837C62.615 38.0303 62.7637 37.315 63.3023 37.2751C63.4783 37.262 63.7496 37.3836 63.8249 37.5018ZM63.4702 35.7802C63.5265 35.6978 63.5574 35.6805 63.6554 35.6474C63.7795 35.8401 64.1489 36.1733 64.3098 36.3239C64.6307 36.6243 64.2451 37.0198 64.1078 37.2061L63.3389 37.0194C63.5656 36.8376 63.8821 36.9452 63.8147 36.4566C63.7712 36.1417 63.5768 36.0162 63.4702 35.7802ZM50.3304 36.1113C50.4064 36.0739 50.3826 36.0451 50.473 36.0219C50.4584 36.2177 50.4406 36.2311 50.3701 36.3787C50.2486 36.2524 50.3233 36.2119 50.1322 36.0186C50.062 35.9477 50.0668 35.9728 50.0295 35.8558C50.0062 35.7824 49.9928 35.6888 49.9845 35.5973C49.968 35.4168 49.9719 35.1941 49.9953 35.0145C50.0219 34.8111 50.0945 34.7379 50.3069 34.7679C50.5818 35.3466 50.2255 35.6652 50.3304 36.1113ZM54.2071 34.5833C54.2763 34.6203 54.5839 35.113 54.6694 35.2457C54.6827 35.2664 54.6926 35.2808 54.706 35.2997C54.7096 35.3047 54.7149 35.3118 54.7186 35.3167C55.0882 35.8253 55.611 36.5026 56.0902 36.8616C56.1741 36.9244 56.2274 36.9639 56.3096 37.0261C56.4538 37.1352 56.5853 37.218 56.7571 37.316C56.8974 37.3959 57.1413 37.4838 57.263 37.5634C56.7453 37.788 55.7181 36.807 55.3903 36.5057L54.2341 35.3435C54.1593 35.2416 54.1847 35.2504 54.1917 34.9809C54.1951 34.8474 54.2026 34.7165 54.2071 34.5833ZM57.0331 35.2249C57.912 35.3364 57.7071 35.1781 58.1149 35.1745C58.1082 35.253 58.0739 35.2938 58.0324 35.337C57.9414 35.4318 57.9316 35.3877 57.9153 35.4727C58.1135 35.6083 58.3037 35.5358 58.5082 35.4656C58.4242 35.6516 58.1554 35.7905 57.927 35.8164C57.7703 35.834 57.6887 35.7936 57.5386 35.7668C57.3148 35.727 57.0091 35.8484 56.8179 35.6821C56.6164 35.507 56.2773 35.5852 56.0118 35.1907C56.5446 35.1789 56.7193 35.2015 57.1295 34.9579C57.1405 35.1268 57.0878 35.1089 57.0331 35.2249ZM52.6796 34.112C52.4045 34.1361 52.1721 34.0636 51.9143 34.1664C51.7047 34.25 51.7037 34.3828 51.3297 34.1815C51.3429 34.1452 52.0344 33.2503 52.3932 33.2823C52.5295 33.2945 52.5457 33.3707 52.6248 33.4707C52.7086 33.5764 52.733 33.5756 52.7417 33.7493C52.7481 33.8775 52.7368 34.0188 52.6796 34.112ZM54.3344 33.7819L54.3351 33.555C54.4612 33.6229 54.4335 33.6353 54.5308 33.7357L54.5602 33.7642C54.5664 33.7701 54.5845 33.7862 54.5907 33.792L55.1174 34.2151C55.1726 34.2541 55.2035 34.2754 55.2591 34.3072C55.3424 34.3546 55.3602 34.3547 55.4159 34.4426C55.1704 34.3795 54.5772 34.0524 54.3907 33.8541L54.3344 33.7819ZM60.3901 33.0177C60.4185 33.3773 60.476 33.8215 60.8079 33.9646C60.9091 34.0083 60.9875 34.0506 61.1012 34.103C61.4172 34.2485 61.6672 34.4062 61.9166 34.614C61.9994 34.683 62.0931 34.7458 62.1316 34.8695C62.0324 34.826 61.9421 34.7513 61.8422 34.6921C61.4869 34.4814 60.96 34.2517 60.5651 34.1273C60.3648 34.0641 60.4113 34.0799 60.3527 33.8584C60.2899 33.6209 60.2688 33.2202 60.3901 33.0177ZM60.5016 32.6021C60.7912 32.724 62.3772 34.3848 62.6376 34.6727C63.4427 35.5512 63.4733 35.2087 63.2398 35.6199C62.9403 35.573 61.0973 33.4015 60.8214 33.0842C60.8051 33.0654 60.7976 33.0557 60.7809 33.0348C60.6916 32.9231 60.4811 32.7049 60.5016 32.6021ZM53.4481 35.4729L53.4406 35.8106L53.9747 35.9721C53.9511 35.996 53.9086 36.0496 53.866 36.0719L53.7102 36.1096C53.7066 36.1103 53.6979 36.1109 53.6923 36.1136C54.036 36.8225 53.4065 37.0879 53.2063 37.5174C53.0825 37.7832 53.2245 38.141 53.4256 38.2402C53.7321 38.3916 53.9355 38.1099 54.1012 38.0063C54.148 38.4895 54.0396 38.8937 53.6215 38.9657C52.8057 39.1063 53.3596 38.3479 52.8695 37.5426L52.5438 37.0297C52.2293 36.5233 52.9481 34.332 52.9112 33.1345C52.9029 32.8676 52.8426 32.7261 52.9114 32.4607C52.9584 32.2798 53.0229 32.05 53.0679 31.8646C53.1286 31.6151 53.2315 31.6293 53.448 31.5049C53.5776 31.4305 53.806 31.2654 53.9136 31.2188C54.3515 31.444 54.3101 31.2247 54.5627 31.4553C54.5628 31.4555 54.6098 31.4961 54.6099 31.4962C54.814 31.6677 55.1389 31.8981 55.4639 31.9497C56.1316 32.0559 57.0233 31.4328 57.3477 31.845C56.6422 32.1078 55.8776 32.503 55.0499 32.1607C54.7691 32.0445 54.7283 31.8618 54.3782 31.9397C54.3484 32.0862 54.4426 32.7645 53.8742 32.4408C53.7002 32.3416 53.6975 32.1834 53.6253 32.0928C53.5871 32.0448 53.5987 32.0509 53.5405 32.029C53.3197 32.3341 52.9401 33.2742 53.397 33.3641C53.4653 33.2733 53.466 33.1299 53.5708 33.0152C53.7679 32.7994 54.2249 32.9626 54.0295 33.3542C53.8293 33.7556 53.4817 33.328 53.4773 33.9034C53.4715 34.6575 53.6477 34.6528 53.4481 35.4729ZM61.3221 31.8143C61.3889 32.0505 61.7019 32.4859 61.832 32.7072C61.9594 32.9238 62.2341 33.4116 62.2651 33.6883C62.117 33.641 61.7078 33.3657 61.5695 33.2635C61.3789 33.1226 60.9041 32.6156 60.7324 32.3798C60.0347 31.4221 61.2768 31.097 61.989 31.5263C62.3934 31.77 62.3915 32.1757 62.7119 32.534C62.9798 32.8337 63.2406 33.2708 63.2771 33.7204C63.2006 33.7723 63.2242 33.7626 63.1546 33.7822C62.9603 33.3969 62.7676 32.9323 62.4825 32.6282C62.1305 32.2526 62.0525 32.4076 61.5467 31.7209C61.4411 31.735 61.3821 31.752 61.3221 31.8143ZM56.2501 31.6788C56.2592 31.176 56.6323 31.2062 56.7147 31.015C56.7067 31.0099 56.6945 30.9945 56.6893 31.0029L56.5819 30.9799C56.4909 30.9815 56.3004 31.0854 56.2107 31.1357C55.9858 31.2618 55.8625 31.3974 55.7788 31.3084C55.5914 31.1092 56.077 30.6351 56.2054 30.5209C56.4409 30.3112 56.6791 30.151 56.98 29.9997C57.6541 29.6608 58.4297 29.6973 58.7524 30.3311C58.4971 30.3087 58.3889 30.2352 58.1386 30.3778C57.7779 30.5833 58.2354 30.6615 58.4064 30.6864C58.9002 30.7582 59.0467 31.2041 58.6938 31.5232C58.3748 31.8117 57.8518 31.6023 57.5106 31.4892C56.8658 31.2754 56.6879 31.6081 56.2501 31.6788ZM60.6316 31.3038C60.6744 30.962 60.6399 30.7309 60.8241 30.4564L61.2707 29.8697C61.2311 30.2513 61.108 30.3553 61.1461 30.8014C61.1644 31.0152 61.1086 31.0685 60.9805 31.1466C60.9029 31.194 60.7428 31.2944 60.6316 31.3038ZM55.0327 31.5925C54.8665 31.5988 54.7673 31.4949 54.6851 31.3533C54.5979 31.2031 54.6947 31.0537 54.7648 30.9099C56.0261 28.3191 59.9099 28.3788 60.126 29.8619C59.2372 29.0734 58.1358 29.2332 57.1196 29.6802C56.1288 30.1161 55.5084 30.6209 55.0327 31.5925ZM60.2375 29.1178L60.1045 29.1215C60.0695 28.8532 60.1154 28.651 60.4071 28.7575C60.4287 29.0232 60.2321 28.7511 60.4543 29.1453C60.5021 29.2301 60.4819 29.1866 60.5136 29.2835C60.5138 29.2833 60.5937 28.9245 60.6728 29.1724C60.7312 29.3557 60.6138 29.4251 60.5701 29.5086C60.5739 29.718 60.5935 30.1433 60.478 30.269C60.4568 30.2061 60.3549 29.1254 60.3001 28.9711C60.2684 28.882 60.2844 28.9268 60.2554 28.8961C60.2004 28.9941 60.2402 28.9974 60.2375 29.1178ZM70.5786 28.1793C70.8701 28.2854 71.1878 28.7909 71.3302 29.1452C71.8405 30.4143 71.6346 32.5659 71.2928 33.7734C71.0606 33.6345 70.6429 33.1967 70.5035 32.9203C70.3089 32.5348 70.3997 31.8671 70.4632 31.3972C70.534 30.8737 70.5975 30.412 70.6321 29.8559C70.6558 29.4737 70.6623 28.51 70.5786 28.1793ZM64.9294 27.3363C65.0271 27.3215 65.0674 27.2841 65.1767 27.3078C65.0135 27.687 65.0477 27.5802 65.3055 27.6917C65.2975 27.7781 65.3018 27.7247 65.2783 27.7885C65.2556 27.8503 65.255 27.8311 65.2382 27.8923C65.2197 27.959 65.2004 28.0627 65.1892 28.1275C65.3468 28.2068 65.495 28.2429 65.5765 28.4517C65.4755 28.4026 65.3408 28.3895 65.1919 28.3934C65.234 28.82 65.6945 29.0677 65.5929 29.3117C65.4747 29.1711 65.3375 29.089 65.1624 29.0039C65.1056 29.1948 65.3397 29.3475 65.2485 29.5809C65.1585 29.4861 65.2161 29.4714 65.0556 29.3455C64.9595 29.2702 64.8893 29.1612 64.7737 29.1265C64.7902 29.5101 65.0385 29.9447 64.8181 30.244C64.7432 30.02 64.876 30.0469 64.5883 29.6021C64.3237 29.193 64.522 29.0916 64.4737 28.9616C64.3287 29.0868 64.3594 29.3011 64.2696 29.5968C64.2596 29.6298 64.2433 29.6825 64.2292 29.7083C64.2236 29.7186 64.211 29.7384 64.204 29.7482C64.159 29.8108 64.1963 29.7603 64.1535 29.805C64.163 29.591 64.1729 29.4179 64.1714 29.2005C64.1707 29.0855 64.2339 28.756 64.2155 28.7249C64.0822 28.8573 64.0615 29.0604 63.8945 29.1587C63.9141 29.0323 63.9456 28.9095 63.9795 28.795C64.0318 28.619 64.0838 28.614 64.1132 28.4953C63.9405 28.5162 63.7867 28.6557 63.646 28.5555C63.7004 28.4383 63.6711 28.6113 63.8937 28.3643C64.0628 28.1767 64.0346 28.2539 64.143 28.1866C64.0556 27.9246 63.5468 28.1399 63.4653 27.643C63.5873 27.7085 63.6099 27.7741 63.7784 27.7473C63.8362 27.7381 64.0507 27.6606 64.0906 27.6332C64.0493 27.5272 64.086 27.6027 64.0237 27.5327C63.8889 27.3817 63.7801 27.3742 63.6264 27.1887C63.5328 27.0756 63.4819 26.9392 63.4835 26.7815C63.5876 27.0271 63.8364 27.0912 64.0142 27.1747C64.0998 27.2149 64.1439 27.2575 64.2155 27.2882C64.2879 27.1236 64.0438 26.8218 64.0726 26.3095C64.0742 26.2797 64.0765 26.2519 64.0825 26.2227C64.0971 26.152 64.0872 26.1867 64.1073 26.1486C64.1625 26.2498 64.1733 26.4812 64.2439 26.6476L64.4057 26.9364C64.5062 27.066 64.3939 26.9791 64.5202 27.0301C64.5274 26.8302 64.4813 26.6582 64.5598 26.5143C64.6108 26.6371 64.6739 26.9882 64.732 27.1038C64.8844 26.9078 64.7958 26.4153 65.0143 26.2913C64.9692 26.5189 64.9582 26.4879 64.9715 26.7724C64.9836 27.0279 64.938 27.1362 64.9294 27.3363ZM58.9044 26.2777C59.6843 26.2839 60.5306 26.6593 60.7362 27.3271C60.6219 27.3016 60.6247 27.281 60.5645 27.3258C60.6775 27.4495 60.733 27.56 60.7432 27.7606C60.5639 27.6089 60.5849 27.45 59.9014 26.9956C59.4156 26.6727 59.0711 26.7046 58.747 26.5796C58.8771 26.502 58.875 26.5838 59.0332 26.4768L59.0652 26.4524C59.1041 26.4306 59.152 26.4246 59.2016 26.4154C59.0965 26.3237 59.001 26.352 58.9044 26.2777ZM60.9936 25.9954C61.1255 26.0315 61.1042 26.0761 61.3032 26.1696C61.4269 26.2278 61.56 26.2493 61.6672 26.3113C61.6984 26.4098 61.7436 26.5373 61.7188 26.6429C61.5013 26.6095 61.0438 26.1947 60.9936 25.9954ZM50.1726 25.9616C50.4186 25.9363 50.7852 26.002 50.9826 25.9489C51.2709 25.8714 51.2359 25.6423 51.3871 25.4839C51.4149 25.742 51.1492 25.9923 50.9597 26.0982C50.7632 26.2081 50.2065 26.1775 50.1726 25.9616ZM70.258 28.4635C70.2548 28.6519 70.2204 28.8976 70.2378 29.0731C70.2838 29.5379 70.2231 29.2969 70.1941 29.5732C70.1684 29.8179 70.1727 30.5074 69.9834 30.613C69.8754 30.3773 70.0446 29.2084 69.8398 28.8962L69.8121 28.9887C69.8102 28.9967 69.8095 29.0058 69.8075 29.0142L69.7825 29.1103C69.6604 29.0975 69.6559 29.0474 69.6819 28.9048C69.7055 28.7752 69.7511 28.7996 69.8179 28.7092L69.7584 28.4635C69.5937 28.1576 69.3012 27.3224 69.2463 26.9809C69.1988 26.6855 69.1673 26.388 69.1025 26.0959C69.041 25.8186 68.9225 25.4919 68.8868 25.254C69.3664 25.3418 69.851 25.9025 70.0688 26.3442C70.3253 26.8642 70.2889 27.8105 70.258 28.4635ZM52.0655 24.9278L52.3065 24.7911C52.707 25.1102 52.8019 25.3636 53.5998 25.5773C54.1886 25.7349 54.9165 25.7149 55.5499 25.6666C56.6216 25.585 57.2445 25.5052 58.2687 25.2543C58.3821 25.2265 58.557 25.1711 58.6664 25.1302C58.7929 25.083 58.9563 25.006 59.0837 24.9802C58.9654 25.4861 58.3726 26.5133 57.6245 25.7776C57.5455 25.7 57.4824 25.6245 57.3572 25.6208C56.9685 25.6092 57.0202 26.3086 56.4949 26.3634C55.7072 26.4455 55.8636 25.7255 55.4986 25.7874C55.1288 25.85 55.3014 26.565 54.5726 26.4639C53.994 26.3837 54.0527 25.7028 53.6689 25.7994C53.4353 25.8582 53.1312 26.5683 52.5424 25.7827C52.5326 25.7697 52.5095 25.7335 52.4952 25.71L52.0655 24.9278ZM58.3306 24.4052C58.4884 24.2989 58.8007 24.259 59.0266 24.244C59.0252 24.528 59.0808 24.5443 59.1075 24.7741C59.0369 24.8117 58.6623 24.9173 58.5335 24.9557C58.352 25.01 58.2905 24.6159 58.3306 24.4052ZM60.2094 24.7888L60.1881 24.6523L60.8188 24.4392C61.0213 24.9313 60.869 24.8433 60.9328 25.1286C60.9851 25.3632 60.9378 25.263 60.9263 25.4255C60.9144 25.5939 61.0218 25.5215 60.961 25.783C60.8416 25.819 60.2981 25.8197 60.2297 25.7189C60.0593 25.4673 60.6705 25.6819 60.8182 25.4749C60.5702 25.3008 60.1593 25.6739 60.1045 25.2547C60.2899 25.2655 60.5394 25.2655 60.7102 25.2052C60.8238 25.1649 60.8065 25.1923 60.8342 25.0816C60.7696 25.0382 60.84 25.0662 60.7418 25.0437C60.5529 25.0005 60.096 25.127 59.8848 25.1621C59.9013 24.9826 60.0543 25.001 60.173 24.9565C60.3744 24.8811 60.399 24.9105 60.6284 24.8942C60.6576 24.8272 60.5288 24.9381 60.632 24.802C60.7017 24.7102 60.6644 24.8273 60.7515 24.7126C60.7225 24.6821 60.806 24.5986 60.4596 24.7172C60.3728 24.747 60.3041 24.7837 60.2094 24.7888ZM53.0038 24.2362C53.0025 24.4471 53.1446 24.9116 53.2078 25.1266C52.847 25.1396 52.227 24.6636 52.6305 24.4166C52.7095 24.3683 52.9082 24.27 53.0038 24.2362ZM59.2677 24.2111L60.0188 24.1735L60.0572 24.5215L59.3654 24.7005C59.2592 24.5756 59.2057 24.4125 59.2677 24.2111ZM57.6245 23.8899C57.796 24.2009 58.0471 24.8604 58.2002 24.9751C57.9207 24.9929 57.8688 24.7876 57.7822 24.5948C57.7279 24.4738 57.6565 24.4253 57.631 24.3302C57.6024 24.2236 57.6214 24.0093 57.6245 23.8899ZM67.5482 24.2822C67.6421 24.2138 68.5075 24.5523 68.6839 25.3956C68.7179 25.5583 68.7055 25.9071 68.5772 26.0046C68.557 25.9711 68.269 24.6674 67.5482 24.2822ZM60.2615 24.137L60.8867 23.9815C60.9603 24.079 60.9881 24.206 60.9893 24.3673C60.8471 24.3407 60.945 24.2811 60.7605 24.3245C60.385 24.4128 60.388 24.526 60.2937 24.3971C60.2388 24.3221 60.2329 24.2215 60.2615 24.137ZM61.3745 24.6972C61.2416 24.5958 61.113 24.1646 61.1392 23.944L61.4033 23.8367C61.3977 23.9992 61.37 24.1481 61.3601 24.2813C61.3511 24.4031 61.3905 24.6412 61.3745 24.6972ZM52.1021 23.8775C52.1315 24.0288 52.218 24.0294 52.1631 24.1609C52.0739 24.2047 52.0619 24.1753 51.9977 24.0908C51.9245 23.9944 51.8789 23.8459 52.0101 23.8553C52.0877 23.8609 51.9685 23.8588 52.1021 23.8775ZM50.9894 23.9133C51.0113 24.083 51.0658 24.0593 51.0602 24.313C50.9086 24.4461 50.9291 24.3792 50.8436 24.5913C50.817 24.6574 50.7757 24.7125 50.7626 24.78C50.7575 24.8066 50.7892 25.278 50.4487 25.243C50.2715 25.2248 50.2391 25.0408 50.0929 25.1364C50.0799 25.2697 50.4818 25.4613 49.9248 25.4445L49.8984 25.2781C49.8282 25.3227 49.8619 25.3369 49.7886 25.29C49.7662 25.2758 49.713 25.2111 49.6977 25.1657C49.6592 25.0521 49.6861 24.8846 49.6771 24.7585C49.4827 24.7467 49.5878 24.8266 49.489 24.9851C49.4223 25.0921 49.3926 25.0558 49.3599 25.1493L49.3532 25.1857C49.3425 25.2515 49.3852 25.1575 49.3508 25.2422C49.14 25.2253 49.1981 25.0066 49.189 24.8052C49.1734 24.4633 49.1035 24.5354 49.2806 24.2678C49.3511 24.1614 49.4707 24.0098 49.5311 23.892C49.6317 23.6959 49.5644 23.5433 49.7377 23.436C50.1967 23.1519 50.8369 23.222 51.1338 23.5124C51.2764 23.652 51.0581 23.8257 50.9894 23.9133ZM59.1715 23.1618C59.2821 23.2471 59.4552 23.2814 59.5733 23.4444C59.668 23.5751 59.7128 23.8232 59.6967 24.0222C59.3933 24.0419 59.1361 24.156 59.1169 23.4837C59.1114 23.2917 59.1084 23.3092 59.1715 23.1618ZM60.0832 24.0018C59.9447 23.9417 59.9343 23.7796 59.9049 23.652C59.8743 23.5185 59.8169 23.3172 59.9861 23.2549C60.2719 23.1495 60.2112 23.8046 60.0832 24.0018ZM60.7795 23.7596C60.6526 23.832 60.5336 23.8584 60.3867 23.8388C60.3226 23.434 60.4401 23.2581 60.7515 23.1859C60.6634 23.5374 60.7648 23.5211 60.7795 23.7596ZM54.9883 22.8874C55.3954 23.1232 55.7526 23.4564 56.0063 23.8847C56.1636 24.1501 56.5412 25.011 56.573 25.3859C56.1761 25.525 55.8808 25.5287 55.4148 25.5248C55.1442 24.7956 55.2929 25.0121 54.8162 24.2982C54.7234 24.1594 54.6024 24.0141 54.6114 23.8991C54.7715 23.8468 54.829 23.868 54.8729 23.9971C54.9621 23.9535 54.9071 23.9031 55.004 23.896C55.1507 24.0516 55.2123 24.0545 55.3841 24.3371C55.4452 24.4376 55.4234 24.4487 55.569 24.4247C55.5614 24.1815 55.4499 23.7582 55.356 23.5695C55.2652 23.387 55.2418 23.3672 55.1188 23.2685C54.9939 23.1682 54.9807 23.0873 54.9883 22.8874ZM49.7017 23.3175C49.8107 23.1295 49.8375 23.0271 50.0747 22.976C50.2283 22.9429 50.5966 22.9612 50.7158 23.0217C50.6077 23.1385 50.3736 23.1208 50.1899 23.1578C50.0362 23.1887 49.8172 23.2983 49.7017 23.3175ZM66.1955 29.5644C66.1732 29.5205 66.0718 28.6503 66.057 28.5241C65.9075 27.2452 65.4988 25.9618 65.0452 24.7782C64.9812 24.6111 64.9332 24.5129 64.8696 24.3531C64.5945 23.6613 64.0723 22.9378 63.281 23.005C63.3004 22.7642 63.4599 22.7441 63.6503 22.8038C64.0647 22.9334 64.337 22.8891 64.7474 23.528C65.4334 24.596 66.0089 27.0457 66.1441 28.3993C66.1594 28.5524 66.283 29.4548 66.1955 29.5644ZM58.0732 24.2606C58.0689 24.2544 58.0624 24.2369 58.0605 24.2417C58.0586 24.2465 58.0505 24.2271 58.0479 24.2231C57.7998 23.8359 57.7156 23.7954 57.7879 23.4244L57.9263 22.6465C57.9631 22.5462 58.0088 22.515 58.0448 22.4257L58.1328 22.5257C58.1547 22.5502 58.1495 22.5456 58.1778 22.5739L58.2301 22.6221C58.0756 23.2458 58.042 23.5425 58.0732 24.2606ZM61.4875 23.4829C61.381 23.5611 61.3445 23.6018 61.1736 23.619L61.0964 23.5041C61.0478 23.3814 61.0587 23.0808 61.111 22.9822C61.1283 22.9496 61.3837 22.7708 61.5156 22.6184C61.5115 22.8358 61.3956 22.7859 61.4349 23.0143C61.4672 23.2018 61.5287 23.1975 61.4875 23.4829ZM63.8207 22.4757C64.2373 22.5387 64.6632 22.7004 64.9916 22.8972C65.2143 23.0308 65.7665 23.4642 65.8361 23.696C64.9837 23.6564 64.9168 23.3916 64.2726 22.8388C64.1554 22.7383 63.8657 22.5405 63.8207 22.4757ZM53.7127 23.4045C53.575 23.2941 53.4823 23.2394 53.5425 22.9922C53.5616 22.9136 53.589 22.8221 53.6177 22.7317C53.6486 22.634 53.6557 22.5569 53.6798 22.467C53.7113 22.3498 53.7584 22.3585 53.8154 22.2721C53.9233 22.1088 54.0063 21.8027 54.2005 21.6264C54.4468 21.7074 54.6267 22.2579 54.4116 22.6663C54.2811 22.9141 53.9523 23.3074 53.7127 23.4045ZM58.2753 22.2704C58.4879 22.4002 58.2455 22.5186 58.9865 23.0525C58.9735 23.1681 58.9143 23.2756 58.8999 23.4514C58.8607 23.9303 59.0733 23.9204 58.6725 24.0002C58.588 24.017 58.4644 24.0436 58.3713 24.0204C58.1308 23.9604 58.2154 23.0729 58.2836 22.8462C58.4298 22.3608 58.1718 22.4399 58.2753 22.2704ZM56.5922 22.3541C56.9264 22.3964 57.0813 22.54 57.0751 22.898C56.9921 22.8352 56.9395 22.7299 56.8565 22.6369C56.8226 22.5989 56.7813 22.5556 56.741 22.5142L56.5922 22.3541ZM61.6993 22.9888C61.5952 22.2169 62.4504 21.7986 63.1938 22.0918C63.4601 22.1969 63.514 22.2749 63.7157 22.3933C63.6312 22.3867 63.5512 22.3547 63.4562 22.3299C63.3458 22.301 63.2398 22.2945 63.125 22.2926C62.1854 22.2765 61.9073 22.9025 61.6993 22.9888ZM52.1021 23.8775C52.1962 23.7518 52.3848 23.585 52.486 23.4604L53.2011 22.5353C53.319 22.3894 53.479 22.1663 53.599 22.09C53.6214 22.2552 53.5728 22.2851 53.5572 22.4686C53.5327 22.7558 53.3558 22.7764 53.1757 22.877C53.0619 22.9404 53.0621 22.9982 52.9985 23.1188C52.5463 23.9771 52.6705 23.4296 52.4318 23.7077L52.2274 23.9288C52.1871 23.9094 52.1549 23.8956 52.1021 23.8775ZM59.1075 21.3102C59.1648 21.7662 58.9759 21.8331 59.2254 22.1261C59.4196 22.3541 59.5109 22.384 59.6282 22.7251C59.2025 22.5823 59.1719 22.3606 58.8895 21.9322C58.84 21.8571 58.8108 21.776 58.8471 21.6659C58.8763 21.5775 59.047 21.379 59.1075 21.3102ZM56.4347 21.376C56.7293 21.4599 56.7854 21.8855 56.8957 22.1798L56.9187 22.2391C56.6677 22.1152 56.4832 21.651 56.4347 21.376ZM60.3878 22.5446C60.7768 22.611 61.2057 21.6872 61.719 21.6187C61.9584 21.5868 62.189 21.6514 62.2571 21.8582C61.7387 21.9014 61.6178 22.0203 61.2838 22.4336C61.0539 22.7179 61.062 22.6905 60.7422 22.837C60.4693 22.9621 60.4924 23.0448 60.3415 23.296C60.2417 23.2401 60.2218 23.1097 60.0777 23.0799C59.8977 23.0427 59.8478 23.1518 59.7675 23.2397C59.0211 23.1834 57.9563 21.9827 58.6197 21.8496C58.7253 22.1745 58.8154 22.1613 59.1362 22.5002C59.3173 22.6915 59.4274 22.8136 59.6541 22.8587C59.875 22.9027 59.687 22.8894 59.8536 22.962C59.9294 22.8768 59.8508 22.9578 59.8981 22.8206C59.9255 22.7413 60.0099 22.6613 60.0622 22.5988C60.0991 22.5547 60.1302 22.5185 60.1565 22.4844C60.5421 21.9816 60.5329 22.2099 60.9953 21.6315C60.9978 21.6282 61.0323 21.5823 61.0338 21.5802C61.036 21.5773 61.118 21.4599 61.119 21.4574C61.1687 21.3399 61.1099 21.2588 61.1681 21.0783C61.3037 21.0318 61.5529 21.1556 61.2455 21.5002C60.9701 21.8088 61.018 21.9665 60.5472 22.3803C60.5071 22.4155 60.4026 22.472 60.3878 22.5446ZM59.953 21.0849C59.9829 20.7821 60.2278 21.1105 60.2337 21.1147C60.3661 21.2082 60.476 21.1259 60.6256 21.3002C60.6148 21.4164 60.5291 21.4761 60.4777 21.5996C60.4058 21.7722 60.4606 21.6588 60.2841 21.8575L59.997 21.8503C59.9458 21.9539 60.0622 21.8754 59.9888 21.9689C59.9518 22.016 59.8788 22.019 59.8095 22.0508C59.6782 22.1111 59.5375 22.2341 59.5524 21.9494C59.3899 21.9313 59.2575 21.9247 59.3095 21.7364C59.312 21.7274 59.3361 21.6608 59.3402 21.6448C59.3855 21.47 59.2789 21.4246 59.4126 21.3804L59.4542 21.3969C59.5834 21.4809 59.5024 21.4696 59.7553 21.5028C59.7678 21.6396 59.7187 21.6167 59.6828 21.7513C59.7512 21.6718 59.7828 21.6503 59.8137 21.5025C60.0961 21.4173 60.1357 21.4652 60.1164 21.1464L60.0283 21.1089C59.9919 21.0958 60.0087 21.1136 59.953 21.0849ZM54.344 21.2013C54.4585 21.0778 54.3683 20.8877 54.4588 20.7768C54.586 20.8459 54.61 21.0612 54.6074 21.2391C54.5981 21.8668 54.1195 21.6893 54.1617 21.0837C54.1746 20.8983 54.2206 20.9009 54.2172 20.7162C54.2128 20.4771 54.1835 20.5007 54.3153 20.4303C54.3597 20.5353 54.3887 20.7267 54.3789 20.8711C54.3576 21.1825 54.2453 20.8952 54.344 21.2013ZM60.0466 20.7146C60.0598 20.6106 60.0586 20.6466 60.046 20.5443L60.0071 20.3962C60.0051 20.3906 60.0016 20.3802 59.9971 20.3732C59.8292 20.4087 59.9698 20.3666 59.8816 20.467C59.8222 20.5345 59.9372 20.4766 59.8249 20.5228C59.8199 20.5137 59.8145 20.4896 59.813 20.4939L59.791 20.3769C59.8021 20.1716 59.9971 20.2516 60.1693 20.231C60.223 20.3273 60.2048 20.3055 60.2898 20.3618L60.3376 20.2136C60.5264 20.1588 60.3866 20.2361 60.571 20.2258C60.619 20.1438 60.5787 20.2143 60.5984 20.1292L60.6284 20.0088L60.7146 20.0121C60.8489 20.4078 60.5197 20.3101 60.429 20.4694C60.3779 20.5591 60.386 20.6697 60.3901 20.7774L60.4215 20.9145C60.5489 20.9133 60.4926 20.8726 60.6453 20.9097C60.592 21.3406 60.1698 20.8704 60.0497 20.8544C59.7623 20.8163 59.4252 20.9149 59.2914 21.1927C59.2847 21.1868 59.2745 21.1694 59.2715 21.1752L59.2097 21.0998C59.1901 21.0608 59.1875 21.0184 59.1814 20.9809C59.1565 20.8286 59.1342 20.8214 59.1129 20.7125C59.0869 20.5796 59.1474 20.2374 59.1936 20.145C59.3372 20.1691 59.2455 20.1961 59.2535 20.3711C59.4479 20.4825 59.3947 20.493 59.4806 20.3449C59.565 20.4579 59.5988 20.4758 59.6229 20.5623C59.5607 20.6458 59.5756 20.5984 59.4974 20.6704C59.4794 20.6871 59.4704 20.6988 59.4607 20.711C59.5489 20.8742 59.5362 20.8011 59.6873 20.7694C59.8305 20.7393 59.977 20.7858 60.0466 20.7146ZM54.7119 20.406C54.5493 20.1585 54.6235 20.2818 54.7888 19.6566L54.8318 19.5306C54.9576 19.7293 54.8518 20.2201 54.7119 20.406ZM60.7652 19.6643C60.9456 19.654 61.2445 19.6845 61.345 19.7939C61.4082 19.8626 61.3928 20.0245 61.394 20.1329C61.3957 20.3095 61.4096 20.33 61.3171 20.4363C61.19 20.4041 61.0945 20.1914 60.9936 20.0783C60.8776 19.948 60.7222 19.9151 60.7652 19.6643ZM59.2386 19.7629L59.4645 19.7109L59.4534 19.9043C59.4181 19.8883 59.3822 19.8769 59.3432 19.8586C59.1472 19.7665 59.2916 19.8226 59.2386 19.7629ZM59.7139 19.869C59.6134 19.55 59.9236 19.5994 60.2335 19.6371C60.3099 19.6465 60.3866 19.6359 60.4747 19.6437L60.4841 19.7628L60.3125 19.7934L60.2996 20.0204C60.1913 20.0285 60.1746 20.0511 60.1566 19.9436C60.1393 19.8409 60.1698 19.7661 60.1946 19.6761C60.0729 19.7073 60.0607 19.7215 59.9601 19.7849C59.7908 19.8917 59.8403 19.8802 59.7139 19.869ZM50.5125 21.054C50.5148 20.474 50.5315 20.8765 50.8447 20.1641C50.9783 19.8602 50.8931 19.7387 51.4742 19.5581C51.9834 19.3251 52.6287 19.3097 53.1268 19.5785C53.1453 19.8153 52.8764 20.2243 52.7207 20.3904C52.5096 20.6154 52.183 20.4854 51.9643 20.8726L51.6693 21.4268C51.7658 21.3725 51.8467 21.2805 51.9593 21.2193C51.9593 21.2195 51.7612 21.6341 51.9048 21.7683C51.9296 21.7914 52.4378 21.8682 52.6094 21.6564C52.7705 21.4575 52.5656 21.3555 52.6695 21.1674C52.6791 21.1499 52.6985 21.12 52.7139 21.0929C52.766 21.001 52.7524 21.0084 52.8304 20.9451C52.8202 21.4261 52.8672 21.727 52.5582 22.0604C52.2475 22.3957 52.1424 22.2425 51.9903 22.3767C51.8718 22.4813 51.666 22.7598 51.6021 22.8836C51.5062 23.0696 51.647 23.0709 51.5604 23.2404C51.4219 23.2208 51.5177 23.1708 51.2393 23.0593C51.0985 23.003 51.0164 22.9747 50.859 22.9362C50.5599 22.8628 50.2807 22.8503 49.9397 22.8815C49.9644 22.7177 50.0163 22.5541 50.0618 22.3985C50.1054 22.2494 50.138 22.0887 50.1946 21.9293C50.3345 21.5359 50.4973 21.5039 50.5125 21.054ZM53.6097 19.6086C53.6777 19.5707 53.6691 19.5502 53.7414 19.5049C53.8721 19.6051 54.1053 19.7963 53.9709 19.9669C53.9006 19.9389 53.7084 19.7066 53.6097 19.6086ZM51.4228 19.3325C52.1657 19.0981 52.3661 19.2242 52.8204 19.1616C53.0032 19.1364 52.8209 19.095 53.092 19.1306C53.2058 19.1456 53.3211 19.1342 53.4274 19.168C53.4317 19.1694 53.7566 19.3218 53.639 19.4638C53.607 19.5023 53.5714 19.5172 53.5405 19.5353C53.438 19.4973 53.3135 19.3141 53.0239 19.2689L53.0186 19.299C53.0183 19.3034 53.0179 19.3191 53.018 19.3228C53.0184 19.3407 53.0267 19.3307 53.0239 19.3444C52.6768 19.3674 52.4802 19.1742 51.7703 19.3233C51.6786 19.3426 51.501 19.4001 51.4228 19.3325ZM59.6528 20.4813C59.4743 20.2623 59.4655 19.1548 59.6528 18.9677C59.9251 19.0463 59.5846 19.2838 59.6982 20.086C59.7204 20.2431 59.7434 20.3727 59.6528 20.4813ZM52.6315 19.0196C52.9006 18.6999 52.99 18.7193 53.1423 18.837C53.211 18.8902 53.2437 18.9258 53.2722 19.0444L52.6315 19.0196ZM59.7227 18.8099C59.7339 18.7296 59.7735 18.6396 59.8074 18.5756C59.8986 18.4037 60.0508 18.2811 60.125 18.0241C60.1974 18.3238 60.2439 18.6222 60.2428 18.9637C60.2411 19.4617 60.2273 19.5026 59.7849 19.5552C59.8174 19.3524 59.938 19.0744 59.877 18.8658L59.7227 18.8099ZM51.4393 19.1794C51.4729 19.062 51.6205 18.9125 51.7279 18.8724C51.8336 18.8331 51.8848 18.8799 51.9685 18.8204C52.0348 18.7733 52.022 18.7015 52.0772 18.6145L52.5278 18.6388L52.401 18.94C52.3641 19.0283 52.411 18.9972 52.3352 19.0347C51.9364 19.0342 51.7695 19.1232 51.4393 19.1794ZM51.0993 18.687C51.0981 18.1625 51.1193 17.6009 51.4816 18.1875C51.6216 18.4144 51.6273 18.6945 51.4475 18.9063L51.1823 19.1327C51.1308 18.9785 51.0997 18.8995 51.0993 18.687ZM59.6374 18.7618C59.5461 18.9884 59.5233 18.7706 59.5134 19.1155C59.5091 19.2651 59.5368 19.4922 59.4561 19.58C59.4021 19.6386 59.1563 19.6942 59.1104 19.6393C58.9793 19.4827 59.2424 18.4805 59.7892 18.413L59.6374 18.7618ZM60.2754 18.2093C60.2816 18.2155 60.2898 18.2232 60.2942 18.2278C60.6008 18.5523 60.788 18.952 60.7364 19.4365L60.3206 19.4439C60.3238 18.9644 60.3149 18.6817 60.2754 18.2093ZM53.4458 19.0631C53.4237 18.7426 53.686 18.587 53.9435 18.4142C54.0631 18.334 54.0888 18.291 54.173 18.2629C54.1261 18.486 53.9939 18.6364 53.9226 18.8555C53.8452 19.0937 53.7734 19.1487 53.5883 19.1048C53.5481 19.0954 53.5008 19.0873 53.4458 19.0631ZM53.6124 9.52551C53.7707 9.42965 54.1044 9.31598 54.2975 9.23379C54.9142 8.9714 55.8528 8.59197 56.4962 8.52889C56.5789 8.68289 56.6104 8.93906 56.6745 9.11729C56.7416 9.30365 56.8166 9.48258 56.8925 9.65286C57.0108 9.91858 57.2753 10.4883 57.2097 10.8404C56.971 10.9204 56.6923 10.988 56.4433 11.0677C56.1988 11.1459 55.9803 11.2273 55.7096 11.3219L54.2866 11.8767C54.1911 11.7058 54.0342 10.9333 53.9606 10.6763L53.6124 9.52551ZM57.7157 12.0455C56.9533 12.3227 56.0626 12.6019 55.0585 12.8444C55.0386 12.7659 55.0192 12.6872 55.0003 12.6084C54.9845 12.5428 54.9593 12.4462 54.939 12.3523C55.0282 12.3144 55.1184 12.2783 55.2053 12.2429C55.4675 12.1362 55.7314 12.0333 55.9956 11.932C56.4269 11.7666 56.8773 11.5886 57.3169 11.4486C57.335 11.4429 57.3671 11.4326 57.3946 11.4265C57.3997 11.4333 57.4044 11.44 57.408 11.4452C57.4731 11.539 57.5129 11.6549 57.5579 11.7594C57.6031 11.8646 57.6529 11.9593 57.7157 12.0455ZM40.5996 28.4389C41.7587 33.6682 44.0914 38.7511 47.1824 42.775C50.7674 47.4418 55.3836 50.7873 60.5369 52.4551C65.6905 50.7873 70.3061 47.4413 73.8907 42.775C76.9825 38.7507 79.3152 33.6679 80.4743 28.4389C77.5288 25.7858 78.3321 22.6839 78.9219 20.4071C79.4664 18.3056 79.9002 16.632 78.685 14.4365C76.5467 14.9265 74.3776 15.1749 72.2327 15.1749C66.5157 15.1749 62.245 13.4095 60.5369 12.5693C59.5822 13.0388 57.827 13.7973 55.4664 14.3752C55.403 14.1365 55.3382 13.8982 55.2738 13.6597C56.668 13.3207 57.846 12.9168 58.7668 12.5487L59.0272 12.6038L58.9696 12.4665C59.5663 12.2215 60.0439 11.9963 60.3892 11.8224L60.5369 11.7478L60.6846 11.8224C62.2411 12.6066 66.4828 14.4308 72.2327 14.4308C74.4079 14.4308 76.6096 14.1693 78.7768 13.6534L79.0144 13.5975L79.1451 13.8171C80.6804 16.4015 80.1514 18.4437 79.5911 20.6059C79.0113 22.8433 78.2904 25.6283 81.0778 28.0069L81.2491 28.1527L81.1998 28.3813C80.0347 33.7989 77.63 39.079 74.4272 43.2478C70.7315 48.0591 65.9626 51.5004 60.6358 53.2L60.5369 53.2316L60.4381 53.2C55.1117 51.5008 50.3426 48.0591 46.6459 43.2478C43.4439 39.079 41.0388 33.7994 39.8737 28.3813L39.8244 28.1527L39.9956 28.0069C42.7831 25.6283 42.062 22.8433 41.482 20.6064C40.922 18.4437 40.3927 16.4015 41.9284 13.8171L42.059 13.5975L42.2966 13.6534C44.4635 14.1693 46.6656 14.4308 48.8408 14.4308C50.6973 14.4308 52.3962 14.2405 53.8985 13.9566C53.9582 14.1972 54.0184 14.4374 54.0801 14.6772C52.5259 14.9746 50.7655 15.1749 48.8408 15.1749C46.6963 15.1749 44.5264 14.9265 42.3884 14.4365C41.1736 16.632 41.6066 18.3056 42.1515 20.4071C42.7415 22.6839 43.545 25.7858 40.5996 28.4389ZM23.0191 62.9996C22.1696 62.644 21.5157 62.4609 20.5199 62.654C19.4377 62.8571 18.57 63.5089 17.9064 64.6153C17.7145 64.9417 17.533 65.269 17.3619 65.5972L16.786 66.7018L17.3195 68.3043C17.4651 68.7416 17.6209 69.18 17.7868 69.6194C18.3619 71.1116 19.1643 72.0897 20.2036 72.5633C20.5357 72.7173 20.8432 72.8171 21.1248 72.8589C21.537 72.9102 22.0476 72.8451 22.6553 72.6598C22.6671 72.7345 22.6648 72.8257 22.643 72.9271C22.6255 73.0313 22.5558 73.1555 22.4454 73.3044C22.3308 73.4505 22.1692 73.6027 21.9649 73.7638C21.7593 73.9212 21.4956 74.051 21.1725 74.1495C20.6152 74.3195 19.9794 74.3322 19.2622 74.1885C17.9574 73.9276 16.894 73.1854 16.0733 71.9658C15.6734 71.3714 15.3274 70.7342 15.0337 70.0485C14.8131 70.4472 14.5688 70.8576 14.3015 71.2788C13.9409 71.8524 13.5178 72.3656 13.0293 72.8241C12.1302 73.6679 11.0094 74.0838 9.66825 74.0692C9.06835 74.0628 7.17684 73.678 6.29688 72.2477C7.14649 72.6033 7.80025 72.7864 8.79603 72.5933C9.87831 72.3902 10.746 71.7384 11.4096 70.632C11.6015 70.3056 11.783 69.9783 11.9541 69.6501L13.2997 67.0691C13.3055 67.0581 13.3114 67.0474 13.3172 67.0364L13.3174 67.0365L13.6869 66.3279L13.4784 65.7017L13.4782 65.7019C13.4733 65.6872 13.4681 65.6729 13.4632 65.6582L12.3183 62.2193C12.1728 61.782 12.017 61.3436 11.8512 60.9041C11.276 59.412 10.4736 58.4338 9.43425 57.9602C9.10216 57.8061 8.79467 57.7064 8.51304 57.6647C8.10087 57.6133 7.59026 57.6784 6.98255 57.8637C6.97081 57.789 6.97302 57.6978 6.99484 57.5964C7.01238 57.4922 7.08202 57.3681 7.19249 57.2191C7.30704 57.0731 7.46864 56.9208 7.673 56.7597C7.87854 56.6023 8.14223 56.4725 8.46538 56.374C9.02266 56.204 9.65846 56.1913 10.3756 56.3349C11.6805 56.5959 12.7439 57.3381 13.5646 58.5577C14.0106 59.2205 14.3895 59.9367 14.7037 60.7138C15.0208 61.4899 15.2977 62.2332 15.5329 62.9396L15.6035 63.1517C15.8152 62.8947 16.0428 62.6521 16.2867 62.4231C17.1858 61.5794 18.3067 61.1635 19.6477 61.1781C20.5163 61.1873 22.3756 61.7589 23.0191 62.9996ZM34.6179 59.3342C35.1501 59.3342 35.7255 59.4293 36.3353 59.6237C36.7985 59.7684 37.2098 59.965 37.5752 60.2135C37.929 60.4706 38.2109 60.8033 38.4238 61.2094C38.6338 61.6177 38.7776 62.0476 38.8553 62.5034C38.9473 63.1234 38.9905 63.7024 38.9905 64.2382V64.3333L38.9992 64.8971V67.2444C39.3262 67.3549 39.6426 67.4089 39.9481 67.4089C40.2809 67.4089 40.6223 67.3448 40.9764 67.2135C41.5482 66.9924 41.9663 66.6624 42.2223 66.2234C42.4213 65.8853 42.543 65.5359 42.5892 65.1753V64.1431C42.5892 63.8903 42.6496 63.6852 42.7676 63.5296C42.8856 63.374 43.038 63.2444 43.2221 63.1407C43.4062 63.0371 43.6134 62.9377 43.8377 62.8448C44.0909 62.7454 44.3354 62.6244 44.5741 62.4883C44.8129 62.35 45.0229 62.1686 45.2042 61.9418C45.2042 66.9624 45.2099 69.6996 45.2272 70.1554C45.2387 70.5658 45.3135 71.013 45.4458 71.497C45.581 71.983 45.8284 72.4021 46.1879 72.7564C46.5475 73.1107 47.0711 73.2987 47.7558 73.3202C48.3023 73.3202 48.7569 73.2317 49.1251 73.0524C49.4933 72.8731 49.7695 72.6441 49.9564 72.3676C50.1406 72.0911 50.2355 71.808 50.2355 71.5163C50.2355 71.1664 50.0945 70.8488 49.8154 70.5637C49.5393 70.2785 49.1164 70.1035 48.5497 70.0366C48.4577 70.0279 48.3714 70.0236 48.288 70.0236C48.0291 70.0236 47.7759 70.0625 47.5285 70.1403C47.2812 70.218 47.0567 70.3368 46.8553 70.4989C46.7259 70.2742 46.6597 70.0646 46.6597 69.8702C46.6597 69.6002 46.7604 69.3647 46.9647 69.1594C47.166 68.9542 47.4335 68.7944 47.7644 68.682C48.0952 68.5675 48.449 68.5114 48.8259 68.5114C49.2027 68.5114 49.5767 68.5762 49.9478 68.7058C50.3189 68.8376 50.644 69.0471 50.9259 69.3366C51.2049 69.6261 51.4092 70.0019 51.5329 70.4665C51.5645 70.6177 51.5817 70.7689 51.5817 70.9223C51.5817 71.188 51.5415 71.4429 51.4552 71.6871C51.1704 72.4648 50.6065 73.0761 49.7695 73.5233C48.9323 73.9705 48.0204 74.193 47.0309 74.193C46.2052 74.193 45.4458 74.0354 44.7554 73.7199C44.2572 73.4749 43.8452 73.1824 43.5197 72.8416C42.8321 72.122 42.5892 70.7694 42.5892 69.8151V68.0401C41.2447 68.6765 40.3699 69.0138 38.9992 69.4556V70.4859C38.9992 70.8099 39.0858 71.1209 39.2581 71.4192C39.3077 71.5051 39.366 71.5851 39.4338 71.6586L40.2076 72.6046C40.0496 72.9355 39.4674 73.8986 39.3616 74.1628C38.5187 73.7243 37.8859 73.3008 37.463 72.8925C37.0372 72.4863 36.7525 72.0436 36.6115 71.5682C36.4677 71.0908 36.3929 70.5248 36.3871 69.8702C36.3871 69.6261 36.3986 69.3798 36.4216 69.1314V64.8971L36.4044 64.0869C36.4044 63.5339 36.3842 63.0068 36.344 62.5034C36.2778 61.7625 36.0592 61.1964 35.6881 60.8076C35.4953 60.6131 35.2767 60.4511 35.0293 60.3172C34.7819 60.1854 34.5403 60.086 34.3044 60.019C34.0685 59.9542 33.8183 59.9154 33.5564 59.9002C33.2918 59.8851 33.0732 59.8765 32.8977 59.8765C32.9092 59.8354 32.938 59.7879 32.9869 59.7382C33.0358 59.6885 33.1307 59.6323 33.2745 59.574C33.4155 59.5157 33.5996 59.4595 33.824 59.4098C34.0512 59.358 34.313 59.3342 34.6179 59.3342ZM31.6314 74.193C30.9874 74.193 30.4816 74.0381 30.1171 73.7311C29.7527 73.4211 29.495 73.0009 29.3474 72.4644C29.1023 72.983 28.7756 73.4003 28.3671 73.7162C27.9587 74.0351 27.434 74.193 26.7899 74.193C26.3407 74.193 25.9166 74.1126 25.5144 73.9516C25.1123 73.7937 24.7479 73.5523 24.4242 73.2334C24.0629 72.8667 23.7896 72.4346 23.6105 71.9399C23.4283 71.4451 23.3372 70.9415 23.3372 70.4288C23.3372 70.1218 23.3717 69.8149 23.4377 69.5139C23.6608 68.6287 24.0661 67.9104 24.6536 67.356C25.2443 66.8017 25.9386 66.3189 26.7429 65.9076C27.1544 65.69 27.5911 65.4755 28.0498 65.2609C28.8415 64.9062 29.5893 64.5068 30.293 64.0687C30.9937 63.6306 31.4995 63.0941 31.8074 62.4653V71.0666C31.8074 71.3647 31.8293 71.6091 31.8796 71.7998C31.9299 71.9935 32.0273 72.1336 32.1781 72.229C32.3289 72.3214 32.5488 72.3691 32.8379 72.3691C33.13 72.3691 33.3814 72.2856 33.5825 72.1187C33.7835 71.9518 33.9406 71.7461 34.0506 71.4958C34.1605 71.2454 34.2265 70.9832 34.2453 70.709H35.0748C34.9742 71.4779 34.792 72.0889 34.5218 72.5419C34.2988 72.9323 34.0286 73.2602 33.7113 73.5284C33.196 73.9725 32.5017 74.193 31.6314 74.193ZM27.5723 72.3929C27.7388 72.3929 27.9179 72.3512 28.1158 72.2617C28.4205 72.1128 28.6373 71.8862 28.763 71.5912C28.8887 71.2931 28.9515 70.9862 28.9515 70.6643V66.0387L28.4551 66.307C27.7074 66.7153 27.1701 67.1504 26.8434 67.6094C26.4224 68.2084 26.2087 69.031 26.2087 70.0801C26.2087 70.9415 26.4067 71.5972 26.7994 72.0442C27.0005 72.2767 27.2581 72.3929 27.5723 72.3929ZM60.0181 74.193C58.3607 74.193 57.0687 73.6003 56.145 72.418C55.2243 71.2326 54.7639 69.4784 54.7639 67.1524V65.7288C54.7639 64.9723 54.8827 64.323 55.1203 63.781C55.3579 63.2359 55.6698 62.7684 56.0559 62.3782C56.442 61.991 56.8608 61.6515 57.3123 61.3686C57.7637 61.0827 58.2122 60.8235 58.6518 60.5912C59.1865 60.3172 59.6468 60.0403 60.0359 59.7603C60.425 59.4833 60.6745 59.1587 60.7844 58.7924C62.5487 60.0134 63.4308 61.1541 63.4308 62.2144C63.4308 62.5926 63.3269 62.9649 63.1219 63.3312C62.914 63.6976 62.6437 63.9776 62.3021 64.1711C61.9636 64.3677 61.5834 64.466 61.1586 64.466V63.8614C61.1586 63.4146 61.0695 62.9858 60.8943 62.5748C60.7161 62.1667 60.428 61.86 60.027 61.6544C59.7835 61.5323 59.5459 61.4728 59.3141 61.4728C59.0766 61.4728 58.836 61.5323 58.5924 61.6544C58.1974 61.86 57.9093 62.1667 57.7311 62.5748C57.5499 62.9858 57.4608 63.4146 57.4608 63.8614V67.0214C57.4608 67.6259 57.5143 68.2752 57.6212 68.9721C57.7281 69.6661 57.9301 70.3034 58.2211 70.8871C58.5152 71.4679 58.934 71.8908 59.4805 72.1529C59.926 72.3376 60.425 72.4299 60.9745 72.4299C61.3814 72.4299 61.7853 72.3822 62.1863 72.287C62.5843 72.1916 62.9319 72.0517 63.2199 71.8729C63.808 71.5066 64.2595 71.0122 64.5773 70.3898L65.0644 70.5893C64.8624 71.3875 64.512 72.0517 64.0129 72.5877C63.514 73.1239 62.917 73.5259 62.2249 73.791C61.5299 74.059 60.7963 74.193 60.0181 74.193ZM72.9056 74.193C72.2967 74.193 71.8185 74.0382 71.474 73.7314C71.1295 73.4217 70.8859 73.0017 70.7463 72.4656C70.5146 72.9839 70.2057 73.4008 69.8196 73.7165C69.4335 74.0352 68.9375 74.193 68.3286 74.193C67.9038 74.193 67.5029 74.1126 67.1227 73.9518C66.7425 73.7939 66.398 73.5527 66.092 73.234C65.7505 72.8677 65.4921 72.4358 65.3228 71.9415C65.1505 71.4471 65.0644 70.9437 65.0644 70.4315C65.0644 70.1247 65.0971 69.818 65.1594 69.5171C65.3703 68.6326 65.7534 67.9148 66.3088 67.3609C66.8673 66.8069 67.5237 66.3244 68.284 65.9134C68.6731 65.696 69.086 65.4816 69.5196 65.2671C70.2681 64.9127 70.975 64.5136 71.6403 64.0758C72.3026 63.638 72.7809 63.1019 73.072 62.4735V71.0688C73.072 71.3667 73.0928 71.6109 73.1402 71.8015C73.1878 71.9951 73.2799 72.1351 73.4224 72.2304C73.565 72.3227 73.7729 72.3703 74.0461 72.3703C74.3224 72.3703 74.56 72.287 74.7501 72.1202C74.9402 71.9534 75.0887 71.7479 75.1926 71.4977C75.2966 71.2475 75.359 70.9854 75.3768 70.7114H76.1609C76.0658 71.4798 75.8936 72.0904 75.6381 72.5431C75.4273 72.9332 75.1718 73.2608 74.8719 73.5289C74.3847 73.9727 73.7283 74.193 72.9056 74.193ZM69.0682 72.3942C69.2256 72.3942 69.3949 72.3525 69.582 72.2631C69.8701 72.1142 70.0751 71.8879 70.1939 71.593C70.3126 71.2952 70.3721 70.9884 70.3721 70.6667V66.0445L69.9028 66.3125C69.1959 66.7206 68.688 67.1554 68.3791 67.614C67.9811 68.2127 67.7791 69.0347 67.7791 70.083C67.7791 70.9437 67.9662 71.5989 68.3375 72.0457C68.5276 72.278 68.7712 72.3942 69.0682 72.3942ZM75.881 79.9961C75.5394 79.9961 75.2447 79.9675 74.996 79.9088C74.7478 79.8503 74.5459 79.7861 74.3935 79.7193C74.2385 79.6514 74.1336 79.5864 74.083 79.5299C74.0311 79.4717 73.9991 79.4176 73.9867 79.3702C74.1824 79.3702 74.4184 79.3603 74.701 79.3428C74.9835 79.3254 75.2509 79.2816 75.5053 79.2057C75.7602 79.1295 76.0212 79.0146 76.2878 78.8616C76.5554 78.7079 76.7928 78.5218 76.9989 78.2956C77.4015 77.8535 77.6408 77.1989 77.707 76.3382C77.8961 73.8797 77.7908 72.8545 77.7908 70.3855C77.7908 70.0937 77.8529 69.8569 77.9802 69.6774C78.1075 69.4978 78.2721 69.3482 78.4739 69.2285C78.6727 69.1089 78.8932 68.9966 79.1354 68.8894C79.4087 68.7722 79.6757 68.6351 79.9335 68.4755C80.1912 68.3184 80.4179 68.1065 80.6104 67.8447V73.4973C81.1259 73.4923 81.6104 73.4574 82.0668 73.3925C82.5202 73.3252 82.9301 73.1806 83.2935 72.9562C83.8648 72.5922 84.1505 72.1209 84.1505 71.5474C84.1505 70.6572 83.5388 69.6973 82.3215 68.67C81.4241 67.9095 80.3651 67.1989 79.1447 66.5356C78.6292 66.2638 78.1541 65.9646 77.7162 65.638C77.092 65.1742 76.7815 64.6855 76.7815 64.1694C76.7815 63.8327 76.8933 63.526 77.1169 63.2443C77.3405 62.965 77.62 62.7057 77.9491 62.4639C78.2783 62.222 78.6106 61.9976 78.946 61.7881L79.4459 61.4665C79.2565 61.646 79.0795 61.843 78.9087 62.0549C78.7379 62.2669 78.6541 62.4938 78.6541 62.7382C78.6541 63.1022 78.9398 63.4837 79.5081 63.8777C79.9459 64.1843 80.48 64.516 81.1104 64.87C81.6383 65.1667 82.1911 65.4984 82.7655 65.8599C83.3432 66.2239 83.9114 66.6304 84.4673 67.0842C84.8927 67.4308 85.284 67.7973 85.6411 68.1863C86.4236 69.054 86.8149 69.9018 86.8149 70.7296C86.8149 70.939 86.7901 71.1484 86.7435 71.3579C86.5914 71.9763 86.1566 72.5199 85.4424 72.9861C84.5977 73.5372 83.5295 73.9212 82.2377 74.1406C81.6756 74.2129 81.1321 74.2503 80.6104 74.2503C80.6104 75.8563 80.1022 78.0551 79.036 78.9813C78.6678 79.3011 78.1983 79.4995 77.7007 79.6695C77.0524 79.8909 76.443 79.9961 75.881 79.9961ZM95.6979 74.193C95.089 74.193 94.6108 74.0382 94.2663 73.7314C93.9217 73.4217 93.6782 73.0017 93.5386 72.4656C93.3069 72.9839 92.998 73.4008 92.6119 73.7165C92.2257 74.0352 91.7297 74.193 91.1209 74.193C90.6961 74.193 90.2951 74.1126 89.915 73.9518C89.5348 73.7939 89.1903 73.5527 88.8843 73.234C88.5428 72.8677 88.2844 72.4358 88.115 71.9415C87.9428 71.4471 87.8567 70.9437 87.8567 70.4315C87.8567 70.1247 87.8893 69.818 87.9517 69.5171C88.1626 68.6326 88.5458 67.9148 89.1012 67.3609C89.6595 66.8069 90.3159 66.3244 91.0763 65.9134C91.4654 65.696 91.8783 65.4816 92.3119 65.2671C93.0604 64.9127 93.7672 64.5136 94.4326 64.0758C95.0949 63.638 95.5731 63.1019 95.8642 62.4735V71.0688C95.8642 71.3667 95.885 71.6109 95.9325 71.8015C95.98 71.9951 96.0721 72.1351 96.2147 72.2304C96.3572 72.3227 96.5651 72.3703 96.8384 72.3703C97.1147 72.3703 97.3523 72.287 97.5423 72.1202C97.7324 71.9534 97.8809 71.7479 97.9849 71.4977C98.0888 71.2475 98.1512 70.9854 98.169 70.7114H98.9532C98.8581 71.4798 98.6859 72.0904 98.4304 72.5431C98.2195 72.9332 97.9641 73.2608 97.6641 73.5289C97.177 73.9727 96.5206 74.193 95.6979 74.193ZM91.8604 72.3942C92.0179 72.3942 92.1871 72.3525 92.3743 72.2631C92.6624 72.1142 92.8673 71.8879 92.9861 71.593C93.1049 71.2952 93.1643 70.9884 93.1643 70.6667V66.0445L92.695 66.3125C91.9882 66.7206 91.4802 67.1554 91.1714 67.614C90.7733 68.2127 90.5714 69.0347 90.5714 70.083C90.5714 70.9437 90.7585 71.5989 91.1298 72.0457C91.3199 72.278 91.5634 72.3942 91.8604 72.3942ZM98.9442 59.6795C99.4385 59.6795 99.973 59.7728 100.54 59.9637C100.97 60.1058 101.352 60.2989 101.691 60.5428C102.02 60.7952 102.282 61.1218 102.48 61.5206C102.675 61.9215 102.808 62.3436 102.88 62.7911C102.966 63.3999 103.006 63.9683 103.006 64.4944V64.5877L103.014 65.1413V70.6286C103.014 70.9467 103.094 71.2521 103.255 71.5449C103.412 71.8354 103.671 72.0539 104.032 72.2003C104.257 72.2872 104.473 72.3297 104.682 72.3297C104.89 72.3297 105.104 72.2872 105.326 72.2003C105.684 72.0539 105.946 71.8354 106.106 71.5449C106.269 71.2521 106.349 70.9467 106.349 70.6286V64.401C106.349 64.1529 106.405 63.9514 106.515 63.7986C106.624 63.6459 106.766 63.5187 106.937 63.4169C107.108 63.3151 107.3 63.2175 107.509 63.1262C107.744 63.0287 107.971 62.9099 108.193 62.7763C108.415 62.6405 108.61 62.4624 108.778 62.2396C108.778 67.169 108.784 69.8565 108.8 70.304C108.81 70.707 108.88 71.1461 109.003 71.6212C109.128 72.0984 109.358 72.51 109.692 72.8578C110.026 73.2057 110.513 73.3902 111.149 73.4114C111.656 73.4114 112.078 73.3244 112.421 73.1484C112.763 72.9723 113.019 72.7475 113.193 72.476C113.364 72.2045 113.452 71.9266 113.452 71.6403C113.452 71.2967 113.321 70.9849 113.062 70.7049C112.805 70.4249 112.413 70.2531 111.886 70.1874C111.801 70.1789 111.72 70.1746 111.643 70.1746C111.402 70.1746 111.167 70.2128 110.937 70.2892C110.708 70.3655 110.499 70.4822 110.312 70.6413C110.192 70.4207 110.13 70.2149 110.13 70.024C110.13 69.7589 110.224 69.5277 110.414 69.3262C110.601 69.1247 110.849 68.9678 111.157 68.8574C111.464 68.745 111.793 68.6899 112.143 68.6899C112.493 68.6899 112.84 68.7535 113.185 68.8808C113.53 69.0101 113.831 69.2159 114.093 69.5001C114.353 69.7843 114.542 70.1534 114.657 70.6095C114.687 70.7579 114.703 70.9064 114.703 71.057C114.703 71.3179 114.665 71.5682 114.585 71.8079C114.321 72.5715 113.797 73.1717 113.019 73.6108C112.241 74.0499 111.394 74.2683 110.475 74.2683C109.708 74.2683 109.003 74.1135 108.361 73.8038C107.61 73.4135 107.071 72.9002 106.742 72.2618C106.245 72.5269 105.756 72.7581 105.272 72.9554C104.791 73.1526 104.374 73.3499 104.024 73.5493C103.674 73.7465 103.45 73.9777 103.351 74.2386C102.568 73.808 101.98 73.3923 101.587 72.9914C101.192 72.5927 100.927 72.1578 100.796 71.6912C100.662 71.2224 100.593 70.6667 100.588 70.024C100.588 69.7843 100.598 69.5426 100.62 69.2986V65.1413L100.604 64.3459C100.604 63.8029 100.585 63.2854 100.548 62.7911C100.486 62.0636 100.283 61.5079 99.9383 61.1261C99.7592 60.9352 99.5561 60.7761 99.3263 60.6446C99.0965 60.5152 98.872 60.4177 98.6529 60.3519C98.4338 60.2882 98.2013 60.25 97.9581 60.2352C97.7122 60.2204 97.5092 60.2119 97.3461 60.2119C97.3569 60.1716 97.3836 60.1249 97.429 60.0762C97.4744 60.0274 97.5626 59.9722 97.6962 59.9149C97.8272 59.8577 97.9982 59.8026 98.2066 59.7537C98.4177 59.7029 98.6609 59.6795 98.9442 59.6795Z" fill="#A67C36"/>
</g>
</svg>
