<svg width="86" height="60" viewBox="0 0 86 60" fill="none" xmlns="http://www.w3.org/2000/svg">
<g id="Xan Saray Logo">
<path id="Vector" fill-rule="evenodd" clip-rule="evenodd" d="M73.2798 39.7344C73.0951 40.0176 73.0454 40.3796 73.1305 40.8186C73.2099 41.1663 73.3353 41.4419 73.5087 41.6487C73.6821 41.8554 73.8754 41.996 74.0875 42.0725C74.2993 42.1472 74.5024 42.1641 74.6974 42.1193C74.9315 42.0655 75.1234 41.9271 75.2736 41.7057C75.4242 41.4862 75.4798 41.1902 75.4423 40.8193C75.4347 40.7595 75.425 40.7039 75.4129 40.6508C75.3753 40.4861 75.3125 40.3309 75.2244 40.1855C75.1365 40.04 75.0244 39.9155 74.8868 39.8122C75.0182 39.6954 75.1488 39.6211 75.2788 39.5912C75.4595 39.5497 75.6316 39.5776 75.7985 39.6761C75.9651 39.7727 76.1109 39.9183 76.2341 40.1116C76.3587 40.3045 76.4477 40.521 76.5025 40.7608C76.5573 41.0006 76.5683 41.2485 76.5355 41.5045C76.5013 41.7609 76.4084 41.9999 76.2557 42.2238C76.1027 42.4458 75.8809 42.6335 75.5883 42.7835C75.4917 42.8269 75.3931 42.8612 75.2905 42.8847C75.1127 42.9255 74.9362 42.9404 74.7605 42.9216C74.1988 42.8613 73.623 42.8148 73.2193 42.3359C71.5746 40.3848 73.3472 39.631 73.2798 39.7344ZM27.8791 19.3272C29.6018 28.2902 35.5154 35.5097 43.0263 37.8008C50.5368 35.5097 56.4507 28.2902 58.1734 19.3272C56.0532 17.8327 56.4961 16.1233 56.9249 14.4681C57.3677 12.7579 57.8255 10.9911 56.2101 8.70976C49.2432 10.5692 44.1092 8.02734 43.0263 7.42142C42.819 7.5374 42.4628 7.72443 41.9742 7.9378L41.6321 7.44345L41.628 7.43813C41.627 7.43695 41.6261 7.43574 41.6252 7.43453L41.625 7.26254C41.6249 7.21878 41.6241 7.17697 41.622 7.13678C42.3832 6.81302 42.8072 6.55638 42.8222 6.54703L43.0258 6.42069L43.2305 6.54729C43.2852 6.58115 48.7668 9.90075 56.2632 7.79461L56.5176 7.72323L56.683 7.94226C58.7516 10.6796 58.1736 12.9095 57.7095 14.7013C57.2858 16.3371 56.9992 17.4434 58.5885 18.5756C59.0868 18.1625 59.5514 17.797 59.8785 17.5519C60.0591 17.4168 60.2293 17.0942 60.1722 16.6271C60.1031 16.1834 60.8182 15.8406 60.9218 16.4891C60.9385 16.5702 61.2361 15.9388 60.683 15.7248C60.2927 15.5623 60.0416 16.1931 60.0089 16.2201C59.6239 16.5563 59.1807 15.2478 60.228 14.973C60.7807 14.8302 61.317 15.2532 61.4703 15.7859C61.4981 15.3081 61.1663 15.064 61.5555 14.7471C61.8208 14.5306 62.2722 14.7958 62.0946 15.6423C64.0787 13.2895 61.5717 11.0554 60.4326 12.5115C59.8578 13.2466 61.1674 14.5935 61.4199 12.8834C61.4515 12.6691 61.859 12.7741 61.9981 13.1161C62.3949 14.0155 60.8126 15.1622 59.9398 13.8508C59.2155 12.8065 60.1554 11.6175 61.1135 11.5307C62.3024 11.4226 63.358 12.3203 63.3576 13.9296C63.3568 15.2509 62.3697 16.288 61.1968 17.2341C62.9713 16.3642 64.1677 16.8581 64.6377 17.3948C65.1995 18.0366 64.9135 18.7739 64.4316 18.3922C64.0411 18.083 63.8474 17.7095 63.2259 17.5337C63.1978 17.5257 63.1789 17.5197 63.1608 17.5141C63.3863 17.6056 64.2622 18.0551 64.1111 19.1448C63.9356 20.6542 62.337 20.9631 61.9753 19.87C61.7743 19.251 62.2005 18.1805 62.4782 19.2304C62.7324 20.1072 63.3467 19.6455 63.479 19.0285C63.7322 17.8195 61.7616 17.408 60.5999 17.8748C60.336 17.9766 60.0469 18.1424 59.7734 18.3224C59.5262 18.5093 59.285 18.6956 59.0562 18.883L59.0822 18.8996L59.0275 19.2006C58.2294 23.6032 56.431 27.7221 53.8263 31.1126C50.9749 34.8248 47.2781 37.4392 43.1352 38.6744L43.0263 38.7071L42.9173 38.6744C38.7746 37.4392 35.0775 34.8248 32.2262 31.1126C29.6214 27.7221 27.8231 23.6032 27.0252 19.2006L26.9715 18.9051C26.7347 18.7103 26.4843 18.5166 26.2276 18.3224C25.9539 18.1424 25.665 17.9766 25.4007 17.8748C24.2391 17.408 22.2687 17.8195 22.5217 19.0285C22.654 19.6455 23.2681 20.1072 23.5225 19.2304C23.8002 18.1805 24.2264 19.251 24.0251 19.87C23.6638 20.9631 22.0651 20.6542 21.8895 19.1448C21.7385 18.0551 22.6144 17.6056 22.8396 17.5141C22.8221 17.5197 22.803 17.5257 22.7748 17.5337C22.1532 17.7095 21.9599 18.083 21.5691 18.3922C21.0869 18.7739 20.8012 18.0366 21.3631 17.3948C21.833 16.8581 23.0294 16.3642 24.8039 17.2341C23.6311 16.288 22.6441 15.2509 22.6434 13.9296C22.6425 12.3203 23.6982 11.4226 24.8873 11.5307C25.8449 11.6175 26.7851 12.8065 26.0609 13.8508C25.1883 15.1622 23.6061 14.0155 24.0026 13.1161C24.1414 12.7741 24.5492 12.6691 24.5811 12.8834C24.8334 14.5935 26.1426 13.2466 25.5678 12.5115C24.429 11.0554 21.922 13.2895 23.9064 15.6423C23.7285 14.7958 24.1799 14.5306 24.4452 14.7471C24.8347 15.064 24.5028 15.3081 24.5304 15.7859C24.6833 15.2532 25.2199 14.8302 25.7728 14.973C26.8199 15.2478 26.3765 16.5563 25.9915 16.2201C25.9591 16.1931 25.7083 15.5623 25.3176 15.7248C24.7646 15.9388 25.0623 16.5702 25.0792 16.4891C25.1825 15.8406 25.8978 16.1834 25.8285 16.6271C25.7714 17.0942 25.9419 17.4168 26.1221 17.5519C26.4545 17.8008 26.9286 18.1741 27.4359 18.5952C29.0562 17.4562 28.7689 16.3466 28.343 14.7013C27.8786 12.9095 27.3008 10.6796 29.3694 7.94226L29.5349 7.72323L29.7893 7.79461C32.9857 8.69221 35.8154 8.60343 38.0148 8.20391C38.0898 8.49214 38.1615 8.78125 38.2325 9.07047C35.9966 9.48492 33.1229 9.58528 29.8424 8.70976C28.2272 10.9911 28.6847 12.7579 29.1278 14.4684C29.5564 16.1233 29.9992 17.8327 27.8791 19.3272ZM45.7011 31.8142C45.6028 31.7057 45.5843 31.633 45.7496 31.4517C45.7812 31.4171 45.7633 31.4304 45.8012 31.3989C45.8403 31.3662 45.7955 31.3862 45.8536 31.3686C45.8579 31.4734 45.8091 31.6085 45.7647 31.703L45.7011 31.8142ZM36.3022 14.3556C36.1993 14.7762 36.2245 14.6726 36.1602 15.1061C36.1094 15.4482 36.0647 15.4851 35.9306 15.7403C35.9452 15.7644 35.9347 15.7765 36.0118 15.8172C36.1502 15.6702 36.3716 15.1064 36.4536 14.8786C36.4503 14.8747 36.4448 14.8638 36.4433 14.8674C36.4418 14.871 36.3037 14.731 36.3132 14.6575C36.326 14.5574 36.3579 14.4136 36.4153 14.3614C36.4396 14.2799 36.4512 14.294 36.4609 14.2573C36.4975 14.1179 36.4748 14.2221 36.4542 14.1789C36.333 14.2103 36.3774 14.2896 36.3022 14.3556ZM36.1325 16.7929C36.0402 16.8152 35.647 17.231 35.9259 17.407C36.1776 17.5659 36.0361 17.1792 36.0361 17.1789C36.0198 16.9889 36.2223 17.0074 36.1325 16.7929ZM37.7754 6.00567C37.7322 5.99438 37.7513 5.99898 37.7227 5.97862C37.7074 5.96768 37.6839 5.94383 37.6679 5.93043C37.5041 5.79424 37.5171 5.85297 37.4928 5.46437C37.4793 5.24858 37.4061 4.8957 37.4243 4.69319C37.5266 4.92801 37.794 5.57953 37.8037 5.81827L37.7754 6.00567ZM38.1115 5.85412C38.1492 5.72426 38.1853 5.77179 38.1221 5.64072L37.501 4.29919C37.4664 4.22528 37.4356 4.14701 37.3994 4.07521C37.3291 4.07428 37.2772 4.10091 37.2074 4.13482C37.2673 4.59768 37.3798 5.19621 37.4319 5.63626C37.4778 6.02348 37.5333 5.84685 37.6897 6.08036C37.7615 6.1877 37.6297 6.20774 37.701 6.36171C37.8511 6.29511 37.6736 6.1886 37.9005 6.13659C37.9531 6.13943 37.9731 6.14907 38.0103 6.16959L38.0087 6.25962C37.9622 6.38293 37.9167 6.28976 37.8212 6.41151C37.7683 6.47896 37.7981 6.42237 37.7715 6.49778C37.9096 6.61505 37.9099 6.71107 37.9742 7.00048C38.0178 7.19669 38.0714 7.40035 38.121 7.57692C38.3648 8.44579 38.6058 9.5228 38.8543 10.4476L38.9771 10.9452C38.9837 10.959 38.9837 10.9598 38.9932 10.9739C39.0246 11.0207 38.9745 10.9763 39.0283 11.0127C39.0747 10.9884 39.05 11.0114 39.0813 10.969C39.1503 10.8751 39.0523 10.6964 39.0057 10.488C38.902 10.0247 38.6939 9.29163 38.5658 8.80206C38.5295 8.66328 37.9856 6.63301 37.9832 6.54088L38.0815 6.49491C38.1428 6.61185 38.1978 6.92163 38.2381 7.06411C38.2896 7.24591 38.3466 7.45557 38.3919 7.65231C38.481 8.03935 38.6023 8.42757 38.6911 8.81494C38.7369 9.0149 38.7834 9.1976 38.8376 9.39569L39.1385 10.5608C39.1933 10.7579 39.2222 10.9869 39.3373 11.099C39.3258 11.1252 39.2785 11.1264 39.3251 11.2861L40.1344 14.4599C39.9961 14.3955 39.8909 13.8692 39.8407 13.6646L39.3755 11.9009C39.3448 11.7879 39.2455 11.3202 39.1906 11.256C39.1656 11.2267 39.1519 11.2168 39.1244 11.181C39.1156 11.1695 39.106 11.1545 39.0959 11.1442C39.0446 11.0921 39.1014 11.1345 39.0359 11.0971C39.0449 11.3288 39.3359 12.2832 39.4093 12.6333C39.5015 13.0735 39.7312 13.8062 39.7956 14.1805C39.5848 14.1075 39.4914 13.7621 39.3924 13.562C39.3332 13.4425 39.2641 13.3454 39.1795 13.2715C39.05 13.1586 38.9582 13.1238 38.8914 13.0688C38.8952 12.9437 38.9778 12.7048 39.0056 12.5691C39.0548 12.3286 39.0692 12.3052 38.9076 12.15C38.5686 12.2899 38.0659 12.8746 37.9809 12.9166C38.0241 12.7051 38.2448 12.6745 38.2972 12.4886C38.1804 12.503 38.0987 12.5195 38.0035 12.5721C37.8734 12.644 37.8623 12.6947 37.8016 12.7185C37.6813 12.4909 38.0785 12.4976 38.0657 12.1852C37.9917 12.2034 37.9402 12.2515 37.8583 12.2925C37.5425 12.4507 37.518 12.4358 37.3247 12.7515C37.3207 12.7453 37.274 12.7515 37.3219 12.6206C37.3397 12.5716 37.3558 12.5448 37.3514 12.4721C37.0275 12.4345 37.0198 12.7702 36.8796 12.9078C36.807 12.483 36.8253 12.5675 36.5562 12.2488C36.4768 12.1548 36.4808 12.0961 36.3738 12.1424C36.3461 12.169 36.2015 12.8297 36.2914 13.1784C36.3068 13.2386 36.3166 13.2608 36.34 13.3212C36.3589 13.37 36.3808 13.4195 36.3644 13.4618C36.29 13.5857 36.2592 13.542 36.2685 13.7367C36.1301 13.825 36.2188 13.758 36.0823 14.052C36.0466 14.1289 35.935 14.3008 35.8811 14.3458C35.7923 15.0365 35.8484 14.7198 35.6166 15.4479L35.4588 15.9668C35.3979 16.0344 35.412 15.9581 35.3097 16.1553C35.2239 16.321 35.3417 16.2529 35.2594 16.4207C35.0293 16.8898 34.844 16.7446 35.0077 17.3933C35.0526 17.5711 35.0878 17.7616 35.1675 17.9141C35.2802 18.13 35.4165 18.0921 35.6699 18.0915C35.7157 18.1109 35.6937 18.2332 36.052 18.2656C36.5146 18.3074 36.8873 18.0769 37.015 17.571L37.0374 17.503C37.0495 17.52 37.1963 17.8122 37.199 17.8322C37.2096 17.911 37.1634 18.2198 37.1507 18.296C37.1046 18.5706 37.0962 18.9422 37.0719 19.2307L37.0971 19.2994L37.1572 19.2424C37.1599 19.24 37.165 19.2348 37.1696 19.2321C37.2253 19.0335 37.3143 18.2117 37.2983 17.9562C37.473 18.0615 37.5186 18.3492 38.0184 18.2739C38.0069 18.4896 37.9727 18.5434 37.9217 18.7135L37.9602 18.7377C38.0259 18.7869 38.0248 18.8062 38.0495 18.9016C38.0692 18.9779 38.0757 19.1044 38.0774 19.209C38.0813 19.4467 38.0425 19.625 38.0388 19.8271C38.1055 19.8031 38.0517 19.8401 38.1324 19.7347C38.1509 19.7105 38.1468 19.7145 38.1655 19.6962L38.0803 20.6649C38.1813 20.6659 38.21 20.5697 38.2577 20.4939C38.2969 20.4316 38.3433 20.3416 38.3831 20.2634C38.86 19.3273 38.7695 18.8588 38.8716 18.5688C39.0414 18.6311 39.1546 18.543 39.2845 18.5486C39.4896 19.0076 39.4308 19.8781 39.43 20.3773C39.8103 20.2633 39.9367 19.1698 39.8077 18.7198C39.7913 18.6626 39.7466 18.5266 39.7438 18.4894C39.9609 18.5505 40.1122 18.6214 40.365 18.4872C40.4595 18.4371 40.4687 18.4056 40.5365 18.3905C40.6241 18.5249 40.6972 18.7033 40.7462 18.8749C40.7881 19.0218 40.8672 19.3367 40.8585 19.4891C40.564 19.7033 39.9749 20.1677 39.7014 20.4461C39.5462 20.6041 39.3293 20.8317 39.2009 21.0104C39.1619 21.0648 39.148 21.0997 39.0886 21.1372C38.9997 21.001 38.9597 20.8283 38.9378 20.6578C38.9123 20.4589 38.9033 20.3102 38.8992 20.0893C38.8378 20.0973 38.8241 20.0579 38.7659 20.2207C38.6991 20.4075 38.6155 20.6027 38.5908 20.8247C38.5698 21.0131 38.5755 21.1557 38.6216 21.321C38.6446 21.4038 38.652 21.4301 38.6939 21.5049C38.7388 21.5851 38.7754 21.5932 38.7686 21.7094C38.226 21.6838 37.6032 21.1385 37.3585 20.5669C37.2897 20.406 37.1747 20.0611 37.1886 19.8448C37.158 19.8015 37.169 19.7751 37.166 19.7045L37.1241 19.6747C37.0207 19.5982 37.0777 19.6069 36.99 19.568C36.994 19.7271 37.028 19.626 37.0523 19.7416C36.9394 19.7434 36.9497 19.5977 36.8754 19.7609C36.9513 19.779 36.9752 19.7881 37.019 19.8289C37.0284 19.9394 37.0315 19.9461 36.9534 19.9931C36.9961 20.4904 37.0984 20.8603 37.3313 21.2209C37.4236 21.3638 37.5543 21.5479 37.6388 21.7085C37.6762 21.7795 37.7497 21.9135 37.7309 21.9989C37.7132 22.079 37.6376 22.1979 37.5603 22.2306C37.4437 22.2216 37.2559 22.0249 37.1911 21.9528C36.9735 21.711 36.8071 21.4213 36.7101 21.0889L36.5823 20.556C36.5808 20.5518 36.5782 20.5445 36.5749 20.5395C36.4217 20.6794 36.6615 21.4812 36.7192 21.6403C36.7864 21.8256 36.933 22.11 37.0455 22.2812C37.0757 22.3271 37.1514 22.4253 37.1791 22.4845C36.852 22.4953 36.7356 21.8911 36.64 21.6489C36.6307 21.7838 36.6595 21.9018 36.6997 22.0235C36.7564 22.1953 36.8151 22.2631 36.8433 22.3499C36.6838 22.2784 36.4862 22.0301 36.4198 21.8534L36.3496 21.6461C36.3469 21.6406 36.3423 21.6336 36.34 21.6291C36.3375 21.6245 36.3337 21.6173 36.3297 21.612C36.2492 21.8092 36.2903 21.9246 36.2872 22.1363C36.0427 21.8309 36.0065 21.326 36.1605 20.9209C36.3151 20.5145 36.5637 20.2743 36.8071 20.0076C36.7852 19.9271 36.8119 19.9305 36.76 19.9095C36.6905 20.0018 36.8092 19.9627 36.6659 20.0815C36.6134 20.125 36.6152 20.1021 36.5655 20.1488C36.524 20.1878 36.534 20.2015 36.4973 20.2447L36.3438 20.4268C36.289 20.4921 36.2338 20.5872 36.1858 20.6189C36.1729 20.708 35.7123 21.2501 36.1048 22.0372C36.2056 22.2393 36.2902 22.2314 36.208 22.5046C36.1163 22.8093 35.9894 23.0323 35.7719 23.2395C35.6407 23.3645 35.4123 23.4996 35.2358 23.5682C35.1239 23.6118 35.1288 23.6156 35.0815 23.7279C34.8817 24.2028 34.8734 24.4023 35.044 24.9015C35.0674 24.9699 35.1272 25.0622 35.1405 25.0998C35.208 25.2913 34.9468 26.1584 35.1098 26.8154C35.1348 26.9159 35.1306 26.9811 35.1329 27.0943C35.1408 27.4964 34.9813 27.4203 35.2787 27.7622C35.2498 27.8577 35.2075 27.8334 35.2901 27.9533C35.4207 28.1429 35.5848 28.2457 35.68 28.3977C35.7749 28.5489 35.7655 28.6591 35.7976 28.8288C35.889 29.3113 35.9785 29.287 36.2788 29.4589C36.3929 29.5242 36.4779 29.6415 36.5882 29.7062C37.0608 29.9832 37.6804 29.3872 37.2816 28.5557C37.1508 28.2831 36.9849 28.1048 36.7721 27.9611C36.7162 27.9233 36.6468 27.8777 36.576 27.8835C36.4647 27.8927 36.3265 28.1 36.2329 27.912C36.1994 27.8445 36.2437 27.7602 36.2645 27.6832C36.306 27.5296 36.3188 27.3193 36.2885 27.1419C36.2754 27.0649 36.2506 27.0048 36.2194 26.9361C36.1844 26.8591 36.1392 26.8104 36.1152 26.7545C36.3224 26.5652 35.8786 25.2242 36.2531 24.5591C36.4372 24.5499 36.3189 24.6616 36.511 24.5482C36.6987 24.4373 36.9648 24.4541 37.1599 24.3829C37.2601 24.3463 37.3564 24.2462 37.408 24.2394C37.4196 24.444 37.4123 24.752 37.2989 24.8655C37.1305 24.8216 37.1049 24.7583 36.9771 24.6735C36.919 24.6907 36.8573 24.7371 36.8139 24.7868C36.681 24.9386 36.8461 25.2303 36.9437 25.3621L37.0811 25.4971C37.1255 25.5468 37.0922 25.5184 37.1392 25.5611C37.242 25.6546 37.2285 25.7145 37.3376 25.9353C37.3518 25.9639 37.3708 25.9948 37.3933 26.023C37.6951 26.4007 37.6045 26.3704 37.6864 26.8317C37.7441 27.1566 37.8498 27.4218 38.1033 27.5268C38.3035 27.6097 38.2791 27.5515 38.4511 27.7138C38.536 27.7939 38.6375 27.9021 38.7298 27.9762C38.9983 28.1916 39.259 28.0935 39.4185 27.7922C39.5712 27.5038 39.5479 27.1953 39.4291 26.8809C39.3189 26.5893 39.1612 26.4009 38.787 26.426C38.7124 26.3462 38.6166 26.2174 38.5364 26.1503C38.9325 26.0142 38.7377 25.7459 39.0283 25.4066C39.1704 25.5799 39.4289 25.8082 39.5986 25.9455C39.7832 26.095 40.0229 26.2923 40.243 26.4049C40.2347 26.461 40.1934 26.5952 40.1752 26.6674C39.9304 27.6368 40.616 28.7978 41.1195 29.5292L41.6052 30.1723C41.6466 30.2212 41.6882 30.2581 41.7152 30.3228C41.5618 30.4629 41.4778 30.5293 41.3614 30.7578C41.0904 31.2903 40.9045 31.8653 40.5454 32.3401L40.1863 32.7743C40.0941 32.9036 40.1596 33.1705 39.9497 33.3384C39.6925 33.5444 39.8384 33.4961 39.6686 33.8561L39.4436 34.2176C39.4223 34.2464 39.4169 34.2501 39.3987 34.2785C39.3591 34.3402 39.3905 34.2617 39.3588 34.3548C39.4483 34.6221 39.6926 34.6461 39.9727 34.6563C40.2472 34.6664 40.5188 34.62 40.7351 34.5272C41.1639 34.3432 41.2289 34.1651 41.2861 33.6914C41.3071 33.5173 41.2427 33.4825 41.0951 33.4579L41.1294 33.2197C41.4891 33.1234 41.4319 32.9425 41.4602 32.5396C41.5475 32.4831 41.6123 32.4127 41.683 32.3501C41.7327 32.3062 41.7436 32.2911 41.7867 32.2468C41.8282 32.2041 41.8626 32.1725 41.903 32.1337L42.225 31.8115C42.5309 31.4874 42.8798 31.1219 43.117 30.7418C43.2162 30.5827 43.4053 30.3512 43.2737 30.1525C43.2136 30.0617 43.1154 29.9936 43.0529 29.9337C42.5899 29.4903 42.611 28.8704 42.7042 28.2071C43.0143 28.1598 43.1277 28.2481 43.3848 27.9274C43.5576 27.712 43.5974 27.4997 43.7139 27.2629C43.8342 27.2961 43.9606 27.628 44.2971 27.8692C44.9987 28.3721 44.5905 28.6532 44.7759 29.4003C44.8272 29.6067 44.9222 29.7798 45.0257 29.955C45.2547 30.3429 45.1576 30.1957 45.0493 30.5281C44.9445 30.85 44.9743 31.3797 44.8959 31.5937C44.8615 31.6877 44.8059 31.8018 44.767 31.8859C44.5477 32.3606 44.2629 32.6306 44.1489 32.8821C44.0604 33.0774 44.0592 33.3023 43.9814 33.522C43.9091 33.726 43.8234 33.9237 43.7086 34.0688C43.6454 34.1487 43.5471 34.2078 43.532 34.291C43.5208 34.3522 43.5114 34.6093 43.5283 34.6646C43.691 35.1971 45.1991 34.6154 45.2727 34.4757C45.2974 34.3293 45.3253 34.1623 45.3147 34.012C45.2985 33.7831 45.2919 33.7574 45.1113 33.7011C45.0871 33.4464 45.2129 33.367 45.3958 33.2694C45.402 32.2926 45.3547 32.9433 46.001 31.7837C46.1552 31.507 46.4765 30.9566 46.4031 30.609C46.3934 30.5631 46.363 30.4762 46.3374 30.4227C46.3188 30.3837 46.2494 30.2872 46.2347 30.2515C46.1308 30.0004 46.3916 29.1791 46.3653 28.799C46.337 28.3887 46.2322 28.5637 46.3778 28.1792C46.5299 27.7774 46.6176 27.3403 46.7012 26.9144C46.7264 26.7862 46.711 26.7513 46.7505 26.6774C46.8227 26.8222 46.834 27.0198 46.848 27.1801C46.8954 27.7188 46.8952 27.6508 47.1218 28.0953C47.2224 28.2924 47.1876 28.3796 47.1951 28.6256C47.4779 28.6195 47.3553 28.3683 47.4141 28.2527C47.6288 28.6106 47.5332 29.7901 48.1581 29.9775C48.2589 29.8835 48.1697 29.8679 48.1166 29.7682C48.0533 29.6495 48.0457 29.5622 48.1067 29.4475C48.1813 29.5835 48.3019 30.0081 48.4458 30.2984C48.5372 30.4828 48.788 30.9122 48.9631 30.9785C48.9005 30.5735 48.779 30.3661 48.796 30.0206C49.1126 30.2267 49.0736 31.0629 49.3231 31.316C49.3551 31.0113 49.1519 30.3107 49.1622 30.0645C49.2178 30.1869 49.2169 30.3924 49.3668 30.4303L49.1045 29.0058C49.0945 28.9718 49.0787 28.9385 49.0732 28.9113C49.0589 28.8394 49.0653 28.8487 49.0832 28.8207C49.1861 28.8554 49.1465 28.9261 49.1908 29.0007C49.2369 29.0782 49.1682 29.0259 49.2135 29.0214C49.2544 28.986 49.2213 29.0443 49.2494 28.9508C49.394 28.4704 49.0799 27.9629 48.8861 27.6325C48.8303 27.5435 48.4867 27.1173 48.6276 27.064C48.6322 27.0623 48.6391 27.058 48.645 27.0562C48.7161 27.0336 48.6044 27.0565 48.6805 27.0463C48.7404 27.0384 48.7773 27.0662 48.8567 27.0892C48.8413 27.007 48.8168 26.9509 48.786 26.8796C48.7557 26.8094 48.7202 26.777 48.6644 26.7349C48.4754 26.5625 48.2754 25.9532 48.0347 25.5897L48.0183 25.5651C48.0135 25.5579 48.0014 25.5394 47.9936 25.5274C47.6043 24.9336 47.0312 24.6979 47.0225 24.5697C47.021 24.5479 47.0217 24.541 47.0238 24.5193L47.1745 23.0707C47.203 22.7755 47.211 22.8066 47.0819 22.6193L47.0698 22.9782C47.0444 23.528 46.9274 25.0672 46.7505 25.508C46.7004 25.4932 46.5999 25.2111 46.5542 25.1088C45.3777 22.346 46.5378 25.1651 45.1603 21.7536C44.7587 20.7175 43.9925 18.7081 43.8211 17.5466C43.7614 17.1419 43.6889 16.6818 43.8339 16.2994C43.8907 16.1497 44.004 15.9792 44.1024 15.8768C44.2204 15.7539 44.3467 15.6584 44.5354 15.6397C44.5585 15.7567 44.5997 15.8424 44.69 15.9008C44.7069 15.9118 44.712 15.9132 44.7293 15.9232L44.7829 15.9558C44.6955 16.026 44.6031 15.9876 44.415 16.1911C44.3399 16.2722 44.2184 16.4346 44.187 16.5708C44.1096 16.9063 44.1238 17.3495 44.2088 17.6876C44.3777 18.359 44.5227 19.0063 44.7446 19.634C44.9598 20.2427 45.1644 20.8389 45.4008 21.4298C45.5148 21.7146 45.6386 22.0119 45.7518 22.3033C46.1662 23.3706 46.3709 23.5367 46.7435 24.7725C46.7783 24.7417 46.7622 24.7654 46.7839 24.7148L46.836 24.4495C46.9367 23.7035 46.9354 23.0995 46.9973 22.3754C47.0065 22.2682 47.0071 22.1661 47.0076 22.0529L47.0193 21.5343C47.0195 21.4469 47.0023 21.423 47.0521 21.3788C47.1123 21.4186 47.0889 21.4085 47.0876 21.6002C47.0856 21.8708 47.0721 22.1537 47.0885 22.4224L47.1889 22.3972L47.1824 21.3963C47.3156 21.5186 47.3582 22.104 47.6831 22.2324C47.672 22.1569 47.6637 22.1616 47.65 22.0992C47.6285 22.0004 47.6229 22.0325 47.6755 21.9994L47.7469 22.2311C47.7657 22.3892 47.6603 22.3004 47.5805 22.2502C47.6366 22.5477 47.6447 22.5723 47.8973 22.7179C47.9703 22.7601 48.077 22.814 48.1568 22.8489C48.2421 22.8862 48.3928 22.9228 48.4567 22.9577C48.4882 23.2449 48.3995 23.3821 48.3142 23.5987C48.2312 23.8094 48.292 24.0734 48.4218 24.2045C48.5334 24.3173 48.7085 24.4199 48.8388 24.5552C48.8951 24.6137 48.96 24.7223 49.0183 24.7529C49.0979 24.7945 49.2392 24.7466 49.3557 24.7584C49.4403 24.9796 49.3825 25.7182 49.3613 25.9871C49.7246 25.8934 50.0811 25.3569 50.3294 25.0678L50.5398 24.8202C50.6523 24.71 50.7721 24.6739 50.8773 24.5775C51.0079 24.458 51.087 23.1624 51.0765 22.9787C51.0394 22.3346 50.857 23.001 51.0304 21.9803C51.1595 21.2205 51.0078 20.2036 50.427 19.6647L50.0923 19.4029C50.0283 19.2652 50.1287 18.2933 49.4184 17.7087C49.3443 17.6477 49.3031 17.6161 49.2148 17.5588C49.0769 17.4696 48.9001 17.4386 48.8153 17.2985C48.7246 17.1486 48.6419 17.0566 48.4847 16.9414C48.2056 16.7368 47.8778 16.6259 47.5457 16.5513C46.9635 16.4206 47.076 16.6118 46.6425 16.1355C46.3692 15.8353 46.2346 15.7516 45.8296 15.6036C45.7136 15.5612 45.4175 15.4951 45.3366 15.4458C45.2716 15.4062 45.2175 15.3511 45.1434 15.3069C44.9937 15.2175 44.8056 15.171 44.637 15.1427C44.4572 15.1124 44.5383 15.1225 44.4187 15.0259C44.28 14.9138 44.1034 14.8867 43.9022 14.8712C43.8581 14.8488 43.7353 14.6008 43.7089 14.5611C43.5637 14.3432 43.6989 14.4353 43.7087 14.1893C43.7279 13.7094 43.7174 13.1601 43.396 12.8279L43.2002 12.6296C42.8475 12.298 42.9023 12.1637 42.8361 11.9567C42.8346 11.9518 42.8321 11.9441 42.8291 11.9385L42.6935 11.9714C42.6875 11.9885 42.6811 12.0082 42.6773 12.0236C42.6686 12.0598 42.6656 12.0951 42.6562 12.1327C42.6462 12.1725 42.6149 12.268 42.5969 12.3038C42.4493 12.5985 42.1371 12.7868 41.9736 13.0792C41.6716 13.6191 41.9579 13.9318 41.9169 14.2209C41.8949 14.3767 41.9628 14.4843 41.9621 14.6416C41.7876 14.8123 41.7721 14.7598 41.6871 15.035C41.3598 15.1177 41.5116 15.1801 41.3638 15.3136C41.2219 15.4417 41.1499 15.3706 41.0703 15.6208C40.9676 15.9438 40.9456 16.3484 40.9012 16.6923C40.8257 16.6833 40.8809 16.7193 40.8166 16.6473C40.7482 16.5708 40.7179 16.4628 40.6791 16.3651C40.6828 16.3613 40.6909 16.3536 40.6932 16.3582C40.6956 16.3627 40.7043 16.3528 40.7075 16.3514L40.7525 16.3331C40.7571 16.331 40.7632 16.3282 40.7673 16.3262L40.7963 16.3108C40.6595 16.0772 40.6592 15.6396 40.5748 15.3766C40.5408 15.2707 40.4918 15.1963 40.4556 15.094C40.5056 15.0066 40.5584 14.9703 40.4812 14.8523C40.3913 14.7147 40.4197 14.8242 40.3616 14.6134C40.3082 14.4199 40.2655 14.2359 40.2204 14.0559C40.1262 13.6806 40.0458 13.2962 39.9376 12.9128C39.8468 12.5914 39.5241 11.1123 39.4347 10.9536C39.3935 10.8805 39.3238 10.8295 39.2964 10.7487C39.387 10.7521 39.3203 10.7689 39.409 10.8126C39.3983 10.6969 39.3973 10.7555 39.3651 10.6619C39.3351 10.5746 39.3538 10.5793 39.3368 10.4949C39.2508 10.0679 38.7976 8.5613 38.8155 8.3608C39.1111 8.21226 40.3846 7.73161 40.6894 7.63461C40.8646 7.57882 40.9511 7.58896 41.0517 7.73389C41.1768 7.91393 41.1779 8.09816 41.3461 8.23669C41.3962 8.27794 41.4502 8.31599 41.5267 8.33219L41.2565 7.68753C41.1659 7.53575 40.9886 7.41738 40.888 7.26262C40.8551 7.21198 40.8619 7.24314 40.8614 7.17763C41.0589 7.28584 41.0612 7.2725 41.2046 7.46268C41.2435 7.51419 41.3034 7.58783 41.3446 7.63533C41.4034 7.70309 41.4474 7.76629 41.5452 7.78545L41.4175 7.60091C41.2763 7.4173 41.2317 7.17058 41.1036 6.98914C41.0473 6.90945 40.9638 6.84587 40.9067 6.74971C41.1748 6.87988 41.1969 7.10733 41.3592 7.26286C41.3589 7.01847 41.3344 6.88699 41.2077 6.72664C41.1805 6.69214 41.1629 6.67672 41.1231 6.6447C40.7354 6.33295 40.7793 6.49613 40.5959 5.98307C40.5232 5.77978 40.466 5.65884 40.2279 5.69268C39.4435 5.80421 38.4058 6.33587 38.2342 6.34407C38.3062 6.18231 38.234 6.05388 38.0942 5.99591C38.0692 5.90303 38.0755 5.93924 38.1115 5.85412ZM35.82 27.0186C35.8379 27.0983 35.8932 27.1018 35.9287 27.1904C36.0148 27.2646 36.0758 27.7035 35.7899 27.8068L35.6845 27.8484C35.7063 27.9506 35.7579 28.0375 35.8255 28.0921C36.0173 28.247 35.8783 28.1308 35.9962 28.3174C36.1296 28.5288 36.3598 28.309 36.6118 28.3702C36.7337 28.3998 37.0436 28.8309 36.7088 29.1349C36.6383 29.199 36.5041 29.2251 36.5257 29.3134C36.531 29.3167 36.5394 29.3137 36.5427 29.3212C36.5504 29.3384 36.6353 29.3448 36.6998 29.3191C36.7341 29.3055 36.798 29.2636 36.8385 29.231C36.8814 29.1964 36.9755 29.0991 37.0264 29.0851C37.2737 29.0176 37.123 29.4771 36.7961 29.5931C36.5951 29.4555 36.7076 29.4913 36.4034 29.347C36.2534 29.2759 36.0655 29.1888 35.9872 29.0592L35.9248 28.8646C35.8612 28.5459 35.8399 28.426 35.6457 28.1542C35.5307 27.9931 35.1465 27.571 35.2162 27.3021C35.3376 26.8343 35.1628 26.6162 35.2176 26.0658C35.3702 24.5313 35.0859 24.8148 35.0609 24.3354C35.0521 24.166 35.1587 23.9371 35.2289 23.8189C35.3658 23.5881 35.6218 23.5594 35.9357 23.2441C36.2176 22.961 36.2616 22.7812 36.395 22.3764C36.473 22.4379 36.5633 22.4749 36.6508 22.5268C36.6458 22.6387 36.4226 23.3288 36.1911 23.516C35.8791 23.7683 35.4733 23.5726 35.308 24.0781C35.297 24.1117 35.5636 26.9655 35.82 27.0186ZM38.4694 27.5682C38.4568 27.4343 38.4653 27.5444 38.6207 27.3466C38.6573 27.3 38.7452 27.1747 38.8165 27.1495C39.0098 27.0809 39.1877 27.3286 39.2131 27.4949C39.2391 27.6647 39.0033 27.9332 38.9038 27.8918C38.8473 27.8684 38.7518 27.6908 38.6141 27.622C38.5502 27.5901 38.5174 27.6044 38.4694 27.5682ZM40.4159 26.6713C40.4658 26.8581 40.4886 27.0807 40.5371 27.2663C40.5885 27.4635 40.619 27.6642 40.7082 27.836C40.9139 28.2321 41.1138 28.2007 41.1239 28.4941C41.1287 28.6344 41.1445 28.6954 41.1736 28.8254C41.2567 29.1971 41.4853 29.5302 41.6855 29.7644C41.9731 30.101 42.0692 29.9131 42.3286 30.1733C42.4227 30.2678 42.4453 30.2611 42.5514 30.3259C42.4996 30.5971 42.0634 31.1081 41.7806 31.2931C41.575 31.4276 41.7371 31.4754 41.5741 31.9557C41.3954 32.4825 41.2144 32.3373 41.1629 32.4158C41.1013 32.7035 41.2667 32.7764 41.068 32.986C40.9316 33.1298 40.8241 33.1749 40.5673 33.1827C40.5648 33.204 40.5808 33.4398 40.5844 33.493C40.702 33.6366 40.8128 33.5902 40.8797 33.6653C40.8539 33.7533 40.7418 33.7837 40.6375 33.7833C40.5257 33.7829 40.4162 33.7371 40.3017 33.7126C40.3355 33.8708 40.443 33.9264 40.3855 34.1331C40.2686 34.2397 39.9167 34.2893 39.7185 34.2641C39.6702 33.9952 39.9199 33.6779 40.0365 33.5169C40.165 33.3397 40.1942 33.3916 40.2211 33.1487C40.2431 32.9493 40.481 32.67 40.6249 32.4899L41.0666 31.8409C41.1103 31.7671 41.223 31.5824 41.2515 31.4748C41.3154 31.4974 41.2661 31.4949 41.337 31.514C41.3506 31.0983 41.4592 30.7337 41.7477 30.4835C41.8456 30.3987 41.9188 30.4563 41.903 30.3056C41.8951 30.2304 41.7617 30.1153 41.7131 30.0565L41.4467 29.6751C41.2914 29.4256 41.1949 29.1976 41.081 28.9245C40.9889 28.7036 41.052 28.7456 40.8833 28.5542L40.5714 28.1133C40.4661 27.9215 40.3595 27.7203 40.3201 27.4759C40.2932 27.3093 40.2838 26.7243 40.4159 26.6713ZM43.9608 27.1965C44.1095 27.5025 44.4773 27.5165 44.6803 27.8418C44.7665 27.8211 45.0172 27.7951 45.0698 27.8624C45.2179 28.0521 44.8779 27.9721 44.8081 27.9859C44.8187 28.1016 44.9878 28.2224 45.043 28.3654C45.1696 28.6935 44.957 29.0544 45.3313 29.3919C45.549 29.5882 45.4371 29.5941 45.5565 29.8191C45.5722 29.8103 45.6517 29.7804 45.6386 29.6831C45.6304 29.6225 45.5914 29.6126 45.5578 29.5503C45.5573 29.3645 45.5933 29.2397 45.5515 29.0456C45.5289 28.9402 45.4681 28.6884 45.5642 28.629C45.6052 28.603 45.5734 28.6082 45.6328 28.7212C45.7046 28.8579 45.8228 28.9886 45.8692 29.1151C45.9553 29.3503 45.8995 29.5978 45.8402 29.8496C45.8149 29.9571 45.88 30.0445 45.8601 30.2187C45.8497 30.3101 45.8082 30.4757 45.7818 30.5597C45.714 30.776 45.6388 31.0168 45.5933 31.2384C45.5673 31.3646 45.5692 31.4953 45.542 31.6133C45.4966 31.8102 45.2496 31.909 45.0204 32.3724C44.7975 32.8231 44.9889 32.9383 44.9889 33.0833C44.9888 33.275 44.6898 33.4371 44.5393 33.4969C44.5287 33.6354 44.6038 33.7064 44.546 33.8897C44.5081 34.0099 44.391 34.0715 44.3914 34.146L44.5668 34.1756C44.5579 34.2969 44.5211 34.2885 44.4235 34.3195C44.3433 34.3449 44.3034 34.3628 44.2166 34.3749C44.0356 34.4002 43.9056 34.4005 43.7239 34.3709C43.874 34.2037 43.9038 34.2074 44.0162 33.9901C44.109 33.811 44.1216 33.5884 44.1931 33.446C44.3805 33.0729 44.2937 33.1524 44.3829 32.9169C44.3956 32.8834 44.5805 32.6471 44.6654 32.4869C44.8359 32.1653 44.9335 31.8157 45.0879 31.4733C45.226 31.1672 45.1499 30.4976 45.3728 30.3192C45.284 30.2372 44.88 29.4232 44.8572 29.0773C44.8323 28.6991 44.9263 28.6774 44.9162 28.5424C44.9071 28.4203 44.7956 28.2213 44.733 28.1361C44.3657 27.6361 44.754 27.953 44.335 27.6575C44.2546 27.6008 43.9484 27.3746 43.9441 27.2617C43.9404 27.1609 43.9385 27.2322 43.9608 27.1965ZM45.3306 26.1463C45.32 26.1569 45.3174 26.1618 45.2947 26.1804L44.9878 26.3438C44.4827 26.5167 44.5869 26.0154 44.9643 25.9874C45.0876 25.9783 45.2778 26.0635 45.3306 26.1463ZM45.082 24.9399C45.1214 24.8821 45.1431 24.87 45.2117 24.8468C45.2987 24.9818 45.5576 25.2153 45.6703 25.3209C45.8952 25.5314 45.625 25.8085 45.5288 25.9391L44.99 25.8082C45.1488 25.6808 45.3706 25.7562 45.3234 25.4139C45.2929 25.1932 45.1567 25.1052 45.082 24.9399ZM35.8738 25.1718C35.927 25.1457 35.9104 25.1254 35.9737 25.1092C35.9635 25.2464 35.951 25.2559 35.9016 25.3592C35.8164 25.2708 35.8688 25.2424 35.7348 25.1069C35.6857 25.0572 35.689 25.0748 35.6629 24.9928C35.6465 24.9414 35.6372 24.8758 35.6314 24.8116C35.6198 24.6852 35.6225 24.5291 35.639 24.4032C35.6576 24.2607 35.7084 24.2094 35.8573 24.2304C36.0499 24.636 35.8003 24.8593 35.8738 25.1718ZM38.5905 24.1011C38.639 24.127 38.8545 24.4723 38.9145 24.5653C38.9238 24.5797 38.9308 24.5899 38.9401 24.6031C38.9426 24.6066 38.9464 24.6116 38.949 24.615C39.2079 24.9714 39.5743 25.4461 39.9102 25.6977C39.9689 25.7417 40.0063 25.7694 40.0639 25.8129C40.1649 25.8894 40.2571 25.9474 40.3775 26.0161C40.4758 26.0721 40.6468 26.1337 40.7321 26.1895C40.3692 26.3469 39.6494 25.6594 39.4197 25.4483L38.6094 24.6338C38.557 24.5624 38.5748 24.5686 38.5797 24.3797C38.5821 24.2861 38.5873 24.1944 38.5905 24.1011ZM40.5709 24.5507C41.1869 24.6289 41.0433 24.5179 41.329 24.5154C41.3243 24.5704 41.3003 24.599 41.2713 24.6292C41.2074 24.6957 41.2006 24.6648 41.1892 24.7244C41.3281 24.8194 41.4614 24.7686 41.6047 24.7194C41.5458 24.8497 41.3574 24.9471 41.1974 24.9652C41.0875 24.9775 41.0303 24.9492 40.9252 24.9305C40.7683 24.9026 40.5541 24.9876 40.4201 24.8711C40.2789 24.7484 40.0413 24.8032 39.8552 24.5267C40.2286 24.5185 40.351 24.5343 40.6385 24.3636C40.6462 24.4819 40.6092 24.4694 40.5709 24.5507ZM37.5201 23.7708C37.3273 23.7877 37.1644 23.7369 36.9837 23.8089C36.8368 23.8675 36.8362 23.9606 36.5741 23.8195C36.5833 23.7941 37.0679 23.1669 37.3194 23.1894C37.4149 23.1979 37.4262 23.2513 37.4817 23.3214C37.5404 23.3954 37.5575 23.3949 37.5636 23.5166C37.5681 23.6064 37.5601 23.7055 37.5201 23.7708ZM38.6797 23.5394L38.6802 23.3804C38.7686 23.428 38.7492 23.4367 38.8173 23.507L38.838 23.5271C38.8423 23.5312 38.8549 23.5424 38.8593 23.5465L39.2285 23.843C39.2671 23.8704 39.2888 23.8853 39.3277 23.9075C39.3861 23.9408 39.3986 23.9409 39.4376 24.0025C39.2655 23.9582 38.8499 23.729 38.7192 23.59L38.6797 23.5394ZM42.9234 23.0039C42.9433 23.2559 42.9837 23.5672 43.2163 23.6675C43.2872 23.6981 43.3421 23.7277 43.4218 23.7645C43.6433 23.8664 43.8184 23.9769 43.9932 24.1226C44.0512 24.1709 44.1169 24.2149 44.1439 24.3017C44.0744 24.2711 44.0111 24.2188 43.9411 24.1773C43.6921 24.0296 43.3228 23.8687 43.0461 23.7815C42.9058 23.7372 42.9383 23.7483 42.8973 23.5931C42.8533 23.4266 42.8384 23.1458 42.9234 23.0039ZM43.0016 22.7126C43.2045 22.7981 44.316 23.962 44.4985 24.1637C45.0627 24.7794 45.0841 24.5394 44.9205 24.8275C44.7106 24.7946 43.419 23.2729 43.2257 23.0505C43.2143 23.0373 43.209 23.0306 43.1973 23.0159C43.1348 22.9376 42.9872 22.7847 43.0016 22.7126ZM38.0586 24.7245L38.0534 24.9612L38.4276 25.0743C38.4111 25.0911 38.3813 25.1287 38.3515 25.1443L38.2423 25.1707C38.2397 25.1711 38.2336 25.1716 38.2297 25.1735C38.4706 25.6703 38.0294 25.8563 37.8892 26.1572C37.8024 26.3435 37.9019 26.5943 38.0428 26.6638C38.2577 26.7699 38.4001 26.5725 38.5163 26.4998C38.5491 26.8385 38.4731 27.1218 38.1801 27.1722C37.6084 27.2707 37.9966 26.7392 37.6532 26.1749L37.4249 25.8155C37.2045 25.4606 37.7082 23.9249 37.6823 23.0857C37.6765 22.8987 37.6343 22.7995 37.6825 22.6136C37.7154 22.4868 37.7606 22.3258 37.7922 22.1958C37.8347 22.021 37.9068 22.0309 38.0585 21.9438C38.1493 21.8916 38.3094 21.7759 38.3848 21.7433C38.6917 21.9011 38.6627 21.7474 38.8397 21.909C38.8398 21.9091 38.8727 21.9376 38.8728 21.9376C39.0158 22.0579 39.2435 22.2193 39.4712 22.2555C39.9392 22.3299 40.5641 21.8932 40.7914 22.1821C40.297 22.3662 39.7612 22.6432 39.1811 22.4033C38.9843 22.3219 38.9557 22.1939 38.7104 22.2484C38.6895 22.3511 38.7555 22.8265 38.3572 22.5996C38.2353 22.5301 38.2334 22.4192 38.1828 22.3557C38.156 22.3221 38.1642 22.3264 38.1233 22.311C37.9687 22.5248 37.7026 23.1836 38.0228 23.2466C38.0706 23.183 38.0712 23.0825 38.1446 23.0022C38.2827 22.851 38.603 22.9653 38.4661 23.2398C38.3258 23.521 38.0822 23.2214 38.0791 23.6246C38.075 24.1531 38.1985 24.1498 38.0586 24.7245ZM43.5766 22.1606C43.6234 22.3261 43.8428 22.6312 43.9339 22.7863C44.0232 22.9381 44.2157 23.2799 44.2375 23.4738C44.1337 23.4407 43.8469 23.2478 43.75 23.1762C43.6164 23.0774 43.2837 22.7221 43.1633 22.5569C42.6744 21.8857 43.5449 21.6579 44.0439 21.9588C44.3273 22.1295 44.3261 22.4139 44.5506 22.665C44.7383 22.8749 44.9211 23.1813 44.9466 23.4964C44.8931 23.5327 44.9096 23.5259 44.8608 23.5396C44.7247 23.2696 44.5896 22.9441 44.3898 22.731C44.1431 22.4678 44.0884 22.5764 43.734 22.0951C43.66 22.105 43.6186 22.1169 43.5766 22.1606ZM40.0222 22.0656C40.0286 21.7133 40.2901 21.7344 40.3478 21.6004C40.3422 21.5968 40.3337 21.5861 40.33 21.592L40.2548 21.5758C40.191 21.577 40.0574 21.6498 39.9946 21.685C39.837 21.7734 39.7506 21.8684 39.6919 21.806C39.5606 21.6665 39.9009 21.3342 39.9909 21.2542C40.1559 21.1072 40.3228 20.9949 40.5337 20.889C41.0061 20.6515 41.5497 20.677 41.7758 21.1212C41.5969 21.1055 41.521 21.054 41.3456 21.1539C41.0929 21.2979 41.4135 21.3527 41.5333 21.3702C41.8794 21.4205 41.982 21.733 41.7347 21.9566C41.5112 22.1587 41.1447 22.012 40.9056 21.9328C40.4537 21.7829 40.329 22.0161 40.0222 22.0656ZM43.0927 21.8029C43.1227 21.5633 43.0985 21.4014 43.2276 21.209L43.5406 20.7978C43.5128 21.0653 43.4266 21.1381 43.4533 21.4508C43.4661 21.6006 43.427 21.6379 43.3372 21.6926C43.2828 21.7259 43.1706 21.7963 43.0927 21.8029ZM39.1691 22.0051C39.0526 22.0095 38.9831 21.9368 38.9255 21.8375C38.8644 21.7323 38.9322 21.6276 38.9813 21.5268C39.8652 19.7112 42.5869 19.753 42.7384 20.7924C42.1156 20.2398 41.3437 20.3518 40.6315 20.6651C39.9372 20.9705 39.5025 21.3243 39.1691 22.0051ZM42.8165 20.2709L42.7233 20.2735C42.6988 20.0855 42.731 19.9437 42.9354 20.0184C42.9505 20.2046 42.8128 20.0139 42.9684 20.2902C43.0019 20.3496 42.9878 20.3192 43.0101 20.387C43.0101 20.3869 43.0661 20.1355 43.1216 20.3092C43.1625 20.4377 43.0802 20.4862 43.0496 20.5448C43.0523 20.6915 43.066 20.9896 42.9851 21.0777C42.9702 21.0336 42.8988 20.2762 42.8604 20.1681C42.8382 20.1057 42.8494 20.1371 42.8291 20.1156C42.7906 20.1842 42.8184 20.1865 42.8165 20.2709ZM50.0634 19.6132C50.2678 19.6876 50.4904 20.0419 50.5902 20.2901C50.9477 21.1795 50.8035 22.6873 50.5639 23.5335C50.4012 23.4361 50.1085 23.1293 50.0108 22.9356C49.8744 22.6655 49.9381 22.1976 49.9826 21.8683C50.0322 21.5014 50.0767 21.1779 50.1009 20.7881C50.1176 20.5203 50.1221 19.845 50.0634 19.6132ZM46.1045 19.0224C46.173 19.0121 46.2012 18.9859 46.2779 19.0025C46.1635 19.2683 46.1875 19.1934 46.3681 19.2715C46.3625 19.332 46.3656 19.2946 46.3491 19.3393C46.3332 19.3827 46.3328 19.3692 46.3209 19.4121C46.308 19.4588 46.2945 19.5315 46.2866 19.5769C46.3971 19.6325 46.5009 19.6578 46.558 19.8041C46.4873 19.7697 46.3929 19.7606 46.2885 19.7633C46.318 20.0622 46.6407 20.2358 46.5695 20.4068C46.4867 20.3083 46.3906 20.2507 46.2678 20.1911C46.228 20.3249 46.3921 20.4319 46.3282 20.5954C46.2651 20.529 46.3055 20.5187 46.193 20.4305C46.1257 20.3777 46.0764 20.3013 45.9954 20.277C46.007 20.5458 46.181 20.8504 46.0265 21.0601C45.9741 20.9032 46.0671 20.922 45.8655 20.6103C45.6801 20.3236 45.8191 20.2526 45.7852 20.1615C45.6836 20.2492 45.7051 20.3994 45.6422 20.6066C45.6352 20.6297 45.6238 20.6666 45.6138 20.6848C45.6099 20.6919 45.6011 20.7058 45.5962 20.7127C45.5647 20.7566 45.5908 20.7212 45.5608 20.7525C45.5675 20.6025 45.5744 20.4812 45.5734 20.3288C45.5729 20.2483 45.6172 20.0173 45.6042 19.9956C45.5108 20.0884 45.4963 20.2307 45.3793 20.2996C45.3931 20.211 45.4151 20.125 45.4389 20.0447C45.4755 19.9214 45.512 19.9178 45.5326 19.8347C45.4115 19.8493 45.3038 19.9471 45.2051 19.8769C45.2433 19.7948 45.2228 19.916 45.3788 19.7428C45.4972 19.6114 45.4775 19.6655 45.5535 19.6183C45.4922 19.4347 45.1356 19.5856 45.0785 19.2374C45.164 19.2833 45.1798 19.3293 45.2979 19.3105C45.3385 19.3041 45.4887 19.2497 45.5167 19.2305C45.4878 19.1563 45.5135 19.2091 45.4698 19.1601C45.3754 19.0543 45.2991 19.049 45.1914 18.919C45.1258 18.8397 45.0902 18.7442 45.0913 18.6336C45.1643 18.8058 45.3386 18.8507 45.4632 18.9092C45.5232 18.9374 45.5541 18.9672 45.6042 18.9887C45.655 18.8734 45.4839 18.6619 45.5041 18.3029C45.5052 18.282 45.5069 18.2625 45.5111 18.2421C45.5213 18.1925 45.5144 18.2168 45.5284 18.1901C45.5671 18.2611 45.5747 18.4232 45.6242 18.5398L45.7375 18.7422C45.808 18.8331 45.7293 18.7721 45.8178 18.8079C45.8229 18.6678 45.7905 18.5473 45.8455 18.4464C45.8813 18.5324 45.9255 18.7785 45.9662 18.8595C46.073 18.7222 46.011 18.377 46.1641 18.2901C46.1324 18.4496 46.1247 18.4279 46.1341 18.6273C46.1425 18.8063 46.1106 18.8823 46.1045 19.0224ZM41.8823 18.2806C42.4288 18.285 43.0219 18.548 43.166 19.016C43.0859 18.9982 43.0878 18.9837 43.0457 19.0151C43.1249 19.1018 43.1638 19.1792 43.1709 19.3198C43.0453 19.2135 43.06 19.1022 42.581 18.7837C42.2405 18.5574 41.9991 18.5798 41.772 18.4921C41.8632 18.4378 41.8617 18.4951 41.9725 18.4201L41.995 18.403C42.0222 18.3878 42.0558 18.3835 42.0906 18.3771C42.0169 18.3128 41.95 18.3327 41.8823 18.2806ZM43.3464 18.0828C43.4388 18.1081 43.4239 18.1393 43.5633 18.2049C43.65 18.2456 43.7434 18.2607 43.8185 18.3041C43.8403 18.3732 43.872 18.4626 43.8546 18.5365C43.7022 18.5131 43.3816 18.2225 43.3464 18.0828ZM35.7632 18.0591C35.9356 18.0414 36.1925 18.0874 36.3308 18.0502C36.5328 17.9959 36.5083 17.8354 36.6143 17.7243C36.6338 17.9052 36.4475 18.0806 36.3148 18.1548C36.177 18.2318 35.787 18.2104 35.7632 18.0591ZM49.8388 19.8124C49.8365 19.9444 49.8125 20.1166 49.8246 20.2396C49.8568 20.5653 49.8143 20.3964 49.794 20.5901C49.7759 20.7615 49.779 21.2447 49.6463 21.3187C49.5707 21.1535 49.6893 20.3344 49.5457 20.1156L49.5263 20.1804C49.525 20.1861 49.5245 20.1924 49.5231 20.1983L49.5055 20.2656C49.42 20.2567 49.4168 20.2216 49.435 20.1216C49.4516 20.0308 49.4836 20.0479 49.5304 19.9846L49.4887 19.8124C49.3733 19.598 49.1683 19.0127 49.1298 18.7734C49.0965 18.5664 49.0744 18.3579 49.029 18.1532C48.9859 17.9589 48.9029 17.7299 48.8779 17.5632C49.214 17.6247 49.5536 18.0177 49.7062 18.3272C49.8859 18.6916 49.8604 19.3548 49.8388 19.8124ZM37.0897 17.3346L37.2586 17.2388C37.5393 17.4624 37.6058 17.64 38.1649 17.7897C38.5776 17.9002 39.0876 17.8862 39.5315 17.8524C40.2826 17.7952 40.7191 17.7393 41.4368 17.5634C41.5163 17.5439 41.6388 17.5051 41.7155 17.4765C41.8042 17.4434 41.9187 17.3894 42.0079 17.3713C41.925 17.7259 41.5096 18.4457 40.9853 17.9302C40.93 17.8758 40.8858 17.8229 40.798 17.8203C40.5257 17.8121 40.5619 18.3023 40.1938 18.3406C39.6418 18.3982 39.7514 17.8936 39.4955 17.937C39.2364 17.9809 39.3574 18.4819 38.8466 18.4111C38.4412 18.3549 38.4823 17.8777 38.2133 17.9454C38.0497 17.9866 37.8365 18.4842 37.4239 17.9337C37.417 17.9246 37.4008 17.8992 37.3908 17.8828L37.0897 17.3346ZM41.4802 16.9684C41.5908 16.8939 41.8096 16.8659 41.9679 16.8554C41.967 17.0544 42.0059 17.0658 42.0246 17.2269C41.9752 17.2532 41.7127 17.3272 41.6224 17.3542C41.4952 17.3922 41.4521 17.116 41.4802 16.9684ZM42.7969 17.2372L42.7819 17.1415L43.2239 16.9922C43.3658 17.337 43.2591 17.2754 43.3038 17.4753C43.3404 17.6398 43.3073 17.5695 43.2993 17.6834C43.2909 17.8014 43.3661 17.7506 43.3235 17.9339C43.2399 17.9592 42.859 17.9596 42.8111 17.889C42.6917 17.7127 43.12 17.8631 43.2235 17.718C43.0497 17.596 42.7617 17.8575 42.7234 17.5637C42.8533 17.5712 43.0281 17.5713 43.1478 17.529C43.2274 17.5008 43.2153 17.52 43.2347 17.4424C43.1894 17.412 43.2387 17.4316 43.17 17.4159C43.0375 17.3855 42.7174 17.4742 42.5694 17.4988C42.581 17.373 42.6881 17.3859 42.7713 17.3547C42.9125 17.3019 42.9297 17.3225 43.0905 17.3111C43.111 17.2641 43.0206 17.3418 43.093 17.2464C43.1418 17.1821 43.1157 17.2642 43.1767 17.1838C43.1564 17.1624 43.215 17.1039 42.9722 17.187C42.9114 17.2079 42.8632 17.2337 42.7969 17.2372ZM37.7472 16.85C37.7464 16.9977 37.8459 17.3233 37.8902 17.4739C37.6373 17.4831 37.2029 17.1494 37.4857 16.9764C37.541 16.9425 37.6802 16.8737 37.7472 16.85ZM42.1369 16.8323L42.6633 16.806L42.6902 17.0499L42.2054 17.1753C42.1309 17.0878 42.0934 16.9735 42.1369 16.8323ZM40.9853 16.6073C41.1056 16.8252 41.2815 17.2874 41.3888 17.3677C41.1929 17.3802 41.1566 17.2364 41.0959 17.1013C41.0578 17.0165 41.0078 16.9825 40.9899 16.9158C40.9699 16.8412 40.9832 16.6909 40.9853 16.6073ZM47.9398 16.8822C48.0056 16.8343 48.612 17.0715 48.7357 17.6624C48.7595 17.7764 48.7508 18.0209 48.6609 18.0893C48.6467 18.0657 48.4449 17.1522 47.9398 16.8822ZM42.8333 16.7804L43.2715 16.6714C43.323 16.7398 43.3426 16.8288 43.3434 16.9418C43.2437 16.9232 43.3123 16.8814 43.1831 16.9118C42.9199 16.9737 42.922 17.053 42.8559 16.9627C42.8174 16.9101 42.8133 16.8397 42.8333 16.7804ZM43.6133 17.173C43.5202 17.1019 43.4301 16.7998 43.4484 16.6452L43.6335 16.57C43.6296 16.6839 43.6102 16.7882 43.6033 16.8815C43.5969 16.9669 43.6245 17.1338 43.6133 17.173ZM37.1154 16.5986C37.136 16.7046 37.1965 16.705 37.1581 16.7972C37.0956 16.8279 37.0872 16.8073 37.0422 16.7481C36.9909 16.6805 36.9589 16.5765 37.0509 16.583C37.1053 16.5869 37.0217 16.5855 37.1154 16.5986ZM36.3356 16.6236C36.3509 16.7426 36.3891 16.726 36.3852 16.9037C36.2789 16.9971 36.2933 16.9502 36.2334 17.0988C36.2147 17.1451 36.1858 17.1837 36.1767 17.231C36.1731 17.2497 36.1953 17.58 35.9567 17.5555C35.8325 17.5428 35.8098 17.4138 35.7073 17.4808C35.6982 17.5742 35.9798 17.7085 35.5895 17.6967L35.571 17.5801C35.5219 17.6114 35.5455 17.6213 35.4941 17.5885C35.4784 17.5785 35.4411 17.5331 35.4304 17.5013C35.4034 17.4217 35.4223 17.3044 35.4159 17.216C35.2797 17.2077 35.3534 17.2637 35.2841 17.3748C35.2374 17.4498 35.2166 17.4243 35.1936 17.4898L35.1889 17.5154C35.1815 17.5614 35.2114 17.4956 35.1873 17.555C35.0395 17.5431 35.0802 17.3898 35.0739 17.2487C35.0629 17.0091 35.0139 17.0596 35.1381 16.8721C35.1875 16.7975 35.2713 16.6913 35.3136 16.6087C35.3841 16.4713 35.3369 16.3644 35.4584 16.2892C35.7801 16.0901 36.2287 16.1392 36.4368 16.3427C36.5367 16.4406 36.3837 16.5623 36.3356 16.6236ZM42.0695 16.097C42.147 16.1568 42.2683 16.1808 42.351 16.2951C42.4174 16.3867 42.4488 16.5606 42.4376 16.7C42.2249 16.7138 42.0447 16.7938 42.0313 16.3226C42.0274 16.188 42.0253 16.2003 42.0695 16.097ZM42.7084 16.6857C42.6113 16.6436 42.604 16.53 42.5835 16.4405C42.562 16.347 42.5218 16.2059 42.6404 16.1622C42.8406 16.0884 42.7981 16.5475 42.7084 16.6857ZM43.1963 16.5159C43.1074 16.5667 43.0241 16.5852 42.9211 16.5714C42.8762 16.2877 42.9585 16.1645 43.1767 16.1139C43.115 16.3602 43.1861 16.3488 43.1963 16.5159ZM39.138 15.9047C39.4233 16.07 39.6736 16.3035 39.8514 16.6036C39.9616 16.7896 40.2262 17.3929 40.2485 17.6556C39.9704 17.7531 39.7634 17.7557 39.4368 17.753C39.2472 17.242 39.3514 17.3937 39.0173 16.8934C38.9523 16.7961 38.8675 16.6943 38.8738 16.6137C38.986 16.5771 39.0263 16.5919 39.0571 16.6824C39.1196 16.6518 39.0811 16.6165 39.1489 16.6116C39.2517 16.7206 39.2949 16.7226 39.4154 16.9207C39.4581 16.9911 39.4429 16.9988 39.5449 16.982C39.5396 16.8116 39.4614 16.515 39.3957 16.3828C39.332 16.2548 39.3156 16.241 39.2294 16.1718C39.1419 16.1015 39.1326 16.0448 39.138 15.9047ZM35.4332 16.2062C35.5096 16.0744 35.5283 16.0026 35.6946 15.9668C35.8022 15.9436 36.0603 15.9564 36.1438 15.9989C36.0681 16.0807 35.9041 16.0683 35.7753 16.0942C35.6676 16.1159 35.5141 16.1927 35.4332 16.2062ZM46.9918 20.5838C46.9762 20.5531 46.9051 19.9433 46.8948 19.8549C46.79 18.9586 46.5036 18.0592 46.1857 17.2298C46.1408 17.1127 46.1072 17.0439 46.0627 16.9318C45.8698 16.4471 45.5039 15.9401 44.9494 15.9871C44.9629 15.8184 45.0747 15.8043 45.2082 15.8461C45.4986 15.937 45.6894 15.9059 45.977 16.3536C46.4577 17.1021 46.861 18.8188 46.9558 19.7674C46.9665 19.8747 47.0531 20.5071 46.9918 20.5838ZM41.2998 16.8671C41.2968 16.8627 41.2922 16.8505 41.2909 16.8538C41.2896 16.8572 41.2839 16.8435 41.2821 16.8408C41.1082 16.5694 41.0492 16.541 41.0999 16.281L41.1969 15.7359C41.2227 15.6656 41.2547 15.6438 41.2799 15.5812L41.3416 15.6512C41.3569 15.6684 41.3533 15.6652 41.3731 15.685L41.4098 15.7188C41.3015 16.1559 41.2779 16.3638 41.2998 16.8671ZM43.6925 16.3221C43.6179 16.3769 43.5923 16.4054 43.4726 16.4174L43.4184 16.3369C43.3844 16.2509 43.392 16.0403 43.4287 15.9712C43.4408 15.9483 43.6198 15.823 43.7122 15.7162C43.7094 15.8686 43.6281 15.8336 43.6557 15.9937C43.6783 16.1251 43.7214 16.122 43.6925 16.3221ZM45.3276 15.6162C45.6195 15.6604 45.918 15.7736 46.1481 15.9116C46.3042 16.0052 46.6912 16.309 46.7399 16.4714C46.1426 16.4436 46.0957 16.2581 45.6442 15.8706C45.5622 15.8002 45.3592 15.6616 45.3276 15.6162ZM38.244 16.2671C38.1475 16.1898 38.0826 16.1514 38.1247 15.9782C38.1381 15.9231 38.1573 15.859 38.1774 15.7956C38.1991 15.7271 38.2041 15.6731 38.221 15.6101C38.2431 15.528 38.276 15.5341 38.316 15.4735C38.3916 15.3591 38.4498 15.1446 38.5859 15.0211C38.7585 15.0778 38.8846 15.4636 38.7338 15.7498C38.6424 15.9235 38.4119 16.199 38.244 16.2671ZM41.4415 15.4724C41.5904 15.5633 41.4205 15.6463 41.9399 16.0204C41.9307 16.1014 41.8893 16.1767 41.8792 16.3C41.8517 16.6356 42.0007 16.6287 41.7198 16.6846C41.6606 16.6963 41.574 16.715 41.5087 16.6987C41.3402 16.6567 41.3994 16.0347 41.4473 15.8758C41.5497 15.5357 41.3689 15.5911 41.4415 15.4724ZM40.2619 15.531C40.4961 15.5606 40.6047 15.6613 40.6003 15.9122C40.5422 15.8682 40.5053 15.7943 40.4472 15.7292C40.4234 15.7026 40.3945 15.6722 40.3663 15.6432L40.2619 15.531ZM43.841 15.9758C43.768 15.4349 44.3673 15.1417 44.8883 15.3472C45.0749 15.4208 45.1127 15.4755 45.254 15.5585C45.1948 15.5538 45.1387 15.5314 45.0722 15.514C44.9948 15.4938 44.9205 15.4892 44.8401 15.4879C44.1816 15.4766 43.9867 15.9153 43.841 15.9758ZM37.1154 16.5986C37.1813 16.5105 37.3135 16.3936 37.3844 16.3063L37.8855 15.658C37.9681 15.5557 38.0802 15.3994 38.1643 15.3459C38.18 15.4617 38.146 15.4826 38.1351 15.6112C38.1179 15.8125 37.9939 15.827 37.8677 15.8974C37.788 15.9419 37.7881 15.9824 37.7436 16.0669C37.4266 16.6684 37.5137 16.2847 37.3464 16.4796L37.2032 16.6345C37.1749 16.621 37.1524 16.6113 37.1154 16.5986ZM42.0246 14.7995C42.0648 15.119 41.9324 15.1659 42.1073 15.3712C42.2433 15.531 42.3073 15.5519 42.3896 15.791C42.0912 15.6909 42.0698 15.5356 41.8719 15.2353C41.8372 15.1827 41.8167 15.1259 41.8421 15.0487C41.8626 14.9867 41.9822 14.8477 42.0246 14.7995ZM40.1516 14.8455C40.358 14.9044 40.3974 15.2026 40.4747 15.4089L40.4908 15.4504C40.3149 15.3636 40.1856 15.0383 40.1516 14.8455ZM42.9219 15.6645C43.1945 15.711 43.4951 15.0636 43.8547 15.0156C44.0225 14.9933 44.1841 15.0386 44.2318 15.1835C43.8685 15.2137 43.7838 15.2971 43.5498 15.5867C43.3887 15.786 43.3943 15.7667 43.1702 15.8694C42.979 15.9571 42.9951 16.015 42.8894 16.1911C42.8195 16.1519 42.8055 16.0605 42.7046 16.0396C42.5784 16.0135 42.5434 16.09 42.4872 16.1516C41.9641 16.1122 41.2179 15.2707 41.6828 15.1775C41.7568 15.4051 41.82 15.3959 42.0448 15.6334C42.1716 15.7675 42.2488 15.853 42.4077 15.8846C42.5625 15.9155 42.4308 15.9061 42.5475 15.957C42.6007 15.8973 42.5455 15.9541 42.5787 15.8579C42.5979 15.8023 42.657 15.7462 42.6937 15.7025C42.7196 15.6716 42.7414 15.6462 42.7598 15.6223C43.03 15.27 43.0235 15.43 43.3476 15.0246C43.3494 15.0223 43.3735 14.9901 43.3746 14.9887C43.3761 14.9866 43.4336 14.9044 43.4343 14.9026C43.4691 14.8203 43.4279 14.7634 43.4687 14.6369C43.5637 14.6044 43.7384 14.6911 43.5229 14.9326C43.3299 15.1488 43.3635 15.2593 43.0335 15.5493C43.0055 15.574 42.9322 15.6136 42.9219 15.6645ZM42.6171 14.6416C42.6381 14.4293 42.8097 14.6595 42.8139 14.6624C42.9066 14.7279 42.9837 14.6703 43.0885 14.7924C43.081 14.8739 43.0209 14.9157 42.9848 15.0022C42.9344 15.1232 42.9729 15.0437 42.8492 15.183L42.648 15.178C42.6121 15.2506 42.6937 15.1956 42.6422 15.2611C42.6163 15.2941 42.5652 15.2961 42.5166 15.3185C42.4246 15.3607 42.326 15.4469 42.3364 15.2474C42.2225 15.2347 42.1298 15.2301 42.1662 15.0982C42.1679 15.0918 42.1848 15.0451 42.1877 15.0339C42.2195 14.9114 42.1448 14.8796 42.2385 14.8486L42.2676 14.8602C42.3582 14.9191 42.3014 14.9112 42.4786 14.9344C42.4874 15.0303 42.453 15.0142 42.4278 15.1086C42.4757 15.0528 42.4979 15.0378 42.5195 14.9342C42.7175 14.8745 42.7452 14.9081 42.7317 14.6847L42.6699 14.6584C42.6444 14.6492 42.6562 14.6617 42.6171 14.6416ZM38.6864 14.7231C38.7667 14.6366 38.7035 14.5034 38.7669 14.4257C38.856 14.474 38.8729 14.6249 38.871 14.7496C38.8645 15.1895 38.5291 15.0651 38.5587 14.6407C38.5677 14.5108 38.5999 14.5126 38.5976 14.3832C38.5945 14.2156 38.5739 14.2321 38.6663 14.1828C38.6975 14.2564 38.7178 14.3905 38.7109 14.4917C38.696 14.7099 38.6172 14.5086 38.6864 14.7231ZM42.6827 14.3821C42.692 14.3092 42.6911 14.3344 42.6823 14.2627L42.6551 14.1589C42.6537 14.155 42.6512 14.1477 42.648 14.1428C42.5304 14.1677 42.6289 14.1382 42.5671 14.2085C42.5255 14.2559 42.6061 14.2153 42.5274 14.2476C42.5239 14.2412 42.5201 14.2244 42.519 14.2274L42.5036 14.1454C42.5114 14.0015 42.648 14.0576 42.7687 14.0431C42.8064 14.1107 42.7936 14.0954 42.8532 14.1348L42.8867 14.0309C43.019 13.9926 42.921 14.0467 43.0503 14.0395C43.0839 13.9821 43.0557 14.0314 43.0695 13.9718L43.0905 13.8874L43.1509 13.8897C43.245 14.1671 43.0143 14.0986 42.9507 14.2102C42.9149 14.2731 42.9206 14.3506 42.9234 14.426L42.9455 14.5221C43.0348 14.5213 42.9953 14.4928 43.1023 14.5188C43.0649 14.8208 42.7691 14.4913 42.6849 14.4801C42.4835 14.4533 42.2473 14.5224 42.1535 14.7171C42.1488 14.713 42.1417 14.7008 42.1396 14.7048L42.0962 14.652C42.0825 14.6246 42.0807 14.5949 42.0764 14.5687C42.059 14.4619 42.0433 14.4569 42.0284 14.3806C42.0102 14.2874 42.0526 14.0476 42.085 13.9829C42.1856 13.9998 42.1213 14.0187 42.1269 14.1414C42.2632 14.2194 42.2259 14.2267 42.2861 14.123C42.3453 14.2021 42.3689 14.2147 42.3858 14.2753C42.3423 14.3338 42.3527 14.3006 42.2979 14.3511C42.2853 14.3627 42.2789 14.371 42.2722 14.3795C42.334 14.4939 42.3251 14.4427 42.431 14.4204C42.5313 14.3994 42.634 14.432 42.6827 14.3821ZM38.9442 14.1658C38.8303 13.9924 38.8823 14.0787 38.9982 13.6406L39.0283 13.5523C39.1164 13.6916 39.0423 14.0355 38.9442 14.1658ZM43.1864 13.646C43.3127 13.6388 43.5222 13.6602 43.5927 13.7368C43.6369 13.785 43.6262 13.8984 43.627 13.9744C43.6282 14.0982 43.638 14.1125 43.5731 14.187C43.4841 14.1645 43.4171 14.0154 43.3464 13.9361C43.2651 13.8448 43.1562 13.8218 43.1864 13.646ZM42.1165 13.7151L42.2748 13.6786L42.2671 13.8142C42.2423 13.803 42.2171 13.795 42.1898 13.7822C42.0525 13.7176 42.1537 13.7569 42.1165 13.7151ZM42.4496 13.7895C42.3792 13.5659 42.5966 13.6006 42.8137 13.6269C42.8673 13.6335 42.921 13.6261 42.9828 13.6316L42.9893 13.715L42.8691 13.7365L42.8601 13.8956C42.7841 13.9012 42.7724 13.9171 42.7598 13.8417C42.7477 13.7698 42.7691 13.7173 42.7864 13.6543C42.7012 13.6761 42.6926 13.6861 42.6221 13.7306C42.5035 13.8054 42.5382 13.7973 42.4496 13.7895ZM36.0014 14.6199C36.003 14.2135 36.0147 14.4955 36.2342 13.9963C36.3278 13.7833 36.2681 13.6982 36.6753 13.5716C37.0322 13.4083 37.4843 13.3975 37.8335 13.5859C37.8464 13.7518 37.658 14.0385 37.5488 14.1549C37.4009 14.3126 37.1721 14.2214 37.0188 14.4928L36.812 14.8811C36.8797 14.8431 36.9363 14.7786 37.0153 14.7357C37.0153 14.7359 36.8764 15.0264 36.9771 15.1205C36.9944 15.1367 37.3506 15.1905 37.4708 15.0421C37.5838 14.9027 37.4402 14.8312 37.513 14.6994C37.5197 14.6871 37.5333 14.6661 37.5441 14.6472C37.5806 14.5828 37.5711 14.5879 37.6257 14.5436C37.6186 14.8806 37.6515 15.0915 37.435 15.3252C37.2172 15.5601 37.1436 15.4528 37.037 15.5468C36.954 15.6201 36.8097 15.8153 36.765 15.902C36.6978 16.0324 36.7964 16.0333 36.7357 16.1521C36.6387 16.1383 36.7058 16.1033 36.5107 16.0252C36.4121 15.9857 36.3545 15.9659 36.2442 15.9389C36.0346 15.8875 35.8389 15.8787 35.5999 15.9006C35.6173 15.7858 35.6536 15.6711 35.6855 15.5621C35.7161 15.4576 35.7389 15.345 35.7786 15.2333C35.8766 14.9576 35.9907 14.9352 36.0014 14.6199ZM38.1719 13.607C38.2195 13.5804 38.2135 13.5661 38.2641 13.5343C38.3557 13.6045 38.5191 13.7385 38.425 13.858C38.3757 13.8384 38.241 13.6756 38.1719 13.607ZM36.6393 13.4135C37.1599 13.2492 37.3004 13.3376 37.6187 13.2937C37.7468 13.2761 37.6191 13.2471 37.809 13.272C37.8888 13.2825 37.9696 13.2745 38.0441 13.2982C38.0471 13.2992 38.2748 13.406 38.1924 13.5055C38.17 13.5325 38.145 13.543 38.1233 13.5556C38.0515 13.529 37.9643 13.4006 37.7614 13.3689L37.7576 13.39C37.7574 13.3931 37.7571 13.4041 37.7572 13.4067C37.7574 13.4192 37.7633 13.4122 37.7614 13.4219C37.5181 13.4379 37.3803 13.3025 36.8828 13.4071C36.8186 13.4206 36.6941 13.4609 36.6393 13.4135ZM42.4068 14.2185C42.2817 14.0651 42.2756 13.289 42.4068 13.1578C42.5976 13.2129 42.359 13.3794 42.4386 13.9415C42.4542 14.0516 42.4703 14.1425 42.4068 14.2185ZM37.4864 13.1942C37.6749 12.9702 37.7376 12.9838 37.8443 13.0663C37.8924 13.1035 37.9154 13.1285 37.9353 13.2116L37.4864 13.1942ZM42.4557 13.0473C42.4636 12.991 42.4914 12.9279 42.5151 12.8831C42.579 12.7626 42.6857 12.6767 42.7377 12.4966C42.7884 12.7066 42.821 12.9158 42.8202 13.155C42.8191 13.504 42.8094 13.5327 42.4994 13.5696C42.5221 13.4274 42.6066 13.2326 42.5639 13.0864L42.4557 13.0473ZM36.6509 13.3062C36.6744 13.224 36.7779 13.1192 36.8531 13.0911C36.9272 13.0635 36.9631 13.0963 37.0217 13.0547C37.0682 13.0216 37.0592 12.9713 37.0979 12.9103L37.4137 12.9274L37.3248 13.1384C37.299 13.2003 37.3318 13.1785 37.2787 13.2048C36.9993 13.2044 36.8823 13.2669 36.6509 13.3062ZM36.4126 12.9611C36.4118 12.5936 36.4266 12.2 36.6805 12.6111C36.7787 12.7701 36.7826 12.9664 36.6566 13.1148L36.4708 13.2735C36.4347 13.1654 36.4129 13.1101 36.4126 12.9611ZM42.396 13.0135C42.332 13.1723 42.316 13.0197 42.3091 13.2615C42.306 13.3663 42.3255 13.5254 42.2689 13.587C42.2311 13.628 42.0588 13.667 42.0266 13.6285C41.9348 13.5188 42.1192 12.8164 42.5023 12.7691L42.396 13.0135ZM42.8431 12.6264C42.8475 12.6307 42.8532 12.6361 42.8563 12.6393C43.0711 12.8667 43.2023 13.1469 43.1661 13.4864L42.8748 13.4916C42.877 13.1556 42.8708 12.9574 42.8431 12.6264ZM38.057 13.2247C38.0415 13.0001 38.2253 12.8911 38.4058 12.77C38.4896 12.7138 38.5076 12.6836 38.5666 12.6639C38.5338 12.8203 38.4411 12.9257 38.3912 13.0792C38.3369 13.2462 38.2866 13.2847 38.1568 13.254C38.1287 13.2473 38.0955 13.2416 38.057 13.2247ZM38.1738 6.54088C38.2847 6.4737 38.5185 6.39404 38.6539 6.33645C39.086 6.15257 39.7438 5.88667 40.1947 5.84246C40.2526 5.95038 40.2747 6.1299 40.3196 6.2548C40.3666 6.38541 40.4192 6.51079 40.4724 6.63012C40.5553 6.81634 40.7407 7.21557 40.6947 7.46236C40.5274 7.51837 40.3321 7.56581 40.1576 7.62161C39.9863 7.67641 39.8331 7.73346 39.6434 7.79975L38.6462 8.18855C38.5793 8.06882 38.4693 7.52741 38.4178 7.34731L38.1738 6.54088ZM41.0493 8.30689C40.515 8.50111 39.8908 8.69674 39.1872 8.86673C39.1732 8.81167 39.1596 8.75653 39.1464 8.70136C39.1353 8.65534 39.1176 8.58769 39.1034 8.52184C39.1659 8.49528 39.2291 8.47002 39.2901 8.44521C39.4738 8.37045 39.6587 8.29832 39.8439 8.22729C40.1461 8.11144 40.4617 7.98666 40.7698 7.88858C40.7825 7.88457 40.805 7.87733 40.8243 7.87308C40.8278 7.87785 40.8311 7.88255 40.8336 7.88616C40.8793 7.9519 40.9072 8.03314 40.9387 8.10639C40.9704 8.1801 41.0053 8.24644 41.0493 8.30689ZM29.0545 19.7951C29.8668 23.4598 31.5015 27.0218 33.6677 29.8417C36.18 33.1121 39.415 35.4566 43.0263 36.6254C46.6379 35.4566 49.8725 33.1118 52.3845 29.8417C54.5512 27.0215 56.1859 23.4596 56.9982 19.7951C54.9341 17.9359 55.497 15.7621 55.9103 14.1666C56.2919 12.6939 56.5959 11.5211 55.7443 9.98246C54.2458 10.3258 52.7257 10.4999 51.2226 10.4999C47.2162 10.4999 44.2234 9.2627 43.0263 8.67393C42.3573 9.00298 41.1273 9.53452 39.473 9.93947C39.4285 9.77222 39.3832 9.6052 39.3381 9.43809C40.3151 9.20051 41.1406 8.91744 41.7859 8.65947L41.9684 8.6981L41.928 8.60187C42.3462 8.4302 42.6809 8.27239 42.9228 8.15053L43.0263 8.09822L43.1299 8.15053C44.2206 8.70006 47.1931 9.97844 51.2226 9.97844C52.747 9.97844 54.2899 9.79522 55.8086 9.43367L55.9752 9.39447L56.0667 9.54835C57.1426 11.3595 56.7719 12.7906 56.3793 14.3059C55.973 15.8738 55.4678 17.8255 57.4211 19.4924L57.5412 19.5946L57.5067 19.7548C56.6901 23.5514 55.005 27.2516 52.7605 30.1731C50.1706 33.5447 46.8286 35.9564 43.0956 37.1474L43.0263 37.1696L42.9571 37.1474C39.2244 35.9566 35.8823 33.5447 33.2917 30.1731C31.0478 27.2516 29.3623 23.5517 28.5458 19.7548L28.5113 19.5946L28.6313 19.4924C30.5847 17.8255 30.0794 15.8738 29.6729 14.3062C29.2805 12.7906 28.9096 11.3595 29.9857 9.54835L30.0773 9.39447L30.2438 9.43367C31.7623 9.79522 33.3055 9.97844 34.8298 9.97844C36.1308 9.97844 37.3214 9.84509 38.3743 9.64613C38.4161 9.81472 38.4583 9.98307 38.5015 10.1511C37.4124 10.3596 36.1786 10.4999 34.8298 10.4999C33.3271 10.4999 31.8064 10.3258 30.3081 9.98246C29.4568 11.5211 29.7603 12.6939 30.1421 14.1666C30.5555 15.7621 31.1187 17.9359 29.0545 19.7951ZM16.7344 44.0149C16.139 43.7656 15.6808 43.6373 14.983 43.7727C14.2246 43.915 13.6165 44.3718 13.1514 45.1471C13.017 45.3759 12.8898 45.6052 12.7698 45.8352L12.3663 46.6093L12.7401 47.7323C12.8422 48.0388 12.9514 48.346 13.0676 48.6539C13.4706 49.6996 14.0329 50.3851 14.7613 50.717C14.994 50.8249 15.2095 50.8949 15.4068 50.9241C15.6957 50.9601 16.0536 50.9145 16.4794 50.7846C16.4877 50.837 16.4861 50.9009 16.4708 50.9719C16.4585 51.0449 16.4097 51.1319 16.3323 51.2363C16.252 51.3387 16.1388 51.4454 15.9956 51.5583C15.8515 51.6686 15.6667 51.7595 15.4402 51.8286C15.0497 51.9477 14.6041 51.9566 14.1015 51.8559C13.1872 51.6731 12.442 51.153 11.8668 50.2983C11.5865 49.8817 11.3441 49.4352 11.1383 48.9546C10.9837 49.234 10.8125 49.5217 10.6251 49.8168C10.3725 50.2188 10.076 50.5784 9.73362 50.8998C9.10352 51.491 8.31807 51.7825 7.37824 51.7723C6.95784 51.7678 5.63229 51.4981 5.01562 50.4958C5.61102 50.745 6.06917 50.8733 6.767 50.738C7.52545 50.5956 8.13351 50.1389 8.59857 49.3636C8.73303 49.1348 8.86023 48.9054 8.98015 48.6754L9.92313 46.8667C9.92716 46.859 9.93133 46.8515 9.9354 46.8438L9.93554 46.8438L10.1944 46.3473L10.0483 45.9085L10.0482 45.9086C10.0447 45.8983 10.0411 45.8883 10.0377 45.878L9.2354 43.468C9.13342 43.1615 9.02424 42.8543 8.908 42.5464C8.50494 41.5007 7.94262 40.8152 7.21426 40.4833C6.98154 40.3753 6.76605 40.3054 6.56868 40.2762C6.27984 40.2402 5.92201 40.2858 5.49614 40.4157C5.48791 40.3633 5.48946 40.2994 5.50475 40.2284C5.51704 40.1554 5.56584 40.0684 5.64326 39.964C5.72354 39.8616 5.83678 39.7549 5.98 39.642C6.12404 39.5317 6.30883 39.4407 6.53529 39.3717C6.92582 39.2526 7.37138 39.2437 7.87398 39.3443C8.78839 39.5272 9.53359 40.0473 10.1087 40.902C10.4213 41.3665 10.6868 41.8684 10.907 42.413C11.1293 42.9569 11.3233 43.4777 11.4881 43.9728L11.5376 44.1214C11.6859 43.9413 11.8454 43.7713 12.0164 43.6109C12.6465 43.0196 13.4319 42.7281 14.3717 42.7383C14.9804 42.7448 16.2834 43.1454 16.7344 44.0149ZM24.8627 41.4462C25.2356 41.4462 25.6388 41.5128 26.0662 41.649C26.3908 41.7505 26.679 41.8883 26.9351 42.0624C27.183 42.2425 27.3806 42.4757 27.5298 42.7603C27.6769 43.0464 27.7777 43.3477 27.8322 43.6671C27.8967 44.1016 27.9269 44.5074 27.9269 44.8829V44.9495L27.933 45.3446V46.9896C28.1622 47.067 28.3839 47.1049 28.598 47.1049C28.8312 47.1049 29.0704 47.0599 29.3186 46.9679C29.7193 46.813 30.0123 46.5817 30.1917 46.274C30.3312 46.0371 30.4164 45.7922 30.4488 45.5395V44.8162C30.4488 44.6391 30.4912 44.4953 30.5739 44.3863C30.6565 44.2773 30.7633 44.1864 30.8924 44.1138C31.0214 44.0411 31.1665 43.9715 31.3238 43.9064C31.5012 43.8367 31.6725 43.7519 31.8398 43.6566C32.0072 43.5596 32.1543 43.4325 32.2814 43.2735C32.2814 46.7919 32.2854 48.7101 32.2975 49.0295C32.3055 49.3172 32.358 49.6306 32.4507 49.9697C32.5454 50.3103 32.7188 50.604 32.9708 50.8523C33.2228 51.1006 33.5897 51.2323 34.0695 51.2474C34.4525 51.2474 34.771 51.1854 35.0291 51.0597C35.2871 50.9341 35.4807 50.7736 35.6117 50.5798C35.7407 50.386 35.8072 50.1877 35.8072 49.9833C35.8072 49.738 35.7084 49.5155 35.5129 49.3157C35.3194 49.1158 35.023 48.9932 34.6259 48.9463C34.5614 48.9402 34.5009 48.9372 34.4424 48.9372C34.261 48.9372 34.0836 48.9644 33.9102 49.0189C33.7369 49.0734 33.5796 49.1567 33.4385 49.2702C33.3478 49.1128 33.3014 48.9659 33.3014 48.8297C33.3014 48.6405 33.372 48.4754 33.5151 48.3316C33.6562 48.1878 33.8437 48.0757 34.0755 47.997C34.3074 47.9168 34.5553 47.8774 34.8194 47.8774C35.0835 47.8774 35.3456 47.9228 35.6056 48.0137C35.8657 48.106 36.0935 48.2529 36.2911 48.4557C36.4866 48.6586 36.6298 48.922 36.7164 49.2475C36.7386 49.3535 36.7507 49.4595 36.7507 49.567C36.7507 49.7532 36.7225 49.9318 36.662 50.1029C36.4624 50.6479 36.0673 51.0764 35.4807 51.3897C34.894 51.7032 34.2549 51.8591 33.5615 51.8591C32.9829 51.8591 32.4507 51.7486 31.9669 51.5275C31.6177 51.3558 31.329 51.1508 31.1009 50.912C30.6191 50.4077 30.4488 49.4598 30.4488 48.7911V47.5471C29.5066 47.9932 28.8936 48.2295 27.933 48.5392V49.2611C27.933 49.4882 27.9937 49.7062 28.1144 49.9152C28.1492 49.9754 28.19 50.0314 28.2376 50.083L28.7798 50.7459C28.6691 50.9778 28.2611 51.6527 28.187 51.8379C27.5963 51.5306 27.1528 51.2338 26.8564 50.9477C26.5581 50.663 26.3585 50.3527 26.2597 50.0196C26.1589 49.685 26.1065 49.2884 26.1025 48.8297C26.1025 48.6586 26.1105 48.486 26.1266 48.3119V45.3446L26.1146 44.7768C26.1146 44.3893 26.1005 44.0199 26.0722 43.6671C26.0259 43.1479 25.8727 42.7512 25.6126 42.4787C25.4775 42.3424 25.3243 42.2289 25.1509 42.1351C24.9776 42.0427 24.8083 41.9731 24.6429 41.9261C24.4777 41.8807 24.3023 41.8534 24.1188 41.8428C23.9333 41.8323 23.7801 41.8262 23.6572 41.8262C23.6652 41.7974 23.6854 41.7641 23.7196 41.7293C23.7539 41.6945 23.8204 41.6551 23.9212 41.6143C24.02 41.5734 24.149 41.534 24.3063 41.4992C24.4655 41.4629 24.649 41.4462 24.8627 41.4462ZM22.7698 51.8591C22.3184 51.8591 21.964 51.7505 21.7085 51.5353C21.4531 51.3181 21.2726 51.0236 21.1691 50.6477C20.9974 51.0111 20.7684 51.3035 20.4822 51.5249C20.196 51.7484 19.8283 51.8591 19.3769 51.8591C19.0621 51.8591 18.7649 51.8027 18.4831 51.6899C18.2012 51.5792 17.9458 51.41 17.719 51.1865C17.4658 50.9296 17.2743 50.6268 17.1488 50.2801C17.0211 49.9334 16.9573 49.5804 16.9573 49.2212C16.9573 49.006 16.9815 48.7909 17.0277 48.58C17.1841 47.9597 17.4681 47.4563 17.8798 47.0678C18.2937 46.6793 18.7803 46.341 19.3439 46.0527C19.6323 45.9003 19.9384 45.7499 20.2598 45.5995C20.8146 45.351 21.3386 45.0711 21.8318 44.7641C22.3228 44.457 22.6773 44.0811 22.893 43.6404V49.6681C22.893 49.877 22.9084 50.0483 22.9437 50.1819C22.9789 50.3177 23.0472 50.4159 23.1528 50.4827C23.2585 50.5475 23.4127 50.5809 23.6152 50.5809C23.82 50.5809 23.9961 50.5224 24.137 50.4054C24.2779 50.2884 24.388 50.1443 24.4651 49.9689C24.5421 49.7934 24.5884 49.6096 24.6016 49.4175H25.1828C25.1123 49.9563 24.9847 50.3845 24.7953 50.702C24.639 50.9756 24.4496 51.2053 24.2273 51.3933C23.8662 51.7045 23.3796 51.8591 22.7698 51.8591ZM19.9252 50.5976C20.0418 50.5976 20.1673 50.5683 20.306 50.5056C20.5196 50.4012 20.6715 50.2425 20.7596 50.0357C20.8477 49.8269 20.8917 49.6117 20.8917 49.3861V46.1446L20.5438 46.3326C20.0198 46.6188 19.6433 46.9237 19.4144 47.2453C19.1194 47.6651 18.9696 48.2416 18.9696 48.9768C18.9696 49.5804 19.1083 50.0399 19.3836 50.3532C19.5244 50.5161 19.705 50.5976 19.9252 50.5976ZM42.6628 51.8591C41.5013 51.8591 40.5959 51.4437 39.9486 50.6151C39.3033 49.7844 38.9807 48.5551 38.9807 46.9251V45.9274C38.9807 45.3973 39.0639 44.9423 39.2305 44.5624C39.397 44.1805 39.6155 43.8528 39.8861 43.5794C40.1567 43.3081 40.4502 43.0701 40.7666 42.8718C41.0829 42.6715 41.3972 42.4899 41.7053 42.3271C42.08 42.1351 42.4026 41.941 42.6753 41.7448C42.9479 41.5507 43.1228 41.3232 43.1998 41.0665C44.4362 41.9222 45.0544 42.7216 45.0544 43.4646C45.0544 43.7296 44.9815 43.9905 44.8379 44.2473C44.6922 44.504 44.5028 44.7002 44.2634 44.8358C44.0261 44.9736 43.7597 45.0425 43.4621 45.0425V44.6188C43.4621 44.3057 43.3996 44.0051 43.2768 43.7171C43.1519 43.4312 42.95 43.2162 42.669 43.0722C42.4983 42.9866 42.3318 42.9449 42.1695 42.9449C42.003 42.9449 41.8344 42.9866 41.6637 43.0722C41.3869 43.2162 41.185 43.4312 41.0601 43.7171C40.9331 44.0051 40.8707 44.3057 40.8707 44.6188V46.8332C40.8707 47.2569 40.9081 47.7119 40.983 48.2003C41.058 48.6866 41.1995 49.1333 41.4035 49.5423C41.6096 49.9494 41.903 50.2457 42.286 50.4294C42.5982 50.5588 42.9479 50.6235 43.333 50.6235C43.6182 50.6235 43.9012 50.5901 44.1822 50.5233C44.4612 50.4565 44.7047 50.3584 44.9066 50.2332C45.3187 49.9765 45.6351 49.63 45.8578 49.1938L46.1992 49.3336C46.0576 49.893 45.812 50.3584 45.4623 50.7341C45.1126 51.1098 44.6943 51.3916 44.2093 51.5773C43.7223 51.7651 43.2081 51.8591 42.6628 51.8591ZM51.6942 51.8591C51.2675 51.8591 50.9324 51.7505 50.6909 51.5356C50.4495 51.3185 50.2788 51.0242 50.181 50.6485C50.0186 51.0117 49.8022 51.3039 49.5315 51.5251C49.261 51.7485 48.9134 51.8591 48.4867 51.8591C48.189 51.8591 47.908 51.8027 47.6416 51.69C47.3752 51.5794 47.1337 51.4103 46.9193 51.187C46.68 50.9303 46.4989 50.6277 46.3802 50.2812C46.2595 49.9347 46.1992 49.582 46.1992 49.223C46.1992 49.008 46.2221 48.7931 46.2658 48.5823C46.4135 47.9624 46.682 47.4594 47.0713 47.0712C47.4626 46.683 47.9226 46.3449 48.4555 46.0568C48.7281 45.9045 49.0174 45.7542 49.3213 45.6039C49.8459 45.3555 50.3412 45.0759 50.8075 44.769C51.2716 44.4623 51.6068 44.0865 51.8108 43.6462V49.6697C51.8108 49.8784 51.8253 50.0495 51.8586 50.1831C51.8919 50.3188 51.9564 50.4169 52.0563 50.4837C52.1563 50.5483 52.302 50.5817 52.4935 50.5817C52.687 50.5817 52.8535 50.5233 52.9867 50.4064C53.12 50.2895 53.2241 50.1455 53.2969 49.9702C53.3697 49.7949 53.4135 49.6112 53.4259 49.4192H53.9754C53.9088 49.9577 53.7881 50.3856 53.6091 50.7028C53.4613 50.9762 53.2823 51.2058 53.0721 51.3936C52.7307 51.7046 52.2707 51.8591 51.6942 51.8591ZM49.0049 50.5984C49.1153 50.5984 49.2339 50.5693 49.3651 50.5066C49.5669 50.4023 49.7106 50.2436 49.7938 50.037C49.8771 49.8283 49.9187 49.6133 49.9187 49.3879V46.1487L49.5898 46.3365C49.0945 46.6225 48.7385 46.9272 48.522 47.2486C48.2431 47.6681 48.1016 48.2441 48.1016 48.9788C48.1016 49.582 48.2327 50.0412 48.4929 50.3542C48.6261 50.5171 48.7968 50.5984 49.0049 50.5984ZM53.7793 55.9258C53.5399 55.9258 53.3334 55.9057 53.1591 55.8646C52.9852 55.8236 52.8437 55.7786 52.7369 55.7318C52.6283 55.6842 52.5547 55.6387 52.5193 55.599C52.4829 55.5583 52.4605 55.5204 52.4518 55.4872C52.5889 55.4872 52.7543 55.4802 52.9523 55.468C53.1503 55.4558 53.3378 55.4251 53.516 55.3719C53.6947 55.3185 53.8776 55.238 54.0644 55.1307C54.2519 55.023 54.4183 54.8926 54.5627 54.7341C54.8448 54.4243 55.0125 53.9655 55.0589 53.3624C55.1914 51.6395 55.1177 50.921 55.1177 49.1908C55.1177 48.9863 55.1612 48.8204 55.2504 48.6945C55.3396 48.5687 55.4549 48.4639 55.5964 48.38C55.7357 48.2961 55.8902 48.2175 56.0599 48.1423C56.2514 48.0602 56.4386 47.9641 56.6192 47.8523C56.7998 47.7422 56.9587 47.5937 57.0936 47.4102V51.3715C57.4549 51.368 57.7944 51.3435 58.1143 51.2981C58.432 51.2509 58.7192 51.1496 58.9739 50.9923C59.3743 50.7372 59.5745 50.4069 59.5745 50.005C59.5745 49.3812 59.1458 48.7085 58.2927 47.9886C57.6638 47.4556 56.9217 46.9577 56.0665 46.4929C55.7052 46.3024 55.3723 46.0927 55.0654 45.8638C54.628 45.5388 54.4104 45.1963 54.4104 44.8346C54.4104 44.5987 54.4887 44.3838 54.6454 44.1863C54.8021 43.9906 54.998 43.8089 55.2286 43.6394C55.4593 43.4699 55.6922 43.3127 55.9272 43.1659L56.2775 42.9404C56.1448 43.0663 56.0208 43.2043 55.9011 43.3528C55.7814 43.5014 55.7226 43.6604 55.7226 43.8316C55.7226 44.0867 55.9228 44.3541 56.3211 44.6302C56.6279 44.8451 57.0022 45.0775 57.444 45.3256C57.814 45.5336 58.2013 45.766 58.6039 46.0193C59.0087 46.2744 59.4069 46.5593 59.7964 46.8773C60.0946 47.1202 60.3688 47.377 60.619 47.6496C61.1674 48.2577 61.4417 48.8518 61.4417 49.4319C61.4417 49.5787 61.4242 49.7255 61.3916 49.8723C61.285 50.3056 60.9803 50.6866 60.4798 51.0133C59.8879 51.3995 59.1393 51.6685 58.234 51.8223C57.8401 51.873 57.4592 51.8992 57.0936 51.8992C57.0936 53.0247 56.7375 54.5656 55.9903 55.2146C55.7323 55.4387 55.4032 55.5778 55.0545 55.6969C54.6002 55.8521 54.1732 55.9258 53.7793 55.9258ZM67.6667 51.8591C67.24 51.8591 66.9049 51.7505 66.6635 51.5356C66.422 51.3185 66.2513 51.0242 66.1535 50.6485C65.9912 51.0117 65.7747 51.3039 65.5041 51.5251C65.2335 51.7485 64.8859 51.8591 64.4592 51.8591C64.1615 51.8591 63.8805 51.8027 63.6141 51.69C63.3477 51.5794 63.1063 51.4103 62.8919 51.187C62.6525 50.9303 62.4714 50.6277 62.3528 50.2812C62.232 49.9347 62.1717 49.582 62.1717 49.223C62.1717 49.008 62.1946 48.7931 62.2383 48.5823C62.3861 47.9624 62.6546 47.4594 63.0438 47.0712C63.4351 46.683 63.8951 46.3449 64.428 46.0568C64.7007 45.9045 64.99 45.7542 65.2938 45.6039C65.8184 45.3555 66.3137 45.0759 66.78 44.769C67.2442 44.4623 67.5793 44.0865 67.7833 43.6462V49.6697C67.7833 49.8784 67.7978 50.0495 67.8311 50.1831C67.8644 50.3188 67.929 50.4169 68.0289 50.4837C68.1288 50.5483 68.2745 50.5817 68.466 50.5817C68.6596 50.5817 68.8261 50.5233 68.9593 50.4064C69.0925 50.2895 69.1966 50.1455 69.2694 49.9702C69.3423 49.7949 69.386 49.6112 69.3985 49.4192H69.948C69.8814 49.9577 69.7606 50.3856 69.5816 50.7028C69.4339 50.9762 69.2548 51.2058 69.0446 51.3936C68.7033 51.7046 68.2433 51.8591 67.6667 51.8591ZM64.9775 50.5984C65.0878 50.5984 65.2064 50.5693 65.3376 50.5066C65.5395 50.4023 65.6831 50.2436 65.7663 50.037C65.8496 49.8283 65.8912 49.6133 65.8912 49.3879V46.1487L65.5624 46.3365C65.067 46.6225 64.711 46.9272 64.4946 47.2486C64.2157 47.6681 64.0741 48.2441 64.0741 48.9788C64.0741 49.582 64.2053 50.0412 64.4655 50.3542C64.5986 50.5171 64.7693 50.5984 64.9775 50.5984ZM69.9417 41.6882C70.2881 41.6882 70.6627 41.7536 71.0597 41.8873C71.3612 41.9869 71.629 42.1222 71.8668 42.2931C72.0972 42.4701 72.2807 42.6989 72.4193 42.9784C72.556 43.2593 72.6496 43.5551 72.7002 43.8688C72.7601 44.2954 72.7882 44.6937 72.7882 45.0624V45.1278L72.7938 45.5157V49.3611C72.7938 49.5841 72.85 49.7981 72.9624 50.0033C73.0729 50.2069 73.2545 50.36 73.5073 50.4626C73.6646 50.5235 73.8163 50.5532 73.9624 50.5532C74.1084 50.5532 74.2583 50.5235 74.4137 50.4626C74.6646 50.36 74.8482 50.2069 74.9606 50.0033C75.0748 49.7981 75.131 49.5841 75.131 49.3611V44.997C75.131 44.823 75.1703 44.6818 75.2471 44.5748C75.3239 44.4678 75.4231 44.3786 75.5429 44.3073C75.6628 44.2359 75.7976 44.1675 75.9437 44.1036C76.1085 44.0352 76.2677 43.952 76.4231 43.8583C76.5785 43.7632 76.7153 43.6384 76.8332 43.4823C76.8332 46.9367 76.837 48.8201 76.8482 49.1337C76.8557 49.4161 76.9044 49.7238 76.9906 50.0568C77.0786 50.3912 77.2396 50.6796 77.4737 50.9234C77.7078 51.1671 78.0486 51.2965 78.4943 51.3113C78.8501 51.3113 79.146 51.2504 79.3857 51.127C79.6255 51.0036 79.8052 50.8461 79.927 50.6558C80.0468 50.4655 80.1086 50.2708 80.1086 50.0702C80.1086 49.8294 80.0168 49.6108 79.8352 49.4146C79.6554 49.2184 79.3801 49.098 79.0112 49.052C78.9513 49.046 78.8951 49.043 78.8408 49.043C78.6722 49.043 78.5075 49.0698 78.3464 49.1233C78.1854 49.1768 78.0393 49.2586 77.9082 49.3701C77.8239 49.2155 77.7809 49.0713 77.7809 48.9375C77.7809 48.7517 77.8464 48.5896 77.9793 48.4484C78.1104 48.3072 78.2846 48.1973 78.5 48.1199C78.7153 48.0412 78.9456 48.0025 79.191 48.0025C79.4363 48.0025 79.6798 48.0471 79.9213 48.1363C80.1629 48.227 80.3745 48.3712 80.558 48.5703C80.7397 48.7695 80.8727 49.0282 80.9532 49.3477C80.9738 49.4518 80.985 49.5558 80.985 49.6614C80.985 49.8442 80.9588 50.0196 80.9026 50.1876C80.7172 50.7227 80.3502 51.1434 79.8052 51.451C79.2603 51.7587 78.6666 51.9118 78.0224 51.9118C77.4849 51.9118 76.9906 51.8033 76.5411 51.5863C76.0149 51.3128 75.6366 50.9531 75.4062 50.5057C75.0579 50.6915 74.7152 50.8535 74.3762 50.9917C74.0391 51.1299 73.747 51.2682 73.5017 51.4079C73.2564 51.5462 73.0991 51.7082 73.0298 51.891C72.4811 51.5893 72.0691 51.2979 71.7938 51.017C71.5166 50.7376 71.3312 50.4328 71.2395 50.1058C71.1458 49.7773 71.0971 49.3879 71.0934 48.9375C71.0934 48.7695 71.1009 48.6001 71.1159 48.4291V45.5157L71.1046 44.9583C71.1046 44.5778 71.0915 44.2151 71.0653 43.8688C71.0222 43.3589 70.8799 42.9695 70.6384 42.7019C70.5128 42.5681 70.3705 42.4567 70.2095 42.3645C70.0484 42.2738 69.8911 42.2055 69.7376 42.1594C69.584 42.1148 69.4211 42.088 69.2507 42.0776C69.0784 42.0672 68.936 42.0613 68.8218 42.0613C68.8293 42.033 68.848 42.0003 68.8799 41.9661C68.9117 41.9319 68.9735 41.8933 69.0671 41.8531C69.1589 41.813 69.2788 41.7744 69.4248 41.7402C69.5727 41.7045 69.7432 41.6882 69.9417 41.6882Z" fill="#A67C36"/>
</g>
</svg>
