<svg width="21" height="20" viewBox="0 0 21 20" fill="none" xmlns="http://www.w3.org/2000/svg">
<g id="phone">
<path id="Vector" d="M18.3801 14.1014V16.6014C18.381 16.8335 18.3335 17.0632 18.2405 17.2758C18.1475 17.4885 18.0112 17.6794 17.8401 17.8363C17.6691 17.9932 17.4672 18.1126 17.2474 18.187C17.0275 18.2613 16.7945 18.2889 16.5634 18.268C13.9991 17.9894 11.5359 17.1132 9.37174 15.7097C7.35826 14.4303 5.65118 12.7232 4.37174 10.7097C2.96339 8.53572 2.08694 6.06054 1.8134 3.48472C1.79258 3.25427 1.81997 3.02202 1.89382 2.80274C1.96768 2.58346 2.08638 2.38196 2.24238 2.21107C2.39837 2.04018 2.58824 1.90364 2.7999 1.81015C3.01155 1.71666 3.24036 1.66827 3.47174 1.66805H5.97174C6.37616 1.66407 6.76823 1.80728 7.07487 2.07099C7.38151 2.33471 7.5818 2.70092 7.6384 3.10138C7.74392 3.90144 7.93961 4.68699 8.22174 5.44305C8.33386 5.74132 8.35812 6.06548 8.29166 6.37712C8.2252 6.68875 8.07079 6.97481 7.84674 7.20138L6.7884 8.25972C7.9747 10.346 9.70212 12.0734 11.7884 13.2597L12.8467 12.2014C13.0733 11.9773 13.3594 11.8229 13.671 11.7565C13.9826 11.69 14.3068 11.7143 14.6051 11.8264C15.3611 12.1085 16.1467 12.3042 16.9467 12.4097C17.3515 12.4668 17.7212 12.6707 17.9855 12.9826C18.2498 13.2945 18.3902 13.6927 18.3801 14.1014Z" stroke="white" stroke-width="1.5" stroke-linecap="round" stroke-linejoin="round"/>
</g>
</svg>
