<svg width="120" height="86" viewBox="0 0 120 86" fill="none" xmlns="http://www.w3.org/2000/svg">
<g id="Xan Saray Logo">
<path id="Vector" fill-rule="evenodd" clip-rule="evenodd" d="M103.208 56.8915C102.944 57.2957 102.873 57.8122 102.995 58.4386C103.108 58.9349 103.287 59.3281 103.534 59.6232C103.782 59.9182 104.058 60.1188 104.36 60.2279C104.662 60.3345 104.952 60.3586 105.23 60.2947C105.565 60.218 105.838 60.0204 106.053 59.7045C106.268 59.3913 106.347 58.969 106.293 58.4397C106.282 58.3543 106.269 58.275 106.251 58.1992C106.198 57.9641 106.108 57.7428 105.983 57.5352C105.857 57.3277 105.697 57.1499 105.501 57.0026C105.688 56.8358 105.875 56.7298 106.06 56.6872C106.318 56.628 106.564 56.6678 106.802 56.8083C107.039 56.9461 107.247 57.154 107.423 57.4298C107.601 57.7051 107.728 58.014 107.806 58.3562C107.884 58.6984 107.9 59.0521 107.853 59.4175C107.805 59.7833 107.672 60.1243 107.454 60.4438C107.236 60.7606 106.919 61.0285 106.502 61.2425C106.364 61.3045 106.223 61.3533 106.077 61.3869C105.823 61.4452 105.571 61.4665 105.321 61.4396C104.519 61.3536 103.697 61.2872 103.121 60.6038C100.774 57.8197 103.304 56.744 103.208 56.8915ZM38.4223 27.7712C40.8806 40.561 49.3191 50.8631 60.0368 54.1323C70.7541 50.8631 79.1929 40.561 81.6512 27.7712C78.6258 25.6385 79.2578 23.1993 79.8697 20.8373C80.5016 18.397 81.1548 15.8759 78.8497 12.6204C68.9082 15.2738 61.5821 11.6466 60.0368 10.782C59.741 10.9475 59.2327 11.2144 58.5355 11.5189L58.0473 10.8134L58.0414 10.8059C58.0401 10.8042 58.0388 10.8024 58.0375 10.8007L58.0372 10.5553C58.0371 10.4929 58.0359 10.4332 58.033 10.3758C59.1192 9.91383 59.7242 9.54763 59.7456 9.53429L60.0361 9.354L60.3283 9.53465C60.4063 9.58298 68.2284 14.3199 78.9255 11.3145L79.2884 11.2127L79.5245 11.5252C82.4763 15.4313 81.6516 18.6133 80.9893 21.1702C80.3847 23.5044 79.9756 25.0831 82.2435 26.6987C82.9546 26.1092 83.6176 25.5876 84.0844 25.2379C84.342 25.045 84.5849 24.5848 84.5034 23.9182C84.4049 23.285 85.4253 22.7959 85.5731 23.7213C85.5969 23.837 86.0215 22.936 85.2324 22.6306C84.6754 22.3988 84.317 23.2988 84.2704 23.3374C83.721 23.8171 83.0887 21.95 84.5831 21.5578C85.3718 21.3541 86.1371 21.9577 86.3558 22.7179C86.3955 22.0361 85.922 21.6877 86.4773 21.2356C86.8559 20.9266 87.5001 21.3049 87.2466 22.513C90.0779 19.1556 86.5006 15.9675 84.8751 18.0454C84.0548 19.0944 85.9235 21.0164 86.2839 18.576C86.3289 18.2703 86.9105 18.4201 87.109 18.9081C87.6751 20.1915 85.4173 21.8278 84.1719 19.9565C83.1383 18.4664 84.4795 16.7697 85.8466 16.6458C87.5432 16.4916 89.0496 17.7726 89.0489 20.0689C89.0478 21.9544 87.6392 23.4344 85.9655 24.7844C88.4977 23.5431 90.2049 24.2478 90.8755 25.0137C91.6773 25.9295 91.2692 26.9816 90.5815 26.4369C90.0242 25.9957 89.7479 25.4627 88.861 25.2119C88.8209 25.2004 88.7939 25.192 88.7681 25.1839C89.0898 25.3145 90.3398 25.9559 90.1242 27.5109C89.8737 29.6648 87.5925 30.1056 87.0765 28.5457C86.7896 27.6624 87.3977 26.1349 87.794 27.6331C88.1567 28.8842 89.0334 28.2253 89.2221 27.3449C89.5835 25.6198 86.7715 25.0325 85.1138 25.6986C84.7372 25.8439 84.3246 26.0805 83.9344 26.3374C83.5816 26.604 83.2375 26.8699 82.911 27.1373L82.9481 27.161L82.87 27.5905C81.7311 33.8728 79.1649 39.7504 75.4481 44.5886C71.3792 49.8857 66.104 53.6164 60.1923 55.379L60.0368 55.4257L59.8812 55.379C53.9698 53.6164 48.6942 49.8857 44.6254 44.5886C40.9085 39.7504 38.3423 33.8728 37.2038 27.5905L37.1272 27.1689C36.7893 26.8908 36.4319 26.6145 36.0656 26.3374C35.6751 26.0805 35.2628 25.8439 34.8857 25.6986C33.2281 25.0325 30.4165 25.6198 30.7775 27.3449C30.9662 28.2253 31.8425 28.8842 32.2055 27.6331C32.6018 26.1349 33.21 27.6624 32.9227 28.5457C32.4072 30.1056 30.1259 29.6648 29.8754 27.5109C29.6598 25.9559 30.9098 25.3145 31.2311 25.1839C31.2061 25.192 31.1788 25.2004 31.1387 25.2119C30.2516 25.4627 29.9758 25.9957 29.4181 26.4369C28.7301 26.9816 28.3224 25.9295 29.1241 25.0137C29.7948 24.2478 31.502 23.5431 34.034 24.7844C32.3605 23.4344 30.9522 21.9544 30.9511 20.0689C30.9499 17.7726 32.4563 16.4916 34.153 16.6458C35.5196 16.7697 36.8612 18.4664 35.8277 19.9565C34.5826 21.8278 32.3249 20.1915 32.8906 18.9081C33.0887 18.4201 33.6707 18.2703 33.7161 18.576C34.0762 21.0164 35.9444 19.0944 35.1241 18.0454C33.4991 15.9675 29.9217 19.1556 32.7534 22.513C32.4996 21.3049 33.1437 20.9266 33.5222 21.2356C34.078 21.6877 33.6045 22.0361 33.6437 22.7179C33.8619 21.9577 34.6278 21.3541 35.4166 21.5578C36.9109 21.95 36.2781 23.8171 35.7288 23.3374C35.6826 23.2988 35.3246 22.3988 34.7671 22.6306C33.978 22.936 34.4028 23.837 34.4269 23.7213C34.5744 22.7959 35.595 23.285 35.4962 23.9182C35.4147 24.5848 35.6579 25.045 35.9151 25.2379C36.3894 25.5931 37.066 26.1257 37.7899 26.7267C40.102 25.1013 39.6919 23.5179 39.0843 21.1702C38.4216 18.6133 37.5971 15.4313 40.549 11.5252L40.785 11.2127L41.148 11.3145C45.7092 12.5954 49.7472 12.4687 52.8856 11.8986C52.9926 12.3099 53.0949 12.7224 53.1963 13.1352C50.0056 13.7266 45.905 13.8698 41.2238 12.6204C38.9191 15.8759 39.5718 18.397 40.2042 20.8378C40.8157 23.1993 41.4477 25.6385 38.4223 27.7712ZM63.8537 45.5896C63.7134 45.4348 63.687 45.3312 63.9229 45.0724C63.968 45.023 63.9425 45.0421 63.9965 44.997C64.0524 44.9505 63.9884 44.979 64.0713 44.9539C64.0774 45.1033 64.0077 45.2961 63.9445 45.431L63.8537 45.5896ZM50.4418 20.6768C50.2949 21.2771 50.3309 21.1292 50.2391 21.7477C50.1667 22.236 50.1028 22.2886 49.9115 22.6528C49.9323 22.6872 49.9173 22.7044 50.0274 22.7625C50.2249 22.5528 50.5409 21.7482 50.6579 21.4231C50.6531 21.4176 50.6453 21.402 50.6431 21.4072C50.6409 21.4123 50.444 21.2125 50.4574 21.1076C50.4757 20.9649 50.5213 20.7596 50.6032 20.6851C50.6379 20.5689 50.6544 20.5889 50.6682 20.5365C50.7205 20.3376 50.688 20.4864 50.6587 20.4247C50.4857 20.4695 50.549 20.5826 50.4418 20.6768ZM50.1996 24.1548C50.0678 24.1866 49.5069 24.7799 49.9048 25.0311C50.2639 25.2578 50.062 24.706 50.062 24.7057C50.0388 24.4345 50.3277 24.4609 50.1996 24.1548ZM52.5439 8.76178C52.4823 8.74567 52.5095 8.75223 52.4688 8.72318C52.4469 8.70757 52.4135 8.67354 52.3905 8.65442C52.1568 8.46008 52.1755 8.54388 52.1407 7.98936C52.1215 7.68144 52.017 7.17789 52.043 6.88892C52.189 7.22399 52.5705 8.1537 52.5843 8.49437L52.5439 8.76178ZM53.0236 8.54553C53.0773 8.36023 53.1289 8.42804 53.0387 8.241L52.1525 6.32669C52.1031 6.22122 52.0591 6.10954 52.0074 6.00708C51.9072 6.00576 51.833 6.04375 51.7335 6.09215C51.819 6.75263 51.9795 7.60671 52.0539 8.23466C52.1193 8.7872 52.1985 8.53516 52.4216 8.86837C52.5242 9.02154 52.3361 9.05013 52.4379 9.26984C52.652 9.1748 52.3987 9.02282 52.7225 8.94861C52.7975 8.95264 52.826 8.96642 52.8792 8.9957L52.8769 9.12416C52.8105 9.30013 52.7456 9.16717 52.6093 9.3409C52.5338 9.43715 52.5764 9.3564 52.5385 9.464C52.7355 9.63135 52.7359 9.76837 52.8276 10.1813C52.8898 10.4613 52.9664 10.7519 53.0372 11.0039C53.3851 12.2438 53.7289 13.7806 54.0835 15.1003L54.2588 15.8104C54.2682 15.83 54.2682 15.8312 54.2817 15.8513C54.3266 15.9181 54.255 15.8548 54.3318 15.9066C54.3981 15.872 54.3628 15.9047 54.4074 15.8442C54.5059 15.7103 54.3661 15.4553 54.2995 15.1579C54.1517 14.4968 53.8546 13.4507 53.6719 12.7521C53.6201 12.5541 52.8439 9.65697 52.8405 9.52551L52.9808 9.45992C53.0683 9.62678 53.1467 10.0688 53.2043 10.2721C53.2777 10.5316 53.359 10.8307 53.4237 11.1115C53.5508 11.6638 53.724 12.2178 53.8506 12.7705C53.916 13.0558 53.9823 13.3166 54.0597 13.5992L54.489 15.2618C54.5672 15.5431 54.6085 15.8698 54.7728 16.0299C54.7564 16.0672 54.6889 16.0689 54.7553 16.2968L55.9101 20.8256C55.7128 20.7338 55.5628 19.9828 55.4911 19.6908L54.8273 17.1741C54.7835 17.0129 54.6417 16.3454 54.5634 16.2538C54.5277 16.2119 54.5082 16.1979 54.469 16.1468C54.4564 16.1304 54.4427 16.109 54.4283 16.0943C54.3551 16.02 54.4361 16.0805 54.3427 16.027C54.3555 16.3577 54.7707 17.7196 54.8755 18.2192C55.007 18.8473 55.3348 19.8928 55.4267 20.427C55.1259 20.3228 54.9926 19.83 54.8514 19.5444C54.7668 19.3739 54.6683 19.2353 54.5475 19.1299C54.3628 18.9687 54.2317 18.9191 54.1364 18.8406C54.1419 18.6621 54.2597 18.3212 54.2994 18.1275C54.3697 17.7844 54.3902 17.751 54.1596 17.5295C53.6759 17.7291 52.9585 18.5635 52.8373 18.6235C52.8989 18.3216 53.2138 18.2779 53.2885 18.0126C53.1219 18.0332 53.0053 18.0568 52.8694 18.1318C52.6838 18.2345 52.668 18.3068 52.5813 18.3407C52.4098 18.0159 52.9765 18.0255 52.9582 17.5798C52.8526 17.6058 52.7792 17.6743 52.6623 17.7329C52.2116 17.9587 52.1767 17.9374 51.9009 18.3879C51.8951 18.379 51.8285 18.3878 51.8968 18.2011C51.9223 18.1311 51.9452 18.0929 51.939 17.9891C51.4768 17.9356 51.4658 18.4146 51.2657 18.6108C51.1622 18.0046 51.1882 18.1253 50.8042 17.6706C50.6909 17.5364 50.6967 17.4526 50.5439 17.5187C50.5045 17.5566 50.2981 18.4994 50.4263 18.9971C50.4484 19.0829 50.4623 19.1146 50.4957 19.2008C50.5227 19.2704 50.5539 19.3411 50.5305 19.4015C50.4244 19.5782 50.3804 19.5159 50.3937 19.7937C50.1962 19.9198 50.3227 19.8241 50.1279 20.2437C50.0771 20.3533 49.9178 20.5986 49.8409 20.6629C49.7141 21.6484 49.7942 21.1965 49.4634 22.2355L49.2382 22.976C49.1514 23.0724 49.1716 22.9636 49.0255 23.245C48.903 23.4813 49.0711 23.3842 48.9537 23.6237C48.6254 24.2931 48.361 24.0859 48.5946 25.0116C48.6587 25.2653 48.7089 25.537 48.8226 25.7547C48.9834 26.0629 49.1779 26.0088 49.5396 26.0079C49.6049 26.0356 49.5735 26.21 50.0848 26.2563C50.7449 26.316 51.2766 25.987 51.4589 25.2652L51.4909 25.1681C51.5081 25.1923 51.7176 25.6093 51.7215 25.6379C51.7367 25.7503 51.6707 26.1909 51.6525 26.2997C51.5868 26.6915 51.5748 27.2217 51.5402 27.6334L51.576 27.7315L51.6618 27.6502C51.6657 27.6467 51.6729 27.6393 51.6795 27.6354C51.759 27.352 51.886 26.1793 51.8632 25.8147C52.1125 25.965 52.1775 26.3756 52.8908 26.2682C52.8744 26.5759 52.8255 26.6526 52.7527 26.8954L52.8077 26.93C52.9014 27.0002 52.8999 27.0277 52.9352 27.1638C52.9633 27.2727 52.9725 27.4532 52.975 27.6025C52.9804 27.9417 52.9251 28.1961 52.9199 28.4846C53.015 28.4503 52.9382 28.5031 53.0534 28.3527C53.0798 28.3182 53.074 28.3238 53.1006 28.2977L52.9791 29.68C53.1232 29.6814 53.1642 29.5441 53.2322 29.4359C53.2882 29.347 53.3543 29.2187 53.4112 29.107C54.0916 27.7713 53.9626 27.1028 54.1082 26.6889C54.3505 26.7778 54.5121 26.6522 54.6974 26.6601C54.9901 27.3151 54.9062 28.5573 54.905 29.2696C55.4477 29.1069 55.6281 27.5465 55.4441 26.9044C55.4206 26.8227 55.3568 26.6288 55.3529 26.5756C55.6626 26.6628 55.8786 26.764 56.2393 26.5726C56.3741 26.501 56.3873 26.4561 56.484 26.4345C56.6089 26.6262 56.7134 26.8809 56.7832 27.1257C56.8431 27.3354 56.9559 27.7848 56.9435 28.0021C56.5232 28.3078 55.6826 28.9706 55.2924 29.3678C55.0709 29.5933 54.7613 29.918 54.5782 30.1731C54.5225 30.2507 54.5027 30.3004 54.4179 30.354C54.2911 30.1596 54.2339 29.9132 54.2027 29.6699C54.1663 29.3861 54.1534 29.1738 54.1476 28.8586C54.06 28.87 54.0405 28.8138 53.9573 29.0462C53.862 29.3127 53.7428 29.5913 53.7075 29.9081C53.6776 30.1768 53.6858 30.3804 53.7515 30.6163C53.7844 30.7344 53.7949 30.7719 53.8546 30.8786C53.9187 30.9931 53.971 31.0047 53.9612 31.1704C53.187 31.1339 52.2982 30.3558 51.9491 29.5401C51.8508 29.3105 51.6868 28.8185 51.7067 28.5097C51.663 28.448 51.6787 28.4103 51.6744 28.3096L51.6145 28.2671C51.4671 28.1579 51.5484 28.1703 51.4233 28.1148C51.4289 28.3418 51.4775 28.1975 51.5122 28.3625C51.351 28.365 51.3658 28.1571 51.2597 28.3901C51.3679 28.4159 51.402 28.4289 51.4647 28.4871C51.478 28.6448 51.4824 28.6543 51.371 28.7213C51.432 29.431 51.5779 29.9589 51.9102 30.4734C52.042 30.6774 52.2285 30.94 52.349 31.1691C52.4024 31.2706 52.5073 31.4617 52.4804 31.5836C52.4553 31.6978 52.3474 31.8675 52.237 31.9143C52.0707 31.9013 51.8027 31.6207 51.7102 31.5178C51.3997 31.1727 51.1623 30.7594 51.0239 30.285L50.8415 29.5246C50.8393 29.5186 50.8356 29.5082 50.8309 29.501C50.6122 29.7007 50.9545 30.8448 51.0368 31.0719C51.1327 31.3363 51.3419 31.7421 51.5025 31.9864C51.5455 32.0519 51.6535 32.1921 51.6931 32.2766C51.2262 32.2919 51.0602 31.4297 50.9237 31.0841C50.9105 31.2767 50.9516 31.445 51.0089 31.6187C51.0899 31.8638 51.1736 31.9606 51.214 32.0845C50.9863 31.9824 50.7044 31.6282 50.6095 31.376L50.5094 31.0802C50.5056 31.0723 50.499 31.0623 50.4957 31.0559C50.4922 31.0494 50.4867 31.039 50.4811 31.0314C50.3661 31.3128 50.4247 31.4775 50.4203 31.7797C50.0714 31.3438 50.0198 30.6234 50.2396 30.0453C50.4601 29.4654 50.815 29.1226 51.1622 28.7421C51.131 28.6273 51.1691 28.632 51.0951 28.602C50.9959 28.7337 51.1652 28.678 50.9607 28.8475C50.8858 28.9096 50.8884 28.8769 50.8175 28.9436C50.7583 28.9992 50.7725 29.0188 50.7202 29.0804L50.5011 29.3402C50.4229 29.4334 50.3441 29.5691 50.2757 29.6143C50.2572 29.7415 49.6 30.515 50.1601 31.6383C50.304 31.9267 50.4246 31.9153 50.3073 32.3051C50.1764 32.7399 49.9954 33.0581 49.685 33.3539C49.4979 33.5323 49.1719 33.7251 48.9201 33.823C48.7604 33.8851 48.7673 33.8906 48.6999 34.0508C48.4147 34.7284 48.4029 35.0132 48.6464 35.7254C48.6797 35.8231 48.7651 35.9547 48.784 36.0085C48.8804 36.2818 48.5076 37.519 48.7403 38.4566C48.7759 38.6 48.7699 38.6931 48.7732 38.8545C48.7845 39.4284 48.5569 39.3198 48.9812 39.8076C48.9401 39.9439 48.8796 39.9092 48.9975 40.0804C49.1839 40.3509 49.4181 40.4975 49.554 40.7144C49.6893 40.9302 49.6758 41.0874 49.7217 41.3296C49.8522 42.0181 49.9799 41.9835 50.4083 42.2287C50.5713 42.322 50.6926 42.4893 50.8499 42.5816C51.5242 42.9769 52.4084 42.1265 51.8393 40.9399C51.6527 40.5509 51.416 40.2965 51.1123 40.0915C51.0325 40.0375 50.9335 39.9725 50.8325 39.9808C50.6737 39.9938 50.4765 40.2896 50.3429 40.0214C50.295 39.925 50.3582 39.8048 50.3879 39.6949C50.4471 39.4757 50.4655 39.1756 50.4222 38.9224C50.4035 38.8126 50.3681 38.7268 50.3236 38.6288C50.2737 38.519 50.2092 38.4495 50.1749 38.3696C50.4706 38.0996 49.8373 36.1859 50.3717 35.2368C50.6345 35.2237 50.4655 35.3831 50.7397 35.2213C51.0076 35.0631 51.3873 35.0871 51.6656 34.9855C51.8087 34.9332 51.9461 34.7904 52.0197 34.7807C52.0362 35.0727 52.0258 35.5122 51.864 35.6742C51.6237 35.6114 51.5872 35.5212 51.4048 35.4002C51.3219 35.4247 51.2338 35.4909 51.1719 35.5618C50.9823 35.7785 51.2178 36.1947 51.3571 36.3828L51.5532 36.5754C51.6166 36.6463 51.569 36.6058 51.6361 36.6667C51.7829 36.8001 51.7635 36.8856 51.9193 37.2007C51.9395 37.2415 51.9667 37.2857 51.9987 37.3259C52.4294 37.8648 52.3001 37.8215 52.417 38.4799C52.4994 38.9435 52.6502 39.3219 53.0119 39.4717C53.2975 39.5899 53.2628 39.507 53.5082 39.7385C53.6293 39.8529 53.7741 40.0072 53.9059 40.113C54.2891 40.4204 54.661 40.2804 54.8887 39.8505C55.1066 39.4389 55.0732 38.9987 54.9038 38.55C54.7466 38.1339 54.5214 37.8651 53.9874 37.9009C53.881 37.7871 53.7443 37.6032 53.6298 37.5074C54.195 37.3132 53.9172 36.9304 54.3318 36.4462C54.5346 36.6936 54.9034 37.0193 55.1456 37.2153C55.4091 37.4286 55.7511 37.7102 56.0652 37.8707C56.0533 37.9509 55.9944 38.1424 55.9684 38.2453C55.6191 39.6287 56.5975 41.2854 57.3159 42.3291L58.009 43.2467C58.068 43.3165 58.1274 43.3692 58.166 43.4614C57.9471 43.6614 57.8271 43.7561 57.6611 44.0823C57.2744 44.842 57.0091 45.6626 56.4967 46.3401L55.9843 46.9598C55.8526 47.1442 55.9462 47.525 55.6467 47.7647C55.2796 48.0586 55.4878 47.9897 55.2456 48.5034L54.9245 49.0193C54.894 49.0603 54.8864 49.0657 54.8604 49.1062C54.8039 49.1941 54.8487 49.0822 54.8034 49.215C54.9311 49.5965 55.2797 49.6307 55.6794 49.6453C56.0711 49.6597 56.4587 49.5935 56.7673 49.4611C57.3793 49.1985 57.472 48.9444 57.5536 48.2683C57.5836 48.02 57.4916 47.9703 57.281 47.9353L57.33 47.5953C57.8433 47.4579 57.7617 47.1997 57.8021 46.6248C57.9267 46.5441 58.0191 46.4437 58.12 46.3545C58.1909 46.2918 58.2065 46.2702 58.2679 46.207C58.3272 46.146 58.3763 46.101 58.4339 46.0457L58.8934 45.5858C59.33 45.1234 59.8277 44.6017 60.1662 44.0593C60.3078 43.8324 60.5776 43.502 60.3898 43.2185C60.304 43.0889 60.164 42.9918 60.0747 42.9063C59.414 42.2736 59.4442 41.389 59.5771 40.4424C60.0196 40.3749 60.1815 40.5009 60.5484 40.0434C60.7949 39.736 60.8518 39.4331 61.018 39.0951C61.1896 39.1425 61.3701 39.6162 61.8502 39.9603C62.8514 40.678 62.2689 41.079 62.5335 42.1452C62.6066 42.4396 62.7422 42.6867 62.8899 42.9366C63.2167 43.4902 63.0781 43.2801 62.9236 43.7545C62.7741 44.2138 62.8166 44.9697 62.7048 45.2751C62.6556 45.4091 62.5763 45.572 62.5208 45.692C62.2078 46.3694 61.8014 46.7547 61.6388 47.1135C61.5125 47.3922 61.5108 47.7132 61.3997 48.0267C61.2966 48.3178 61.1743 48.5999 61.0105 48.8069C60.9202 48.921 60.78 49.0053 60.7584 49.1239C60.7425 49.2114 60.729 49.5782 60.7532 49.6571C60.9854 50.4169 63.1373 49.5869 63.2424 49.3875C63.2777 49.1786 63.3175 48.9403 63.3023 48.7259C63.2791 48.3992 63.2698 48.3625 63.012 48.2822C62.9775 47.9187 63.157 47.8055 63.418 47.6663C63.4269 46.2724 63.3594 47.2008 64.2817 45.5461C64.5017 45.1514 64.9602 44.3659 64.8555 43.8698C64.8416 43.8044 64.7982 43.6804 64.7617 43.6041C64.7351 43.5484 64.6361 43.4106 64.6151 43.3597C64.4669 43.0014 64.8389 41.8295 64.8015 41.2871C64.7611 40.7016 64.6115 40.9513 64.8193 40.4027C65.0364 39.8293 65.1615 39.2056 65.2809 38.5979C65.3168 38.4149 65.2948 38.3651 65.3511 38.2596C65.4542 38.4663 65.4703 38.7482 65.4903 38.977C65.5579 39.7457 65.5576 39.6487 65.881 40.283C66.0245 40.5643 65.9748 40.6886 65.9856 41.0396C66.3891 41.031 66.2142 40.6725 66.2981 40.5075C66.6045 41.0183 66.468 42.7013 67.3598 42.9688C67.5036 42.8347 67.3763 42.8124 67.3005 42.6701C67.2102 42.5007 67.1993 42.3762 67.2864 42.2125C67.3928 42.4065 67.565 43.0124 67.7702 43.4267C67.9007 43.6898 68.2585 44.3026 68.5085 44.3972C68.4191 43.8192 68.2458 43.5234 68.27 43.0303C68.7218 43.3244 68.6661 44.5175 69.0222 44.8788C69.0678 44.444 68.7779 43.4442 68.7926 43.093C68.8719 43.2676 68.8706 43.5608 69.0845 43.6149L68.7102 41.5821C68.6959 41.5337 68.6734 41.4861 68.6656 41.4473C68.6452 41.3447 68.6542 41.3579 68.6798 41.3181C68.8267 41.3676 68.7701 41.4685 68.8334 41.5749C68.8991 41.6855 68.8011 41.6109 68.8657 41.6045C68.9242 41.5539 68.8768 41.6371 68.917 41.5037C69.1233 40.8182 68.6751 40.094 68.3985 39.6225C68.319 39.4956 67.8286 38.8873 68.0297 38.8113C68.0363 38.8088 68.0461 38.8028 68.0545 38.8002C68.156 38.768 67.9966 38.8005 68.1052 38.7861C68.1907 38.7748 68.2433 38.8145 68.3566 38.8473C68.3346 38.73 68.2996 38.6499 68.2557 38.5482C68.2125 38.448 68.1619 38.4018 68.0822 38.3418C67.8126 38.0957 67.5271 37.2262 67.1837 36.7076L67.1602 36.6724C67.1535 36.6622 67.1361 36.6357 67.1249 36.6187C66.5695 35.7713 65.7517 35.4349 65.7393 35.252C65.7372 35.2209 65.7381 35.2111 65.7411 35.1801L65.9561 33.113C65.9969 32.6917 66.0082 32.7361 65.824 32.4689L65.8068 32.9811C65.7705 33.7656 65.6036 35.9619 65.3511 36.591C65.2796 36.5698 65.1362 36.1673 65.071 36.0213C63.3922 32.0788 65.0476 36.1017 63.082 31.2336C62.5089 29.7551 61.4155 26.8877 61.171 25.2303C61.0858 24.6528 60.9823 23.9962 61.1893 23.4505C61.2704 23.2369 61.432 22.9936 61.5724 22.8475C61.7408 22.6721 61.921 22.5358 62.1902 22.5092C62.2232 22.6761 62.2821 22.7984 62.4108 22.8819C62.435 22.8976 62.4423 22.8994 62.4669 22.9138L62.5434 22.9603C62.4187 23.0604 62.2869 23.0056 62.0184 23.2961C61.9113 23.4118 61.738 23.6435 61.6931 23.8379C61.5826 24.3166 61.6029 24.949 61.7242 25.4315C61.9652 26.3896 62.1722 27.3133 62.4888 28.2089C62.7959 29.0775 63.0878 29.9283 63.4252 30.7715C63.5878 31.1778 63.7646 31.6022 63.926 32.0179C64.5174 33.541 64.8095 33.7779 65.3412 35.5414C65.3908 35.4974 65.3679 35.5313 65.3989 35.459L65.4731 35.0805C65.6168 34.016 65.6149 33.1541 65.7034 32.1209C65.7165 31.9678 65.7173 31.8221 65.7181 31.6606L65.7347 30.9207C65.735 30.7959 65.7104 30.7619 65.7816 30.6987C65.8674 30.7555 65.834 30.7411 65.8321 31.0147C65.8293 31.4008 65.8101 31.8045 65.8334 32.1878L65.9767 32.152L65.9674 30.7237C66.1575 30.8983 66.2183 31.7336 66.682 31.9168C66.6661 31.8091 66.6542 31.8158 66.6348 31.7268C66.604 31.5858 66.596 31.6315 66.6711 31.5843L66.773 31.915C66.7998 32.1405 66.6494 32.0138 66.5355 31.9422C66.6155 32.3667 66.6272 32.4017 66.9875 32.6096C67.0918 32.6698 67.244 32.7467 67.3579 32.7965C67.4796 32.8497 67.6946 32.9019 67.7858 32.9518C67.8307 33.3616 67.7042 33.5574 67.5824 33.8664C67.464 34.1671 67.5508 34.5438 67.7361 34.731C67.8953 34.8918 68.1451 35.0383 68.331 35.2314C68.4114 35.3148 68.504 35.4698 68.5872 35.5134C68.7007 35.5728 68.9025 35.5045 69.0687 35.5213C69.1893 35.837 69.1069 36.8909 69.0766 37.2746C69.5951 37.1409 70.1039 36.3753 70.4581 35.9627L70.7584 35.6095C70.9189 35.4522 71.0898 35.4007 71.2399 35.2632C71.4262 35.0927 71.5392 33.2438 71.5241 32.9817C71.4712 32.0626 71.211 33.0136 71.4585 31.557C71.6426 30.4728 71.4262 29.0217 70.5974 28.2528L70.1198 27.8792C70.0284 27.6827 70.1717 26.2958 69.1582 25.4616C69.0524 25.3746 68.9937 25.3294 68.8676 25.2478C68.6708 25.1204 68.4185 25.0762 68.2975 24.8763C68.1681 24.6624 68.0502 24.5312 67.8258 24.3666C67.4276 24.0747 66.9597 23.9164 66.4858 23.81C65.655 23.6235 65.8157 23.8964 65.197 23.2168C64.807 22.7884 64.615 22.6689 64.037 22.4577C63.8715 22.3973 63.449 22.3029 63.3336 22.2325C63.2408 22.176 63.1636 22.0974 63.0578 22.0343C62.8442 21.9068 62.5759 21.8404 62.3353 21.8C62.0787 21.7568 62.1944 21.7712 62.0238 21.6334C61.8258 21.4734 61.5738 21.4347 61.2867 21.4126C61.2238 21.3807 61.0486 21.0268 61.0109 20.9702C60.8037 20.6591 60.9966 20.7906 61.0107 20.4396C61.038 19.7548 61.023 18.971 60.5644 18.4969L60.285 18.2138C59.7817 17.7407 59.8599 17.549 59.7654 17.2536C59.7633 17.2468 59.7597 17.2358 59.7554 17.2277L59.5619 17.2746C59.5534 17.2991 59.5442 17.3271 59.5389 17.3492C59.5264 17.4008 59.5222 17.4512 59.5087 17.5049C59.4944 17.5616 59.4497 17.6979 59.4241 17.7491C59.2135 18.1696 58.768 18.4383 58.5347 18.8555C58.1038 19.6258 58.5122 20.0722 58.4538 20.4847C58.4224 20.707 58.5193 20.8605 58.5182 21.0849C58.2692 21.3285 58.2471 21.2536 58.1258 21.6464C57.6587 21.7644 57.8755 21.8534 57.6644 22.0439C57.462 22.2267 57.3593 22.1252 57.2457 22.4823C57.0991 22.9431 57.0678 23.5205 57.0044 24.0113C56.8966 23.9985 56.9754 24.0498 56.8836 23.947C56.786 23.8379 56.7428 23.6838 56.6874 23.5443C56.6928 23.539 56.7042 23.5279 56.7076 23.5344C56.7109 23.541 56.7234 23.5267 56.728 23.5247L56.7922 23.4986C56.7988 23.4956 56.8074 23.4917 56.8134 23.4889L56.8547 23.4669C56.6595 23.1335 56.6591 22.5091 56.5387 22.1338C56.4901 21.9826 56.4202 21.8766 56.3686 21.7305C56.4399 21.6058 56.5152 21.5541 56.4051 21.3856C56.2768 21.1893 56.3173 21.3456 56.2344 21.0448C56.1582 20.7687 56.0973 20.5061 56.0329 20.2492C55.8985 19.7136 55.7838 19.1652 55.6293 18.618C55.4998 18.1595 55.0394 16.0488 54.9118 15.8223C54.853 15.718 54.7535 15.6452 54.7144 15.5299C54.8437 15.5348 54.7485 15.5588 54.875 15.6211C54.8598 15.456 54.8584 15.5396 54.8125 15.4061C54.7696 15.2815 54.7963 15.2882 54.772 15.1678C54.6494 14.5585 54.0026 12.4086 54.0281 12.1225C54.4499 11.9105 56.2672 11.2246 56.7021 11.0862C56.9521 11.0066 57.0756 11.0211 57.2192 11.2279C57.3976 11.4848 57.3992 11.7477 57.6392 11.9454C57.7107 12.0042 57.7878 12.0585 57.897 12.0816L57.5114 11.1617C57.3822 10.9452 57.1291 10.7762 56.9856 10.5554C56.9386 10.4832 56.9482 10.5276 56.9476 10.4341C57.2294 10.5885 57.2327 10.5695 57.4374 10.8409C57.4928 10.9144 57.5784 11.0195 57.6371 11.0872C57.7209 11.1839 57.7838 11.2741 57.9234 11.3015L57.7412 11.0381C57.5396 10.7761 57.4759 10.4241 57.2932 10.1652C57.2129 10.0514 57.0937 9.96072 57.0123 9.8235C57.3948 10.0093 57.4264 10.3338 57.6579 10.5557C57.6575 10.207 57.6226 10.0194 57.4418 9.79058C57.4029 9.74136 57.3778 9.71935 57.321 9.67365C56.7677 9.22881 56.8305 9.46165 56.5687 8.72953C56.465 8.43945 56.3833 8.26688 56.0436 8.31516C54.9243 8.4743 53.4435 9.23296 53.1987 9.24466C53.3014 9.01384 53.1984 8.83058 52.9988 8.74786C52.9632 8.61532 52.9722 8.66699 53.0236 8.54553ZM49.7536 38.7466C49.7792 38.8603 49.8581 38.8652 49.9088 38.9916C50.0317 39.0975 50.1187 39.7239 49.7107 39.8712L49.5604 39.9306C49.5914 40.0765 49.6651 40.2005 49.7616 40.2784C50.0353 40.4994 49.8369 40.3336 50.0051 40.5999C50.1955 40.9016 50.524 40.5878 50.8835 40.6752C51.0575 40.7174 51.4997 41.3326 51.022 41.7665C50.9214 41.8579 50.7298 41.8951 50.7607 42.0211C50.7683 42.0258 50.7802 42.0215 50.785 42.0323C50.796 42.0567 50.917 42.0659 51.0091 42.0293C51.058 42.0099 51.1493 41.9501 51.207 41.9036C51.2683 41.8542 51.4025 41.7153 51.4752 41.6954C51.828 41.599 51.613 42.2547 51.1465 42.4203C50.8598 42.2238 51.0202 42.275 50.5861 42.0691C50.3722 41.9677 50.1041 41.8433 49.9923 41.6584L49.9032 41.3807C49.8124 40.9259 49.782 40.7548 49.505 40.367C49.3409 40.1371 48.7926 39.5348 48.8921 39.1511C49.0653 38.4836 48.816 38.1723 48.8941 37.387C49.1119 35.1972 48.7061 35.6018 48.6704 34.9177C48.6579 34.676 48.81 34.3494 48.9102 34.1806C49.1056 33.8513 49.4709 33.8103 49.9189 33.3604C50.321 32.9564 50.3839 32.6999 50.5742 32.1223C50.6855 32.2101 50.8144 32.2629 50.9392 32.3369C50.932 32.4965 50.6136 33.4813 50.2832 33.7485C49.838 34.1085 49.259 33.8293 49.023 34.5505C49.0073 34.5984 49.3879 38.6707 49.7536 38.7466ZM53.5342 39.5309C53.5163 39.3397 53.5284 39.4969 53.7501 39.2145C53.8024 39.1481 53.9279 38.9693 54.0296 38.9333C54.3054 38.8354 54.5593 39.1888 54.5956 39.4261C54.6327 39.6685 54.2961 40.0517 54.1541 39.9926C54.0736 39.9591 53.9373 39.7058 53.7407 39.6075C53.6496 39.562 53.6028 39.5825 53.5342 39.5309ZM56.3118 38.2509C56.3831 38.5175 56.4156 38.8351 56.4848 39.1C56.5581 39.3814 56.6017 39.6678 56.729 39.9129C57.0225 40.4781 57.3077 40.4333 57.3221 40.852C57.329 41.0522 57.3516 41.1392 57.3931 41.3248C57.5117 41.8552 57.8379 42.3304 58.1235 42.6647C58.5339 43.145 58.6711 42.8768 59.0412 43.2482C59.1755 43.383 59.2078 43.3734 59.3592 43.466C59.2852 43.8529 58.6629 44.5821 58.2593 44.8461C57.9658 45.038 58.1972 45.1062 57.9646 45.7916C57.7097 46.5433 57.4513 46.3361 57.3778 46.4481C57.29 46.8587 57.526 46.9627 57.2424 47.2618C57.0478 47.4669 56.8944 47.5313 56.5279 47.5426C56.5244 47.5729 56.5472 47.9094 56.5523 47.9852C56.7201 48.1901 56.8783 48.1239 56.9738 48.2312C56.9368 48.3568 56.777 48.4 56.6281 48.3996C56.4685 48.399 56.3124 48.3336 56.1489 48.2987C56.1971 48.5244 56.3505 48.6037 56.2686 48.8987C56.1017 49.0507 55.5996 49.1216 55.3167 49.0857C55.2478 48.7019 55.604 48.2491 55.7705 48.0194C55.9538 47.7665 55.9956 47.8406 56.0339 47.494C56.0653 47.2094 56.4047 46.8109 56.6102 46.5539L57.2404 45.6278C57.3027 45.5224 57.4636 45.2589 57.5042 45.1053C57.5954 45.1376 57.5251 45.134 57.6262 45.1613C57.6456 44.5681 57.8006 44.0479 58.2124 43.6908C58.352 43.5698 58.4565 43.6519 58.4339 43.4369C58.4227 43.3296 58.2323 43.1655 58.1629 43.0815L57.7827 42.5372C57.5612 42.1812 57.4235 41.8559 57.261 41.4662C57.1295 41.151 57.2195 41.2108 56.9789 40.9378L56.5338 40.3086C56.3835 40.0349 56.2314 39.7478 56.1752 39.3991C56.1368 39.1613 56.1234 38.3265 56.3118 38.2509ZM61.3704 39.0003C61.5825 39.437 62.1074 39.457 62.397 39.9212C62.5201 39.8916 62.8778 39.8546 62.9528 39.9506C63.1641 40.2213 62.679 40.1071 62.5794 40.1269C62.5946 40.292 62.8358 40.4644 62.9146 40.6684C63.0953 41.1366 62.7919 41.6515 63.326 42.1331C63.6366 42.4132 63.477 42.4217 63.6473 42.7428C63.6697 42.7302 63.7832 42.6875 63.7645 42.5486C63.7528 42.4622 63.6971 42.4481 63.6492 42.3592C63.6485 42.0941 63.6998 41.9159 63.6403 41.639C63.6079 41.4886 63.5212 41.1293 63.6584 41.0446C63.7168 41.0074 63.6714 41.0148 63.7562 41.1761C63.8586 41.3711 64.0273 41.5576 64.0935 41.7382C64.2165 42.0738 64.1368 42.4269 64.0522 42.7862C64.016 42.9397 64.109 43.0644 64.0805 43.3129C64.0657 43.4434 64.0065 43.6797 63.9689 43.7995C63.8721 44.1082 63.7647 44.4518 63.6998 44.768C63.6628 44.9481 63.6655 45.1347 63.6266 45.303C63.5618 45.5839 63.2094 45.725 62.8824 46.3862C62.5643 47.0293 62.8374 47.1938 62.8373 47.4006C62.8373 47.6742 62.4106 47.9055 62.1958 47.9909C62.1807 48.1885 62.2879 48.2898 62.2054 48.5514C62.1514 48.7229 61.9842 48.8108 61.9848 48.917L62.2351 48.9593C62.2224 49.1323 62.1698 49.1205 62.0305 49.1647C61.9162 49.2009 61.8592 49.2264 61.7354 49.2437C61.4771 49.2799 61.2915 49.2803 61.0322 49.2381C61.2465 48.9994 61.289 49.0047 61.4495 48.6947C61.5818 48.439 61.5998 48.1215 61.7019 47.9182C61.9693 47.3858 61.8454 47.4993 61.9726 47.1632C61.9908 47.1155 62.2546 46.7783 62.3758 46.5496C62.619 46.0906 62.7584 45.5919 62.9787 45.1033C63.1757 44.6664 63.0671 43.7109 63.3852 43.4563C63.2585 43.3394 62.6819 42.1778 62.6494 41.6842C62.6139 41.1445 62.7481 41.1136 62.7337 40.9209C62.7206 40.7466 62.5616 40.4628 62.4723 40.3412C61.948 39.6277 62.5022 40.0798 61.9043 39.6582C61.7895 39.5773 61.3526 39.2545 61.3465 39.0934C61.3412 38.9496 61.3385 39.0514 61.3704 39.0003ZM63.3249 37.5018C63.3098 37.5169 63.3062 37.5239 63.2737 37.5504L62.8358 37.7836C62.115 38.0303 62.2637 37.315 62.8023 37.2751C62.9783 37.262 63.2496 37.3836 63.3249 37.5018ZM62.9702 35.7802C63.0265 35.6978 63.0574 35.6805 63.1554 35.6474C63.2795 35.8401 63.6489 36.1733 63.8098 36.3239C64.1307 36.6243 63.7451 37.0198 63.6078 37.2061L62.8389 37.0194C63.0656 36.8376 63.3821 36.9452 63.3147 36.4566C63.2712 36.1417 63.0768 36.0162 62.9702 35.7802ZM49.8304 36.1113C49.9064 36.0739 49.8826 36.0451 49.973 36.0219C49.9584 36.2177 49.9406 36.2311 49.8701 36.3787C49.7486 36.2524 49.8233 36.2119 49.6322 36.0186C49.562 35.9477 49.5668 35.9728 49.5295 35.8558C49.5061 35.7824 49.4928 35.6888 49.4845 35.5973C49.468 35.4168 49.4719 35.1941 49.4953 35.0145C49.5219 34.8111 49.5945 34.7379 49.8069 34.7679C50.0818 35.3466 49.7255 35.6652 49.8304 36.1113ZM53.7071 34.5833C53.7763 34.6203 54.0839 35.113 54.1694 35.2457C54.1827 35.2664 54.1926 35.2808 54.206 35.2997C54.2096 35.3047 54.2149 35.3118 54.2186 35.3167C54.5882 35.8253 55.111 36.5026 55.5902 36.8616C55.6741 36.9244 55.7274 36.9639 55.8096 37.0261C55.9538 37.1352 56.0853 37.218 56.2571 37.316C56.3974 37.3959 56.6413 37.4838 56.763 37.5634C56.2453 37.788 55.2181 36.807 54.8903 36.5057L53.7341 35.3435C53.6593 35.2416 53.6847 35.2504 53.6917 34.9809C53.6951 34.8474 53.7026 34.7165 53.7071 34.5833ZM56.5331 35.2249C57.412 35.3364 57.2071 35.1781 57.6149 35.1745C57.6082 35.253 57.5739 35.2938 57.5324 35.337C57.4414 35.4318 57.4316 35.3877 57.4153 35.4727C57.6135 35.6083 57.8037 35.5358 58.0082 35.4656C57.9242 35.6516 57.6554 35.7905 57.427 35.8164C57.2703 35.834 57.1887 35.7936 57.0386 35.7668C56.8148 35.727 56.5091 35.8484 56.3179 35.6821C56.1164 35.507 55.7773 35.5852 55.5118 35.1907C56.0446 35.1789 56.2193 35.2015 56.6295 34.9579C56.6405 35.1268 56.5878 35.1089 56.5331 35.2249ZM52.1796 34.112C51.9045 34.1361 51.6721 34.0636 51.4143 34.1664C51.2047 34.25 51.2037 34.3828 50.8297 34.1815C50.8429 34.1452 51.5344 33.2503 51.8932 33.2823C52.0295 33.2945 52.0457 33.3707 52.1248 33.4707C52.2086 33.5764 52.233 33.5756 52.2417 33.7493C52.2481 33.8775 52.2368 34.0188 52.1796 34.112ZM53.8344 33.7819L53.8351 33.555C53.9612 33.6229 53.9335 33.6353 54.0308 33.7357L54.0602 33.7642C54.0664 33.7701 54.0845 33.7862 54.0907 33.792L54.6174 34.2151C54.6726 34.2541 54.7035 34.2754 54.7591 34.3072C54.8424 34.3546 54.8602 34.3547 54.9159 34.4426C54.6704 34.3795 54.0772 34.0524 53.8907 33.8541L53.8344 33.7819ZM59.8901 33.0177C59.9184 33.3773 59.976 33.8215 60.3079 33.9646C60.4091 34.0083 60.4875 34.0506 60.6012 34.103C60.9172 34.2485 61.1672 34.4062 61.4166 34.614C61.4994 34.683 61.5931 34.7458 61.6315 34.8695C61.5324 34.826 61.4421 34.7513 61.3422 34.6921C60.9869 34.4814 60.46 34.2517 60.0651 34.1273C59.8648 34.0641 59.9113 34.0799 59.8527 33.8584C59.7899 33.6209 59.7688 33.2202 59.8901 33.0177ZM60.0016 32.6021C60.2912 32.724 61.8772 34.3848 62.1376 34.6727C62.9427 35.5512 62.9733 35.2087 62.7397 35.6199C62.4403 35.573 60.5973 33.4015 60.3214 33.0842C60.3051 33.0654 60.2976 33.0557 60.2809 33.0348C60.1916 32.9231 59.9811 32.7049 60.0016 32.6021ZM52.9482 35.4729L52.9406 35.8106L53.4747 35.9721C53.4511 35.996 53.4086 36.0496 53.366 36.0719L53.2102 36.1096C53.2066 36.1103 53.1979 36.1109 53.1923 36.1136C53.536 36.8225 52.9065 37.0879 52.7063 37.5174C52.5825 37.7832 52.7245 38.141 52.9256 38.2402C53.2321 38.3916 53.4355 38.1099 53.6012 38.0063C53.648 38.4895 53.5396 38.8937 53.1215 38.9657C52.3057 39.1063 52.8596 38.3479 52.3695 37.5426L52.0438 37.0297C51.7293 36.5233 52.4481 34.332 52.4112 33.1345C52.4029 32.8676 52.3426 32.7261 52.4114 32.4607C52.4584 32.2798 52.5229 32.05 52.5679 31.8646C52.6286 31.6151 52.7315 31.6293 52.948 31.5049C53.0776 31.4305 53.306 31.2654 53.4136 31.2188C53.8515 31.444 53.8101 31.2247 54.0627 31.4553C54.0628 31.4555 54.1098 31.4961 54.1099 31.4962C54.314 31.6677 54.6389 31.8981 54.9639 31.9497C55.6316 32.0559 56.5233 31.4328 56.8477 31.845C56.1422 32.1078 55.3776 32.503 54.5499 32.1607C54.2691 32.0445 54.2283 31.8618 53.8782 31.9397C53.8484 32.0862 53.9426 32.7645 53.3742 32.4408C53.2002 32.3416 53.1975 32.1834 53.1253 32.0928C53.0871 32.0448 53.0987 32.0509 53.0405 32.029C52.8197 32.3341 52.4401 33.2742 52.897 33.3641C52.9653 33.2733 52.966 33.1299 53.0708 33.0152C53.2679 32.7994 53.7249 32.9626 53.5295 33.3542C53.3293 33.7556 52.9817 33.328 52.9773 33.9034C52.9715 34.6575 53.1477 34.6528 52.9482 35.4729ZM60.8221 31.8143C60.8889 32.0505 61.2019 32.4859 61.332 32.7072C61.4594 32.9238 61.7341 33.4116 61.7651 33.6883C61.617 33.641 61.2078 33.3657 61.0695 33.2635C60.8789 33.1226 60.4041 32.6156 60.2324 32.3798C59.5347 31.4221 60.7768 31.097 61.489 31.5263C61.8934 31.77 61.8915 32.1757 62.2119 32.534C62.4798 32.8337 62.7406 33.2708 62.7771 33.7204C62.7006 33.7723 62.7242 33.7626 62.6546 33.7822C62.4603 33.3969 62.2676 32.9323 61.9825 32.6282C61.6305 32.2526 61.5525 32.4076 61.0467 31.7209C60.9411 31.735 60.8821 31.752 60.8221 31.8143ZM55.7501 31.6788C55.7592 31.176 56.1323 31.2062 56.2147 31.015C56.2067 31.0099 56.1945 30.9945 56.1893 31.0029L56.082 30.9799C55.9909 30.9815 55.8004 31.0854 55.7107 31.1357C55.4858 31.2618 55.3625 31.3974 55.2788 31.3084C55.0914 31.1092 55.577 30.6351 55.7054 30.5209C55.9409 30.3112 56.1791 30.151 56.48 29.9997C57.1541 29.6608 57.9297 29.6973 58.2524 30.3311C57.9971 30.3087 57.8889 30.2352 57.6386 30.3778C57.2779 30.5833 57.7354 30.6615 57.9064 30.6864C58.4002 30.7582 58.5467 31.2041 58.1938 31.5232C57.8748 31.8117 57.3518 31.6023 57.0106 31.4892C56.3658 31.2754 56.1879 31.6081 55.7501 31.6788ZM60.1316 31.3038C60.1744 30.962 60.1399 30.7309 60.3241 30.4564L60.7707 29.8697C60.7311 30.2513 60.608 30.3553 60.6461 30.8014C60.6644 31.0152 60.6086 31.0685 60.4805 31.1466C60.4029 31.194 60.2428 31.2944 60.1316 31.3038ZM54.5327 31.5925C54.3665 31.5988 54.2673 31.4949 54.1851 31.3533C54.0979 31.2031 54.1947 31.0537 54.2648 30.9099C55.5261 28.3191 59.4099 28.3788 59.626 29.8619C58.7372 29.0734 57.6358 29.2332 56.6196 29.6802C55.6288 30.1161 55.0084 30.6209 54.5327 31.5925ZM59.7375 29.1178L59.6045 29.1215C59.5695 28.8532 59.6154 28.651 59.9071 28.7575C59.9287 29.0232 59.7321 28.7511 59.9543 29.1453C60.002 29.2301 59.9819 29.1866 60.0136 29.2835C60.0138 29.2833 60.0937 28.9245 60.1728 29.1724C60.2312 29.3557 60.1138 29.4251 60.0701 29.5086C60.0739 29.718 60.0935 30.1433 59.978 30.269C59.9568 30.2061 59.8549 29.1254 59.8001 28.9711C59.7684 28.882 59.7844 28.9268 59.7554 28.8961C59.7004 28.9941 59.7402 28.9974 59.7375 29.1178ZM70.0786 28.1793C70.3701 28.2854 70.6878 28.7909 70.8302 29.1452C71.3405 30.4143 71.1346 32.5659 70.7928 33.7734C70.5606 33.6345 70.1429 33.1967 70.0035 32.9203C69.8089 32.5348 69.8997 31.8671 69.9632 31.3972C70.034 30.8737 70.0975 30.412 70.1321 29.8559C70.1558 29.4737 70.1623 28.51 70.0786 28.1793ZM64.4294 27.3363C64.5271 27.3215 64.5674 27.2841 64.6767 27.3078C64.5135 27.687 64.5477 27.5802 64.8055 27.6917C64.7975 27.7781 64.8018 27.7247 64.7783 27.7885C64.7556 27.8503 64.755 27.8311 64.7382 27.8923C64.7197 27.959 64.7004 28.0627 64.6892 28.1275C64.8468 28.2068 64.995 28.2429 65.0765 28.4517C64.9755 28.4026 64.8408 28.3895 64.6919 28.3934C64.734 28.82 65.1945 29.0677 65.0929 29.3117C64.9747 29.1711 64.8375 29.089 64.6624 29.0039C64.6056 29.1948 64.8397 29.3475 64.7485 29.5809C64.6585 29.4861 64.7161 29.4714 64.5556 29.3455C64.4595 29.2702 64.3893 29.1612 64.2737 29.1265C64.2902 29.5101 64.5385 29.9447 64.3181 30.244C64.2432 30.02 64.376 30.0469 64.0883 29.6021C63.8237 29.193 64.022 29.0916 63.9737 28.9616C63.8287 29.0868 63.8594 29.3011 63.7696 29.5968C63.7596 29.6298 63.7433 29.6825 63.7292 29.7083C63.7236 29.7186 63.711 29.7384 63.704 29.7482C63.659 29.8108 63.6963 29.7603 63.6535 29.805C63.663 29.591 63.6729 29.4179 63.6714 29.2005C63.6707 29.0855 63.7339 28.756 63.7155 28.7249C63.5822 28.8573 63.5615 29.0604 63.3945 29.1587C63.4141 29.0323 63.4456 28.9095 63.4795 28.795C63.5318 28.619 63.5838 28.614 63.6132 28.4953C63.4405 28.5162 63.2867 28.6557 63.146 28.5555C63.2004 28.4383 63.1711 28.6113 63.3937 28.3643C63.5628 28.1767 63.5346 28.2539 63.643 28.1866C63.5556 27.9246 63.0468 28.1399 62.9653 27.643C63.0873 27.7085 63.1099 27.7741 63.2784 27.7473C63.3362 27.7381 63.5507 27.6606 63.5906 27.6332C63.5493 27.5272 63.586 27.6027 63.5237 27.5327C63.3889 27.3817 63.2801 27.3742 63.1264 27.1887C63.0328 27.0756 62.9819 26.9392 62.9835 26.7815C63.0876 27.0271 63.3364 27.0912 63.5142 27.1747C63.5998 27.2149 63.6439 27.2575 63.7155 27.2882C63.7879 27.1236 63.5438 26.8218 63.5726 26.3095C63.5742 26.2797 63.5765 26.2519 63.5825 26.2227C63.5971 26.152 63.5872 26.1867 63.6073 26.1486C63.6625 26.2498 63.6733 26.4812 63.7439 26.6476L63.9057 26.9364C64.0062 27.066 63.8939 26.9791 64.0202 27.0301C64.0274 26.8302 63.9813 26.6582 64.0598 26.5143C64.1108 26.6371 64.1739 26.9882 64.232 27.1038C64.3844 26.9078 64.2958 26.4153 64.5143 26.2913C64.4692 26.5189 64.4582 26.4879 64.4715 26.7724C64.4836 27.0279 64.438 27.1362 64.4294 27.3363ZM58.4044 26.2777C59.1843 26.2839 60.0306 26.6593 60.2362 27.3271C60.1219 27.3016 60.1247 27.281 60.0645 27.3258C60.1775 27.4495 60.233 27.56 60.2432 27.7606C60.0639 27.6089 60.0849 27.45 59.4014 26.9956C58.9156 26.6727 58.5711 26.7046 58.247 26.5796C58.3771 26.502 58.375 26.5838 58.5332 26.4768L58.5652 26.4524C58.6041 26.4306 58.652 26.4246 58.7016 26.4154C58.5965 26.3237 58.501 26.352 58.4044 26.2777ZM60.4936 25.9954C60.6255 26.0315 60.6042 26.0761 60.8032 26.1696C60.9269 26.2278 61.06 26.2494 61.1672 26.3113C61.1984 26.4098 61.2436 26.5373 61.2188 26.6429C61.0013 26.6095 60.5438 26.1947 60.4936 25.9954ZM49.6726 25.9616C49.9186 25.9363 50.2852 26.002 50.4826 25.9489C50.7709 25.8714 50.7359 25.6423 50.8871 25.4839C50.9149 25.742 50.6492 25.9923 50.4597 26.0982C50.2632 26.2081 49.7065 26.1775 49.6726 25.9616ZM69.758 28.4635C69.7548 28.6519 69.7204 28.8976 69.7378 29.0731C69.7838 29.5379 69.7231 29.2969 69.6941 29.5732C69.6684 29.8179 69.6727 30.5074 69.4834 30.613C69.3754 30.3773 69.5446 29.2084 69.3398 28.8962L69.3121 28.9887C69.3102 28.9967 69.3095 29.0058 69.3075 29.0142L69.2825 29.1103C69.1604 29.0975 69.1559 29.0474 69.1819 28.9048C69.2055 28.7752 69.2511 28.7996 69.3179 28.7092L69.2584 28.4635C69.0937 28.1576 68.8012 27.3224 68.7463 26.9809C68.6988 26.6855 68.6673 26.388 68.6025 26.0959C68.541 25.8186 68.4225 25.4919 68.3868 25.254C68.8664 25.3418 69.351 25.9025 69.5688 26.3442C69.8253 26.8642 69.7889 27.8105 69.758 28.4635ZM51.5655 24.9278L51.8065 24.7911C52.207 25.1101 52.3019 25.3636 53.0998 25.5773C53.6886 25.7349 54.4165 25.7149 55.0499 25.6666C56.1216 25.585 56.7445 25.5052 57.7687 25.2543C57.8821 25.2265 58.057 25.1711 58.1664 25.1302C58.2929 25.083 58.4563 25.006 58.5837 24.9802C58.4654 25.4861 57.8726 26.5133 57.1245 25.7776C57.0455 25.7 56.9823 25.6245 56.8572 25.6208C56.4685 25.6092 56.5202 26.3086 55.9949 26.3634C55.2072 26.4455 55.3636 25.7255 54.9986 25.7874C54.6288 25.85 54.8014 26.565 54.0726 26.4639C53.494 26.3837 53.5527 25.7028 53.1688 25.7994C52.9353 25.8582 52.6312 26.5683 52.0424 25.7827C52.0326 25.7697 52.0095 25.7335 51.9952 25.71L51.5655 24.9278ZM57.8306 24.4052C57.9884 24.2989 58.3007 24.259 58.5266 24.244C58.5252 24.528 58.5808 24.5443 58.6075 24.7741C58.5369 24.8117 58.1623 24.9173 58.0335 24.9557C57.852 25.01 57.7905 24.6159 57.8306 24.4052ZM59.7094 24.7888L59.6881 24.6523L60.3188 24.4392C60.5213 24.9313 60.369 24.8433 60.4328 25.1286C60.4851 25.3632 60.4378 25.263 60.4263 25.4255C60.4144 25.5939 60.5218 25.5215 60.461 25.783C60.3416 25.819 59.7981 25.8197 59.7297 25.7189C59.5593 25.4673 60.1705 25.6819 60.3182 25.4749C60.0702 25.3008 59.6593 25.6739 59.6045 25.2547C59.7899 25.2655 60.0394 25.2655 60.2102 25.2052C60.3238 25.1649 60.3065 25.1923 60.3342 25.0816C60.2696 25.0382 60.34 25.0662 60.2418 25.0437C60.0529 25.0005 59.596 25.127 59.3848 25.1621C59.4013 24.9826 59.5543 25.001 59.673 24.9565C59.8744 24.8811 59.899 24.9105 60.1284 24.8942C60.1576 24.8272 60.0288 24.9381 60.132 24.802C60.2017 24.7102 60.1644 24.8273 60.2515 24.7126C60.2225 24.6821 60.306 24.5986 59.9596 24.7172C59.8728 24.747 59.8041 24.7837 59.7094 24.7888ZM52.5038 24.2362C52.5025 24.4471 52.6446 24.9116 52.7077 25.1266C52.347 25.1396 51.727 24.6636 52.1305 24.4166C52.2095 24.3683 52.4082 24.27 52.5038 24.2362ZM58.7677 24.2111L59.5188 24.1735L59.5572 24.5215L58.8654 24.7005C58.7592 24.5756 58.7057 24.4125 58.7677 24.2111ZM57.1245 23.8899C57.296 24.2009 57.5471 24.8604 57.7002 24.9751C57.4207 24.9929 57.3688 24.7876 57.2822 24.5948C57.2279 24.4739 57.1565 24.4253 57.131 24.3302C57.1024 24.2236 57.1214 24.0093 57.1245 23.8899ZM67.0482 24.2822C67.1421 24.2138 68.0075 24.5523 68.1839 25.3956C68.2179 25.5583 68.2055 25.9071 68.0772 26.0046C68.057 25.9711 67.769 24.6674 67.0482 24.2822ZM59.7615 24.137L60.3867 23.9815C60.4603 24.079 60.4881 24.206 60.4893 24.3673C60.3471 24.3407 60.445 24.2811 60.2605 24.3245C59.885 24.4128 59.888 24.526 59.7937 24.3971C59.7388 24.3221 59.7329 24.2215 59.7615 24.137ZM60.8745 24.6972C60.7416 24.5958 60.613 24.1646 60.6392 23.944L60.9033 23.8367C60.8977 23.9992 60.87 24.1481 60.8601 24.2813C60.8511 24.4031 60.8904 24.6412 60.8745 24.6972ZM51.6021 23.8775C51.6315 24.0288 51.718 24.0294 51.6631 24.1609C51.5739 24.2047 51.5619 24.1753 51.4977 24.0908C51.4245 23.9944 51.3789 23.8459 51.5101 23.8553C51.5877 23.8609 51.4685 23.8588 51.6021 23.8775ZM50.4894 23.9133C50.5113 24.083 50.5658 24.0593 50.5602 24.313C50.4086 24.4461 50.4291 24.3792 50.3436 24.5913C50.317 24.6574 50.2757 24.7125 50.2626 24.78C50.2575 24.8066 50.2892 25.278 49.9487 25.243C49.7715 25.2248 49.7391 25.0408 49.5929 25.1364C49.5799 25.2697 49.9818 25.4613 49.4248 25.4445L49.3984 25.2781C49.3283 25.3227 49.3619 25.3369 49.2886 25.29C49.2662 25.2758 49.213 25.2111 49.1977 25.1657C49.1592 25.0521 49.1861 24.8846 49.1771 24.7585C48.9827 24.7467 49.0878 24.8266 48.989 24.9851C48.9223 25.0921 48.8926 25.0558 48.8599 25.1493L48.8532 25.1857C48.8425 25.2515 48.8852 25.1575 48.8508 25.2422C48.64 25.2253 48.6981 25.0066 48.689 24.8052C48.6734 24.4633 48.6035 24.5354 48.7806 24.2678C48.8511 24.1614 48.9706 24.0098 49.0311 23.892C49.1317 23.6959 49.0644 23.5433 49.2377 23.436C49.6967 23.1519 50.3369 23.222 50.6338 23.5124C50.7764 23.652 50.5581 23.8257 50.4894 23.9133ZM58.6715 23.1618C58.7821 23.2471 58.9552 23.2814 59.0733 23.4444C59.168 23.5751 59.2128 23.8232 59.1967 24.0222C58.8933 24.0419 58.6361 24.156 58.6169 23.4837C58.6114 23.2917 58.6084 23.3092 58.6715 23.1618ZM59.5832 24.0018C59.4447 23.9417 59.4343 23.7796 59.4049 23.652C59.3743 23.5185 59.3169 23.3172 59.4861 23.2549C59.7719 23.1495 59.7112 23.8046 59.5832 24.0018ZM60.2795 23.7596C60.1526 23.832 60.0336 23.8584 59.8867 23.8388C59.8226 23.434 59.9401 23.2581 60.2515 23.1859C60.1634 23.5374 60.2648 23.5211 60.2795 23.7596ZM54.4883 22.8874C54.8954 23.1232 55.2526 23.4564 55.5063 23.8847C55.6636 24.1501 56.0412 25.011 56.073 25.3859C55.6761 25.525 55.3808 25.5287 54.9148 25.5248C54.6442 24.7956 54.7929 25.0121 54.3162 24.2982C54.2234 24.1594 54.1024 24.0141 54.1114 23.8991C54.2715 23.8468 54.329 23.868 54.3729 23.9971C54.4621 23.9535 54.4071 23.9031 54.504 23.896C54.6507 24.0516 54.7123 24.0545 54.8841 24.3371C54.9452 24.4376 54.9234 24.4487 55.069 24.4247C55.0614 24.1815 54.9499 23.7582 54.856 23.5695C54.7652 23.387 54.7418 23.3672 54.6188 23.2685C54.4939 23.1682 54.4807 23.0873 54.4883 22.8874ZM49.2017 23.3175C49.3107 23.1295 49.3375 23.0271 49.5747 22.976C49.7283 22.9429 50.0966 22.9612 50.2158 23.0217C50.1077 23.1385 49.8736 23.1208 49.6899 23.1578C49.5362 23.1887 49.3172 23.2983 49.2017 23.3175ZM65.6955 29.5644C65.6732 29.5205 65.5718 28.6503 65.557 28.5241C65.4075 27.2452 64.9988 25.9618 64.5452 24.7782C64.4812 24.6111 64.4332 24.5129 64.3696 24.3531C64.0945 23.6613 63.5723 22.9378 62.781 23.005C62.8004 22.7642 62.9599 22.7441 63.1503 22.8038C63.5647 22.9334 63.837 22.8891 64.2474 23.528C64.9334 24.596 65.5089 27.0457 65.6441 28.3993C65.6594 28.5524 65.783 29.4548 65.6955 29.5644ZM57.5732 24.2606C57.5689 24.2544 57.5624 24.2369 57.5605 24.2417C57.5586 24.2465 57.5505 24.2271 57.5479 24.2231C57.2998 23.8359 57.2156 23.7954 57.2879 23.4244L57.4263 22.6465C57.4631 22.5462 57.5088 22.515 57.5448 22.4257L57.6328 22.5257C57.6547 22.5502 57.6495 22.5456 57.6778 22.5739L57.7301 22.6221C57.5756 23.2458 57.542 23.5425 57.5732 24.2606ZM60.9875 23.4829C60.881 23.5611 60.8445 23.6018 60.6736 23.619L60.5964 23.5041C60.5478 23.3814 60.5587 23.0808 60.611 22.9822C60.6283 22.9496 60.8837 22.7708 61.0156 22.6184C61.0115 22.8358 60.8956 22.7859 60.9349 23.0143C60.9672 23.2018 61.0287 23.1975 60.9875 23.4829ZM63.3207 22.4757C63.7373 22.5387 64.1632 22.7004 64.4916 22.8972C64.7143 23.0308 65.2665 23.4642 65.3361 23.696C64.4837 23.6564 64.4168 23.3916 63.7726 22.8388C63.6554 22.7383 63.3657 22.5405 63.3207 22.4757ZM53.2127 23.4045C53.075 23.2941 52.9823 23.2394 53.0425 22.9922C53.0616 22.9136 53.089 22.8221 53.1177 22.7317C53.1486 22.634 53.1557 22.5569 53.1798 22.467C53.2113 22.3498 53.2584 22.3585 53.3154 22.2721C53.4233 22.1088 53.5063 21.8027 53.7005 21.6264C53.9468 21.7074 54.1267 22.2579 53.9116 22.6663C53.7811 22.9141 53.4523 23.3074 53.2127 23.4045ZM57.7753 22.2704C57.9879 22.4002 57.7455 22.5186 58.4865 23.0525C58.4735 23.1681 58.4143 23.2756 58.3999 23.4514C58.3607 23.9303 58.5733 23.9204 58.1725 24.0002C58.088 24.017 57.9644 24.0436 57.8713 24.0204C57.6308 23.9604 57.7154 23.0729 57.7836 22.8462C57.9298 22.3608 57.6718 22.4399 57.7753 22.2704ZM56.0922 22.3541C56.4264 22.3964 56.5813 22.54 56.5751 22.898C56.4921 22.8352 56.4395 22.7299 56.3565 22.6369C56.3226 22.5989 56.2813 22.5556 56.241 22.5142L56.0922 22.3541ZM61.1993 22.9888C61.0952 22.2169 61.9504 21.7986 62.6938 22.0918C62.9601 22.1969 63.014 22.2749 63.2157 22.3933C63.1312 22.3867 63.0512 22.3547 62.9562 22.3299C62.8458 22.301 62.7398 22.2945 62.625 22.2926C61.6854 22.2765 61.4073 22.9025 61.1993 22.9888ZM51.6021 23.8775C51.6962 23.7518 51.8848 23.585 51.986 23.4604L52.7011 22.5353C52.819 22.3894 52.979 22.1663 53.099 22.09C53.1214 22.2552 53.0728 22.2851 53.0572 22.4686C53.0327 22.7558 52.8558 22.7764 52.6757 22.877C52.5619 22.9404 52.5621 22.9982 52.4985 23.1188C52.0463 23.9771 52.1705 23.4296 51.9318 23.7077L51.7274 23.9288C51.6871 23.9094 51.6549 23.8956 51.6021 23.8775ZM58.6075 21.3102C58.6648 21.7662 58.4759 21.8331 58.7254 22.1261C58.9196 22.3541 59.0109 22.384 59.1282 22.7251C58.7025 22.5823 58.6719 22.3606 58.3895 21.9322C58.34 21.8571 58.3108 21.776 58.3471 21.6659C58.3763 21.5775 58.547 21.379 58.6075 21.3102ZM55.9347 21.376C56.2293 21.4599 56.2854 21.8855 56.3957 22.1798L56.4187 22.2391C56.1677 22.1152 55.9832 21.651 55.9347 21.376ZM59.8878 22.5446C60.2768 22.611 60.7057 21.6872 61.219 21.6187C61.4584 21.5868 61.689 21.6514 61.7571 21.8582C61.2387 21.9014 61.1178 22.0203 60.7838 22.4336C60.5539 22.7179 60.562 22.6905 60.2422 22.837C59.9693 22.9621 59.9924 23.0448 59.8415 23.296C59.7417 23.2401 59.7218 23.1097 59.5777 23.0799C59.3977 23.0427 59.3478 23.1518 59.2675 23.2397C58.5211 23.1834 57.4563 21.9827 58.1197 21.8496C58.2253 22.1745 58.3154 22.1613 58.6362 22.5002C58.8173 22.6915 58.9274 22.8136 59.1541 22.8587C59.375 22.9027 59.187 22.8894 59.3536 22.962C59.4294 22.8768 59.3508 22.9578 59.3981 22.8206C59.4255 22.7413 59.5099 22.6613 59.5622 22.5988C59.5991 22.5547 59.6302 22.5185 59.6565 22.4844C60.0421 21.9816 60.0329 22.2099 60.4953 21.6315C60.4978 21.6282 60.5323 21.5823 60.5338 21.5802C60.536 21.5773 60.618 21.4599 60.619 21.4574C60.6687 21.3399 60.6099 21.2588 60.6681 21.0783C60.8037 21.0318 61.0529 21.1556 60.7454 21.5002C60.4701 21.8088 60.518 21.9665 60.0472 22.3803C60.0071 22.4155 59.9026 22.472 59.8878 22.5446ZM59.453 21.0849C59.4829 20.7821 59.7278 21.1105 59.7337 21.1147C59.8661 21.2082 59.976 21.1259 60.1256 21.3002C60.1148 21.4164 60.0291 21.4761 59.9777 21.5996C59.9058 21.7722 59.9606 21.6588 59.7841 21.8575L59.497 21.8503C59.4458 21.9539 59.5622 21.8755 59.4888 21.9689C59.4518 22.016 59.3788 22.019 59.3095 22.0508C59.1782 22.1111 59.0375 22.2341 59.0524 21.9494C58.8899 21.9313 58.7575 21.9247 58.8095 21.7364C58.812 21.7274 58.8361 21.6608 58.8402 21.6448C58.8855 21.47 58.7789 21.4246 58.9126 21.3804L58.9542 21.3969C59.0834 21.4809 59.0024 21.4696 59.2553 21.5028C59.2678 21.6396 59.2187 21.6167 59.1828 21.7513C59.2512 21.6718 59.2828 21.6503 59.3137 21.5025C59.5961 21.4173 59.6357 21.4652 59.6164 21.1464L59.5283 21.1089C59.4919 21.0958 59.5087 21.1136 59.453 21.0849ZM53.844 21.2013C53.9585 21.0778 53.8683 20.8877 53.9588 20.7768C54.086 20.8459 54.11 21.0612 54.1074 21.2391C54.0981 21.8668 53.6195 21.6893 53.6617 21.0837C53.6746 20.8983 53.7206 20.9009 53.7172 20.7162C53.7128 20.4771 53.6835 20.5007 53.8153 20.4303C53.8597 20.5353 53.8887 20.7267 53.8789 20.8711C53.8576 21.1825 53.7453 20.8952 53.844 21.2013ZM59.5466 20.7146C59.5598 20.6106 59.5586 20.6466 59.546 20.5443L59.5071 20.3962C59.5051 20.3906 59.5016 20.3802 59.4971 20.3732C59.3292 20.4087 59.4698 20.3666 59.3816 20.467C59.3222 20.5345 59.4372 20.4766 59.3249 20.5228C59.3199 20.5137 59.3145 20.4896 59.313 20.4939L59.291 20.3769C59.3021 20.1716 59.4971 20.2516 59.6693 20.231C59.723 20.3273 59.7048 20.3055 59.7898 20.3618L59.8376 20.2136C60.0264 20.1588 59.8866 20.2361 60.071 20.2258C60.119 20.1438 60.0787 20.2143 60.0984 20.1292L60.1284 20.0088L60.2146 20.0121C60.3489 20.4078 60.0197 20.3101 59.929 20.4694C59.8779 20.5591 59.886 20.6697 59.8901 20.7774L59.9215 20.9145C60.0489 20.9133 59.9926 20.8727 60.1453 20.9097C60.092 21.3406 59.6698 20.8704 59.5497 20.8544C59.2623 20.8163 58.9252 20.9149 58.7914 21.1927C58.7847 21.1868 58.7745 21.1694 58.7715 21.1752L58.7097 21.0998C58.6901 21.0608 58.6875 21.0184 58.6814 20.9809C58.6565 20.8286 58.6342 20.8214 58.6129 20.7125C58.5869 20.5796 58.6474 20.2374 58.6936 20.145C58.8372 20.1691 58.7455 20.1961 58.7535 20.3711C58.9479 20.4825 58.8947 20.493 58.9806 20.3449C59.065 20.4579 59.0988 20.4758 59.1229 20.5623C59.0607 20.6458 59.0756 20.5984 58.9974 20.6704C58.9794 20.687 58.9704 20.6988 58.9607 20.711C59.0489 20.8742 59.0362 20.8011 59.1873 20.7694C59.3305 20.7393 59.477 20.7858 59.5466 20.7146ZM54.2119 20.406C54.0493 20.1585 54.1235 20.2818 54.2888 19.6566L54.3318 19.5306C54.4576 19.7293 54.3518 20.2201 54.2119 20.406ZM60.2653 19.6643C60.4456 19.654 60.7445 19.6845 60.845 19.7939C60.9082 19.8626 60.8928 20.0245 60.894 20.1329C60.8957 20.3095 60.9096 20.33 60.8171 20.4363C60.69 20.4041 60.5945 20.1914 60.4936 20.0783C60.3776 19.948 60.2222 19.9151 60.2653 19.6643ZM58.7386 19.7629L58.9645 19.7109L58.9534 19.9043C58.9181 19.8883 58.8822 19.8769 58.8432 19.8586C58.6472 19.7665 58.7916 19.8226 58.7386 19.7629ZM59.214 19.869C59.1134 19.55 59.4236 19.5994 59.7335 19.6371C59.8099 19.6465 59.8866 19.6359 59.9747 19.6437L59.9841 19.7628L59.8125 19.7934L59.7996 20.0204C59.6913 20.0285 59.6746 20.0511 59.6566 19.9436C59.6393 19.8409 59.6698 19.7661 59.6946 19.6761C59.5729 19.7073 59.5607 19.7215 59.4601 19.7849C59.2908 19.8917 59.3403 19.8802 59.214 19.869ZM50.0125 21.054C50.0148 20.474 50.0315 20.8765 50.3447 20.1641C50.4783 19.8602 50.3931 19.7387 50.9742 19.5581C51.4834 19.3251 52.1287 19.3097 52.6268 19.5785C52.6453 19.8153 52.3764 20.2243 52.2207 20.3904C52.0096 20.6154 51.683 20.4854 51.4643 20.8726L51.1693 21.4268C51.2658 21.3725 51.3467 21.2805 51.4593 21.2193C51.4593 21.2195 51.2612 21.6341 51.4048 21.7683C51.4296 21.7914 51.9378 21.8682 52.1094 21.6564C52.2705 21.4575 52.0656 21.3555 52.1695 21.1674C52.1791 21.1499 52.1985 21.12 52.2139 21.0929C52.266 21.001 52.2524 21.0084 52.3304 20.9451C52.3202 21.4261 52.3672 21.727 52.0582 22.0604C51.7475 22.3957 51.6424 22.2425 51.4903 22.3767C51.3718 22.4813 51.166 22.7598 51.1021 22.8836C51.0062 23.0696 51.147 23.0709 51.0604 23.2404C50.9219 23.2208 51.0177 23.1708 50.7393 23.0593C50.5985 23.003 50.5164 22.9747 50.359 22.9362C50.0599 22.8628 49.7807 22.8503 49.4397 22.8815C49.4644 22.7177 49.5163 22.5541 49.5618 22.3985C49.6054 22.2494 49.638 22.0887 49.6946 21.9293C49.8345 21.5359 49.9973 21.5039 50.0125 21.054ZM53.1097 19.6086C53.1777 19.5707 53.1691 19.5502 53.2414 19.5049C53.3721 19.6051 53.6053 19.7963 53.4709 19.9669C53.4006 19.9389 53.2084 19.7066 53.1097 19.6086ZM50.9228 19.3325C51.6657 19.0981 51.8661 19.2242 52.3204 19.1616C52.5032 19.1364 52.3209 19.095 52.592 19.1306C52.7058 19.1456 52.8212 19.1342 52.9274 19.168C52.9317 19.1694 53.2566 19.3218 53.139 19.4638C53.107 19.5023 53.0714 19.5172 53.0405 19.5353C52.938 19.4973 52.8135 19.3141 52.5239 19.2689L52.5186 19.299C52.5183 19.3034 52.5179 19.3191 52.518 19.3228C52.5184 19.3407 52.5267 19.3307 52.5239 19.3444C52.1768 19.3674 51.9802 19.1742 51.2703 19.3233C51.1786 19.3426 51.001 19.4001 50.9228 19.3325ZM59.1528 20.4813C58.9743 20.2623 58.9655 19.1548 59.1528 18.9677C59.4251 19.0462 59.0846 19.2838 59.1982 20.086C59.2204 20.2431 59.2434 20.3727 59.1528 20.4813ZM52.1315 19.0196C52.4006 18.6999 52.49 18.7193 52.6423 18.837C52.711 18.8902 52.7437 18.9258 52.7722 19.0444L52.1315 19.0196ZM59.2227 18.8099C59.2339 18.7296 59.2735 18.6396 59.3074 18.5756C59.3986 18.4037 59.5508 18.2811 59.625 18.0241C59.6974 18.3238 59.7439 18.6222 59.7428 18.9637C59.7411 19.4617 59.7273 19.5026 59.2849 19.5552C59.3174 19.3524 59.438 19.0744 59.377 18.8658L59.2227 18.8099ZM50.9393 19.1794C50.9729 19.062 51.1205 18.9125 51.2279 18.8724C51.3336 18.8331 51.3848 18.8799 51.4685 18.8204C51.5348 18.7733 51.522 18.7015 51.5772 18.6145L52.0278 18.6388L51.901 18.94C51.8641 19.0283 51.911 18.9972 51.8352 19.0347C51.4364 19.0342 51.2695 19.1232 50.9393 19.1794ZM50.5993 18.687C50.5981 18.1625 50.6193 17.6009 50.9816 18.1875C51.1216 18.4144 51.1273 18.6945 50.9475 18.9063L50.6823 19.1327C50.6308 18.9785 50.5997 18.8995 50.5993 18.687ZM59.1374 18.7618C59.0461 18.9884 59.0233 18.7706 59.0134 19.1155C59.0091 19.2651 59.0368 19.4922 58.9561 19.58C58.9021 19.6386 58.6563 19.6942 58.6104 19.6393C58.4793 19.4827 58.7424 18.4805 59.2892 18.413L59.1374 18.7618ZM59.7754 18.2093C59.7816 18.2155 59.7898 18.2232 59.7942 18.2278C60.1008 18.5523 60.288 18.952 60.2364 19.4365L59.8206 19.4439C59.8238 18.9644 59.8149 18.6817 59.7754 18.2093ZM52.9458 19.0631C52.9237 18.7426 53.186 18.587 53.4435 18.4142C53.5631 18.334 53.5888 18.291 53.673 18.2629C53.6261 18.486 53.4939 18.6364 53.4226 18.8555C53.3452 19.0937 53.2734 19.1487 53.0883 19.1048C53.0481 19.0954 53.0008 19.0873 52.9458 19.0631ZM53.1124 9.52551C53.2707 9.42965 53.6044 9.31598 53.7975 9.2338C54.4142 8.9714 55.3528 8.59196 55.9962 8.52889C56.0789 8.68289 56.1104 8.93906 56.1745 9.11729C56.2416 9.30366 56.3166 9.48258 56.3925 9.65285C56.5108 9.91858 56.7753 10.4883 56.7097 10.8404C56.471 10.9204 56.1923 10.988 55.9433 11.0677C55.6988 11.1459 55.4803 11.2273 55.2096 11.3219L53.7866 11.8767C53.6911 11.7058 53.5342 10.9333 53.4606 10.6763L53.1124 9.52551ZM57.2157 12.0455C56.4533 12.3227 55.5626 12.6019 54.5585 12.8444C54.5386 12.7659 54.5192 12.6872 54.5003 12.6084C54.4845 12.5428 54.4593 12.4462 54.439 12.3523C54.5282 12.3144 54.6184 12.2783 54.7053 12.2429C54.9675 12.1362 55.2314 12.0333 55.4956 11.932C55.9269 11.7666 56.3773 11.5886 56.8169 11.4486C56.835 11.4429 56.8671 11.4326 56.8946 11.4265C56.8997 11.4333 56.9044 11.44 56.908 11.4452C56.9731 11.539 57.0129 11.6549 57.0579 11.7594C57.1031 11.8646 57.1529 11.9593 57.2157 12.0455ZM40.0996 28.4389C41.2587 33.6682 43.5914 38.7511 46.6824 42.775C50.2674 47.4418 54.8836 50.7873 60.0368 52.4551C65.1905 50.7873 69.8061 47.4413 73.3907 42.775C76.4825 38.7507 78.8152 33.6679 79.9743 28.4389C77.0288 25.7858 77.8321 22.6839 78.4219 20.4071C78.9664 18.3056 79.4002 16.632 78.185 14.4365C76.0467 14.9265 73.8776 15.1749 71.7327 15.1749C66.0157 15.1749 61.745 13.4095 60.0368 12.5693C59.0822 13.0388 57.327 13.7973 54.9664 14.3752C54.903 14.1365 54.8382 13.8982 54.7738 13.6597C56.168 13.3207 57.346 12.9168 58.2668 12.5487L58.5272 12.6038L58.4696 12.4665C59.0663 12.2215 59.5439 11.9963 59.8892 11.8224L60.0368 11.7478L60.1847 11.8224C61.7411 12.6066 65.9828 14.4308 71.7327 14.4308C73.9079 14.4308 76.1096 14.1693 78.2768 13.6534L78.5144 13.5975L78.6451 13.8171C80.1804 16.4015 79.6514 18.4437 79.091 20.6059C78.5113 22.8433 77.7904 25.6283 80.5778 28.0069L80.7491 28.1527L80.6998 28.3813C79.5347 33.7989 77.13 39.079 73.9272 43.2478C70.2316 48.0591 65.4626 51.5004 60.1358 53.2L60.0368 53.2316L59.9381 53.2C54.6117 51.5008 49.8426 48.0591 46.1459 43.2478C42.9439 39.079 40.5388 33.7994 39.3737 28.3813L39.3244 28.1527L39.4956 28.0069C42.2831 25.6283 41.562 22.8433 40.982 20.6064C40.422 18.4437 39.8927 16.4015 41.4284 13.8171L41.559 13.5975L41.7966 13.6534C43.9635 14.1693 46.1656 14.4308 48.3408 14.4308C50.1973 14.4308 51.8962 14.2405 53.3985 13.9566C53.4582 14.1972 53.5184 14.4374 53.5801 14.6772C52.0259 14.9746 50.2655 15.1749 48.3408 15.1749C46.1963 15.1749 44.0264 14.9265 41.8884 14.4365C40.6736 16.632 41.1066 18.3056 41.6515 20.4071C42.2415 22.6839 43.045 25.7858 40.0996 28.4389ZM22.5191 62.9996C21.6696 62.644 21.0157 62.4609 20.0199 62.654C18.9377 62.8571 18.07 63.5089 17.4064 64.6153C17.2145 64.9417 17.033 65.269 16.8619 65.5972L16.286 66.7018L16.8195 68.3043C16.9651 68.7416 17.1209 69.18 17.2868 69.6194C17.8619 71.1116 18.6643 72.0897 19.7036 72.5633C20.0357 72.7173 20.3432 72.8171 20.6248 72.8589C21.037 72.9102 21.5476 72.8451 22.1553 72.6598C22.1671 72.7345 22.1648 72.8257 22.143 72.9271C22.1255 73.0313 22.0558 73.1555 21.9454 73.3044C21.8308 73.4505 21.6692 73.6027 21.4649 73.7638C21.2593 73.9212 20.9956 74.051 20.6725 74.1495C20.1152 74.3195 19.4794 74.3322 18.7622 74.1885C17.4574 73.9276 16.394 73.1854 15.5733 71.9658C15.1734 71.3714 14.8274 70.7342 14.5337 70.0485C14.3131 70.4472 14.0688 70.8576 13.8015 71.2788C13.4409 71.8524 13.0178 72.3656 12.5293 72.8241C11.6302 73.6679 10.5094 74.0838 9.16825 74.0692C8.56835 74.0628 6.67684 73.678 5.79688 72.2477C6.64649 72.6033 7.30025 72.7864 8.29603 72.5933C9.37831 72.3902 10.246 71.7384 10.9096 70.632C11.1015 70.3056 11.283 69.9783 11.4541 69.6501L12.7997 67.0691C12.8055 67.0581 12.8114 67.0474 12.8172 67.0364L12.8174 67.0365L13.1869 66.3279L12.9784 65.7017L12.9782 65.7019C12.9733 65.6872 12.9681 65.6729 12.9632 65.6582L11.8183 62.2193C11.6728 61.782 11.517 61.3436 11.3512 60.9041C10.776 59.412 9.9736 58.4338 8.93425 57.9602C8.60216 57.8061 8.29467 57.7064 8.01304 57.6647C7.60087 57.6133 7.09026 57.6784 6.48255 57.8637C6.47081 57.789 6.47302 57.6978 6.49484 57.5964C6.51238 57.4922 6.58202 57.3681 6.69249 57.2191C6.80704 57.0731 6.96864 56.9208 7.173 56.7597C7.37854 56.6023 7.64223 56.4725 7.96538 56.374C8.52266 56.204 9.15846 56.1913 9.87564 56.3349C11.1805 56.5959 12.2439 57.3381 13.0646 58.5577C13.5106 59.2205 13.8895 59.9367 14.2037 60.7138C14.5208 61.4899 14.7977 62.2332 15.0329 62.9396L15.1035 63.1517C15.3152 62.8947 15.5428 62.6521 15.7867 62.4231C16.6858 61.5794 17.8067 61.1635 19.1477 61.1781C20.0163 61.1873 21.8756 61.7589 22.5191 62.9996ZM34.1179 59.3342C34.6501 59.3342 35.2255 59.4293 35.8353 59.6237C36.2985 59.7684 36.7098 59.965 37.0752 60.2135C37.429 60.4706 37.7109 60.8033 37.9238 61.2094C38.1338 61.6177 38.2776 62.0476 38.3553 62.5034C38.4473 63.1234 38.4905 63.7024 38.4905 64.2382V64.3333L38.4992 64.8971V67.2444C38.8262 67.3549 39.1426 67.4089 39.4481 67.4089C39.7809 67.4089 40.1223 67.3448 40.4764 67.2135C41.0482 66.9924 41.4663 66.6624 41.7223 66.2234C41.9213 65.8853 42.043 65.5359 42.0892 65.1753V64.1431C42.0892 63.8903 42.1496 63.6852 42.2676 63.5296C42.3856 63.3741 42.538 63.2444 42.7221 63.1407C42.9062 63.0371 43.1134 62.9377 43.3377 62.8448C43.5909 62.7454 43.8354 62.6244 44.0741 62.4883C44.3129 62.35 44.5229 62.1686 44.7042 61.9418C44.7042 66.9624 44.7099 69.6996 44.7272 70.1554C44.7387 70.5658 44.8135 71.013 44.9458 71.497C45.081 71.983 45.3284 72.4021 45.6879 72.7564C46.0475 73.1107 46.5711 73.2987 47.2558 73.3202C47.8023 73.3202 48.2569 73.2317 48.6251 73.0524C48.9933 72.8731 49.2695 72.6441 49.4564 72.3676C49.6406 72.0911 49.7355 71.808 49.7355 71.5163C49.7355 71.1664 49.5945 70.8488 49.3154 70.5637C49.0393 70.2785 48.6164 70.1035 48.0497 70.0366C47.9577 70.0279 47.8714 70.0236 47.788 70.0236C47.5291 70.0236 47.2759 70.0625 47.0285 70.1403C46.7812 70.218 46.5567 70.3368 46.3553 70.4989C46.2259 70.2742 46.1597 70.0646 46.1597 69.8702C46.1597 69.6002 46.2604 69.3647 46.4647 69.1594C46.666 68.9542 46.9335 68.7944 47.2644 68.682C47.5952 68.5675 47.949 68.5114 48.3259 68.5114C48.7027 68.5114 49.0767 68.5762 49.4478 68.7058C49.8189 68.8376 50.144 69.0471 50.4259 69.3366C50.7049 69.6261 50.9092 70.0019 51.0329 70.4665C51.0645 70.6177 51.0817 70.7689 51.0817 70.9223C51.0817 71.188 51.0415 71.4429 50.9552 71.6871C50.6704 72.4648 50.1065 73.0761 49.2695 73.5233C48.4323 73.9705 47.5204 74.193 46.5309 74.193C45.7052 74.193 44.9458 74.0354 44.2554 73.7199C43.7572 73.4749 43.3452 73.1824 43.0197 72.8416C42.3321 72.122 42.0892 70.7694 42.0892 69.8151V68.0401C40.7447 68.6765 39.8699 69.0138 38.4992 69.4556V70.4859C38.4992 70.8099 38.5858 71.1209 38.7581 71.4192C38.8077 71.5051 38.866 71.5851 38.9338 71.6586L39.7076 72.6046C39.5496 72.9355 38.9674 73.8986 38.8616 74.1628C38.0187 73.7243 37.3859 73.3008 36.963 72.8925C36.5372 72.4863 36.2525 72.0436 36.1115 71.5682C35.9677 71.0908 35.8929 70.5248 35.8871 69.8702C35.8871 69.6261 35.8986 69.3798 35.9216 69.1314V64.8971L35.9044 64.0869C35.9044 63.5339 35.8842 63.0068 35.844 62.5034C35.7778 61.7625 35.5592 61.1964 35.1881 60.8076C34.9953 60.6131 34.7767 60.4511 34.5293 60.3172C34.2819 60.1854 34.0403 60.086 33.8044 60.0191C33.5685 59.9542 33.3183 59.9154 33.0564 59.9002C32.7918 59.8851 32.5732 59.8765 32.3977 59.8765C32.4092 59.8354 32.438 59.7879 32.4869 59.7382C32.5358 59.6885 32.6307 59.6323 32.7745 59.574C32.9155 59.5157 33.0996 59.4595 33.324 59.4098C33.5512 59.358 33.813 59.3342 34.1179 59.3342ZM31.1314 74.193C30.4874 74.193 29.9816 74.0381 29.6171 73.7311C29.2527 73.4211 28.995 73.0009 28.8474 72.4644C28.6023 72.983 28.2756 73.4003 27.8671 73.7162C27.4587 74.0351 26.934 74.193 26.2899 74.193C25.8407 74.193 25.4166 74.1126 25.0144 73.9516C24.6123 73.7937 24.2479 73.5523 23.9242 73.2334C23.5629 72.8667 23.2896 72.4346 23.1105 71.9399C22.9283 71.4451 22.8372 70.9415 22.8372 70.4288C22.8372 70.1218 22.8717 69.8149 22.9377 69.5139C23.1608 68.6287 23.5661 67.9104 24.1536 67.356C24.7443 66.8017 25.4386 66.3189 26.2429 65.9076C26.6544 65.69 27.0911 65.4755 27.5498 65.2609C28.3415 64.9062 29.0893 64.5068 29.793 64.0687C30.4937 63.6306 30.9995 63.0941 31.3074 62.4653V71.0666C31.3074 71.3647 31.3293 71.6091 31.3796 71.7998C31.4299 71.9935 31.5273 72.1336 31.6781 72.229C31.8289 72.3214 32.0488 72.3691 32.3379 72.3691C32.63 72.3691 32.8814 72.2856 33.0825 72.1187C33.2835 71.9518 33.4406 71.7461 33.5506 71.4958C33.6605 71.2454 33.7265 70.9832 33.7453 70.709H34.5748C34.4742 71.4779 34.292 72.0889 34.0218 72.5419C33.7988 72.9323 33.5286 73.2602 33.2113 73.5284C32.696 73.9725 32.0017 74.193 31.1314 74.193ZM27.0723 72.3929C27.2388 72.3929 27.4179 72.3512 27.6158 72.2617C27.9205 72.1128 28.1373 71.8862 28.263 71.5912C28.3887 71.2931 28.4515 70.9862 28.4515 70.6643V66.0387L27.9551 66.307C27.2074 66.7153 26.6701 67.1504 26.3434 67.6094C25.9224 68.2084 25.7087 69.031 25.7087 70.0801C25.7087 70.9415 25.9067 71.5972 26.2994 72.0442C26.5005 72.2767 26.7581 72.3929 27.0723 72.3929ZM59.5181 74.193C57.8607 74.193 56.5687 73.6003 55.645 72.418C54.7243 71.2326 54.2639 69.4784 54.2639 67.1524V65.7288C54.2639 64.9723 54.3827 64.323 54.6203 63.781C54.8579 63.2359 55.1698 62.7684 55.5559 62.3782C55.942 61.991 56.3608 61.6515 56.8123 61.3686C57.2637 61.0827 57.7122 60.8235 58.1518 60.5912C58.6865 60.3172 59.1468 60.0403 59.5359 59.7603C59.925 59.4833 60.1745 59.1587 60.2844 58.7924C62.0487 60.0134 62.9308 61.1541 62.9308 62.2144C62.9308 62.5926 62.8269 62.9649 62.6219 63.3312C62.414 63.6976 62.1437 63.9776 61.8021 64.1711C61.4636 64.3677 61.0834 64.466 60.6586 64.466V63.8614C60.6586 63.4146 60.5695 62.9858 60.3943 62.5748C60.2161 62.1667 59.928 61.86 59.527 61.6544C59.2835 61.5323 59.0459 61.4728 58.8141 61.4728C58.5766 61.4728 58.336 61.5323 58.0924 61.6544C57.6974 61.86 57.4093 62.1667 57.2311 62.5748C57.0499 62.9858 56.9608 63.4146 56.9608 63.8614V67.0214C56.9608 67.6259 57.0143 68.2752 57.1212 68.9721C57.2281 69.6661 57.4301 70.3034 57.7211 70.8871C58.0152 71.4679 58.434 71.8908 58.9805 72.1529C59.426 72.3376 59.925 72.4299 60.4745 72.4299C60.8814 72.4299 61.2853 72.3822 61.6863 72.287C62.0843 72.1916 62.4319 72.0517 62.7199 71.8729C63.308 71.5066 63.7595 71.0122 64.0773 70.3898L64.5644 70.5893C64.3624 71.3875 64.012 72.0517 63.5129 72.5877C63.014 73.1239 62.417 73.5259 61.7249 73.791C61.0299 74.059 60.2963 74.193 59.5181 74.193ZM72.4056 74.193C71.7967 74.193 71.3185 74.0382 70.974 73.7314C70.6295 73.4217 70.3859 73.0017 70.2463 72.4656C70.0146 72.9839 69.7057 73.4008 69.3196 73.7165C68.9335 74.0352 68.4375 74.193 67.8286 74.193C67.4038 74.193 67.0029 74.1126 66.6227 73.9518C66.2425 73.7939 65.898 73.5527 65.592 73.234C65.2505 72.8677 64.9921 72.4358 64.8228 71.9415C64.6505 71.4471 64.5644 70.9437 64.5644 70.4315C64.5644 70.1247 64.5971 69.818 64.6594 69.5171C64.8703 68.6326 65.2534 67.9148 65.8088 67.3609C66.3673 66.8069 67.0237 66.3244 67.784 65.9134C68.1731 65.696 68.586 65.4816 69.0196 65.2671C69.7681 64.9127 70.475 64.5136 71.1403 64.0758C71.8026 63.638 72.2809 63.1019 72.572 62.4735V71.0688C72.572 71.3667 72.5928 71.6109 72.6402 71.8015C72.6878 71.9951 72.7799 72.1351 72.9224 72.2304C73.065 72.3227 73.2729 72.3703 73.5462 72.3703C73.8224 72.3703 74.06 72.287 74.2501 72.1202C74.4402 71.9534 74.5887 71.7479 74.6926 71.4977C74.7966 71.2475 74.859 70.9854 74.8768 70.7114H75.6609C75.5658 71.4798 75.3936 72.0904 75.1381 72.5431C74.9273 72.9332 74.6718 73.2608 74.3719 73.5289C73.8847 73.9727 73.2283 74.193 72.4056 74.193ZM68.5682 72.3942C68.7256 72.3942 68.8949 72.3525 69.082 72.2631C69.3701 72.1142 69.5751 71.8879 69.6939 71.593C69.8126 71.2952 69.8721 70.9884 69.8721 70.6667V66.0445L69.4028 66.3125C68.6959 66.7206 68.188 67.1554 67.8791 67.614C67.4811 68.2127 67.2791 69.0347 67.2791 70.083C67.2791 70.9437 67.4662 71.5989 67.8375 72.0457C68.0276 72.278 68.2711 72.3942 68.5682 72.3942ZM75.381 79.9961C75.0394 79.9961 74.7447 79.9675 74.496 79.9088C74.2478 79.8503 74.0459 79.7861 73.8935 79.7193C73.7385 79.6514 73.6336 79.5864 73.583 79.5299C73.5311 79.4717 73.4991 79.4176 73.4867 79.3702C73.6824 79.3702 73.9184 79.3603 74.201 79.3428C74.4835 79.3254 74.7509 79.2816 75.0053 79.2057C75.2602 79.1295 75.5212 79.0146 75.7878 78.8616C76.0554 78.7079 76.2928 78.5218 76.4989 78.2956C76.9015 77.8535 77.1408 77.1989 77.207 76.3382C77.3961 73.8797 77.2908 72.8545 77.2908 70.3855C77.2908 70.0937 77.3529 69.8569 77.4802 69.6774C77.6075 69.4978 77.7721 69.3482 77.9739 69.2285C78.1727 69.1089 78.3932 68.9966 78.6354 68.8894C78.9087 68.7722 79.1757 68.6351 79.4335 68.4755C79.6912 68.3184 79.9179 68.1065 80.1104 67.8447V73.4973C80.6259 73.4923 81.1104 73.4574 81.5668 73.3925C82.0202 73.3252 82.4301 73.1806 82.7935 72.9562C83.3648 72.5922 83.6505 72.1209 83.6505 71.5474C83.6505 70.6572 83.0388 69.6973 81.8215 68.67C80.924 67.9095 79.8651 67.1989 78.6447 66.5356C78.1292 66.2638 77.6541 65.9646 77.2162 65.638C76.592 65.1742 76.2815 64.6855 76.2815 64.1694C76.2815 63.8327 76.3933 63.526 76.6169 63.2443C76.8405 62.965 77.12 62.7057 77.4492 62.4639C77.7783 62.222 78.1106 61.9976 78.446 61.7881L78.9459 61.4665C78.7565 61.646 78.5795 61.843 78.4087 62.0549C78.2379 62.2669 78.1541 62.4938 78.1541 62.7382C78.1541 63.1022 78.4398 63.4837 79.0081 63.8777C79.4459 64.1843 79.98 64.516 80.6104 64.87C81.1383 65.1667 81.6911 65.4984 82.2655 65.8599C82.8432 66.2239 83.4114 66.6304 83.9673 67.0842C84.3927 67.4308 84.784 67.7973 85.1411 68.1863C85.9236 69.054 86.3149 69.9018 86.3149 70.7296C86.3149 70.939 86.2901 71.1484 86.2435 71.3579C86.0914 71.9763 85.6566 72.5199 84.9424 72.9861C84.0977 73.5372 83.0295 73.9212 81.7377 74.1406C81.1756 74.2129 80.6321 74.2503 80.1104 74.2503C80.1104 75.8563 79.6022 78.0551 78.536 78.9813C78.1678 79.3011 77.6983 79.4995 77.2007 79.6695C76.5524 79.8909 75.943 79.9961 75.381 79.9961ZM95.1979 74.193C94.589 74.193 94.1108 74.0382 93.7663 73.7314C93.4217 73.4217 93.1782 73.0017 93.0386 72.4656C92.8069 72.9839 92.498 73.4008 92.1119 73.7165C91.7257 74.0352 91.2297 74.193 90.6209 74.193C90.1961 74.193 89.7951 74.1126 89.415 73.9518C89.0348 73.7939 88.6903 73.5527 88.3843 73.234C88.0428 72.8677 87.7844 72.4358 87.615 71.9415C87.4428 71.4471 87.3567 70.9437 87.3567 70.4315C87.3567 70.1247 87.3893 69.818 87.4517 69.5171C87.6626 68.6326 88.0458 67.9148 88.6012 67.3609C89.1595 66.8069 89.8159 66.3244 90.5763 65.9134C90.9654 65.696 91.3783 65.4816 91.8119 65.2671C92.5604 64.9127 93.2672 64.5136 93.9326 64.0758C94.5949 63.638 95.0731 63.1019 95.3642 62.4735V71.0688C95.3642 71.3667 95.385 71.6109 95.4325 71.8015C95.48 71.9951 95.5721 72.1351 95.7147 72.2304C95.8572 72.3227 96.0651 72.3703 96.3384 72.3703C96.6147 72.3703 96.8522 72.287 97.0423 72.1202C97.2324 71.9534 97.3809 71.7479 97.4849 71.4977C97.5888 71.2475 97.6512 70.9854 97.669 70.7114H98.4532C98.3581 71.4798 98.1859 72.0904 97.9304 72.5431C97.7195 72.9332 97.4641 73.2608 97.1641 73.5289C96.677 73.9727 96.0206 74.193 95.1979 74.193ZM91.3604 72.3942C91.5179 72.3942 91.6871 72.3525 91.8743 72.2631C92.1624 72.1142 92.3673 71.8879 92.4861 71.593C92.6049 71.2952 92.6643 70.9884 92.6643 70.6667V66.0445L92.195 66.3125C91.4882 66.7206 90.9802 67.1554 90.6714 67.614C90.2733 68.2127 90.0714 69.0347 90.0714 70.083C90.0714 70.9437 90.2585 71.5989 90.6298 72.0457C90.8198 72.278 91.0634 72.3942 91.3604 72.3942ZM98.4442 59.6795C98.9386 59.6795 99.473 59.7729 100.04 59.9637C100.47 60.1058 100.852 60.2989 101.191 60.5428C101.52 60.7952 101.782 61.1218 101.98 61.5206C102.175 61.9215 102.308 62.3436 102.38 62.7911C102.466 63.3999 102.506 63.9683 102.506 64.4944V64.5877L102.514 65.1413V70.6286C102.514 70.9467 102.594 71.2521 102.755 71.5449C102.912 71.8354 103.171 72.0539 103.532 72.2003C103.757 72.2872 103.973 72.3297 104.182 72.3297C104.39 72.3297 104.604 72.2872 104.826 72.2003C105.184 72.0539 105.446 71.8354 105.606 71.5449C105.769 71.2521 105.849 70.9467 105.849 70.6286V64.401C105.849 64.1529 105.905 63.9514 106.015 63.7986C106.124 63.6459 106.266 63.5187 106.437 63.4169C106.608 63.3151 106.8 63.2175 107.009 63.1262C107.244 63.0287 107.471 62.9099 107.693 62.7763C107.915 62.6405 108.11 62.4624 108.278 62.2396C108.278 67.169 108.284 69.8565 108.3 70.304C108.31 70.707 108.38 71.1461 108.503 71.6212C108.628 72.0984 108.858 72.51 109.192 72.8578C109.526 73.2057 110.013 73.3902 110.649 73.4114C111.156 73.4114 111.578 73.3244 111.921 73.1484C112.263 72.9723 112.519 72.7475 112.693 72.476C112.864 72.2045 112.952 71.9266 112.952 71.6403C112.952 71.2967 112.821 70.9849 112.562 70.7049C112.305 70.4249 111.913 70.2531 111.386 70.1874C111.301 70.1789 111.22 70.1746 111.143 70.1746C110.902 70.1746 110.667 70.2128 110.437 70.2892C110.208 70.3655 109.999 70.4822 109.812 70.6413C109.692 70.4207 109.63 70.2149 109.63 70.024C109.63 69.7589 109.724 69.5277 109.914 69.3262C110.101 69.1247 110.349 68.9678 110.657 68.8574C110.964 68.745 111.293 68.6899 111.643 68.6899C111.993 68.6899 112.34 68.7535 112.685 68.8808C113.03 69.0101 113.331 69.2159 113.593 69.5001C113.853 69.7843 114.042 70.1534 114.157 70.6095C114.187 70.7579 114.203 70.9064 114.203 71.057C114.203 71.3179 114.165 71.5682 114.085 71.8079C113.821 72.5715 113.297 73.1717 112.519 73.6108C111.741 74.0499 110.894 74.2683 109.975 74.2683C109.208 74.2683 108.503 74.1135 107.861 73.8038C107.11 73.4135 106.571 72.9002 106.242 72.2618C105.745 72.5269 105.256 72.7581 104.772 72.9554C104.291 73.1526 103.874 73.3499 103.524 73.5493C103.174 73.7465 102.95 73.9777 102.851 74.2386C102.068 73.808 101.48 73.3923 101.087 72.9914C100.692 72.5927 100.427 72.1578 100.296 71.6912C100.162 71.2224 100.093 70.6667 100.088 70.024C100.088 69.7843 100.098 69.5426 100.12 69.2986V65.1413L100.104 64.3459C100.104 63.8029 100.085 63.2854 100.048 62.7911C99.9861 62.0636 99.783 61.5079 99.4383 61.1261C99.2592 60.9352 99.0561 60.7761 98.8263 60.6446C98.5965 60.5152 98.372 60.4177 98.1529 60.3519C97.9338 60.2882 97.7013 60.25 97.4581 60.2352C97.2122 60.2204 97.0092 60.2119 96.8461 60.2119C96.8569 60.1716 96.8836 60.1249 96.929 60.0762C96.9744 60.0274 97.0626 59.9722 97.1962 59.9149C97.3272 59.8577 97.4982 59.8026 97.7066 59.7537C97.9177 59.7029 98.1609 59.6795 98.4442 59.6795Z" fill="#A67C36"/>
</g>
</svg>
